<svg width="150" height="48" viewBox="0 0 150 48" fill="none" xmlns="http://www.w3.org/2000/svg">
<path d="M53.8022 46.7821L46.7006 41.0464C46.4608 40.8486 46.1104 40.8845 45.9259 41.1183C45.723 41.352 45.7599 41.6937 45.9997 41.8735L53.1013 47.6093C53.3411 47.807 53.6915 47.7711 53.876 47.5373C54.0604 47.3216 54.042 46.9799 53.8022 46.7821Z" fill="url(#paint0_linear)"/>
<path d="M53.2798 42.7861L49.8452 39.7431C49.6138 39.5326 49.2757 39.5709 49.0978 39.8197C48.902 40.0685 48.9376 40.4321 49.169 40.6235L52.6036 43.6665C52.8349 43.877 53.173 43.8388 53.351 43.59C53.5289 43.3412 53.5111 42.9775 53.2798 42.7861Z" fill="url(#paint1_linear)"/>
<path d="M45.6702 43.9249L49.2984 46.9851C49.5428 47.1968 49.5616 47.5625 49.3736 47.7935C49.1668 48.0437 48.8096 48.0629 48.584 47.8705L44.937 44.8295C44.6926 44.6178 44.6738 44.2521 44.8618 44.0212C45.0686 43.771 45.4258 43.7325 45.6702 43.9249Z" fill="url(#paint2_linear)"/>
<path d="M30.7564 30.5286L37.4535 46.8696C37.9564 48.0762 39.7035 48.1024 40.0476 46.9221C40.8152 44.3516 41.6094 41.8073 42.377 39.2368C42.4829 38.9221 42.6947 38.6598 42.9858 38.5024C45.3682 37.2696 47.777 36.0368 50.1594 34.804C51.2711 34.227 50.927 32.5221 49.63 32.286C43.8064 31.1319 38.0094 29.9778 32.1858 28.8237C31.1799 28.5614 30.3594 29.5319 30.7564 30.5286Z" fill="url(#paint3_linear)"/>
<path d="M30.5975 35.1713C28.7181 36.3254 26.574 37.0861 24.2181 37.2959C16.1446 38.0566 8.97105 32.1549 8.22987 24.1549C7.46222 16.1549 13.4181 9.04672 21.4916 8.3123C29.5652 7.55164 36.7387 13.4533 37.4799 21.4533C37.6916 23.6566 37.4005 25.7811 36.6858 27.7221L44.6534 29.3221C45.5269 26.5418 45.871 23.5779 45.5799 20.509C44.3887 8.07623 33.271 -1.07787 20.724 0.102461C8.15046 1.25656 -1.08778 12.2992 0.103397 24.732C1.29457 37.1648 12.4122 46.3189 24.9593 45.1385C28.0828 44.85 31.021 43.932 33.6152 42.568L30.5975 35.1713Z" fill="url(#paint4_linear)"/>
<path d="M69.34 31.24C68.4733 31.24 67.6867 31.1 66.98 30.82C66.2733 30.54 65.6867 30.1667 65.22 29.7C64.7667 29.22 64.38 28.6667 64.06 28.04C63.7533 27.4133 63.5333 26.7667 63.4 26.1C63.2667 25.42 63.2 24.72 63.2 24C63.2 23.28 63.2667 22.5867 63.4 21.92C63.5333 21.24 63.7533 20.5867 64.06 19.96C64.38 19.3333 64.7667 18.7867 65.22 18.32C65.6867 17.84 66.2733 17.46 66.98 17.18C67.6867 16.9 68.4733 16.76 69.34 16.76C70.42 16.76 71.3667 16.9733 72.18 17.4C73.0067 17.8133 73.6467 18.38 74.1 19.1C74.5667 19.8067 74.9133 20.5733 75.14 21.4C75.3667 22.2267 75.48 23.0933 75.48 24C75.48 26.4933 74.7733 28.42 73.36 29.78L74.3 31.16L72.5 32.36L71.5 30.9C70.8467 31.1267 70.1267 31.24 69.34 31.24ZM69.34 28.94C69.5933 28.94 69.8533 28.9067 70.12 28.84L69.08 27.28L70.92 26.08L71.94 27.62C72.6467 26.7267 73 25.52 73 24C73 23.3867 72.9333 22.8067 72.8 22.26C72.6667 21.7 72.46 21.1733 72.18 20.68C71.9133 20.1867 71.5333 19.7933 71.04 19.5C70.56 19.2067 69.9933 19.06 69.34 19.06C68.4867 19.06 67.7733 19.3333 67.2 19.88C66.6267 20.4133 66.2267 21.0333 66 21.74C65.7867 22.4467 65.68 23.2 65.68 24C65.68 24.6 65.7467 25.18 65.88 25.74C66.0133 26.3 66.2133 26.8267 66.48 27.32C66.76 27.8133 67.14 28.2067 67.62 28.5C68.1133 28.7933 68.6867 28.94 69.34 28.94ZM84.4075 31V30.02C83.7675 30.8333 82.8742 31.24 81.7275 31.24C80.6608 31.24 79.7875 30.9067 79.1075 30.24C78.4275 29.56 78.0875 28.4933 78.0875 27.04V20.78H80.4275V26.62C80.4275 28.2067 81.0675 29 82.3475 29C83.7208 29 84.4075 28.22 84.4075 26.66V20.78H86.7475V31H84.4075ZM91.93 18.98C91.6633 19.2467 91.3367 19.38 90.95 19.38C90.5633 19.38 90.23 19.2467 89.95 18.98C89.6833 18.7 89.55 18.3667 89.55 17.98C89.55 17.5933 89.6833 17.2667 89.95 17C90.23 16.7333 90.5633 16.6 90.95 16.6C91.3367 16.6 91.6633 16.7333 91.93 17C92.1967 17.2667 92.33 17.5933 92.33 17.98C92.33 18.3667 92.1967 18.7 91.93 18.98ZM89.77 31V20.78H92.11V31H89.77ZM99.1811 31.24C97.7811 31.24 96.6678 30.7667 95.8411 29.82C95.0278 28.8733 94.6211 27.5667 94.6211 25.9C94.6211 24.2333 95.0278 22.9267 95.8411 21.98C96.6678 21.02 97.7811 20.54 99.1811 20.54C101.288 20.54 102.641 21.48 103.241 23.36L101.021 24.1C100.688 23.22 100.101 22.78 99.2611 22.78C98.5544 22.78 98.0011 23.06 97.6011 23.62C97.2011 24.18 97.0011 24.94 97.0011 25.9C97.0011 26.8467 97.1944 27.6 97.5811 28.16C97.9811 28.7067 98.5144 28.98 99.1811 28.98C100.128 28.98 100.748 28.4867 101.041 27.5L103.281 28.18C102.694 30.22 101.328 31.24 99.1811 31.24ZM114.745 31H112.185L109.265 25.36L108.125 26.48V31H105.785V17.66L108.125 16.56V23.74L111.005 20.78H113.845L110.945 23.68L114.745 31ZM117.038 31V17.66L119.378 16.56V31H117.038ZM124.664 18.98C124.398 19.2467 124.071 19.38 123.684 19.38C123.298 19.38 122.964 19.2467 122.684 18.98C122.418 18.7 122.284 18.3667 122.284 17.98C122.284 17.5933 122.418 17.2667 122.684 17C122.964 16.7333 123.298 16.6 123.684 16.6C124.071 16.6 124.398 16.7333 124.664 17C124.931 17.2667 125.064 17.5933 125.064 17.98C125.064 18.3667 124.931 18.7 124.664 18.98ZM122.504 31V20.78H124.844V31H122.504ZM134.175 31V25.14C134.175 23.5533 133.542 22.76 132.275 22.76C130.889 22.76 130.195 23.54 130.195 25.1V31H127.855V20.78H130.195V21.74C130.862 20.94 131.762 20.54 132.895 20.54C133.962 20.54 134.829 20.8733 135.495 21.54C136.175 22.2067 136.515 23.2667 136.515 24.72V31H134.175ZM148.378 31H145.818L142.898 25.36L141.758 26.48V31H139.418V17.66L141.758 16.56V23.74L144.638 20.78H147.478L144.578 23.68L148.378 31Z" fill="url(#paint5_linear)"/>
<defs>
<linearGradient id="paint0_linear" x1="49.8971" y1="40.918" x2="49.8971" y2="47.7376" gradientUnits="userSpaceOnUse">
<stop stop-color="#0A28BC"/>
<stop offset="1" stop-color="#ABB9FF"/>
</linearGradient>
<linearGradient id="paint1_linear" x1="51.2207" y1="39.6064" x2="51.2207" y2="43.8032" gradientUnits="userSpaceOnUse">
<stop stop-color="#0A28BC"/>
<stop offset="1" stop-color="#ABB9FF"/>
</linearGradient>
<linearGradient id="paint2_linear" x1="47.1177" y1="43.8032" x2="47.1177" y2="47.9999" gradientUnits="userSpaceOnUse">
<stop stop-color="#0A28BC"/>
<stop offset="1" stop-color="#ABB9FF"/>
</linearGradient>
<linearGradient id="paint3_linear" x1="40.7408" y1="28.7803" x2="40.7408" y2="47.7912" gradientUnits="userSpaceOnUse">
<stop stop-color="#0A28BC"/>
<stop offset="1" stop-color="#ABB9FF"/>
</linearGradient>
<linearGradient id="paint4_linear" x1="22.8406" y1="0" x2="22.8406" y2="45.241" gradientUnits="userSpaceOnUse">
<stop stop-color="#0A28BC"/>
<stop offset="1" stop-color="#ABB9FF"/>
</linearGradient>
<linearGradient id="paint5_linear" x1="106" y1="8" x2="106" y2="40" gradientUnits="userSpaceOnUse">
<stop stop-color="#0A28BC"/>
<stop offset="1" stop-color="#ABB9FF"/>
</linearGradient>
</defs>
</svg>
