<svg width="25" height="24" viewBox="0 0 25 24" fill="none" xmlns="http://www.w3.org/2000/svg">
<path d="M19.0593 11H13.0406V5C13.0406 4.73478 12.9349 4.48043 12.7468 4.29289C12.5586 4.10536 12.3035 4 12.0375 4C11.7714 4 11.5163 4.10536 11.3281 4.29289C11.14 4.48043 11.0343 4.73478 11.0343 5V11H5.01558C4.74953 11 4.49438 11.1054 4.30626 11.2929C4.11814 11.4804 4.01245 11.7348 4.01245 12C4.01245 12.2652 4.11814 12.5196 4.30626 12.7071C4.49438 12.8946 4.74953 13 5.01558 13H11.0343V19C11.0343 19.2652 11.14 19.5196 11.3281 19.7071C11.5163 19.8946 11.7714 20 12.0375 20C12.3035 20 12.5586 19.8946 12.7468 19.7071C12.9349 19.5196 13.0406 19.2652 13.0406 19V13H19.0593C19.3254 13 19.5805 12.8946 19.7686 12.7071C19.9568 12.5196 20.0625 12.2652 20.0625 12C20.0625 11.7348 19.9568 11.4804 19.7686 11.2929C19.5805 11.1054 19.3254 11 19.0593 11Z" fill="#A3A3A3"/>
</svg>
