<svg width="57" height="46" viewBox="0 0 57 46" fill="none" xmlns="http://www.w3.org/2000/svg">
<path d="M20.7944 3.76758H36.2064V31.4603H20.7944V3.76758Z" fill="#FF5F00"/>
<path d="M10.3732 45.3989V42.4634C10.3732 41.3379 9.68809 40.6042 8.51374 40.6042C7.92669 40.6042 7.29059 40.7999 6.85019 41.4359C6.50785 40.8977 6.01863 40.6042 5.2847 40.6042C4.79526 40.6042 4.30627 40.7508 3.91467 41.2891V40.702H2.88721V45.3989H3.91467V42.8058C3.91467 41.9742 4.35508 41.5826 5.0402 41.5826C5.72488 41.5826 6.06767 42.023 6.06767 42.8058V45.3989H7.09513V42.8058C7.09513 41.9742 7.58412 41.5826 8.22022 41.5826C8.90534 41.5826 9.24768 42.023 9.24768 42.8058V45.3989H10.3732ZM25.5893 40.702H23.9259V39.2832H22.8985V40.702H21.9689V41.6314H22.8982V43.7844C22.8982 44.8609 23.3387 45.4968 24.513 45.4968C24.9534 45.4968 25.4424 45.3501 25.7852 45.1544L25.4914 44.2736C25.1979 44.4693 24.8556 44.5183 24.6108 44.5183C24.1216 44.5183 23.9259 44.2248 23.9259 43.7354V41.6314H25.5893V40.702ZM34.2984 40.6039C33.7114 40.6039 33.32 40.8977 33.0753 41.2891V40.702H32.0478V45.3989H33.0753V42.7569C33.0753 41.9742 33.4176 41.5338 34.0537 41.5338C34.2494 41.5338 34.4941 41.5828 34.6898 41.6316L34.9833 40.6532C34.7876 40.6042 34.4941 40.6042 34.2984 40.6042V40.6039ZM21.1371 41.0934C20.6476 40.7508 19.9627 40.6042 19.2288 40.6042C18.0547 40.6042 17.2719 41.1912 17.2719 42.1209C17.2719 42.9038 17.859 43.344 18.8865 43.4909L19.3757 43.5399C19.9139 43.6375 20.2075 43.7844 20.2075 44.0291C20.2075 44.3715 19.8161 44.6162 19.131 44.6162C18.4461 44.6162 17.9078 44.3715 17.5652 44.127L17.076 44.9097C17.6143 45.3011 18.3482 45.4968 19.0819 45.4968C20.4519 45.4968 21.2349 44.8609 21.2349 43.9801C21.2349 43.1483 20.5988 42.7079 19.6202 42.5613L19.131 42.5122C18.6905 42.4632 18.3482 42.3656 18.3482 42.072C18.3482 41.7295 18.6905 41.5338 19.2288 41.5338C19.8161 41.5338 20.4031 41.7783 20.6967 41.9252L21.1371 41.0934ZM48.4384 40.6042C47.8511 40.6042 47.4598 40.8977 47.2151 41.2891V40.702H46.1876V45.3989H47.2151V42.7569C47.2151 41.9742 47.5576 41.5338 48.1935 41.5338C48.3894 41.5338 48.6341 41.5828 48.8298 41.6316L49.1233 40.6532C48.9276 40.6042 48.6341 40.6042 48.4384 40.6042ZM35.3259 43.0505C35.3259 44.4693 36.3043 45.4968 37.8212 45.4968C38.5061 45.4968 38.9953 45.3501 39.4846 44.9587L38.9953 44.127C38.604 44.4205 38.2126 44.5672 37.7722 44.5672C36.9404 44.5672 36.3534 43.9801 36.3534 43.0505C36.3534 42.1699 36.9404 41.5826 37.7722 41.5338C38.2126 41.5338 38.604 41.6804 38.9953 41.9742L39.4846 41.1424C38.9953 40.7508 38.5061 40.6042 37.8212 40.6042C36.3043 40.6042 35.3259 41.6316 35.3259 43.0505ZM44.8178 43.0505V40.702H43.7903V41.2891C43.4478 40.8489 42.9585 40.6042 42.3225 40.6042C41.0015 40.6042 39.974 41.6316 39.974 43.0505C39.974 44.4693 41.0015 45.4968 42.3225 45.4968C43.0074 45.4968 43.4968 45.2523 43.7903 44.8119V45.3989H44.8178V43.0505ZM41.0503 43.0505C41.0503 42.2187 41.5885 41.5338 42.4691 41.5338C43.3009 41.5338 43.8882 42.1699 43.8882 43.0505C43.8882 43.8823 43.3009 44.5672 42.4691 44.5672C41.5885 44.5181 41.0503 43.8823 41.0503 43.0505ZM28.7697 40.6042C27.3997 40.6042 26.421 41.5826 26.421 43.0505C26.421 44.5183 27.3995 45.4968 28.8185 45.4968C29.5034 45.4968 30.1886 45.3011 30.7268 44.8609L30.2374 44.127C29.846 44.4205 29.3568 44.6162 28.8676 44.6162C28.2315 44.6162 27.5954 44.3227 27.4485 43.4907H30.9225V43.0995C30.9715 41.5826 30.0907 40.6042 28.7695 40.6042H28.7697ZM28.7697 41.4848C29.4056 41.4848 29.8462 41.8764 29.9438 42.6103H27.4975C27.5954 41.9742 28.0358 41.4848 28.7697 41.4848ZM54.2607 43.0505V38.8428H53.2332V41.2891C52.8906 40.8489 52.4014 40.6042 51.7653 40.6042C50.4443 40.6042 49.4169 41.6316 49.4169 43.0505C49.4169 44.4693 50.4443 45.4968 51.7653 45.4968C52.4504 45.4968 52.9397 45.2523 53.2332 44.8119V45.3989H54.2607V43.0505ZM50.4934 43.0505C50.4934 42.2187 51.0314 41.5338 51.9122 41.5338C52.744 41.5338 53.331 42.1699 53.331 43.0505C53.331 43.8823 52.744 44.5672 51.9122 44.5672C51.0314 44.5181 50.4934 43.8823 50.4934 43.0505ZM16.1464 43.0505V40.702H15.1189V41.2891C14.7764 40.8489 14.2872 40.6042 13.6511 40.6042C12.3301 40.6042 11.3026 41.6316 11.3026 43.0505C11.3026 44.4693 12.3301 45.4968 13.6511 45.4968C14.3362 45.4968 14.8254 45.2523 15.1189 44.8119V45.3989H16.1464V43.0505ZM12.3301 43.0505C12.3301 42.2187 12.8683 41.5338 13.7489 41.5338C14.5807 41.5338 15.168 42.1699 15.168 43.0505C15.168 43.8823 14.5807 44.5672 13.7489 44.5672C12.8683 44.5181 12.3301 43.8823 12.3301 43.0505Z" fill="#2C2C2C"/>
<path d="M21.7727 17.6138C21.7727 11.9872 24.4147 6.99656 28.4755 3.7673C25.4911 1.41884 21.7239 0 17.614 0C7.87715 0 0 7.87715 0 17.6138C0 27.3502 7.87715 35.2275 17.6138 35.2275C21.7236 35.2275 25.4909 33.8087 28.4755 31.46C24.4147 28.2798 21.7727 23.2403 21.7727 17.6138Z" fill="#EB001B"/>
<path d="M56.9999 17.6138C56.9999 27.3502 49.1227 35.2275 39.3861 35.2275C35.2763 35.2275 31.509 33.8087 28.5244 31.46C32.6343 28.231 35.2274 23.2403 35.2274 17.6138C35.2274 11.9872 32.5852 6.99656 28.5244 3.7673C31.5087 1.41884 35.2763 0 39.3861 0C49.1227 0 57.0001 7.92619 57.0001 17.6138H56.9999Z" fill="#F79E1B"/>
</svg>
