<svg width="66" height="24" viewBox="0 0 66 24" fill="none" xmlns="http://www.w3.org/2000/svg">
<path d="M0 5C0 2.23858 2.23858 0 5 0H61C63.7614 0 66 2.23858 66 5V19C66 21.7614 63.7614 24 61 24H5C2.23858 24 0 21.7614 0 19V5Z" fill="#93EACB"/>
<path d="M8.72266 15V7.89062H10.8223C11.4505 7.89062 12.0072 8.0306 12.4922 8.31055C12.9805 8.59049 13.3581 8.98763 13.625 9.50195C13.8919 10.0163 14.0254 10.6055 14.0254 11.2695V11.626C14.0254 12.2998 13.8903 12.8923 13.6201 13.4033C13.3532 13.9144 12.9707 14.3083 12.4727 14.585C11.9779 14.8617 11.4098 15 10.7686 15H8.72266ZM9.95801 8.88672V14.0137H10.7637C11.4115 14.0137 11.9079 13.8118 12.2529 13.4082C12.6012 13.0013 12.7786 12.4186 12.7852 11.6602V11.2646C12.7852 10.4932 12.6175 9.90397 12.2822 9.49707C11.9469 9.09017 11.4603 8.88672 10.8223 8.88672H9.95801ZM20.9111 11.8262H17.9912V14.0137H21.4043V15H16.7559V7.89062H21.3701V8.88672H17.9912V10.8496H20.9111V11.8262ZM28.0068 11.9873H25.1455V15H23.9102V7.89062H28.4268V8.88672H25.1455V11.001H28.0068V11.9873ZM33.9502 13.3447H31.1963L30.6201 15H29.3359L32.0215 7.89062H33.1299L35.8203 15H34.5312L33.9502 13.3447ZM31.543 12.3486H33.6035L32.5732 9.39941L31.543 12.3486ZM43.2432 7.89062V12.6416C43.2432 13.3968 43.0007 13.9958 42.5156 14.4385C42.0339 14.8779 41.391 15.0977 40.5869 15.0977C39.7731 15.0977 39.127 14.8812 38.6484 14.4482C38.1699 14.012 37.9307 13.4082 37.9307 12.6367V7.89062H39.1611V12.6465C39.1611 13.1217 39.2816 13.4847 39.5225 13.7354C39.7633 13.986 40.1182 14.1113 40.5869 14.1113C41.5374 14.1113 42.0127 13.61 42.0127 12.6074V7.89062H43.2432ZM47.3018 14.0137H50.5293V15H46.0664V7.89062H47.3018V14.0137ZM57.1074 8.88672H54.8906V15H53.665V8.88672H51.4678V7.89062H57.1074V8.88672Z" fill="#079774"/>
</svg>
