<svg width="12" height="12" viewBox="0 0 12 12" fill="none" xmlns="http://www.w3.org/2000/svg">
<path d="M9.49585 10.501H8.99585V9.66748C8.99429 9.38134 8.94363 9.0976 8.84607 8.82861C8.84061 8.81393 8.83487 8.80032 8.82813 8.78634C8.74714 8.56555 8.63527 8.35736 8.49585 8.16797L7.7959 7.23437C7.60169 6.9743 7.49647 6.65856 7.49585 6.33398V5.82908C7.49699 5.43154 7.65481 5.05048 7.93506 4.76853L8.26367 4.43992C8.64548 4.05604 8.89075 3.55746 8.96183 3.02073C8.9621 3.01377 8.96583 3.00797 8.96583 3.00095L8.96442 2.99409C8.9818 2.88763 8.9923 2.78015 8.99586 2.67234V1.50098H9.49586C9.62846 1.50098 9.75564 1.4483 9.84941 1.35453C9.94318 1.26076 9.99586 1.13358 9.99586 1.00098C9.99586 0.868368 9.94318 0.741191 9.84941 0.647423C9.75564 0.553655 9.62846 0.500977 9.49586 0.500977H2.49585C2.36325 0.500977 2.23607 0.553655 2.1423 0.647423C2.04853 0.741191 1.99585 0.868368 1.99585 1.00098C1.99585 1.13358 2.04853 1.26076 2.1423 1.35453C2.23607 1.4483 2.36325 1.50098 2.49585 1.50098H2.99585V2.67234C2.99941 2.78015 3.00991 2.88763 3.02729 2.99409L3.02588 3.00098C3.02588 3.00798 3.0296 3.0138 3.02988 3.02075C3.10096 3.55749 3.34623 4.05606 3.72803 4.43994L4.05664 4.76856C4.33689 5.0505 4.4947 5.43155 4.49585 5.82908V6.33398C4.4952 6.65852 4.39008 6.97422 4.19604 7.23437L3.4956 8.16795C3.35623 8.35743 3.24439 8.56569 3.16342 8.78654C3.15677 8.80039 3.15106 8.81385 3.14566 8.82838C3.04809 9.09745 2.99742 9.38127 2.99585 9.66748V10.501H2.49585C2.36324 10.501 2.23606 10.5537 2.1423 10.6474C2.04853 10.7412 1.99585 10.8684 1.99585 11.001C1.99585 11.1336 2.04853 11.2608 2.1423 11.3545C2.23606 11.4483 2.36324 11.501 2.49585 11.501H9.49585C9.62846 11.501 9.75564 11.4483 9.8494 11.3545C9.94317 11.2608 9.99585 11.1336 9.99585 11.001C9.99585 10.8684 9.94317 10.7412 9.8494 10.6474C9.75564 10.5537 9.62846 10.501 9.49585 10.501V10.501ZM3.99585 2.50098V1.50098H7.99585V2.50098H3.99585ZM4.43506 3.73291C4.36461 3.66213 4.30147 3.58443 4.24661 3.50098H7.74508C7.69023 3.58443 7.62709 3.66213 7.55664 3.73291L7.22803 4.06153C6.83801 4.44925 6.58792 4.95561 6.51709 5.50098H5.47459C5.40377 4.95559 5.15369 4.44922 4.76367 4.06148L4.43506 3.73291ZM4.9961 7.83398C5.2854 7.44632 5.45695 6.98354 5.49023 6.50098H6.50146C6.53472 6.98359 6.70636 7.4464 6.99585 7.83398L7.49591 8.50098H4.49566L4.9961 7.83398ZM7.99585 10.501H3.99585V9.66748C3.99724 9.61176 4.00179 9.55618 4.00946 9.50098H7.98224C7.98991 9.55618 7.99446 9.61176 7.99585 9.66748V10.501Z" fill="#5569D3"/>
</svg>
