<svg width="22" height="13" viewBox="0 0 22 13" fill="none" xmlns="http://www.w3.org/2000/svg">
<path fill-rule="evenodd" clip-rule="evenodd" d="M15.3778 12.4998C18.8474 12.4998 21.6601 9.70166 21.6601 6.24992C21.6601 2.79819 18.8474 0 15.3778 0C13.8228 0 12.3998 0.562014 11.3028 1.493C10.2058 0.562105 8.78292 0.000152588 7.22806 0.000152588C3.75847 0.000152588 0.945801 2.79834 0.945801 6.25008C0.945801 9.70181 3.75847 12.5 7.22806 12.5C8.78301 12.5 10.206 11.938 11.303 11.007C12.4 11.9379 13.8229 12.4998 15.3778 12.4998Z" fill="#ED0006"/>
<path fill-rule="evenodd" clip-rule="evenodd" d="M11.3027 11.0066C12.6534 9.86027 13.5098 8.15459 13.5098 6.24992C13.5098 4.34525 12.6534 2.63958 11.3027 1.49323C12.3998 0.562107 13.8229 0 15.378 0C18.8476 0 21.6602 2.79819 21.6602 6.24992C21.6602 9.70166 18.8476 12.4998 15.378 12.4998C13.8229 12.4998 12.3998 11.9377 11.3027 11.0066Z" fill="#F9A000"/>
<path fill-rule="evenodd" clip-rule="evenodd" d="M11.3031 11.0068C12.6538 9.86044 13.5103 8.15469 13.5103 6.24993C13.5103 4.34522 12.6539 2.63951 11.3032 1.49316C9.95244 2.63951 9.09595 4.34526 9.09595 6.25002C9.09595 8.15473 9.95239 9.86044 11.3031 11.0068Z" fill="#FF5E00"/>
</svg>
