<svg width="40" height="36" viewBox="0 0 40 36" fill="none" xmlns="http://www.w3.org/2000/svg">
<path d="M39.8535 34.9721L34.5931 30.6844C34.4154 30.5365 34.1558 30.5634 34.0192 30.7381C33.8689 30.9129 33.8962 31.1682 34.0738 31.3027L39.3343 35.5904C39.5119 35.7383 39.7715 35.7114 39.9081 35.5367C40.0448 35.3754 40.0311 35.12 39.8535 34.9721Z" fill="white"/>
<path d="M39.4663 31.9849L36.9222 29.7101C36.7508 29.5527 36.5004 29.5813 36.3685 29.7673C36.2235 29.9533 36.2499 30.2251 36.4213 30.3682L38.9654 32.643C39.1368 32.8004 39.3872 32.7718 39.5191 32.5858C39.6509 32.3998 39.6377 32.128 39.4663 31.9849Z" fill="white"/>
<path d="M33.8297 32.8361L36.5172 35.1237C36.6983 35.282 36.7122 35.5554 36.5729 35.728C36.4198 35.9151 36.1552 35.9295 35.9881 35.7856L33.2866 33.5123C33.1056 33.3541 33.0916 33.0807 33.2309 32.908C33.3841 32.721 33.6486 32.6922 33.8297 32.8361Z" fill="white"/>
<path d="M22.7824 22.8216L27.7432 35.0373C28.1158 35.9393 29.4099 35.9589 29.6648 35.0765C30.2334 33.155 30.8217 31.253 31.3903 29.3314C31.4687 29.0961 31.6256 28.9001 31.8413 28.7824C33.606 27.8608 35.3903 26.9393 37.155 26.0177C37.9785 25.5863 37.7236 24.3118 36.7628 24.1354C32.4491 23.2726 28.155 22.4099 23.8413 21.5471C23.0962 21.351 22.4883 22.0765 22.7824 22.8216Z" fill="white"/>
<path d="M22.6648 26.2923C21.2727 27.155 19.6844 27.7237 17.9393 27.8805C11.9589 28.4491 6.64522 24.0374 6.0962 18.057C5.52757 12.0766 9.93933 6.76287 15.9197 6.21385C21.9001 5.64522 27.2138 10.057 27.7629 16.0374C27.9197 17.6844 27.704 19.2727 27.1746 20.7237L33.0766 21.9197C33.7236 19.8413 33.9785 17.6256 33.7629 15.3315C32.8805 6.03738 24.6452 -0.805759 15.3511 0.0765945C6.03737 0.93934 -0.805762 9.19424 0.0765906 18.4884C0.958943 27.7825 9.19424 34.6256 18.4884 33.7433C20.8021 33.5276 22.9785 32.8413 24.9001 31.8217L22.6648 26.2923Z" fill="white"/>
</svg>
