<svg width="24" height="8" viewBox="0 0 24 8" fill="none" xmlns="http://www.w3.org/2000/svg">
<path fill-rule="evenodd" clip-rule="evenodd" d="M6.39603 7.02413H4.44169L2.97616 1.53212C2.9066 1.27949 2.75891 1.05615 2.54165 0.950883C1.99946 0.686351 1.40201 0.475824 0.750244 0.369645V0.158203H3.89855C4.33306 0.158203 4.65894 0.475824 4.71325 0.844704L5.47365 4.80627L7.42705 0.158203H9.32708L6.39603 7.02413ZM10.4138 7.02413H8.56812L10.088 0.158203H11.9337L10.4138 7.02413ZM14.3213 2.06042C14.3756 1.69062 14.7015 1.47918 15.0817 1.47918C15.6791 1.42609 16.3299 1.53227 16.8731 1.79589L17.199 0.317621C16.6558 0.106179 16.0584 0 15.5162 0C13.7248 0 12.4212 0.951033 12.4212 2.27095C12.4212 3.27507 13.3446 3.8023 13.9963 4.11992C14.7015 4.43663 14.973 4.64807 14.9187 4.96478C14.9187 5.43983 14.3756 5.65128 13.8334 5.65128C13.1816 5.65128 12.5299 5.49292 11.9334 5.22839L11.6075 6.70757C12.2593 6.97119 12.9644 7.07737 13.6161 7.07737C15.6248 7.12954 16.8731 6.17943 16.8731 4.75333C16.8731 2.95745 14.3213 2.85218 14.3213 2.06042ZM23.3324 7.02413L21.8669 0.158203H20.2927C19.9669 0.158203 19.641 0.369645 19.5324 0.686351L16.8186 7.02413H18.7186L19.0978 6.02092H21.4324L21.6496 7.02413H23.3324ZM20.5647 2.00732L21.1069 4.59497H19.5871L20.5647 2.00732Z" fill="#172B85"/>
</svg>
