<svg width="83" height="26" viewBox="0 0 83 26" fill="none" xmlns="http://www.w3.org/2000/svg">
<path fill-rule="evenodd" clip-rule="evenodd" d="M20.5052 25.7968H13.4071L8.08441 5.62678C7.83177 4.69896 7.29535 3.87871 6.50629 3.49212C4.5371 2.52059 2.36718 1.74741 0 1.35745V0.580906H11.4345C13.0126 0.580906 14.1962 1.74741 14.3934 3.10216L17.1551 17.6515L24.2498 0.580906H31.1506L20.5052 25.7968ZM35.0978 25.7968H28.3942L33.9142 0.580906H40.6178L35.0978 25.7968ZM49.2891 7.56713C49.4864 6.20902 50.67 5.43247 52.0509 5.43247C54.2208 5.23749 56.5845 5.62745 58.5572 6.59561L59.7407 1.1665C57.7681 0.389955 55.5982 0 53.629 0C47.1227 0 42.3883 3.49278 42.3883 8.34032C42.3883 12.0281 45.7418 13.9644 48.109 15.1309C50.67 16.294 51.6563 17.0706 51.4591 18.2337C51.4591 19.9784 49.4864 20.755 47.5172 20.755C45.15 20.755 42.7829 20.1734 40.6164 19.2019L39.4328 24.6344C41.8 25.6025 44.361 25.9925 46.7282 25.9925C54.0235 26.1841 58.5572 22.6947 58.5572 17.4572C58.5572 10.8616 49.2891 10.475 49.2891 7.56713ZM82.0171 25.7968L76.6944 0.580906H70.9772C69.7936 0.580906 68.61 1.35745 68.2155 2.52059L58.3592 25.7968H65.26L66.6374 22.1124H75.1163L75.9054 25.7968H82.0171ZM71.9646 7.37098L73.9338 16.8744H68.4139L71.9646 7.37098Z" fill="#172B85"/>
</svg>
