<svg width="266" height="212" viewBox="0 0 266 212" fill="none" xmlns="http://www.w3.org/2000/svg">
<path d="M48.3519 113.357H42.5734V211.21H48.3519V113.357Z" fill="#FFBE21"/>
<path fill-rule="evenodd" clip-rule="evenodd" d="M42.5734 113.957H48.3542V115.449H42.5734V113.957Z" fill="#A15842"/>
<path d="M16.3516 191.575C16.9369 189.902 18.0301 188.453 19.4794 187.427C20.9288 186.401 22.6626 185.85 24.4405 185.85C26.2183 185.85 27.9521 186.401 29.4015 187.427C30.8509 188.453 31.944 189.902 32.5294 191.575C33.088 189.978 34.1102 188.583 35.4661 187.566C36.822 186.549 38.4507 185.956 40.1453 185.862C39.3887 184.519 38.4878 183.261 37.4584 182.112L34.3481 178.626C33.3811 177.543 32.7721 176.19 32.6037 174.75C32.4353 173.31 32.7158 171.854 33.4069 170.578L36.0468 165.691C35.3056 166.434 31.0212 170.431 24.5181 170.431C18.015 170.431 13.7306 166.434 12.9894 165.691H12.9777L15.6199 170.578C16.308 171.856 16.5841 173.315 16.4107 174.755C16.2372 176.195 15.6226 177.546 14.6505 178.626L11.5425 182.098C10.5112 183.247 9.60797 184.505 8.84854 185.848C10.525 185.965 12.1302 186.569 13.4642 187.588C14.7983 188.606 15.8024 189.993 16.3516 191.575Z" fill="#4756DF"/>
<path d="M40.6182 196.514C38.8399 196.515 37.1057 197.066 35.6562 198.093C34.2068 199.12 33.114 200.57 32.5293 202.243C31.9451 200.57 30.8524 199.119 29.4029 198.092C27.9534 197.065 26.219 196.514 24.4405 196.514C22.6619 196.514 20.9275 197.065 19.478 198.092C18.0285 199.119 16.9358 200.57 16.3516 202.243C15.6441 200.221 14.1998 198.538 12.305 197.526C10.4103 196.515 8.2033 196.25 6.12164 196.784C6.24116 202.194 8.42925 207.354 12.2389 211.21H36.7526C40.5545 207.362 42.742 202.215 42.8698 196.817C42.1362 196.616 41.3789 196.515 40.6182 196.514Z" fill="#4756DF"/>
<path d="M24.4993 170.44C31.0024 170.44 35.2868 166.443 36.028 165.7H12.9706C13.7118 166.436 17.9962 170.44 24.4993 170.44Z" fill="#30242A"/>
<path d="M16.3516 202.243C16.9358 200.57 18.0285 199.119 19.478 198.092C20.9276 197.065 22.662 196.514 24.4405 196.514C26.219 196.514 27.9534 197.065 29.4029 198.092C30.8524 199.119 31.9451 200.57 32.5294 202.243C33.2427 200.2 34.7087 198.502 36.6307 197.495C38.5527 196.487 40.7871 196.245 42.8816 196.817C42.9783 192.987 42.0345 189.202 40.15 185.862C38.4554 185.956 36.8267 186.549 35.4708 187.566C34.1149 188.583 33.0927 189.978 32.5341 191.575C31.9487 189.903 30.8556 188.453 29.4062 187.427C27.9568 186.401 26.223 185.85 24.4452 185.85C22.6673 185.85 20.9335 186.401 19.4841 187.427C18.0348 188.453 16.9416 189.903 16.3563 191.575C15.8037 189.997 14.7981 188.614 13.4643 187.6C12.1305 186.586 10.5272 185.984 8.85325 185.869C6.9772 189.198 6.03526 192.968 6.12637 196.784C8.20802 196.25 10.415 196.515 12.3098 197.526C14.2045 198.537 15.6488 200.221 16.3563 202.243H16.3516Z" fill="#3EC1F3"/>
<path fill-rule="evenodd" clip-rule="evenodd" d="M34.6858 148.781C34.9984 149.051 35.0323 149.522 34.7613 149.833C32.1726 152.809 30.3307 157.081 29.0749 161.025C27.8242 164.952 27.1789 168.474 26.9468 169.89C26.8801 170.297 26.495 170.572 26.0867 170.506C25.6783 170.44 25.4014 170.056 25.4681 169.649C25.7065 168.195 26.3659 164.596 27.6467 160.574C28.9225 156.567 30.8392 152.063 33.629 148.856C33.9 148.545 34.3731 148.511 34.6858 148.781Z" fill="#30242A"/>
<path fill-rule="evenodd" clip-rule="evenodd" d="M19.9239 140.341C20.3165 140.21 20.7407 140.422 20.8715 140.813C22.497 145.673 23.3847 152.131 23.8734 157.743C24.3632 163.369 24.4566 168.204 24.4743 169.843C24.4788 170.255 24.147 170.593 23.7333 170.598C23.3196 170.602 22.9806 170.272 22.9761 169.859C22.9586 168.24 22.866 163.447 22.3807 157.872C21.8941 152.284 21.0172 145.97 19.45 141.284C19.3192 140.893 19.5314 140.471 19.9239 140.341Z" fill="#30242A"/>
<path d="M37.8762 158.657C42.5921 156.589 46.0366 154.056 45.5698 152.999C45.1029 151.942 40.9016 152.761 36.1857 154.829C31.4699 156.896 28.0254 159.429 28.4922 160.486C28.959 161.543 33.1604 160.724 37.8762 158.657Z" fill="#30242A"/>
<path d="M37.8735 129.574C39.5689 127.29 40.2954 124.961 39.4962 124.372C38.697 123.783 36.6748 125.157 34.9794 127.441C33.284 129.724 32.5575 132.053 33.3567 132.642C34.1558 133.231 36.1781 131.857 37.8735 129.574Z" fill="#30242A"/>
<path d="M12.3412 160.28C18.489 159.354 23.3396 157.726 23.1754 156.644C23.0112 155.563 17.8944 155.437 11.7466 156.363C5.59886 157.29 0.748215 158.917 0.912405 159.999C1.07659 161.081 6.19345 161.207 12.3412 160.28Z" fill="#30242A"/>
<path d="M8.04623 144.302V144.319C8.95458 144.825 9.63969 145.652 9.96647 146.636C10.2932 147.62 10.238 148.691 9.81159 149.637C9.38518 150.583 8.61858 151.335 7.66291 151.746C6.70725 152.157 5.63188 152.196 4.6488 151.855V151.869C9.80141 154.176 14.7446 154.352 15.6857 152.263C16.6269 150.174 13.2012 146.609 8.04623 144.302Z" fill="#FF7235"/>
<path d="M23.2805 127.584C22.1841 127.3 20.7583 128.953 19.7161 131.51C18.462 128.404 16.6433 126.325 15.4175 126.728C14.1917 127.131 13.9729 129.879 14.8223 133.118C12.4553 131.684 10.3237 131.201 9.61083 132.08C8.70265 133.2 10.4531 136.107 13.5212 138.576C14.394 139.284 15.3332 139.907 16.3257 140.437C16.4949 139.767 16.8293 139.15 17.2985 138.642C17.7677 138.134 18.3569 137.751 19.0126 137.527C19.6683 137.304 20.3696 137.247 21.0529 137.362C21.7362 137.477 22.3798 137.761 22.9253 138.186C23.3851 137.2 23.7521 136.174 24.0217 135.12C25.0122 131.32 24.6804 127.945 23.2805 127.584Z" fill="#FF7235"/>
<path d="M47.199 144.839C46.8602 143.761 44.698 143.433 41.9687 143.902C43.9498 141.199 44.7592 138.562 43.7686 137.739C42.7781 136.916 40.3194 138.184 38.009 140.615C37.9808 137.854 37.2632 135.796 36.1385 135.657C34.7057 135.481 33.1528 138.501 32.6729 142.397C32.5306 143.511 32.496 144.635 32.5693 145.756C33.2294 145.544 33.9322 145.5 34.6138 145.628C35.2954 145.755 35.9341 146.051 36.4719 146.487C37.0096 146.923 37.4294 147.487 37.6929 148.126C37.9564 148.765 38.0554 149.46 37.9808 150.147C39.0644 150.01 40.1331 149.775 41.1735 149.443C44.9309 148.278 47.6296 146.213 47.199 144.839Z" fill="#FF7235"/>
<path d="M36.5032 146.511C35.9651 146.063 35.3223 145.759 34.6345 145.626C33.9468 145.493 33.2363 145.535 32.5693 145.749C32.7034 147.603 33.174 149.03 33.8822 149.549C34.5433 150.158 36.0726 150.362 37.976 150.139C38.0502 149.46 37.9545 148.774 37.6975 148.14C37.4406 147.507 37.0302 146.947 36.5032 146.511Z" fill="#30242A"/>
<path d="M19.0549 137.514C18.3897 137.732 17.7907 138.115 17.3135 138.626C16.8364 139.137 16.4966 139.76 16.3257 140.437C17.9727 141.304 19.4361 141.656 20.2596 141.337C21.1278 141.103 22.1089 139.914 22.9253 138.187C22.386 137.765 21.7504 137.483 21.075 137.365C20.3997 137.248 19.7057 137.299 19.0549 137.514Z" fill="#30242A"/>
<path d="M8.505 151.262C8.06257 151.016 7.72892 150.614 7.57014 150.135C7.41135 149.655 7.43901 149.134 7.64762 148.674C7.85624 148.214 8.23061 147.849 8.69659 147.651C9.16256 147.453 9.68617 147.437 10.1637 147.605C10.1085 146.927 9.88637 146.273 9.51705 145.7C9.14773 145.128 8.64256 144.655 8.0462 144.323L4.64172 151.855C5.28519 152.079 5.97398 152.142 6.64759 152.039C7.3212 151.935 7.95901 151.669 8.505 151.262Z" fill="#F5EBDD"/>
<path d="M7.63922 148.676C7.43402 149.136 7.40909 149.656 7.56935 150.133C7.7296 150.611 8.06342 151.011 8.50504 151.255C9.07054 150.836 9.51958 150.28 9.80979 149.641C10.1 149.001 10.2218 148.298 10.1638 147.598C9.684 147.428 9.15745 147.444 8.68938 147.644C8.22132 147.844 7.84626 148.213 7.63922 148.676Z" fill="#4856DF"/>
<path d="M163.126 152.46H103.287L104.299 148.461H130.565L140.584 109.426C141.948 104.109 145.051 99.3957 149.402 96.0298C153.753 92.6639 159.104 90.8368 164.613 90.8367C178.092 90.8367 187.955 103.495 184.611 116.505L178.421 140.625C177.552 144.009 175.577 147.01 172.808 149.153C170.039 151.296 166.632 152.459 163.126 152.46Z" fill="#FFB7D5"/>
<path d="M103.751 189.402V193.635H141.887V189.402H103.751Z" fill="#A15842"/>
<path d="M148.169 208.936L138.25 150.109H107.386L97.4663 208.936C97.4195 209.216 97.4344 209.502 97.5101 209.776C97.5857 210.049 97.7202 210.303 97.9043 210.52C98.0884 210.736 98.3176 210.91 98.5759 211.029C98.8343 211.148 99.1156 211.21 99.4003 211.21C99.8477 211.209 100.281 211.057 100.63 210.777C100.978 210.497 101.22 210.107 101.315 209.672L114.308 150.109H131.337L144.324 209.672C144.42 210.108 144.661 210.498 145.01 210.777C145.358 211.057 145.792 211.21 146.24 211.21C146.524 211.209 146.805 211.147 147.063 211.028C147.32 210.908 147.549 210.734 147.732 210.518C147.916 210.301 148.05 210.048 148.125 209.775C148.201 209.502 148.216 209.215 148.169 208.936Z" fill="#A15842"/>
<path d="M135.344 189.402V193.635H173.48V189.402H135.344Z" fill="#FFBE21"/>
<path d="M179.762 208.936L169.833 150.109H138.981L129.062 208.936C129.015 209.216 129.03 209.502 129.106 209.776C129.181 210.049 129.316 210.303 129.5 210.52C129.684 210.736 129.913 210.91 130.171 211.029C130.43 211.148 130.711 211.21 130.996 211.21C131.443 211.21 131.877 211.057 132.225 210.777C132.573 210.498 132.814 210.107 132.909 209.672L145.896 150.109H162.928L175.915 209.672C176.011 210.108 176.253 210.498 176.602 210.778C176.95 211.058 177.385 211.21 177.833 211.21C178.117 211.209 178.398 211.147 178.656 211.028C178.914 210.908 179.142 210.734 179.326 210.518C179.509 210.301 179.643 210.048 179.719 209.775C179.794 209.502 179.809 209.215 179.762 208.936Z" fill="#FFBE21"/>
<path d="M148.59 140.624L152.373 125.882H127.3C122.383 125.882 117.606 127.513 113.722 130.517C109.838 133.521 107.068 137.728 105.849 142.474L103.287 152.46H133.292C136.799 152.46 140.206 151.296 142.976 149.153C145.746 147.01 147.721 144.009 148.59 140.624Z" fill="#FFB7D5"/>
<path fill-rule="evenodd" clip-rule="evenodd" d="M104.168 148.07C104.168 147.658 104.504 147.323 104.918 147.323H136.751C137.165 147.323 137.5 147.658 137.5 148.07C137.5 148.482 137.165 148.816 136.751 148.816H104.918C104.504 148.816 104.168 148.482 104.168 148.07Z" fill="#A15842"/>
<path fill-rule="evenodd" clip-rule="evenodd" d="M136.442 125.468C136.843 125.57 137.085 125.977 136.983 126.376L131.404 148.106C131.302 148.506 130.894 148.747 130.493 148.645C130.092 148.542 129.85 148.136 129.953 147.737L135.531 126.006C135.634 125.607 136.042 125.366 136.442 125.468Z" fill="#A15842"/>
<path fill-rule="evenodd" clip-rule="evenodd" d="M166.026 125.378C166.026 124.966 166.361 124.632 166.775 124.632H181.833C182.246 124.632 182.582 124.966 182.582 125.378C182.582 125.79 182.246 126.124 181.833 126.124H166.775C166.361 126.124 166.026 125.79 166.026 125.378Z" fill="#A15842"/>
<path fill-rule="evenodd" clip-rule="evenodd" d="M164.614 114.829C164.614 114.417 164.949 114.083 165.363 114.083H184.656C185.07 114.083 185.405 114.417 185.405 114.829C185.405 115.241 185.07 115.575 184.656 115.575H165.363C164.949 115.575 164.614 115.241 164.614 114.829Z" fill="#A15842"/>
<path d="M114.38 110.066C114.38 110.066 95.5041 115.188 87.4858 119.185C74.2654 125.769 74.3101 130.115 66.2495 154.446C58.8076 176.931 57.9888 187.829 47.7236 188.26C39.8865 188.588 37.3172 191.144 36.0467 194.646L67.0588 209.306C67.4143 209.474 67.8206 209.5 68.1946 209.379C68.5686 209.257 68.8819 208.998 69.0705 208.655C69.2625 208.303 69.3093 207.891 69.2007 207.505C69.0922 207.12 68.8369 206.792 68.4893 206.592L67.8376 206.217C70.7198 202.738 76.2794 195.326 81.8226 184.067L85.3518 185.707C85.3518 185.707 91.0526 178.326 91.9561 169.952C93.1324 159.139 92.4266 151.851 97.3839 147.619L155.192 110.056L114.38 110.066Z" fill="#FF7235"/>
<path d="M44.6768 189.997C45.2909 188.724 48.7024 180.97 50.6646 181.908C53.2174 183.127 46.592 190.911 46.592 190.911L44.6768 189.997Z" fill="#30242A"/>
<path d="M36.0444 194.756L67.0565 209.414C67.4155 209.585 67.8269 209.61 68.2044 209.485C68.582 209.36 68.8962 209.094 69.0812 208.743C69.2663 208.393 69.3078 207.984 69.197 207.603C69.0862 207.223 68.8317 206.9 68.487 206.702L67.8353 206.327L67.9011 206.247L46.5849 196.221C46.9043 195.339 47.1283 194.426 47.2531 193.497C50.4434 194.048 56.8995 194.641 56.9324 191.99C56.9677 189.519 49.9164 190.511 47.3401 191.209C47.2846 190.259 47.0994 189.322 46.7896 188.422C39.6818 188.909 37.2631 191.394 36.0444 194.756Z" fill="#30242A"/>
<path d="M87.4858 119.185C86.0012 119.923 84.686 120.633 83.5073 121.346L81.698 127.12L88.6622 122.232L95.083 127.333L92.7161 120.34L99.9886 117.021L94.3678 116.318C92.0243 117.151 89.7271 118.108 87.4858 119.185Z" fill="#FFB7D5"/>
<path d="M108.004 116.179L107.534 119.234L110.602 118.059L108.004 116.179Z" fill="#FFB7D5"/>
<path d="M90.3092 131.459L85.8271 137.336L79.4558 134.281L83.2296 140.627L77.3312 145.564L84.8813 144.624L87.4788 153.323L90.0739 144.624L98.3322 142.272L90.3092 138.981V131.459Z" fill="#FFB7D5"/>
<path d="M65.1108 176.331L65.6613 174.765L73.1902 174.366L67.073 170.217L69.7975 163.717L63.6356 167.81L62.4592 166.544C61.5181 169.631 60.6852 172.381 59.8711 174.798H59.9088C59.9982 174.533 60.0876 174.266 60.177 173.994L65.1108 176.331Z" fill="#FFB7D5"/>
<path d="M65.1108 176.331L60.1699 174.003C60.0805 174.275 59.9911 174.542 59.9017 174.807C56.916 183.668 54.1962 188.098 47.7283 188.37C47.4107 188.37 47.1049 188.401 46.8037 188.422C47.1135 189.322 47.2987 190.259 47.3543 191.209C49.9423 190.506 56.9819 189.519 56.9466 191.99C56.9089 194.641 50.4576 194.048 47.2672 193.497C47.1401 194.426 46.9137 195.34 46.5919 196.221L67.9082 206.247C70.8068 202.731 76.3194 195.356 81.8202 184.191L65.1108 176.331Z" fill="#EAA58B"/>
<path d="M83.9378 158.494L83.2319 164.842L76.6253 164.608L82.2884 168.841L80.1709 176.364L85.8388 171.424L90.9326 174.809C91.0738 174.361 91.2032 173.907 91.3208 173.447L89.368 168.602L92.3937 165.299C92.4431 164.685 92.4901 164.08 92.5348 163.492L87.2505 164.371L83.9378 158.494Z" fill="#FFB7D5"/>
<path d="M69.2211 145.299C68.6258 147.132 67.9859 149.122 67.28 151.286L73.5573 151.668L69.2211 145.299Z" fill="#FFB7D5"/>
<path d="M91.3867 202.567C91.4855 201.16 91.7938 192.698 93.963 192.85C96.7864 193.047 93.5042 202.714 93.5042 202.714L91.3867 202.567Z" fill="#30242A"/>
<path d="M143.64 110.41C143.64 110.41 120.044 114.771 107.066 120.176C93.9631 125.636 94.0901 135.331 96.4476 161.668C98.5652 185.246 102.348 196.695 94.5654 200.22C87.4271 203.455 84.9472 207.511 85.286 211.219H120.425C120.623 211.219 120.819 211.18 121.002 211.105C121.185 211.029 121.351 210.919 121.491 210.779C121.631 210.64 121.742 210.474 121.818 210.292C121.894 210.109 121.933 209.914 121.933 209.717C121.933 209.318 121.774 208.936 121.491 208.654C121.208 208.372 120.825 208.214 120.425 208.214H119.832C120.94 204.602 122.547 197.55 122.768 185.881H127.126C127.126 185.881 129.365 175.567 126.89 166.368C124.302 156.731 121.935 155.086 120.521 148.503H141.666C157.813 148.503 169.899 133.622 166.387 117.921C165.29 113.015 163.7 110.42 163.7 110.42L143.64 110.41Z" fill="#FF7235"/>
<path d="M129.01 124.171L124.679 129.6L117.933 127.291L121.931 133.81L116.74 140.864L123.582 138.041L127.396 145.046L127.829 137.336L134.436 135.927L128.775 132.399L129.01 124.171Z" fill="#FFB7D5"/>
<path d="M119.585 166.08L123.585 172.599L118.394 179.652L125.236 176.839L127.773 181.497C128.144 177.878 128.328 172.524 127.142 167.383L126.333 168.398L119.585 166.08Z" fill="#FFB7D5"/>
<path d="M101.944 185.871L101.64 182.238L109.301 179.294L102.05 177.796L102.849 169.865L98.1439 176L98.0027 175.942C98.4545 179.727 98.8497 183.035 99.0709 185.897V185.871H101.944Z" fill="#FFB7D5"/>
<path d="M120.425 208.205H119.832C120.94 204.592 122.547 197.541 122.768 185.872H99.0638V185.893C99.0827 186.127 99.0991 186.362 99.1156 186.596C99.1156 186.617 99.1156 186.64 99.1156 186.662C99.6073 193.987 98.805 198.272 94.5559 200.197C87.4175 203.432 84.9377 207.487 85.2765 211.196H120.425C120.825 211.196 121.208 211.037 121.491 210.756C121.774 210.474 121.933 210.092 121.933 209.693C121.933 209.295 121.774 208.912 121.491 208.631C121.208 208.349 120.825 208.19 120.425 208.19V208.205Z" fill="#EAA58B"/>
<path d="M151.886 111.018L141.047 111.974L142.176 116.315L135.243 120L143.88 121.151L146.802 127.6L149.806 120.922L158.592 119.539L150.962 115.624L151.886 111.018Z" fill="#FFB7D5"/>
<path d="M100.224 141.567L102.812 133.339L110.362 134.511L104.463 129.34L108.698 124.403L100.913 127.216L99.6685 125.09C97.6663 127.349 96.457 130.155 95.8099 133.763L97.1369 133.805L100.224 141.567Z" fill="#FFB7D5"/>
<path d="M120.425 115.755C118.832 116.196 117.246 116.658 115.698 117.134L121.935 121.353L120.425 115.755Z" fill="#FFB7D5"/>
<path d="M110.134 153.792L106.83 146.975L105.179 154.497L99.045 154.028L104.706 158.965L101.167 167.193L107.31 161.488L112.402 167.336L110.842 158.494L116.032 151.677L110.134 153.792Z" fill="#FFB7D5"/>
<path d="M96.1275 205.455C99.2473 204.597 105.336 202.389 104.235 199.977C103.209 197.726 97.2569 201.617 95.2264 203.35C94.7139 202.413 94.0592 201.56 93.2854 200.823C87.1258 203.948 84.9636 207.731 85.2859 211.21H120.425C120.825 211.21 121.208 211.051 121.491 210.77C121.774 210.488 121.933 210.106 121.933 209.707C121.933 209.309 121.774 208.926 121.491 208.645C121.208 208.363 120.825 208.205 120.425 208.205H96.6852C96.5969 207.271 96.41 206.349 96.1275 205.455Z" fill="#30242A"/>
<path fill-rule="evenodd" clip-rule="evenodd" d="M113.601 148.927C113.607 148.515 113.947 148.185 114.36 148.191L120.435 148.275C120.849 148.281 121.18 148.62 121.174 149.032C121.168 149.444 120.828 149.773 120.414 149.768L114.34 149.683C113.926 149.677 113.595 149.339 113.601 148.927Z" fill="#A15842"/>
<path fill-rule="evenodd" clip-rule="evenodd" d="M125.668 114.544C125.77 114.943 125.528 115.349 125.127 115.451C118.843 117.048 112.159 118.999 107.115 121.097C101.827 123.303 98.8509 126.164 97.2704 130.535C95.6609 134.986 95.4695 141.071 95.9979 149.804C96.0228 150.215 95.7081 150.569 95.2951 150.593C94.8822 150.618 94.5272 150.305 94.5023 149.894C93.9743 141.167 94.1357 134.8 95.8608 130.029C97.6147 125.179 100.955 122.049 106.536 119.72L106.537 119.72C111.685 117.579 118.454 115.606 124.757 114.005C125.158 113.903 125.566 114.145 125.668 114.544Z" fill="#A15842"/>
<path d="M204.815 113.357H199.036V211.21H204.815V113.357Z" fill="#FFBE21"/>
<path fill-rule="evenodd" clip-rule="evenodd" d="M199.036 113.957H204.815V115.449H199.036V113.957Z" fill="#A15842"/>
<path d="M120.987 39.7759C117.693 39.307 110.148 42.835 109.898 49.8089C109.649 56.7828 115.898 59.0238 116.898 59.5232L131.398 57.2798L132.398 41.3394L120.987 39.7759Z" fill="#A15842"/>
<path d="M146.604 22.4571C152.829 22.4571 157.874 17.4299 157.874 11.2286C157.874 5.0272 152.829 0 146.604 0C140.38 0 135.334 5.0272 135.334 11.2286C135.334 17.4299 140.38 22.4571 146.604 22.4571Z" fill="#A15842"/>
<path d="M139.294 18.9502C139.981 19.2666 134.196 5.58842 131.243 7.72161C128.464 9.73525 135.805 17.3468 139.294 18.9502Z" fill="#30242A"/>
<path d="M139.614 19.7872C140.245 20.5373 155.006 15.3918 152.964 12.4241C151.011 9.56891 138.984 19.0347 139.614 19.7872Z" fill="#30242A"/>
<path d="M159.211 57.4064C159.211 57.4064 169.12 49.1784 162.74 40.0103C158.679 34.1663 147.637 36.4941 147.637 36.4941C147.905 33.2849 148.781 24.0395 141.802 18.9597C134.824 13.8799 125.97 16.5546 122.745 20.5631C119.519 24.5716 120.331 32.0613 119.258 37.4083C118.185 42.7554 118.9 46.3912 122.208 48.1024C125.217 49.659 128.758 48.7189 128.758 48.7189L128.382 54.3614C128.382 54.3614 121.559 54.6169 117.378 56.1242C107.303 59.7576 89.6033 84.6761 89.6033 84.6761C78.5147 84.2073 68.1318 83.7385 68.1318 83.7385L73.5597 99.7257C73.5597 99.7257 87.2435 104.191 97.1534 101.601C107.207 98.9779 116.738 84.9106 116.738 84.9106L120.032 94.313L114.369 110.064H163.683L155.425 95.4875C156.853 82.5617 159.211 57.4064 159.211 57.4064Z" fill="#EAA58B"/>
<path d="M143.365 53.7753L130.424 77.1537L125.13 54.5957C122.804 54.8301 119.703 55.2849 117.402 56.1148C107.303 59.7576 89.6033 84.6761 89.6033 84.6761C78.5147 84.2073 68.1318 83.7384 68.1318 83.7384L73.5597 99.7257C73.5597 99.7257 87.2435 104.191 97.1534 101.601C107.207 98.9779 116.738 84.9105 116.738 84.9105L120.032 94.313L114.369 110.063H163.683L155.425 95.4898C156.837 82.5593 159.189 57.404 159.189 57.404C157.005 56.0789 154.612 55.1281 152.112 54.591C149.296 53.9581 146.2 54.3355 143.365 53.7753Z" fill="#4756DF"/>
<path d="M76.3501 108.42H117.213L107.922 79.1837C107.649 78.3221 107.107 77.5696 106.376 77.0355C105.644 76.5014 104.761 76.2135 103.854 76.2136H69.3199C68.6489 76.2132 67.9872 76.3705 67.3887 76.6728C66.7902 76.9751 66.2717 77.4138 65.8753 77.9533C65.479 78.4928 65.2159 79.1178 65.1076 79.7776C64.9993 80.4374 65.0488 81.1134 65.252 81.7506L72.9315 105.928C73.1618 106.652 73.6174 107.283 74.232 107.731C74.8466 108.179 75.5885 108.42 76.3501 108.42Z" fill="#30242A"/>
<path d="M82.439 89.4394C83.5237 87.9626 88.4434 91.8633 88.8057 92.1845C88.9939 91.8633 91.5561 87.9649 93.4336 89.4394C95.0641 90.7193 91.4808 96.4368 90.5279 97.8949C90.488 97.939 90.4392 97.9744 90.3847 97.9986C90.3302 98.0227 90.2712 98.0352 90.2115 98.0352C90.1518 98.0352 90.0928 98.0227 90.0383 97.9986C89.9838 97.9744 89.935 97.939 89.895 97.8949C88.1563 96.4368 81.4979 90.7193 82.439 89.4394Z" fill="#A15842"/>
<path d="M88.4003 90.4282C88.8109 90.3008 88.8265 89.1824 88.4351 87.9303C88.0437 86.6781 87.3934 85.7663 86.9828 85.8938C86.5722 86.0212 86.5566 87.1396 86.948 88.3917C87.3394 89.6439 87.9897 90.5557 88.4003 90.4282Z" fill="#A15842"/>
<path d="M140.941 105.129C141.059 105.507 141.087 105.908 141.021 106.299C140.956 106.689 140.799 107.059 140.564 107.379C140.328 107.698 140.021 107.958 139.666 108.137C139.312 108.316 138.92 108.41 138.522 108.411H76.35C75.5885 108.411 74.8466 108.17 74.232 107.722C73.6173 107.274 73.1618 106.642 72.9314 105.919L72.6773 105.12L140.941 105.129Z" fill="#30242A"/>
<path d="M214.772 108.42H32.6164V114.297H214.772V108.42Z" fill="#FFBE21"/>
<path d="M178.419 140.624L182.202 125.882H160.133C155.216 125.882 150.439 127.513 146.556 130.517C142.673 133.521 139.903 137.728 138.685 142.474L136.12 152.46H163.118C166.626 152.46 170.033 151.296 172.803 149.153C175.574 147.01 177.549 144.01 178.419 140.624Z" fill="#FFB7D5"/>
<path fill-rule="evenodd" clip-rule="evenodd" d="M136.815 147.868C137.218 147.963 137.467 148.365 137.372 148.766L136.499 152.442C136.403 152.843 136 153.091 135.597 152.996C135.195 152.901 134.945 152.499 135.041 152.098L135.914 148.423C136.009 148.022 136.412 147.773 136.815 147.868Z" fill="#A15842"/>
<path d="M66.1648 84.5846C63.4191 85.9512 62.0474 88.2298 62.0474 89.8262C62.0474 92.1563 64.4284 92.5946 64.4284 92.5946C64.4284 92.5946 62.6521 95.3771 65.7413 96.6828C65.7413 96.6828 65.7413 99.5474 68.6187 99.5474C68.6187 99.5474 68.2376 101.781 71.2397 101.992C74.2419 102.203 77.3311 100.642 77.5923 99.6318C77.8911 98.4386 77.0841 97.44 74.9054 97.1236C74.9054 97.1236 77.8464 95.7546 77.3805 94.0269C76.9147 92.2993 74.9265 92.3391 74.9265 92.3391C74.9265 92.3391 76.83 91.2022 75.8136 89.5261C74.7971 87.85 72.8537 88.4314 72.8537 88.4314C72.8537 88.4314 73.3619 87.2593 72.4726 86.3662C71.4138 85.3113 66.8612 86.6428 66.8612 86.6428L66.1648 84.5846Z" fill="#EAA58A"/>
<path fill-rule="evenodd" clip-rule="evenodd" d="M76.4785 96.7492C76.6614 97.1188 76.5089 97.5662 76.1378 97.7484C73.8025 98.8948 71.3463 99.7785 68.8147 100.383C68.4123 100.479 68.0079 100.232 67.9115 99.8317C67.815 99.4309 68.0629 99.0282 68.4652 98.9321C70.8887 98.3532 73.2399 97.5073 75.4754 96.4098C75.8465 96.2276 76.2956 96.3796 76.4785 96.7492Z" fill="#A15842"/>
<path fill-rule="evenodd" clip-rule="evenodd" d="M76.1055 92.0235C76.3247 92.373 76.2179 92.8333 75.867 93.0517C72.7843 94.9699 69.4376 96.4308 65.9324 97.3884C65.5334 97.4974 65.1212 97.2636 65.0118 96.8662C64.9024 96.4688 65.1371 96.0583 65.5361 95.9493C68.901 95.0299 72.1137 93.6275 75.0732 91.786C75.4241 91.5677 75.8863 91.674 76.1055 92.0235Z" fill="#A15842"/>
<path fill-rule="evenodd" clip-rule="evenodd" d="M73.7081 88.2004C73.9467 88.5371 73.8662 89.0026 73.5281 89.2403C70.749 91.1943 67.6674 92.6816 64.4058 93.643C64.009 93.76 63.5922 93.5345 63.4748 93.1393C63.3574 92.7442 63.5838 92.329 63.9806 92.2121C67.0853 91.2969 70.0187 89.8812 72.6641 88.0212C73.0021 87.7835 73.4695 87.8638 73.7081 88.2004Z" fill="#A15842"/>
<path d="M162.751 40.0104C158.691 34.1663 147.649 36.4941 147.649 36.4941C147.917 33.2849 148.792 24.0395 141.814 18.9597C134.836 13.8799 125.982 16.5546 122.756 20.5631C121.444 22.204 120.801 24.4122 120.427 26.8221C122.568 27.1807 125.709 26.447 125.709 26.447C130.003 31.2596 133.85 32.0238 133.85 32.0238C136.854 29.0303 142.125 29.1287 142.981 33.6647C143.87 38.3741 136.32 40.4909 136.32 40.4909C136.32 40.4909 135.614 48.9534 139.379 52.0102C140.534 52.9226 141.9 53.5326 143.353 53.7847C146.176 54.345 149.284 53.9676 152.122 54.5958C154.622 55.1328 157.014 56.0837 159.199 57.4088C160.061 56.6521 160.849 55.8153 161.552 54.9099C164.027 51.7828 166.987 46.1052 162.751 40.0104Z" fill="#A15842"/>
<path fill-rule="evenodd" clip-rule="evenodd" d="M130.764 24.2533C131.029 24.5698 130.986 25.0403 130.669 25.3042C129.144 26.5697 127.383 27.3127 125.414 27.7994C125.013 27.8987 124.606 27.6549 124.507 27.255C124.407 26.855 124.652 26.4503 125.053 26.351C126.877 25.9001 128.41 25.2366 129.709 24.1579C130.027 23.894 130.499 23.9367 130.764 24.2533Z" fill="#EAA58B"/>
<path fill-rule="evenodd" clip-rule="evenodd" d="M132.486 47.4693C132.691 47.827 132.567 48.2829 132.208 48.4875C131.162 49.0831 130.06 49.5744 128.918 49.9541C128.525 50.0845 128.101 49.8734 127.97 49.4825C127.839 49.0916 128.051 48.6689 128.444 48.5385C129.492 48.1899 130.504 47.7389 131.464 47.1921C131.823 46.9875 132.281 47.1116 132.486 47.4693Z" fill="#A15842"/>
<path fill-rule="evenodd" clip-rule="evenodd" d="M139.391 34.0309C139.61 34.3803 139.503 34.8406 139.153 35.0591L137.007 36.3953C136.656 36.6138 136.194 36.5076 135.975 36.1582C135.755 35.8088 135.862 35.3484 136.213 35.1299L138.358 33.7938C138.709 33.5753 139.171 33.6815 139.391 34.0309Z" fill="#A15842"/>
<path fill-rule="evenodd" clip-rule="evenodd" d="M127.424 40.5904C127.791 40.7803 127.934 41.2307 127.743 41.5965C127.266 42.5119 126.423 42.8729 125.702 42.9655C125.343 43.0116 124.997 42.9954 124.701 42.9457C124.421 42.8985 124.128 42.8112 123.903 42.6723C123.551 42.4554 123.443 41.9955 123.661 41.6451C123.878 41.2948 124.34 41.1866 124.692 41.4036C124.692 41.4034 124.692 41.4036 124.693 41.4041C124.704 41.4091 124.788 41.4467 124.951 41.4742C125.115 41.5019 125.312 41.5109 125.51 41.4855C125.903 41.4351 126.227 41.2663 126.414 40.9089C126.604 40.5431 127.057 40.4006 127.424 40.5904Z" fill="#A15842"/>
<path d="M128.669 36.0228C129.113 36.0228 129.474 35.6639 129.474 35.2211C129.474 34.7784 129.113 34.4194 128.669 34.4194C128.225 34.4194 127.864 34.7784 127.864 35.2211C127.864 35.6639 128.225 36.0228 128.669 36.0228Z" fill="#30242A"/>
<path d="M121.999 34.961C122.443 34.961 122.803 34.602 122.803 34.1593C122.803 33.7165 122.443 33.3575 121.999 33.3575C121.554 33.3575 121.194 33.7165 121.194 34.1593C121.194 34.602 121.554 34.961 121.999 34.961Z" fill="#30242A"/>
<path fill-rule="evenodd" clip-rule="evenodd" d="M124.49 36.5444C124.885 36.6687 125.104 37.0879 124.979 37.4808C124.902 37.7231 124.837 37.9544 124.802 38.1355C124.794 38.1754 124.789 38.2089 124.785 38.2366C124.834 38.2949 124.894 38.3437 124.962 38.38C125.327 38.5749 125.464 39.0273 125.268 39.3904C125.072 39.7534 124.618 39.8898 124.254 39.6949C123.892 39.5013 123.595 39.2065 123.399 38.8468L123.393 38.8359L123.387 38.8248C123.279 38.608 123.276 38.3849 123.28 38.2692C123.284 38.1287 123.306 37.984 123.331 37.8525C123.382 37.5876 123.467 37.2926 123.55 37.0309C123.675 36.638 124.096 36.4202 124.49 36.5444Z" fill="#A15842"/>
<path d="M137.619 43.6181C139.176 43.6181 140.438 42.3608 140.438 40.8098C140.438 39.2588 139.176 38.0015 137.619 38.0015C136.062 38.0015 134.8 39.2588 134.8 40.8098C134.8 42.3608 136.062 43.6181 137.619 43.6181Z" fill="#F5EBDD"/>
<path fill-rule="evenodd" clip-rule="evenodd" d="M116.624 33.1686C116.201 35.3358 117.455 37.2622 119.234 37.6071C121.013 37.952 122.901 36.6346 123.324 34.4674C123.747 32.3003 122.493 30.3739 120.714 30.0289C118.935 29.684 117.047 31.0014 116.624 33.1686ZM118.948 39.072C116.215 38.5421 114.601 35.7107 115.153 32.8835C115.705 30.0563 118.267 28.0342 121 28.5641C123.733 29.094 125.347 31.9254 124.795 34.7525C124.243 37.5797 121.682 39.6018 118.948 39.072Z" fill="#30242A"/>
<path fill-rule="evenodd" clip-rule="evenodd" d="M126.847 34.4175C126.423 36.5847 127.678 38.5111 129.457 38.856C131.236 39.2009 133.124 37.8835 133.547 35.7164C133.97 33.5492 132.716 31.6228 130.937 31.2778C129.157 30.9329 127.27 32.2503 126.847 34.4175ZM129.171 40.3209C126.437 39.791 124.824 36.9596 125.376 34.1324C125.928 31.3053 128.489 29.2831 131.223 29.813C133.956 30.3429 135.57 33.1743 135.018 36.0014C134.466 38.8286 131.904 40.8507 129.171 40.3209Z" fill="#30242A"/>
<path fill-rule="evenodd" clip-rule="evenodd" d="M123.508 34.1523C123.552 33.7426 123.921 33.446 124.333 33.4899L125.958 33.6634C126.37 33.7073 126.668 34.075 126.624 34.4847C126.579 34.8945 126.21 35.1911 125.799 35.1472L124.173 34.9737C123.762 34.9298 123.464 34.5621 123.508 34.1523Z" fill="#30242A"/>
<path fill-rule="evenodd" clip-rule="evenodd" d="M148.303 36.0662C148.712 36.1295 148.992 36.5109 148.928 36.9181L148.46 39.9186C148.396 40.3258 148.013 40.6046 147.605 40.5413C147.196 40.4781 146.916 40.0967 146.979 39.6894L147.447 36.6889C147.511 36.2817 147.894 36.0029 148.303 36.0662Z" fill="#30242A"/>
<path fill-rule="evenodd" clip-rule="evenodd" d="M113.902 78.0937C114.293 77.9598 114.719 78.1672 114.854 78.5569L117.131 85.1605C117.266 85.5502 117.057 85.9747 116.666 86.1085C116.275 86.2424 115.849 86.035 115.714 85.6453L113.437 79.0417C113.302 78.652 113.511 78.2275 113.902 78.0937Z" fill="#30242A"/>
<path fill-rule="evenodd" clip-rule="evenodd" d="M119.44 93.8442C119.44 93.4321 119.776 93.098 120.19 93.098H126.177C126.591 93.098 126.927 93.4321 126.927 93.8442C126.927 94.2563 126.591 94.5903 126.177 94.5903H120.19C119.776 94.5903 119.44 94.2563 119.44 93.8442Z" fill="#30242A"/>
<path fill-rule="evenodd" clip-rule="evenodd" d="M130.747 76.1883C131.152 76.1056 131.548 76.3657 131.631 76.7694L133.518 85.9375C133.528 85.9868 133.533 86.037 133.533 86.0873V94.5498C133.533 94.9619 133.198 95.2959 132.784 95.2959C132.37 95.2959 132.035 94.9619 132.035 94.5498V86.163L130.163 77.0691C130.08 76.6654 130.341 76.2711 130.747 76.1883Z" fill="#30242A"/>
<path fill-rule="evenodd" clip-rule="evenodd" d="M118.045 55.2283C118.423 55.0617 118.865 55.2323 119.033 55.6092L122.616 63.6872C122.724 63.9314 122.693 64.2146 122.535 64.4299C122.376 64.6452 122.114 64.7598 121.848 64.7304L119.198 64.4379L133.407 85.6735C133.637 86.0164 133.544 86.4796 133.199 86.7082C132.855 86.9367 132.39 86.844 132.161 86.5011L117.06 63.9337C116.899 63.6924 116.893 63.3798 117.044 63.1321C117.195 62.8843 117.477 62.7464 117.766 62.7783L120.719 63.1043L117.662 56.2123C117.495 55.8354 117.666 55.3948 118.045 55.2283Z" fill="#30242A"/>
<path fill-rule="evenodd" clip-rule="evenodd" d="M153.693 54.3404C154.031 54.5782 154.111 55.0439 153.872 55.3804L148.718 62.6431L152.779 62.3053C153.101 62.2785 153.403 62.4598 153.53 62.7553C153.657 63.0507 153.58 63.394 153.339 63.6072L132.573 81.9433C132.263 82.2166 131.79 82.1883 131.515 81.8799C131.241 81.5716 131.269 81.1 131.579 80.8266L150.659 63.9792L147.241 64.2636C146.951 64.2877 146.673 64.1422 146.528 63.8904C146.383 63.6386 146.399 63.3262 146.567 63.0893L152.649 54.519C152.887 54.1825 153.355 54.1025 153.693 54.3404Z" fill="#30242A"/>
<path fill-rule="evenodd" clip-rule="evenodd" d="M151.462 76.7836C151.799 76.5438 152.266 76.621 152.507 76.9561L157.032 83.2525C157.273 83.5877 157.195 84.0537 156.859 84.2936C156.522 84.5334 156.054 84.4562 155.813 84.1211L151.289 77.8246C151.048 77.4895 151.126 77.0234 151.462 76.7836Z" fill="#30242A"/>
<path fill-rule="evenodd" clip-rule="evenodd" d="M151.465 102.526C151.677 102.172 152.137 102.057 152.492 102.268C155.078 103.808 159.424 105.366 161.895 106.186C162.287 106.316 162.499 106.739 162.368 107.13C162.237 107.521 161.813 107.732 161.421 107.602C158.964 106.786 154.469 105.184 151.723 103.549C151.368 103.338 151.252 102.88 151.465 102.526Z" fill="#30242A"/>
<path d="M93.7089 48.5641C96.2648 48.5641 98.3368 46.4997 98.3368 43.9531C98.3368 41.4066 96.2648 39.3422 93.7089 39.3422C91.1529 39.3422 89.0809 41.4066 89.0809 43.9531C89.0809 46.4997 91.1529 48.5641 93.7089 48.5641Z" fill="#FFB7D5"/>
<path d="M79.8775 25.603L77.183 22.3659C76.7682 21.8677 76.0266 21.7987 75.5265 22.212L75.4685 22.2598C74.9684 22.6731 74.8992 23.412 75.314 23.9103L78.0085 27.1473C78.4232 27.6456 79.1649 27.7145 79.665 27.3013L79.7229 27.2534C80.223 26.8402 80.2922 26.1013 79.8775 25.603Z" fill="#4756DF"/>
<path d="M84.7236 29.5365L82.0132 26.2781L33.294 66.5275C32.8691 66.8788 32.6017 67.3838 32.5505 67.9316C32.4993 68.4793 32.6686 69.0249 33.0211 69.4483L33.0752 69.5139C33.2496 69.7235 33.4637 69.8967 33.7053 70.0238C33.9469 70.1509 34.2112 70.2293 34.4832 70.2545C34.7553 70.2798 35.0296 70.2514 35.2906 70.171C35.5516 70.0905 35.7942 69.9597 36.0044 69.7859L51.2364 57.1977V101.369H55.4879V53.6814L84.7236 29.5365Z" fill="#3EC1F3"/>
<path fill-rule="evenodd" clip-rule="evenodd" d="M76.2942 30.9486L77.4505 29.9996L78.8071 31.6395C78.8073 31.6396 78.8074 31.6398 78.8076 31.64C79.341 32.2824 79.7463 33.0203 80.002 33.8141L78.5753 34.2699C78.3778 33.6567 78.0647 33.0868 77.6526 32.5906L76.2942 30.9486Z" fill="#4756DF"/>
<path d="M53.3609 58.1753C56.4236 58.1753 58.9064 55.7016 58.9064 52.6501C58.9064 49.5986 56.4236 47.1249 53.3609 47.1249C50.2982 47.1249 47.8154 49.5986 47.8154 52.6501C47.8154 55.7016 50.2982 58.1753 53.3609 58.1753Z" fill="#4756DF"/>
<path d="M53.361 54.774C54.5382 54.774 55.4926 53.8231 55.4926 52.6502C55.4926 51.4772 54.5382 50.5264 53.361 50.5264C52.1837 50.5264 51.2294 51.4772 51.2294 52.6502C51.2294 53.8231 52.1837 54.774 53.361 54.774Z" fill="#3EC1F3"/>
<path fill-rule="evenodd" clip-rule="evenodd" d="M89.9376 46.6014L97.0312 40.7598L97.9859 41.9099L90.8923 47.7515L89.9376 46.6014Z" fill="#A15842"/>
<path d="M88.3188 28.9458C86.8272 28.7712 85.4604 28.0307 84.5025 26.8782L82.6203 24.6114C81.955 23.8134 80.9991 23.3112 79.9624 23.2149C78.9257 23.1186 77.8931 23.4363 77.0913 24.0981C76.6945 24.4259 76.3664 24.8284 76.1258 25.2825C75.8851 25.7367 75.7367 26.2336 75.6888 26.7449C75.641 27.2563 75.6947 27.772 75.8469 28.2627C75.9991 28.7533 76.2469 29.2093 76.576 29.6045L78.4582 31.8784C79.4119 33.0275 79.8861 34.4978 79.7828 35.9853L79.3123 42.8397C79.0791 46.1935 79.9336 49.5332 81.7498 52.3664L82.3521 53.3041L104.922 34.6515L104.113 33.8943C101.656 31.5916 98.5222 30.1362 95.1724 29.7428L88.3188 28.9458Z" fill="#3EC1F3"/>
<path d="M55.4879 101.369H51.2364L44.9521 103.075C43.7754 103.395 42.737 104.092 41.9968 105.058C41.2566 106.023 40.8557 107.205 40.8559 108.42H65.866C65.866 107.205 65.4648 106.023 64.7241 105.057C63.9835 104.091 62.9445 103.395 61.7674 103.075L55.4879 101.369Z" fill="#3EC1F3"/>
<path fill-rule="evenodd" clip-rule="evenodd" d="M101.218 30.8591C101.481 31.1767 101.436 31.647 101.118 31.9096L80.4625 48.9189C80.1436 49.1815 79.6714 49.1369 79.4077 48.8193C79.1441 48.5017 79.1889 48.0314 79.5077 47.7688L100.163 30.7595C100.482 30.4969 100.954 30.5415 101.218 30.8591Z" fill="#4756DF"/>
<path fill-rule="evenodd" clip-rule="evenodd" d="M50.3838 100.884C50.3838 100.472 50.7192 100.138 51.1329 100.138H55.4879C55.9017 100.138 56.2371 100.472 56.2371 100.884C56.2371 101.296 55.9017 101.63 55.4879 101.63H51.1329C50.7192 101.63 50.3838 101.296 50.3838 100.884Z" fill="#4756DF"/>
<path fill-rule="evenodd" clip-rule="evenodd" d="M40.9326 105.49C40.9326 105.078 41.268 104.744 41.6817 104.744H64.899C65.3128 104.744 65.6482 105.078 65.6482 105.49C65.6482 105.902 65.3128 106.236 64.899 106.236H41.6817C41.268 106.236 40.9326 105.902 40.9326 105.49Z" fill="#4756DF"/>
<path d="M175.494 168.895C175.965 164.91 175.729 155.965 170.539 149.148C165.349 142.331 172.421 145.163 174.539 147.038C177.927 150.039 180.91 152.915 183.505 162.554L175.494 168.895Z" fill="#30242A"/>
<path d="M238.166 211.21H265.865V210.307C265.864 209.035 265.357 207.815 264.453 206.916C263.55 206.016 262.326 205.511 261.049 205.511H238.022L238.166 211.21Z" fill="#A15842"/>
<path d="M170.596 184.861L176.438 211.21H187.293V209.569C187.293 208.511 186.872 207.496 186.123 206.747C185.373 205.998 184.356 205.575 183.294 205.572C183.294 205.572 188.719 201.519 192.023 197.522C192.023 197.522 197.686 204.398 205.709 203.221L206.29 206.034C206.592 207.494 207.39 208.806 208.549 209.748C209.708 210.691 211.158 211.207 212.654 211.21H238.965C250.635 211.21 256.376 209.435 256.705 202.815C256.716 202.563 256.674 202.311 256.584 202.075C256.494 201.838 256.357 201.623 256.181 201.441C256.006 201.258 255.795 201.114 255.561 201.015C255.328 200.916 255.077 200.865 254.823 200.865H247.478C247.175 200.865 246.876 200.798 246.603 200.668C246.329 200.537 246.089 200.348 245.899 200.113L242.772 196.247C241.845 195.103 240.608 194.248 239.208 193.784C237.808 193.32 236.304 193.266 234.874 193.629L228.585 195.23C228.585 195.23 217.442 179.275 207.349 168.194C197.702 157.615 179.557 156.474 172.41 170.253C170.112 174.762 169.47 179.93 170.596 184.861Z" fill="#A15842"/>
<path fill-rule="evenodd" clip-rule="evenodd" d="M231.554 204.765C232.285 204.765 233.008 204.908 233.684 205.186C234.359 205.464 234.972 205.873 235.489 206.387C236.006 206.902 236.416 207.513 236.696 208.186C236.975 208.858 237.119 209.579 237.119 210.307V211.21H235.621V210.307C235.621 209.775 235.516 209.248 235.311 208.757C235.107 208.265 234.807 207.819 234.43 207.443C234.052 207.067 233.604 206.768 233.11 206.565C232.617 206.361 232.088 206.257 231.554 206.257L228.347 206.257V204.765H231.554C231.554 204.765 231.554 204.765 231.554 204.765Z" fill="#30242A"/>
<path fill-rule="evenodd" clip-rule="evenodd" d="M193.81 169.521C194.084 169.212 194.558 169.184 194.868 169.457L194.382 170.003C194.868 169.457 194.868 169.458 194.868 169.458L194.869 169.458L194.87 169.46L194.875 169.464L194.888 169.476C194.9 169.486 194.915 169.5 194.934 169.518C194.973 169.555 195.027 169.607 195.095 169.674C195.231 169.809 195.421 170.007 195.649 170.267C196.104 170.786 196.709 171.555 197.327 172.566C198.562 174.588 199.85 177.585 200.073 181.492L200.073 181.492C200.286 185.207 198.911 188.906 197.323 191.878C195.728 194.862 193.875 197.192 193.034 198.19C192.768 198.505 192.295 198.546 191.978 198.281C191.661 198.016 191.62 197.545 191.886 197.23C192.692 196.275 194.473 194.034 196 191.177C197.533 188.307 198.767 184.896 198.578 181.577C198.371 177.96 197.181 175.197 196.047 173.341C195.479 172.413 194.927 171.713 194.52 171.248C194.316 171.016 194.15 170.843 194.036 170.73C193.98 170.674 193.936 170.632 193.909 170.606C193.895 170.593 193.885 170.584 193.879 170.579L193.873 170.574L193.873 170.574C193.564 170.3 193.536 169.829 193.81 169.521ZM193.873 170.574C193.873 170.573 193.872 170.573 193.873 170.573L193.873 170.573L193.873 170.574Z" fill="#30242A"/>
<path fill-rule="evenodd" clip-rule="evenodd" d="M204.24 192.541C204.653 192.519 205.006 192.835 205.029 193.246L204.28 193.286L203.532 193.326C203.51 192.915 203.827 192.563 204.24 192.541ZM204.28 193.286C203.532 193.326 203.532 193.326 203.532 193.326L203.536 193.392C203.538 193.434 203.542 193.496 203.547 193.577C203.556 193.738 203.57 193.973 203.589 194.268C203.627 194.857 203.684 195.686 203.76 196.645C203.911 198.561 204.139 201.009 204.445 203.11C204.504 203.518 204.884 203.8 205.294 203.741C205.703 203.682 205.987 203.304 205.928 202.896C205.629 200.843 205.404 198.433 205.253 196.528C205.178 195.578 205.122 194.756 205.085 194.173C205.066 193.881 205.052 193.649 205.042 193.49C205.038 193.41 205.034 193.349 205.032 193.308L205.029 193.246L204.28 193.286Z" fill="#30242A"/>
<path fill-rule="evenodd" clip-rule="evenodd" d="M181.63 208.056C182.044 208.056 182.379 208.39 182.379 208.802V210.975C182.379 211.387 182.044 211.722 181.63 211.722C181.217 211.722 180.881 211.387 180.881 210.975V208.802C180.881 208.39 181.217 208.056 181.63 208.056Z" fill="#30242A"/>
<path fill-rule="evenodd" clip-rule="evenodd" d="M184.226 208.056C184.639 208.056 184.975 208.39 184.975 208.802V210.975C184.975 211.387 184.639 211.722 184.226 211.722C183.812 211.722 183.476 211.387 183.476 210.975V208.802C183.476 208.39 183.812 208.056 184.226 208.056Z" fill="#30242A"/>
<path fill-rule="evenodd" clip-rule="evenodd" d="M231.18 208.056C231.594 208.056 231.929 208.39 231.929 208.802V210.975C231.929 211.387 231.594 211.722 231.18 211.722C230.766 211.722 230.431 211.387 230.431 210.975V208.802C230.431 208.39 230.766 208.056 231.18 208.056Z" fill="#30242A"/>
<path fill-rule="evenodd" clip-rule="evenodd" d="M233.775 208.056C234.189 208.056 234.524 208.39 234.524 208.802V210.975C234.524 211.387 234.189 211.722 233.775 211.722C233.361 211.722 233.026 211.387 233.026 210.975V208.802C233.026 208.39 233.361 208.056 233.775 208.056Z" fill="#30242A"/>
<path d="M240.735 202.454C241.321 202.454 241.796 201.981 241.796 201.397C241.796 200.813 241.321 200.34 240.735 200.34C240.149 200.34 239.674 200.813 239.674 201.397C239.674 201.981 240.149 202.454 240.735 202.454Z" fill="#30242A"/>
<path d="M234.944 193.607V193.579L228.575 195.22L234.864 193.619L234.944 193.607Z" fill="#30242A"/>
<path d="M219.27 205.617C217.426 206.554 214.819 208.39 215.035 211.17H225.279L227.432 207.787C227.784 207.234 228.27 206.778 228.846 206.462C229.422 206.146 230.069 205.98 230.726 205.98H231.411L234.921 193.678L234.869 193.624L228.58 195.225L222.559 202.909C221.673 204.039 220.551 204.962 219.27 205.617Z" fill="#30242A"/>
<path d="M204.309 173.938C204.309 173.938 201.46 183.764 210.661 187.475C215.327 189.351 219.202 187.928 221.891 186.069C217.828 180.677 212.452 173.813 207.346 168.206C206.066 166.803 204.628 165.551 203.059 164.477C201.667 166.366 200.142 171.04 204.309 173.938Z" fill="#EAA58B"/>
<path d="M180.804 181.064C182.955 181.064 184.698 179.327 184.698 177.184C184.698 175.042 182.955 173.305 180.804 173.305C178.654 173.305 176.911 175.042 176.911 177.184C176.911 179.327 178.654 181.064 180.804 181.064Z" fill="#EAA58B"/>
<path d="M254.833 200.865H253.421C253.343 201.257 253.354 201.662 253.451 202.049C253.549 202.437 253.731 202.799 253.986 203.108C254.24 203.417 254.56 203.666 254.922 203.838C255.285 204.009 255.681 204.099 256.082 204.1C256.248 204.1 256.413 204.084 256.576 204.053C256.648 203.644 256.694 203.23 256.715 202.815C256.725 202.563 256.684 202.311 256.594 202.075C256.504 201.838 256.367 201.623 256.191 201.441C256.015 201.258 255.804 201.113 255.571 201.015C255.337 200.916 255.086 200.865 254.833 200.865Z" fill="#30242A"/>
<path fill-rule="evenodd" clip-rule="evenodd" d="M260.437 208.056C260.851 208.056 261.186 208.39 261.186 208.802V210.921C261.186 211.334 260.851 211.668 260.437 211.668C260.023 211.668 259.688 211.334 259.688 210.921V208.802C259.688 208.39 260.023 208.056 260.437 208.056Z" fill="#30242A"/>
<path fill-rule="evenodd" clip-rule="evenodd" d="M263.032 208.056C263.446 208.056 263.781 208.39 263.781 208.802V210.921C263.781 211.334 263.446 211.668 263.032 211.668C262.618 211.668 262.283 211.334 262.283 210.921V208.802C262.283 208.39 262.618 208.056 263.032 208.056Z" fill="#30242A"/>
<path fill-rule="evenodd" clip-rule="evenodd" d="M256.92 204.782C257.307 204.927 257.503 205.357 257.357 205.743C255.942 209.494 252.074 211.089 246.273 211.671C245.861 211.712 245.494 211.413 245.453 211.003C245.411 210.593 245.711 210.228 246.123 210.186C251.86 209.61 254.871 208.092 255.955 205.218C256.1 204.833 256.532 204.637 256.92 204.782Z" fill="#30242A"/>
<path d="M152.133 87.5947C149.23 87.3356 146.311 87.3035 143.402 87.4986C139.242 87.8385 133.65 88.9238 131.403 90.0068C129.156 91.0898 120.552 94.9132 122.869 96.1954C124.987 97.3675 129.429 95.6047 129.429 95.6047C129.429 95.6047 124.996 99.6648 124.234 101.364C123.472 103.064 125.991 104.018 125.991 104.018C126.655 106.92 129.624 105.673 129.624 105.673C131.495 109.637 141.6 101.048 141.6 101.048C144.004 101.297 146.432 101.195 148.806 100.745C148.806 100.745 150.086 101.46 152.14 102.454L152.133 87.5947Z" fill="#EAA58A"/>
<path d="M177.379 107.48C196.255 98.5465 168.892 65.1679 159.211 57.4064L153.785 79.2704L160.627 88.6729C157.63 88.1572 154.764 87.8032 152.133 87.5946V102.454C158.124 105.356 170.711 110.645 177.379 107.48Z" fill="#4756DF"/>
<path fill-rule="evenodd" clip-rule="evenodd" d="M135.685 90.4858C135.91 90.8311 135.812 91.2933 135.465 91.5182C133.431 92.8375 130.68 95.0435 129.003 96.4256C128.684 96.6883 128.212 96.6439 127.948 96.3264C127.684 96.009 127.729 95.5386 128.048 95.2759C129.721 93.8966 132.533 91.6393 134.648 90.2675C134.995 90.0427 135.459 90.1404 135.685 90.4858Z" fill="#A15842"/>
<path fill-rule="evenodd" clip-rule="evenodd" d="M137.973 93.7854C138.198 94.1312 138.098 94.5932 137.751 94.8173C132.998 97.8844 128.65 101.996 126.487 104.16C126.195 104.452 125.721 104.453 125.428 104.162C125.135 103.872 125.134 103.399 125.425 103.107C127.611 100.92 132.048 96.7192 136.936 93.5648C137.284 93.3408 137.748 93.4395 137.973 93.7854Z" fill="#A15842"/>
<path fill-rule="evenodd" clip-rule="evenodd" d="M140.1 97.2872C140.334 97.627 140.247 98.0914 139.906 98.3247C136.663 100.543 132.875 103.925 130.383 106.265C130.082 106.548 129.608 106.534 129.324 106.234C129.04 105.934 129.054 105.462 129.355 105.179C131.855 102.831 135.714 99.3819 139.058 97.0945C139.399 96.8612 139.866 96.9475 140.1 97.2872Z" fill="#A15842"/>
<path d="M196.114 96.4461C196.471 96.4467 196.813 96.5882 197.065 96.8395C197.317 97.0908 197.459 97.4315 197.46 97.787V97.9862C197.459 98.3416 197.317 98.6823 197.065 98.9337C196.813 99.185 196.471 99.3264 196.114 99.3271H189.18V96.4461H196.114ZM196.114 94.5707H187.552C187.519 94.5707 187.485 94.5774 187.454 94.5902C187.424 94.6031 187.395 94.622 187.372 94.6457C187.348 94.6695 187.329 94.6977 187.317 94.7287C187.304 94.7596 187.298 94.7928 187.298 94.8263V100.956C187.298 101.023 187.325 101.088 187.373 101.135C187.42 101.183 187.485 101.209 187.552 101.209H196.114C196.539 101.209 196.959 101.126 197.351 100.964C197.743 100.802 198.099 100.564 198.399 100.265C198.699 99.9655 198.937 99.6102 199.098 99.2192C199.26 98.8281 199.343 98.4092 199.342 97.9862V97.7799C199.342 96.9269 199.002 96.1089 198.397 95.5057C197.791 94.9026 196.97 94.5637 196.114 94.5637V94.5707Z" fill="#3EC1F3"/>
<path d="M185.762 93.5607C178.751 93.5607 175.511 87.9933 175.511 87.9933L180.216 108.42H191.293L195.999 87.9933C194.906 89.7097 193.393 91.1212 191.602 92.0951C189.812 93.069 187.802 93.5733 185.762 93.5607Z" fill="#3EC1F3"/>
<path d="M185.762 93.5607C187.804 93.5757 189.817 93.0725 191.61 92.0985C193.404 91.1245 194.919 89.7118 196.013 87.9933H175.511C175.511 87.9933 178.75 93.5607 185.762 93.5607Z" fill="#30242A"/>
</svg>
