<svg width="73" height="24" viewBox="0 0 73 24" fill="none" xmlns="http://www.w3.org/2000/svg">
<path d="M0 5C0 2.23858 2.23858 0 5 0H68C70.7614 0 73 2.23858 73 5V19C73 21.7614 70.7614 24 68 24H5C2.23857 24 0 21.7614 0 19V5Z" fill="#93EACB"/>
<path d="M11.335 12.2607H9.95801V15H8.72266V7.89062H11.2227C12.043 7.89062 12.6761 8.07454 13.1221 8.44238C13.568 8.81022 13.791 9.34245 13.791 10.0391C13.791 10.5143 13.6755 10.9131 13.4443 11.2354C13.2165 11.5544 12.8975 11.8001 12.4873 11.9727L14.084 14.9365V15H12.7607L11.335 12.2607ZM9.95801 11.2695H11.2275C11.6442 11.2695 11.9697 11.1654 12.2041 10.957C12.4385 10.7454 12.5557 10.4574 12.5557 10.0928C12.5557 9.71191 12.4466 9.41732 12.2285 9.20898C12.0137 9.00065 11.6914 8.89323 11.2617 8.88672H9.95801V11.2695ZM20.6182 11.8262H17.6982V14.0137H21.1113V15H16.4629V7.89062H21.0771V8.88672H17.6982V10.8496H20.6182V11.8262ZM29.042 12.6855C28.9704 13.444 28.6904 14.0365 28.2021 14.4629C27.7139 14.8861 27.0645 15.0977 26.2539 15.0977C25.6875 15.0977 25.1878 14.9642 24.7549 14.6973C24.3252 14.4271 23.9932 14.0446 23.7588 13.5498C23.5244 13.055 23.4023 12.4805 23.3926 11.8262V11.1621C23.3926 10.4915 23.5114 9.90072 23.749 9.38965C23.9867 8.87858 24.3268 8.4847 24.7695 8.20801C25.2155 7.93132 25.7298 7.79297 26.3125 7.79297C27.097 7.79297 27.7285 8.00618 28.207 8.43262C28.6855 8.85905 28.9639 9.46126 29.042 10.2393H27.8115C27.7529 9.72819 27.6032 9.36035 27.3623 9.13574C27.1247 8.90788 26.7747 8.79395 26.3125 8.79395C25.7754 8.79395 25.362 8.99089 25.0723 9.38477C24.7858 9.77539 24.6393 10.3499 24.6328 11.1084V11.7383C24.6328 12.5065 24.7695 13.0924 25.043 13.4961C25.3197 13.8997 25.7233 14.1016 26.2539 14.1016C26.7389 14.1016 27.1035 13.9925 27.3477 13.7744C27.5918 13.5563 27.7464 13.1934 27.8115 12.6855H29.042ZM35.8057 11.8262H32.8857V14.0137H36.2988V15H31.6504V7.89062H36.2646V8.88672H32.8857V10.8496H35.8057V11.8262ZM40.1084 15H38.8779V7.89062H40.1084V15ZM45.6318 13.4521L47.4385 7.89062H48.7959L46.2373 15H45.041L42.4922 7.89062H43.8447L45.6318 13.4521ZM55.2568 11.8262H52.3369V14.0137H55.75V15H51.1016V7.89062H55.7158V8.88672H52.3369V10.8496H55.2568V11.8262ZM58.2559 15V7.89062H60.3555C60.9837 7.89062 61.5404 8.0306 62.0254 8.31055C62.5137 8.59049 62.8913 8.98763 63.1582 9.50195C63.4251 10.0163 63.5586 10.6055 63.5586 11.2695V11.626C63.5586 12.2998 63.4235 12.8923 63.1533 13.4033C62.8864 13.9144 62.5039 14.3083 62.0059 14.585C61.5111 14.8617 60.943 15 60.3018 15H58.2559ZM59.4912 8.88672V14.0137H60.2969C60.9447 14.0137 61.4411 13.8118 61.7861 13.4082C62.1344 13.0013 62.3118 12.4186 62.3184 11.6602V11.2646C62.3184 10.4932 62.1507 9.90397 61.8154 9.49707C61.4801 9.09017 60.9935 8.88672 60.3555 8.88672H59.4912Z" fill="#079774"/>
</svg>
