<svg width="397" height="298" viewBox="0 0 397 298" fill="none" xmlns="http://www.w3.org/2000/svg">
<path d="M199.458 72.3098H161.016V129.225H199.458V72.3098Z" fill="#798CF2"/>
<path d="M149.753 72.3098H161.016V129.225H135.766V86.3084C135.766 82.5957 137.24 79.0351 139.863 76.4099C142.486 73.7847 146.044 72.3098 149.753 72.3098Z" fill="#798CF2"/>
<path d="M148.13 119.448C151.556 119.448 154.334 116.669 154.334 113.24C154.334 109.811 151.556 107.032 148.13 107.032C144.705 107.032 141.927 109.811 141.927 113.24C141.927 116.669 144.705 119.448 148.13 119.448Z" fill="#CFA071"/>
<path d="M145.649 110.757C145.375 110.757 145.153 110.534 145.153 110.26C145.153 109.986 145.375 109.763 145.649 109.763C145.923 109.763 146.145 109.986 146.145 110.26C146.145 110.534 145.923 110.757 145.649 110.757Z" fill="#575757"/>
<path d="M148.379 109.763C148.104 109.763 147.882 109.541 147.882 109.267C147.882 108.992 148.104 108.77 148.379 108.77C148.653 108.77 148.875 108.992 148.875 109.267C148.875 109.541 148.653 109.763 148.379 109.763Z" fill="#575757"/>
<path d="M151.852 115.227C151.578 115.227 151.356 115.004 151.356 114.73C151.356 114.456 151.578 114.233 151.852 114.233C152.126 114.233 152.349 114.456 152.349 114.73C152.349 115.004 152.126 115.227 151.852 115.227Z" fill="#575757"/>
<path d="M147.634 115.227C147.36 115.227 147.138 115.004 147.138 114.73C147.138 114.456 147.36 114.233 147.634 114.233C147.908 114.233 148.13 114.456 148.13 114.73C148.13 115.004 147.908 115.227 147.634 115.227Z" fill="#575757"/>
<path d="M147.138 117.71C146.864 117.71 146.642 117.488 146.642 117.213C146.642 116.939 146.864 116.717 147.138 116.717C147.412 116.717 147.634 116.939 147.634 117.213C147.634 117.488 147.412 117.71 147.138 117.71Z" fill="#575757"/>
<path d="M143.664 113.24C143.39 113.24 143.168 113.018 143.168 112.743C143.168 112.469 143.39 112.247 143.664 112.247C143.938 112.247 144.16 112.469 144.16 112.743C144.16 113.018 143.938 113.24 143.664 113.24Z" fill="#575757"/>
<path d="M149.867 111.75C149.593 111.75 149.371 111.528 149.371 111.253C149.371 110.979 149.593 110.757 149.867 110.757C150.141 110.757 150.364 110.979 150.364 111.253C150.364 111.528 150.141 111.75 149.867 111.75Z" fill="#575757"/>
<path fill-rule="evenodd" clip-rule="evenodd" d="M161.07 86.4517C161.19 86.7464 161.048 87.0822 160.753 87.2018L135.693 97.3835C135.398 97.5031 135.063 97.3612 134.943 97.0665C134.824 96.7719 134.965 96.436 135.26 96.3164L160.32 86.1347C160.615 86.0151 160.95 86.157 161.07 86.4517Z" fill="#5569D3"/>
<path fill-rule="evenodd" clip-rule="evenodd" d="M159.986 129.225V72.3098H161.137V129.225H159.986Z" fill="#5569D3"/>
<path d="M301.819 221.655V199.802L288.626 186.369H251.549L238.356 199.802V220.063H192.18V211.637C177.394 210.043 181.943 199.116 173.754 199.116H159.197C158.136 199.112 157.096 199.414 156.202 199.986L135.65 187.273H114.497L87.9975 203.663H88.0546V224.3L70.2566 235.308V254.204H315.012V235.082L301.819 221.655Z" fill="#F5EBDD"/>
<path d="M323.885 254.209H309.553C309.553 250.251 312.762 246.242 316.719 246.242C320.677 246.242 323.885 250.251 323.885 254.209Z" fill="#FFC5BE"/>
<path d="M331.346 254.209H320.699C320.699 251.269 323.084 248.291 326.021 248.291C328.959 248.291 331.346 251.269 331.346 254.209Z" fill="#FFC5BE"/>
<path fill-rule="evenodd" clip-rule="evenodd" d="M130.656 157.688C129.439 157.655 128.333 157.74 127.308 157.895C126.994 157.943 126.7 157.726 126.653 157.412C126.605 157.097 126.822 156.804 127.136 156.756C128.223 156.592 129.397 156.502 130.687 156.537C131.005 156.546 131.255 156.811 131.247 157.128C131.238 157.446 130.973 157.697 130.656 157.688ZM133.539 157.382C133.597 157.069 133.897 156.863 134.21 156.921C135.279 157.121 136.417 157.404 137.635 157.788C137.938 157.883 138.106 158.207 138.011 158.51C137.916 158.813 137.592 158.982 137.289 158.886C136.113 158.515 135.02 158.244 133.999 158.054C133.686 157.995 133.48 157.695 133.539 157.382ZM124.4 157.936C124.489 158.241 124.314 158.561 124.009 158.65C123.522 158.791 123.05 158.938 122.582 159.083C122.509 159.106 122.437 159.128 122.364 159.151C122.061 159.245 121.738 159.075 121.644 158.771C121.55 158.467 121.72 158.145 122.024 158.051C122.096 158.028 122.168 158.006 122.24 157.983C122.707 157.838 123.19 157.689 123.687 157.544C123.992 157.455 124.311 157.63 124.4 157.936ZM140.17 159.306C140.292 159.013 140.629 158.874 140.923 158.996C141.932 159.417 142.99 159.901 144.102 160.456C144.387 160.598 144.502 160.943 144.36 161.228C144.219 161.513 143.873 161.629 143.589 161.487C142.499 160.943 141.464 160.47 140.48 160.059C140.187 159.937 140.048 159.6 140.17 159.306ZM146.399 162.317C146.556 162.04 146.907 161.942 147.183 162.099C148.148 162.645 149.15 163.24 150.191 163.887C150.461 164.055 150.544 164.41 150.376 164.68C150.208 164.95 149.853 165.033 149.584 164.865C148.556 164.226 147.567 163.639 146.617 163.101C146.34 162.945 146.243 162.593 146.399 162.317ZM152.303 165.926C152.479 165.662 152.837 165.591 153.101 165.767C154.029 166.388 154.985 167.048 155.972 167.749C156.231 167.933 156.292 168.293 156.108 168.552C155.924 168.811 155.565 168.872 155.306 168.688C154.328 167.993 153.38 167.34 152.461 166.725C152.197 166.548 152.126 166.19 152.303 165.926ZM157.974 169.911C158.164 169.656 158.524 169.604 158.779 169.794C159.674 170.462 160.593 171.162 161.536 171.894C161.787 172.089 161.832 172.451 161.637 172.702C161.442 172.953 161.081 172.999 160.83 172.804C159.893 172.076 158.98 171.381 158.091 170.717C157.836 170.527 157.784 170.166 157.974 169.911ZM274.12 174.004C274.132 174.322 273.884 174.589 273.566 174.6C273.012 174.62 272.454 174.652 271.893 174.694C271.576 174.719 271.3 174.481 271.275 174.164C271.251 173.847 271.489 173.57 271.806 173.546C272.381 173.502 272.954 173.47 273.525 173.449C273.842 173.438 274.109 173.686 274.12 174.004ZM163.447 174.136C163.646 173.888 164.009 173.849 164.256 174.048C164.706 174.41 165.161 174.779 165.62 175.156C166.094 175.543 166.562 175.919 167.024 176.284C167.274 176.481 167.317 176.843 167.12 177.093C166.924 177.343 166.562 177.386 166.312 177.189C165.844 176.819 165.37 176.439 164.892 176.047C164.434 175.673 163.982 175.305 163.535 174.945C163.287 174.746 163.248 174.383 163.447 174.136ZM269.039 174.418C269.086 174.732 268.869 175.025 268.555 175.072C267.458 175.236 266.354 175.438 265.246 175.676C264.935 175.743 264.629 175.545 264.562 175.234C264.496 174.923 264.693 174.617 265.004 174.55C266.135 174.307 267.263 174.1 268.385 173.933C268.7 173.886 268.992 174.103 269.039 174.418ZM262.378 175.771C262.462 176.078 262.282 176.395 261.976 176.479C260.9 176.776 259.824 177.105 258.752 177.463C258.451 177.563 258.125 177.4 258.024 177.098C257.924 176.797 258.087 176.471 258.388 176.37C259.479 176.006 260.574 175.672 261.67 175.369C261.977 175.285 262.293 175.465 262.378 175.771ZM255.908 177.864C256.023 178.16 255.877 178.494 255.581 178.609C254.535 179.017 253.495 179.45 252.467 179.908C252.176 180.037 251.836 179.906 251.707 179.615C251.578 179.324 251.709 178.984 251.999 178.855C253.044 178.39 254.1 177.95 255.163 177.536C255.46 177.421 255.793 177.567 255.908 177.864ZM169.045 178.552C169.231 178.294 169.591 178.237 169.848 178.424C170.841 179.144 171.808 179.812 172.748 180.429C173.014 180.604 173.088 180.961 172.914 181.227C172.739 181.493 172.383 181.567 172.117 181.392C171.161 180.765 170.179 180.087 169.173 179.356C168.915 179.169 168.858 178.809 169.045 178.552ZM200.385 179.57C199.881 178.96 199.084 178.764 198.287 178.796L200.385 179.57ZM195.471 180.275C195.646 180.541 195.572 180.898 195.306 181.073C194.416 181.657 193.568 182.447 192.92 183.4C192.741 183.663 192.383 183.731 192.12 183.552C191.858 183.373 191.79 183.015 191.969 182.752C192.711 181.661 193.672 180.768 194.675 180.11C194.94 179.935 195.297 180.009 195.471 180.275ZM249.672 180.576C249.815 180.861 249.699 181.206 249.415 181.349C248.406 181.854 247.41 182.381 246.431 182.927C246.154 183.082 245.803 182.982 245.649 182.705C245.494 182.427 245.593 182.076 245.871 181.921C246.865 181.366 247.876 180.831 248.901 180.319C249.185 180.176 249.53 180.292 249.672 180.576ZM174.989 182.51C175.148 182.234 175.5 182.14 175.775 182.299C176.848 182.918 177.882 183.468 178.878 183.954C179.163 184.094 179.282 184.438 179.143 184.724C179.003 185.01 178.659 185.129 178.373 184.989C177.352 184.491 176.294 183.928 175.2 183.296C174.925 183.137 174.83 182.785 174.989 182.51ZM243.709 183.846C243.876 184.116 243.793 184.471 243.523 184.639C242.559 185.236 241.616 185.852 240.698 186.483C240.436 186.663 240.078 186.597 239.898 186.335C239.718 186.073 239.785 185.714 240.046 185.534C240.98 184.892 241.938 184.267 242.917 183.66C243.187 183.492 243.542 183.576 243.709 183.846ZM199.157 184.332C199.386 184.552 199.393 184.916 199.173 185.146C198.389 185.963 197.346 186.707 196.042 187.266C195.749 187.391 195.411 187.255 195.286 186.963C195.161 186.671 195.297 186.332 195.589 186.207C196.757 185.706 197.67 185.05 198.343 184.348C198.563 184.119 198.927 184.111 199.157 184.332ZM181.37 185.699C181.483 185.402 181.816 185.253 182.112 185.367C183.286 185.816 184.397 186.169 185.446 186.438C185.754 186.517 185.94 186.831 185.861 187.139C185.782 187.447 185.469 187.633 185.161 187.554C184.066 187.273 182.913 186.906 181.701 186.442C181.405 186.329 181.256 185.996 181.37 185.699ZM191.246 185.814C191.562 185.852 191.787 186.139 191.749 186.454C191.724 186.666 191.709 186.883 191.705 187.103C191.91 187.089 192.112 187.07 192.309 187.048C192.625 187.012 192.91 187.239 192.946 187.555C192.982 187.871 192.755 188.156 192.439 188.192C192.224 188.216 192.005 188.237 191.782 188.253C191.853 188.723 191.975 189.211 192.156 189.713C192.263 190.013 192.108 190.342 191.809 190.45C191.509 190.557 191.18 190.402 191.073 190.102C190.851 189.484 190.704 188.88 190.625 188.293C190.026 188.294 189.4 188.264 188.748 188.2C188.432 188.169 188.201 187.887 188.232 187.571C188.263 187.254 188.544 187.023 188.861 187.054C189.45 187.112 190.014 187.14 190.553 187.142C190.556 186.862 190.574 186.587 190.607 186.318C190.644 186.002 190.931 185.776 191.246 185.814ZM238.075 187.656C238.268 187.909 238.22 188.27 237.967 188.463C237.518 188.807 237.077 189.154 236.644 189.504C236.191 189.87 235.669 190.245 235.088 190.625C234.822 190.798 234.466 190.723 234.292 190.457C234.118 190.191 234.193 189.834 234.459 189.66C235.014 189.298 235.504 188.945 235.92 188.608L236.258 189.026L235.92 188.608C236.362 188.251 236.811 187.898 237.269 187.548C237.521 187.355 237.882 187.404 238.075 187.656ZM232.059 191.725C232.203 192.009 232.09 192.355 231.807 192.5C230.756 193.035 229.611 193.567 228.395 194.084C228.102 194.208 227.765 194.071 227.64 193.778C227.516 193.486 227.653 193.148 227.945 193.023C229.139 192.516 230.26 191.995 231.285 191.473C231.569 191.329 231.915 191.442 232.059 191.725ZM193.004 192.553C193.257 192.36 193.618 192.409 193.81 192.662C194.141 193.095 194.516 193.537 194.939 193.985L194.939 193.985C195.34 194.411 195.779 194.797 196.253 195.147C196.509 195.335 196.564 195.696 196.376 195.952C196.188 196.208 195.828 196.263 195.572 196.074C195.044 195.686 194.552 195.254 194.102 194.776M225.247 194.713C225.354 195.013 225.199 195.342 224.9 195.45C223.746 195.864 222.552 196.258 221.334 196.622C221.029 196.713 220.709 196.54 220.618 196.235C220.527 195.93 220.7 195.609 221.005 195.518C222.203 195.16 223.376 194.773 224.511 194.366C224.81 194.258 225.14 194.414 225.247 194.713ZM218.134 196.903C218.208 197.212 218.017 197.523 217.708 197.596C216.487 197.887 215.255 198.142 214.026 198.353C213.713 198.406 213.416 198.196 213.362 197.882C213.308 197.569 213.519 197.271 213.832 197.217C215.035 197.011 216.243 196.761 217.441 196.476C217.75 196.402 218.061 196.593 218.134 196.903ZM198.659 197.128C198.765 196.828 199.094 196.672 199.394 196.778C200.474 197.162 201.648 197.438 202.896 197.617C203.21 197.662 203.429 197.954 203.384 198.269C203.339 198.583 203.047 198.802 202.733 198.757C201.422 198.569 200.172 198.277 199.008 197.863C198.709 197.757 198.552 197.428 198.659 197.128ZM210.813 198.224C210.843 198.541 210.61 198.822 210.294 198.851C209.015 198.97 207.753 199.031 206.522 199.024C206.205 199.022 205.949 198.762 205.951 198.444C205.952 198.126 206.212 197.87 206.529 197.872C207.717 197.879 208.942 197.82 210.187 197.704C210.504 197.675 210.784 197.908 210.813 198.224Z" fill="#FFC5BE"/>
<path fill-rule="evenodd" clip-rule="evenodd" d="M114.008 186.976C114.175 186.705 114.529 186.621 114.8 186.788L141.302 203.178C141.572 203.346 141.656 203.7 141.489 203.971C141.322 204.242 140.967 204.325 140.697 204.158L114.195 187.768C113.924 187.601 113.841 187.246 114.008 186.976Z" fill="#FFC5BE"/>
<path fill-rule="evenodd" clip-rule="evenodd" d="M87.7274 203.668C87.7274 203.35 87.985 203.092 88.3027 203.092H141.057C141.374 203.092 141.632 203.35 141.632 203.668V253.961C141.632 254.279 141.374 254.536 141.057 254.536C140.739 254.536 140.481 254.279 140.481 253.961V204.244H88.3027C87.985 204.244 87.7274 203.986 87.7274 203.668Z" fill="#FFC5BE"/>
<path fill-rule="evenodd" clip-rule="evenodd" d="M87.6252 223.972C87.943 223.975 88.1984 224.235 88.1957 224.553L87.9476 254.06C87.9449 254.378 87.6851 254.633 87.3674 254.631C87.0496 254.628 86.7942 254.368 86.7969 254.05L87.045 224.543C87.0477 224.225 87.3075 223.97 87.6252 223.972Z" fill="#FFC5BE"/>
<path fill-rule="evenodd" clip-rule="evenodd" d="M69.9293 235.313C69.9293 234.995 70.1869 234.737 70.5047 234.737H87.3151C87.6329 234.737 87.8905 234.995 87.8905 235.313C87.8905 235.631 87.6329 235.889 87.3151 235.889H70.5047C70.1869 235.889 69.9293 235.631 69.9293 235.313Z" fill="#FFC5BE"/>
<path fill-rule="evenodd" clip-rule="evenodd" d="M87.0822 231.784C87.0822 231.466 87.3398 231.208 87.6576 231.208H140.657C140.975 231.208 141.232 231.466 141.232 231.784C141.232 232.102 140.975 232.36 140.657 232.36H87.6576C87.3398 232.36 87.0822 232.102 87.0822 231.784Z" fill="#FFC5BE"/>
<path fill-rule="evenodd" clip-rule="evenodd" d="M237.21 239.299C237.21 238.981 237.468 238.723 237.786 238.723H275.319C275.637 238.723 275.895 238.981 275.895 239.299C275.895 239.617 275.637 239.875 275.319 239.875H237.786C237.468 239.875 237.21 239.617 237.21 239.299Z" fill="#FFC5BE"/>
<path fill-rule="evenodd" clip-rule="evenodd" d="M140.424 203.668C140.424 203.35 140.682 203.092 140.999 203.092H153.366C153.684 203.092 153.941 203.35 153.941 203.668C153.941 203.986 153.684 204.244 153.366 204.244H140.999C140.682 204.244 140.424 203.986 140.424 203.668Z" fill="#FFC5BE"/>
<path fill-rule="evenodd" clip-rule="evenodd" d="M238.029 199.799C238.029 199.481 238.287 199.223 238.604 199.223H275.434C275.751 199.223 276.009 199.481 276.009 199.799V253.961C276.009 254.279 275.751 254.536 275.434 254.536C275.116 254.536 274.858 254.279 274.858 253.961V200.375H238.604C238.287 200.375 238.029 200.117 238.029 199.799Z" fill="#FFC5BE"/>
<path fill-rule="evenodd" clip-rule="evenodd" d="M274.858 199.799C274.858 199.481 275.116 199.223 275.434 199.223H301.323C301.641 199.223 301.898 199.481 301.898 199.799C301.898 200.117 301.641 200.375 301.323 200.375H276.009V253.712C276.009 254.03 275.751 254.288 275.434 254.288C275.116 254.288 274.858 254.03 274.858 253.712V199.799Z" fill="#FFC5BE"/>
<path fill-rule="evenodd" clip-rule="evenodd" d="M177.273 212.091C177.273 211.773 177.531 211.516 177.849 211.516H191.932C192.25 211.516 192.507 211.773 192.507 212.091C192.507 212.409 192.25 212.667 191.932 212.667H177.849C177.531 212.667 177.273 212.409 177.273 212.091Z" fill="#FFC5BE"/>
<path fill-rule="evenodd" clip-rule="evenodd" d="M288.051 235.087C288.051 234.769 288.309 234.511 288.626 234.511H314.622C314.94 234.511 315.198 234.769 315.198 235.087C315.198 235.405 314.94 235.663 314.622 235.663H289.202V253.961C289.202 254.279 288.944 254.536 288.626 254.536C288.309 254.536 288.051 254.279 288.051 253.961V235.087Z" fill="#FFC5BE"/>
<path fill-rule="evenodd" clip-rule="evenodd" d="M288.886 186.103C289.113 186.326 289.116 186.69 288.893 186.917L275.844 200.203C275.621 200.43 275.257 200.433 275.03 200.21C274.804 199.987 274.801 199.622 275.023 199.396L288.072 186.11C288.295 185.883 288.659 185.88 288.886 186.103Z" fill="#FFC5BE"/>
<path fill-rule="evenodd" clip-rule="evenodd" d="M275.03 221.244C275.257 221.021 275.621 221.024 275.844 221.251L289.037 234.684C289.259 234.91 289.256 235.275 289.03 235.498C288.803 235.721 288.439 235.718 288.216 235.491L275.023 222.059C274.801 221.832 274.804 221.467 275.03 221.244Z" fill="#FFC5BE"/>
<path fill-rule="evenodd" clip-rule="evenodd" d="M274.972 221.086C274.972 220.768 275.23 220.51 275.548 220.51H301.437C301.755 220.51 302.012 220.768 302.012 221.086C302.012 221.404 301.755 221.662 301.437 221.662H275.548C275.23 221.662 274.972 221.404 274.972 221.086Z" fill="#FFC5BE"/>
<path fill-rule="evenodd" clip-rule="evenodd" d="M154.796 200.915C155.862 199.744 157.268 198.995 159.475 198.995C161.682 198.995 163.087 199.745 164.154 200.915C164.672 201.484 165.1 202.14 165.5 202.821C165.69 203.143 165.876 203.476 166.063 203.81L166.095 203.868C166.295 204.223 166.495 204.581 166.708 204.941C167.557 206.375 168.581 207.811 170.266 208.992C171.952 210.173 174.343 211.129 177.967 211.519C178.271 211.552 178.497 211.817 178.48 212.122C178.464 212.428 178.211 212.668 177.906 212.668H141.049C140.743 212.668 140.491 212.428 140.475 212.123C140.458 211.817 140.683 211.552 140.987 211.519C144.61 211.129 147 210.172 148.684 208.991C150.369 207.81 151.392 206.374 152.241 204.94C152.454 204.58 152.655 204.222 152.854 203.867L152.885 203.811C153.073 203.476 153.26 203.142 153.449 202.82C153.85 202.14 154.278 201.483 154.796 200.915ZM146.285 211.516H172.665C171.467 211.072 170.463 210.536 169.606 209.935C167.729 208.62 166.605 207.025 165.718 205.528C165.497 205.155 165.29 204.786 165.092 204.431L165.061 204.377C164.872 204.039 164.691 203.716 164.508 203.405C164.122 202.748 163.742 202.172 163.304 201.691C162.458 200.763 161.362 200.147 159.475 200.147C157.587 200.147 156.491 200.763 155.646 201.691C155.208 202.172 154.827 202.748 154.441 203.404C154.258 203.716 154.076 204.039 153.887 204.377L153.858 204.43C153.659 204.785 153.452 205.154 153.231 205.527C152.345 207.024 151.221 208.618 149.345 209.934C148.488 210.535 147.483 211.071 146.285 211.516Z" fill="#FFC5BE"/>
<path fill-rule="evenodd" clip-rule="evenodd" d="M140.474 212.094C140.474 211.776 140.731 211.518 141.049 211.518H177.898C178.216 211.518 178.474 211.776 178.474 212.094V253.961C178.474 254.279 178.216 254.537 177.898 254.537C177.58 254.537 177.323 254.279 177.323 253.961V212.67H141.624V253.712C141.624 254.03 141.367 254.288 141.049 254.288C140.731 254.288 140.474 254.03 140.474 253.712V212.094Z" fill="#FFC5BE"/>
<path fill-rule="evenodd" clip-rule="evenodd" d="M177.273 224.158C177.273 223.84 177.531 223.582 177.849 223.582H237.788C238.106 223.582 238.363 223.84 238.363 224.158V253.961C238.363 254.279 238.106 254.536 237.788 254.536C237.47 254.536 237.213 254.279 237.213 253.961V224.734H178.424V253.712C178.424 254.03 178.166 254.288 177.849 254.288C177.531 254.288 177.273 254.03 177.273 253.712V224.158Z" fill="#FFC5BE"/>
<path fill-rule="evenodd" clip-rule="evenodd" d="M192.353 219.444C192.442 219.75 192.265 220.069 191.96 220.157L178.115 224.155C177.809 224.243 177.49 224.067 177.402 223.761C177.314 223.456 177.49 223.137 177.796 223.048L191.641 219.05C191.946 218.962 192.265 219.138 192.353 219.444Z" fill="#FFC5BE"/>
<path fill-rule="evenodd" clip-rule="evenodd" d="M237.788 219.733C238.106 219.733 238.363 219.991 238.363 220.309V224.158C238.363 224.476 238.106 224.734 237.788 224.734H177.849C177.531 224.734 177.273 224.476 177.273 224.158C177.273 223.84 177.531 223.582 177.849 223.582H237.213V220.309C237.213 219.991 237.47 219.733 237.788 219.733Z" fill="#FFC5BE"/>
<path d="M189.756 230.99H189.816C190.892 230.99 191.925 231.418 192.686 232.18C193.447 232.942 193.875 233.975 193.875 235.053V254.211H185.687V235.053C185.687 234.518 185.792 233.989 185.997 233.495C186.201 233.002 186.501 232.554 186.879 232.176C187.257 231.799 187.706 231.5 188.2 231.296C188.693 231.093 189.222 230.988 189.756 230.99Z" fill="#FFC5BE"/>
<path d="M226.379 230.99H226.449C227.525 230.99 228.558 231.418 229.319 232.18C230.08 232.942 230.508 233.975 230.508 235.052V254.211H222.32V235.052C222.32 233.975 222.748 232.942 223.509 232.18C224.27 231.418 225.303 230.99 226.379 230.99Z" fill="#FFC5BE"/>
<path d="M208.068 230.99H208.137C209.214 230.99 210.246 231.418 211.008 232.18C211.769 232.942 212.197 233.975 212.197 235.052V254.211H204.008V235.052C204.008 233.975 204.436 232.942 205.197 232.18C205.959 231.418 206.991 230.99 208.068 230.99Z" fill="#FFC5BE"/>
<path d="M302.241 240.322H302.31C303.387 240.322 304.42 240.75 305.181 241.512C305.942 242.274 306.37 243.307 306.37 244.385V254.209H298.182V244.385C298.182 243.307 298.609 242.274 299.371 241.512C300.132 240.75 301.164 240.322 302.241 240.322Z" fill="#FFC5BE"/>
<path d="M98.9398 240.322H99.0019C100.078 240.322 101.111 240.75 101.872 241.512C102.634 242.274 103.061 243.307 103.061 244.385V254.209H94.873V244.385C94.873 243.851 94.978 243.323 95.182 242.83C95.386 242.337 95.6851 241.889 96.062 241.512C96.4389 241.135 96.8864 240.835 97.3789 240.631C97.8714 240.427 98.3993 240.322 98.9324 240.322H98.9398Z" fill="#FFC5BE"/>
<path d="M130.102 240.322H130.171C130.705 240.321 131.233 240.426 131.726 240.63C132.219 240.834 132.667 241.133 133.045 241.51C133.422 241.888 133.722 242.336 133.926 242.829C134.13 243.322 134.236 243.851 134.236 244.385V254.209H126.047V244.385C126.047 243.308 126.474 242.276 127.235 241.514C127.995 240.752 129.026 240.323 130.102 240.322Z" fill="#FFC5BE"/>
<path d="M114.52 240.322H114.589C115.666 240.322 116.698 240.75 117.459 241.512C118.221 242.274 118.648 243.307 118.648 244.385V254.209H110.46V244.385C110.46 243.307 110.888 242.274 111.649 241.512C112.41 240.75 113.443 240.322 114.52 240.322Z" fill="#FFC5BE"/>
<path d="M103.066 210.954H94.878V224.841H103.066V210.954Z" fill="#FFC5BE"/>
<path d="M134.231 210.954H126.042V224.841H134.231V210.954Z" fill="#FFC5BE"/>
<path d="M118.648 210.954H110.46V224.841H118.648V210.954Z" fill="#FFC5BE"/>
<path d="M156.401 219.149H149.597V229.393H156.401V219.149Z" fill="#FFC5BE"/>
<path d="M169.348 219.149H162.544V229.393H169.348V219.149Z" fill="#FFC5BE"/>
<path d="M156.401 237.136H149.597V247.38H156.401V237.136Z" fill="#FFC5BE"/>
<path d="M169.348 237.136H162.544V247.38H169.348V237.136Z" fill="#FFC5BE"/>
<path d="M253.532 205.491H246.728V215.735H253.532V205.491Z" fill="#FFC5BE"/>
<path d="M266.479 205.491H259.675V215.735H266.479V205.491Z" fill="#FFC5BE"/>
<path d="M292.639 205.491H285.835V215.735H292.639V205.491Z" fill="#FFC5BE"/>
<path d="M253.532 223.475H246.728V233.719H253.532V223.475Z" fill="#FFC5BE"/>
<path d="M266.479 223.475H259.675V233.719H266.479V223.475Z" fill="#FFC5BE"/>
<path d="M123.484 145.729C123.484 150.853 118.026 156.77 115.862 156.77C113.698 156.77 108.242 150.853 108.242 145.729C108.278 143.73 109.097 141.825 110.522 140.424C111.948 139.023 113.865 138.238 115.863 138.238C117.861 138.238 119.779 139.023 121.204 140.424C122.63 141.825 123.448 143.73 123.484 145.729Z" fill="#FFC5BE"/>
<path d="M115.862 148.121C117.182 148.121 118.251 147.05 118.251 145.73C118.251 144.409 117.182 143.338 115.862 143.338C114.542 143.338 113.472 144.409 113.472 145.73C113.472 147.05 114.542 148.121 115.862 148.121Z" fill="white"/>
<path d="M289.991 162.554C289.991 167.677 284.532 173.595 282.371 173.595C280.21 173.595 274.751 167.677 274.751 162.554C274.751 160.531 275.554 158.592 276.983 157.161C278.412 155.731 280.35 154.928 282.371 154.928C284.392 154.928 286.33 155.731 287.759 157.161C289.188 158.592 289.991 160.531 289.991 162.554Z" fill="#FFC5BE"/>
<path d="M282.371 164.945C283.691 164.945 284.761 163.875 284.761 162.554C284.761 161.233 283.691 160.163 282.371 160.163C281.051 160.163 279.982 161.233 279.982 162.554C279.982 163.875 281.051 164.945 282.371 164.945Z" fill="white"/>
<path d="M63.1577 254.209H77.4894C77.4894 250.251 74.2812 246.242 70.3236 246.242C66.366 246.242 63.1577 250.251 63.1577 254.209Z" fill="#FFC5BE"/>
<path d="M55.6966 254.209H66.3436C66.3436 251.269 63.9591 248.291 61.0213 248.291C58.0836 248.291 55.6966 251.269 55.6966 254.209Z" fill="#FFC5BE"/>
<path d="M185.545 113.24C167.886 124.045 161.745 154.143 158.004 165.124C153.957 177 145.044 176.729 134.702 180.186C124.36 183.643 124.745 191.179 124.745 191.179C122.328 192.828 120.018 194.628 117.83 196.571L130.923 213.318C134.012 211.185 138.598 208.511 144.888 204.709C157.879 196.854 169.509 189.478 177.015 181.283C184.521 173.088 204.247 137.154 204.247 137.154L185.545 113.24Z" fill="#4856DF"/>
<path d="M130.923 213.318L117.827 196.573C111.971 201.788 108.463 206.755 106.699 209.646L125.162 233.252C127.762 228.534 125.695 221.893 125.906 218.995C126.047 217.249 127.631 215.593 130.923 213.318Z" fill="#30242A"/>
<path d="M105.265 212.248L123.417 235.46C124.116 234.828 124.703 234.082 125.154 233.255L106.694 209.648C106.171 210.488 105.694 211.356 105.265 212.248Z" fill="#798CF2"/>
<path fill-rule="evenodd" clip-rule="evenodd" d="M123.706 214.032C123.861 213.754 124.211 213.654 124.489 213.809L128.005 215.768C128.282 215.923 128.382 216.273 128.228 216.551C128.073 216.829 127.723 216.929 127.445 216.774L123.929 214.815C123.651 214.66 123.552 214.31 123.706 214.032Z" fill="white"/>
<path fill-rule="evenodd" clip-rule="evenodd" d="M122.082 217.725C122.152 217.415 122.461 217.221 122.77 217.291L126.294 218.091C126.604 218.161 126.798 218.47 126.728 218.78C126.657 219.09 126.349 219.284 126.039 219.214L122.516 218.414C122.206 218.344 122.012 218.036 122.082 217.725Z" fill="white"/>
<path fill-rule="evenodd" clip-rule="evenodd" d="M129.384 197.498C129.58 197.748 129.535 198.11 129.285 198.306L123.012 203.213C122.762 203.409 122.4 203.364 122.205 203.114C122.009 202.863 122.053 202.501 122.304 202.306L128.576 197.399C128.827 197.203 129.188 197.247 129.384 197.498Z" fill="#798CF2"/>
<path fill-rule="evenodd" clip-rule="evenodd" d="M126.208 193.432C126.404 193.683 126.359 194.045 126.109 194.241L119.836 199.148C119.586 199.344 119.224 199.299 119.029 199.049C118.833 198.798 118.877 198.436 119.128 198.24L125.4 193.333C125.651 193.138 126.012 193.182 126.208 193.432Z" fill="#798CF2"/>
<path fill-rule="evenodd" clip-rule="evenodd" d="M132.56 201.563C132.756 201.813 132.711 202.175 132.461 202.371L126.188 207.278C125.938 207.474 125.576 207.43 125.381 207.179C125.185 206.929 125.229 206.567 125.48 206.371L131.752 201.464C132.003 201.268 132.364 201.312 132.56 201.563Z" fill="#798CF2"/>
<path fill-rule="evenodd" clip-rule="evenodd" d="M135.736 205.628C135.932 205.879 135.887 206.24 135.637 206.436L129.364 211.343C129.114 211.539 128.752 211.495 128.557 211.244C128.361 210.994 128.405 210.632 128.656 210.436L134.928 205.529C135.179 205.333 135.54 205.377 135.736 205.628Z" fill="#798CF2"/>
<path fill-rule="evenodd" clip-rule="evenodd" d="M123.822 190.942C124.073 190.746 124.434 190.79 124.63 191.041L138.393 208.663C138.589 208.913 138.545 209.275 138.294 209.471C138.044 209.667 137.683 209.622 137.487 209.372L123.723 191.75C123.528 191.5 123.572 191.138 123.822 190.942Z" fill="#798CF2"/>
<path fill-rule="evenodd" clip-rule="evenodd" d="M182.653 144.199C182.947 144.078 183.283 144.217 183.405 144.511C185.611 149.852 188.518 155.036 191.497 159.738C191.668 160.006 191.588 160.362 191.32 160.532C191.051 160.703 190.696 160.623 190.526 160.354C187.525 155.619 184.581 150.374 182.341 144.951C182.22 144.657 182.359 144.321 182.653 144.199Z" fill="#30242A"/>
<path d="M195.932 47.0393C197.125 47.0393 198.093 46.0709 198.093 44.8764C198.093 43.6818 197.125 42.7134 195.932 42.7134C194.738 42.7134 193.771 43.6818 193.771 44.8764C193.771 46.0709 194.738 47.0393 195.932 47.0393Z" fill="#5569D3"/>
<path d="M202.793 76.4072L202.644 73.8941C205.534 74.2566 207.676 73.827 209.207 73.0423L202.644 67.7553C202.644 67.7553 204.916 66.8464 203.552 62.0635L210.857 59.4063C210.472 58.413 210.216 56.019 209.48 53.4463L205.13 55.3411C204.114 57.2914 202.658 58.9776 200.877 60.2655C200.141 59.5039 199.319 58.8305 198.428 58.259C198.309 58.182 198.18 58.11 198.061 58.038H198.048C197.927 57.9684 197.8 57.9014 197.679 57.8368H197.659C197.535 57.7747 197.411 57.7127 197.284 57.658L197.259 57.6133C197.138 57.5562 197.011 57.5065 196.885 57.4569H196.85C196.723 57.4122 196.602 57.37 196.473 57.3302H196.431C196.307 57.293 196.182 57.2607 196.053 57.2334H196.009C195.882 57.2061 195.761 57.1862 195.632 57.1713H195.582C195.458 57.1589 195.334 57.1514 195.207 57.1489C194.123 57.134 193.049 57.5761 192.153 58.8302C191.618 59.5572 191.328 60.4355 191.324 61.3383C191.342 64.0079 193.823 66.5533 196.039 67.2983C194.287 70.996 188.627 73.303 186.456 74.0704C186.525 74.9172 186.592 75.7044 186.652 76.4072H202.793Z" fill="#EAA58B"/>
<path d="M246.944 91.6599C245.917 91.6599 245.42 90.8255 245.835 89.7974L249.309 81.2125L249.281 81.1877L249.341 81.1306C250.301 80.2276 251.195 79.2566 252.016 78.2251C253.584 76.226 254.055 74.7732 253.504 74.1797C253.346 74.0203 253.137 73.9218 252.914 73.9016C252.687 73.8741 252.456 73.8875 252.234 73.9413C250.462 74.3287 247.428 76.745 244.046 80.7307C239.954 85.5459 231.997 95.0745 231.997 95.0745C231.168 94.4412 229.965 93.3684 228.523 92.0746L217.075 106.806C219.528 108.717 222.147 110.405 224.901 111.849C225.42 110.24 226.411 108.824 227.746 107.787C229.08 106.749 230.696 106.138 232.383 106.032C234.069 105.926 235.749 106.331 237.202 107.193C238.656 108.056 239.816 109.337 240.532 110.868C247.43 105.711 252.879 96.5074 255.432 91.6599H246.944Z" fill="#EAA58B"/>
<path d="M209.013 79.5933H205.515C212.187 83.6163 209.236 91.2053 209.236 91.2053C209.236 91.2053 218.35 97.58 212.197 105.321C212.648 104.845 213.031 104.308 213.333 103.726C213.333 103.726 214.802 105.077 217.055 106.806L228.503 92.0745C223.186 87.3264 214.554 79.5933 209.013 79.5933Z" fill="#FFC5BE"/>
<path d="M173.983 91.8833C173.983 91.8833 167.283 97.4733 171.812 104.958L174.196 91.5481L173.983 91.8833Z" fill="#FF8A00"/>
<path d="M186.642 76.4072V76.4892L186.93 76.4072H186.642Z" fill="#FF8A00"/>
<path d="M196.019 67.2984C193.813 66.5534 191.332 64.0154 191.304 61.3384L185.62 63.8217C185.841 66.9557 186.161 70.9067 186.426 74.0704C188.617 73.3031 194.282 70.9961 196.019 67.2984Z" fill="#30242A"/>
<path d="M202.644 67.7553L209.207 73.0424C210.507 72.4153 211.537 71.3394 212.107 70.0127C213.075 67.5889 212.45 65.5029 211.695 62.7961C211.695 62.7961 213.618 61.5073 213.318 60.3128C213.07 59.3418 210.879 59.4759 210.879 59.4759L210.857 59.4138L203.552 62.071C204.917 66.8464 202.644 67.7553 202.644 67.7553Z" fill="#30242A"/>
<path d="M200.877 60.2606C202.658 58.9727 204.114 57.2865 205.13 55.3362L198.431 58.2541C199.321 58.8258 200.142 59.4991 200.877 60.2606Z" fill="#30242A"/>
<path d="M197.285 57.6365L197.259 57.6133L197.285 57.6365Z" fill="#5569D3"/>
<path d="M192.148 58.8054C193.044 57.5513 194.118 57.1093 195.202 57.1242H195.178C194.555 50.2329 196.091 46.4856 197.23 44.7075C196.137 44.8689 195.059 45.113 194.004 45.4376C186.111 47.8291 185.205 55.6193 185.426 60.2532C185.468 61.182 185.548 62.4187 185.645 63.8143L191.329 61.331C191.326 60.4233 191.613 59.5385 192.148 58.8054Z" fill="#5569D3"/>
<path d="M198.048 58.0256C197.927 57.9561 197.8 57.889 197.679 57.8245C197.805 57.889 197.927 57.9561 198.048 58.0256Z" fill="#798CF2"/>
<path d="M198.428 58.254C198.309 58.177 198.18 58.105 198.061 58.033C198.185 58.1099 198.309 58.177 198.428 58.254Z" fill="#798CF2"/>
<path d="M196.426 57.3178C196.302 57.2806 196.177 57.2483 196.048 57.2209C196.175 57.2483 196.302 57.2806 196.426 57.3178Z" fill="#798CF2"/>
<path d="M197.659 57.8145C197.535 57.7525 197.411 57.6904 197.284 57.6357C197.411 57.6904 197.535 57.7525 197.659 57.8145Z" fill="#798CF2"/>
<path d="M195.577 57.1465C195.453 57.134 195.329 57.1266 195.202 57.1241C195.326 57.1167 195.453 57.134 195.577 57.1465Z" fill="#798CF2"/>
<path d="M196.004 57.2135C195.877 57.1861 195.756 57.1663 195.627 57.1514C195.753 57.1663 195.877 57.1861 196.004 57.2135Z" fill="#798CF2"/>
<path d="M196.845 57.4545C196.718 57.4098 196.597 57.3676 196.468 57.3279C196.594 57.3651 196.718 57.4098 196.845 57.4545Z" fill="#798CF2"/>
<path d="M197.259 57.6135C197.138 57.5564 197.011 57.5067 196.885 57.457C197.011 57.5166 197.133 57.5663 197.259 57.6135Z" fill="#798CF2"/>
<path d="M195.178 57.1168H195.202C195.326 57.1168 195.451 57.1168 195.577 57.1392H195.627C195.753 57.1541 195.875 57.174 196.004 57.2013H196.048C196.175 57.2286 196.297 57.2609 196.426 57.2981H196.468C196.594 57.3379 196.716 57.3801 196.845 57.4248H196.88C197.006 57.4744 197.128 57.5241 197.254 57.5812L197.284 57.5936C197.411 57.6483 197.532 57.7104 197.659 57.7724H197.679C197.805 57.837 197.927 57.9041 198.048 57.9736H198.061C198.185 58.0456 198.309 58.1176 198.428 58.1946L205.127 55.2767L209.477 53.3819C208.15 48.748 205.259 43.5131 197.227 44.6555C196.091 46.4832 194.555 50.2306 195.178 57.1168Z" fill="#798CF2"/>
<path d="M232.895 106.004C231.113 106.004 229.378 106.57 227.938 107.621C226.498 108.671 225.429 110.152 224.883 111.849C228.536 113.707 232.399 114.849 235.399 113.744C237.236 113.036 238.963 112.068 240.525 110.869C239.848 109.415 238.77 108.184 237.419 107.322C236.067 106.461 234.498 106.003 232.895 106.004Z" fill="#CA7358"/>
<path d="M210.162 120.005C218.35 114.653 212.643 105.542 212.196 105.321C218.338 97.5801 209.239 91.2054 209.239 91.2054C209.239 91.2054 212.187 83.6163 205.517 79.5933H202.981L202.793 76.4072H186.937L186.65 76.4892L186.918 79.5933H181.801L174.196 91.5506L171.812 104.961L171.933 105.162C171.852 105.312 171.77 105.464 171.685 105.616C170.147 108.646 169.921 111.224 170.315 113.315C171.137 117.688 174.655 119.992 174.655 119.992H210.162V120.005Z" fill="#FF8A00"/>
<path d="M174.665 123.995H210.149V120.802V120.005H174.665V120.802V123.995Z" fill="#30242A"/>
<path fill-rule="evenodd" clip-rule="evenodd" d="M170.383 91.2055C170.383 90.8875 170.64 90.6296 170.958 90.6296H209.239C209.557 90.6296 209.814 90.8875 209.814 91.2055C209.814 91.5235 209.557 91.7813 209.239 91.7813H170.958C170.64 91.7813 170.383 91.5235 170.383 91.2055Z" fill="#A15842"/>
<path fill-rule="evenodd" clip-rule="evenodd" d="M171.296 105.321C171.296 105.003 171.553 104.745 171.871 104.745H212.395C212.713 104.745 212.97 105.003 212.97 105.321C212.97 105.639 212.713 105.897 212.395 105.897H171.871C171.553 105.897 171.296 105.639 171.296 105.321Z" fill="#A15842"/>
<path fill-rule="evenodd" clip-rule="evenodd" d="M203.431 79.267C203.749 79.2471 204.022 79.4883 204.042 79.8057L204.126 81.1516C204.146 81.469 203.905 81.7425 203.588 81.7624C203.271 81.7823 202.997 81.5411 202.978 81.2237L202.893 79.8778C202.873 79.5604 203.114 79.2869 203.431 79.267Z" fill="#A15842"/>
<path fill-rule="evenodd" clip-rule="evenodd" d="M198.968 76.287C199.285 76.2673 199.558 76.5087 199.578 76.8261L199.804 80.4691C199.823 80.7866 199.582 81.0599 199.265 81.0795C198.948 81.0992 198.675 80.8579 198.655 80.5405L198.429 76.8974C198.41 76.58 198.651 76.3067 198.968 76.287Z" fill="#A15842"/>
<path fill-rule="evenodd" clip-rule="evenodd" d="M195.556 76.287C195.874 76.2673 196.147 76.5087 196.166 76.8261L196.392 80.4692C196.412 80.7866 196.171 81.0599 195.853 81.0795C195.536 81.0992 195.263 80.8579 195.243 80.5404L195.018 76.8974C194.998 76.58 195.239 76.3067 195.556 76.287Z" fill="#A15842"/>
<path fill-rule="evenodd" clip-rule="evenodd" d="M192.145 76.287C192.462 76.2673 192.735 76.5087 192.755 76.8261L192.98 80.4691C193 80.7866 192.759 81.0599 192.442 81.0795C192.125 81.0992 191.851 80.8579 191.832 80.5405L191.606 76.8974C191.586 76.58 191.827 76.3067 192.145 76.287Z" fill="#A15842"/>
<path fill-rule="evenodd" clip-rule="evenodd" d="M231.881 94.4347C232.129 94.6342 232.168 94.9967 231.969 95.2444L229.249 98.6242C229.05 98.8719 228.688 98.911 228.44 98.7116C228.193 98.5121 228.154 98.1496 228.353 97.9019L231.072 94.5221C231.272 94.2744 231.634 94.2353 231.881 94.4347Z" fill="#A15842"/>
<path fill-rule="evenodd" clip-rule="evenodd" d="M198.915 73.4855C199.02 73.1853 199.348 73.0271 199.648 73.1321C200.613 73.4701 201.613 73.6995 202.63 73.8162C202.946 73.8525 203.172 74.138 203.136 74.454C203.1 74.7699 202.814 74.9967 202.499 74.9604C201.398 74.834 200.314 74.5854 199.268 74.2192C198.968 74.1142 198.81 73.7857 198.915 73.4855Z" fill="#A15842"/>
<path d="M252.016 78.225C252.028 78.893 252.512 79.3649 253.274 79.3649H260.695C261.722 79.3649 262.893 78.5305 263.31 77.4999L265.573 71.8925C265.987 70.8644 265.491 70.03 264.464 70.03H257.04C256.013 70.03 254.842 70.8644 254.427 71.8925L253.504 74.1797C254.055 74.7757 253.584 76.2384 252.016 78.225Z" fill="#F5EBDD"/>
<path d="M267.298 66.3894H265.293L265.117 66.824C264.977 67.1475 264.752 67.4266 264.466 67.6311C264.179 67.8355 263.842 67.9575 263.491 67.9837H259.665C259.028 67.9837 258.717 67.4647 258.976 66.824L259.152 66.3894H257.147C256.117 66.3894 254.948 67.2238 254.532 68.2544L252.234 73.9437C252.456 73.8899 252.687 73.8765 252.914 73.904C253.137 73.9242 253.346 74.0227 253.504 74.1821L254.427 71.895C254.842 70.8669 256.013 70.0325 257.04 70.0325H264.464C265.491 70.0325 265.988 70.8669 265.573 71.895L263.31 77.5023C262.893 78.5329 261.722 79.3673 260.695 79.3673H253.274C252.502 79.3673 252.033 78.8955 252.016 78.2275C251.192 79.2584 250.296 80.2286 249.333 81.1305L249.301 81.2124L245.827 89.7973C245.413 90.8254 245.909 91.6598 246.937 91.6598H257.09C258.117 91.6598 259.288 90.8254 259.703 89.7973L268.387 68.2544C268.824 67.2238 268.327 66.3894 267.298 66.3894ZM257.373 88.2427C257.237 88.5572 257.018 88.8286 256.74 89.0275C256.463 89.2424 256.127 89.3657 255.777 89.3801H250.11C249.48 89.3801 249.177 88.871 249.43 88.2427C249.568 87.9255 249.789 87.652 250.071 87.4516C250.353 87.2511 250.684 87.1314 251.028 87.1054H256.715C257.33 87.1079 257.633 87.6169 257.38 88.2452L257.373 88.2427Z" fill="#5569D3"/>
<path d="M256.703 87.1079H251.016C250.671 87.134 250.34 87.2537 250.059 87.4541C249.777 87.6545 249.555 87.9281 249.418 88.2453C249.17 88.8736 249.467 89.3826 250.098 89.3826H255.785C256.134 89.3682 256.471 89.2449 256.747 89.03C257.026 88.8312 257.245 88.5598 257.38 88.2453C257.633 87.617 257.33 87.1079 256.703 87.1079Z" fill="#798CF2"/>
<path d="M259.665 67.9837H263.491C263.842 67.9575 264.179 67.8355 264.466 67.6311C264.752 67.4266 264.977 67.1475 265.117 66.824L265.293 66.3894H259.152L258.975 66.824C258.717 67.4647 259.028 67.9837 259.665 67.9837Z" fill="#798CF2"/>
<path fill-rule="evenodd" clip-rule="evenodd" d="M215.679 51.13C215.809 51.4202 215.679 51.7609 215.389 51.8909L200.149 58.72C199.859 58.85 199.519 58.72 199.389 58.4298C199.259 58.1395 199.389 57.7989 199.679 57.6689L214.919 50.8397C215.209 50.7098 215.549 50.8397 215.679 51.13Z" fill="#30242A"/>
<path fill-rule="evenodd" clip-rule="evenodd" d="M207.954 63.6312C208.267 63.5714 208.568 63.7761 208.628 64.0885C208.706 64.495 208.974 64.7502 209.318 64.9054C209.491 64.9837 209.673 65.0297 209.83 65.0497C209.908 65.0596 209.975 65.0625 210.028 65.0611C210.054 65.0604 210.075 65.0586 210.09 65.0567C210.104 65.0549 210.111 65.0533 210.111 65.0533C210.111 65.0533 210.111 65.0533 210.111 65.0534C210.418 64.9715 210.733 65.1543 210.815 65.4616C210.896 65.7689 210.714 66.0844 210.407 66.1663C210.193 66.2231 209.932 66.2236 209.685 66.1922C209.426 66.1592 209.133 66.0851 208.845 65.9554C208.267 65.6946 207.665 65.1824 207.498 64.3051C207.438 63.9927 207.642 63.691 207.954 63.6312Z" fill="black"/>
<path d="M207.909 59.1159C208.314 59.1159 208.643 58.7868 208.643 58.3808C208.643 57.9749 208.314 57.6458 207.909 57.6458C207.503 57.6458 207.174 57.9749 207.174 58.3808C207.174 58.7868 207.503 59.1159 207.909 59.1159Z" fill="#30242A"/>
<path fill-rule="evenodd" clip-rule="evenodd" d="M194.816 61.4067C194.987 61.1384 195.342 61.0592 195.611 61.23L198.278 62.9286C198.546 63.0993 198.625 63.4552 198.454 63.7235C198.284 63.9918 197.928 64.071 197.66 63.9002L194.993 62.2016C194.725 62.0309 194.646 61.675 194.816 61.4067Z" fill="#A15842"/>
<path fill-rule="evenodd" clip-rule="evenodd" d="M200.595 59.4379C200.788 59.1857 201.149 59.1384 201.401 59.3322L204.359 61.6069C204.611 61.8007 204.658 62.1622 204.465 62.4144C204.271 62.6666 203.91 62.7139 203.658 62.5201L200.7 60.2454C200.448 60.0516 200.401 59.6901 200.595 59.4379Z" fill="#30242A"/>
<path fill-rule="evenodd" clip-rule="evenodd" d="M194.789 67.5129C194.798 67.195 195.062 66.9446 195.38 66.9536L203.342 67.1796C203.66 67.1886 203.91 67.4536 203.901 67.7715C203.892 68.0894 203.627 68.3398 203.31 68.3308L195.347 68.1048C195.03 68.0958 194.78 67.8308 194.789 67.5129Z" fill="#30242A"/>
<path fill-rule="evenodd" clip-rule="evenodd" d="M228.296 122.209C227.764 121.677 227.042 121.378 226.29 121.378V120.226C227.347 120.226 228.362 120.646 229.109 121.395C229.857 122.143 230.277 123.158 230.277 124.216C230.278 124.74 230.176 125.26 229.977 125.746C229.777 126.231 229.484 126.673 229.114 127.045C228.743 127.417 228.303 127.712 227.819 127.913C227.334 128.115 226.815 128.219 226.29 128.219L226.29 127.068C226.663 127.067 227.032 126.993 227.377 126.85C227.722 126.707 228.035 126.497 228.298 126.232C228.562 125.967 228.771 125.653 228.913 125.308C229.055 124.962 229.127 124.592 229.126 124.218L229.702 124.217H229.126C229.126 123.464 228.827 122.742 228.296 122.209Z" fill="#FF8A00"/>
<path fill-rule="evenodd" clip-rule="evenodd" d="M233.075 122.212C232.545 121.68 231.825 121.38 231.075 121.378L231.078 120.226C232.133 120.229 233.145 120.651 233.89 121.399C234.635 122.147 235.053 123.16 235.053 124.216C235.056 125.274 234.639 126.29 233.894 127.041C233.149 127.792 232.136 128.215 231.078 128.219L231.074 127.068C231.827 127.065 232.547 126.763 233.078 126.229C233.608 125.695 233.905 124.971 233.903 124.218L233.903 124.216C233.903 123.465 233.605 122.744 233.075 122.212Z" fill="#FF8A00"/>
<path d="M255.668 121.256H218.087C216.467 121.256 215.154 122.57 215.154 124.191V124.241C215.154 125.862 216.467 127.176 218.087 127.176H255.668C257.288 127.176 258.601 125.862 258.601 124.241V124.191C258.601 122.57 257.288 121.256 255.668 121.256Z" fill="#30242A"/>
<path d="M261.971 247.441L239.335 121.406L233.513 122.453L256.149 248.489L261.971 247.441Z" fill="#30242A"/>
<path fill-rule="evenodd" clip-rule="evenodd" d="M218.087 121.832C216.785 121.832 215.729 122.888 215.729 124.192V124.241C215.729 125.544 216.785 126.601 218.087 126.601H218.137C219.439 126.601 220.494 125.544 220.494 124.241V124.192C220.494 122.888 219.439 121.832 218.137 121.832H218.087ZM214.579 124.192C214.579 122.252 216.149 120.68 218.087 120.68H218.137C220.074 120.68 221.645 122.252 221.645 124.192V124.241C221.645 126.18 220.074 127.752 218.137 127.752H218.087C216.149 127.752 214.579 126.18 214.579 124.241V124.192Z" fill="#FF8A00"/>
<path fill-rule="evenodd" clip-rule="evenodd" d="M245.984 120.799C246.088 120.499 246.416 120.34 246.716 120.444C247.499 120.717 248.177 121.226 248.657 121.902C249.137 122.578 249.395 123.387 249.395 124.217M245.984 120.799C245.879 121.099 246.038 121.428 246.338 121.532L245.984 120.799ZM246.338 121.532C246.895 121.726 247.378 122.088 247.719 122.57L246.338 121.532ZM247.719 122.57C248.061 123.051 248.245 123.626 248.244 124.216L247.719 122.57ZM248.244 124.216L248.82 124.216L248.244 124.216ZM248.82 124.216L248.244 124.216C248.244 124.768 248.084 125.307 247.782 125.769C247.481 126.23 247.051 126.594 246.547 126.816C246.256 126.943 246.123 127.283 246.251 127.574C246.378 127.865 246.718 127.998 247.009 127.87C247.718 127.559 248.322 127.048 248.745 126.399C249.169 125.75 249.395 124.992 249.395 124.217" fill="#FF8A00"/>
<path fill-rule="evenodd" clip-rule="evenodd" d="M249.954 120.799C250.058 120.499 250.386 120.34 250.686 120.444C251.469 120.717 252.147 121.226 252.627 121.902C253.107 122.578 253.365 123.387 253.365 124.217M249.954 120.799C249.849 121.099 250.008 121.428 250.308 121.532L249.954 120.799ZM250.308 121.532C250.865 121.726 251.348 122.088 251.689 122.57L250.308 121.532ZM251.689 122.57C252.031 123.051 252.215 123.626 252.214 124.216L251.689 122.57ZM252.214 124.216L252.79 124.216L252.214 124.216ZM252.79 124.216L252.214 124.216C252.214 124.768 252.054 125.307 251.752 125.769C251.451 126.23 251.021 126.594 250.517 126.816C250.226 126.943 250.093 127.283 250.221 127.574C250.348 127.865 250.688 127.998 250.979 127.87C251.688 127.559 252.291 127.048 252.715 126.399C253.139 125.75 253.365 124.992 253.365 124.217" fill="#FF8A00"/>
<path d="M259.055 248.291H176.03V254.211H259.055V248.291Z" fill="#30242A"/>
<path d="M181.146 261.495C185.167 261.495 188.426 258.233 188.426 254.209C188.426 250.185 185.167 246.923 181.146 246.923C177.125 246.923 173.866 250.185 173.866 254.209C173.866 258.233 177.125 261.495 181.146 261.495Z" fill="#30242A"/>
<path d="M181.146 256.941C182.654 256.941 183.876 255.718 183.876 254.209C183.876 252.7 182.654 251.477 181.146 251.477C179.639 251.477 178.417 252.7 178.417 254.209C178.417 255.718 179.639 256.941 181.146 256.941Z" fill="#FFC5BE"/>
<path d="M260.345 261.495C264.366 261.495 267.625 258.233 267.625 254.209C267.625 250.185 264.366 246.923 260.345 246.923C256.324 246.923 253.065 250.185 253.065 254.209C253.065 258.233 256.324 261.495 260.345 261.495Z" fill="#30242A"/>
<path d="M260.345 256.941C261.853 256.941 263.075 255.718 263.075 254.209C263.075 252.7 261.853 251.477 260.345 251.477C258.838 251.477 257.616 252.7 257.616 254.209C257.616 255.718 258.838 256.941 260.345 256.941Z" fill="#FFC5BE"/>
<path d="M192.52 254.209H169.775C169.819 251.219 171.036 248.367 173.164 246.268C175.292 244.17 178.16 242.993 181.147 242.993C184.135 242.993 187.002 244.17 189.13 246.268C191.258 248.367 192.476 251.219 192.52 254.209Z" fill="#FF8A00"/>
<path d="M271.717 254.209H248.971C249.015 251.219 250.233 248.367 252.361 246.268C254.489 244.17 257.356 242.993 260.344 242.993C263.331 242.993 266.199 244.17 268.327 246.268C270.455 248.367 271.672 251.219 271.717 254.209Z" fill="#FF8A00"/>
<path d="M203.621 228.484H224.895C225.144 224.759 225.848 219.559 226.714 212.417C228.54 197.336 229.91 183.625 228.084 172.659C226.258 161.692 210.149 123.985 210.149 123.985H179.811C177.429 144.56 197.324 167.955 203.656 177.673C210.504 188.184 204.797 195.038 201.145 205.319C197.493 215.6 203.656 219.944 203.656 219.944C203.467 222.787 203.455 225.639 203.621 228.484Z" fill="#4856DF"/>
<path d="M207.06 245.559H237.014C234.897 240.593 228.406 238.137 226.258 236.18C224.935 234.978 224.628 232.634 224.896 228.481H203.621C204.085 236.428 205.854 242.346 207.06 245.559Z" fill="#30242A"/>
<path d="M208.222 248.291H237.674C237.61 247.35 237.387 246.426 237.014 245.56H207.06C207.398 246.49 207.786 247.402 208.222 248.291Z" fill="#798CF2"/>
<path fill-rule="evenodd" clip-rule="evenodd" d="M211.894 220.168C212.211 220.168 212.469 220.426 212.469 220.744V228.218C212.469 228.536 212.211 228.794 211.894 228.794C211.576 228.794 211.318 228.536 211.318 228.218V220.744C211.318 220.426 211.576 220.168 211.894 220.168Z" fill="#798CF2"/>
<path fill-rule="evenodd" clip-rule="evenodd" d="M206.738 220.168C207.055 220.168 207.313 220.426 207.313 220.744V228.218C207.313 228.536 207.055 228.794 206.738 228.794C206.42 228.794 206.162 228.536 206.162 228.218V220.744C206.162 220.426 206.42 220.168 206.738 220.168Z" fill="#798CF2"/>
<path fill-rule="evenodd" clip-rule="evenodd" d="M217.05 220.168C217.368 220.168 217.625 220.426 217.625 220.744V228.218C217.625 228.536 217.368 228.794 217.05 228.794C216.732 228.794 216.474 228.536 216.474 228.218V220.744C216.474 220.426 216.732 220.168 217.05 220.168Z" fill="#798CF2"/>
<path fill-rule="evenodd" clip-rule="evenodd" d="M222.206 220.168C222.524 220.168 222.781 220.426 222.781 220.744V228.218C222.781 228.536 222.524 228.794 222.206 228.794C221.888 228.794 221.63 228.536 221.63 228.218V220.744C221.63 220.426 221.888 220.168 222.206 220.168Z" fill="#798CF2"/>
<path fill-rule="evenodd" clip-rule="evenodd" d="M203.135 220.515C203.135 220.197 203.393 219.939 203.711 219.939H225.546C225.863 219.939 226.121 220.197 226.121 220.515C226.121 220.833 225.863 221.091 225.546 221.091H203.711C203.393 221.091 203.135 220.833 203.135 220.515Z" fill="#798CF2"/>
<path d="M217.42 141.659C216.675 139.817 215.966 138.034 215.283 136.357L204.118 134.396V134.435C203.897 135.692 204.184 136.985 204.916 138.03C205.648 139.075 206.765 139.787 208.021 140.008L217.42 141.659Z" fill="#798CF2"/>
<path fill-rule="evenodd" clip-rule="evenodd" d="M225.582 232.967C225.702 233.261 225.561 233.597 225.267 233.718L221.742 235.163C221.447 235.284 221.111 235.143 220.991 234.848C220.871 234.554 221.011 234.218 221.305 234.097L224.831 232.652C225.125 232.531 225.461 232.672 225.582 232.967Z" fill="white"/>
<path fill-rule="evenodd" clip-rule="evenodd" d="M226.738 235.307C226.937 235.554 226.899 235.917 226.651 236.117L223.706 238.496C223.459 238.695 223.097 238.657 222.897 238.409C222.697 238.162 222.736 237.799 222.983 237.599L225.929 235.22C226.176 235.021 226.538 235.059 226.738 235.307Z" fill="white"/>
<path d="M259.966 89.1516C259.966 89.1516 263.871 89.3056 264.184 85.891C264.184 85.891 266.973 84.6071 266.243 82.0568C266.243 82.0568 268.794 81.3267 268.064 78.7738C268.017 78.6124 269.513 78.3218 269.439 76.2184C269.33 73.149 267.25 70.9389 266.342 70.7104C263.613 70.0275 264.65 74.4652 264.521 74.3535C262.931 72.9876 260.608 72.3668 259.779 73.0621C258.335 74.274 259.338 75.8931 259.338 75.8931C259.338 75.8931 257.487 75.4561 256.581 76.7946C255.479 78.4187 257.45 79.9335 257.45 79.9335C257.45 79.9335 255.385 80.1645 255.73 82.0766C256.112 84.2148 259.32 84.6916 260.841 86.9315L259.966 89.1516Z" fill="#EAA58B"/>
<path fill-rule="evenodd" clip-rule="evenodd" d="M256.827 79.3386C256.938 79.0409 257.27 78.8902 257.567 79.002C258.677 79.4192 260.213 80.0953 261.618 81.0598C263.014 82.019 264.34 83.3043 264.936 84.9609C265.044 85.2601 264.888 85.59 264.589 85.6977C264.29 85.8054 263.961 85.6502 263.853 85.3509C263.375 84.02 262.273 82.9064 260.966 82.0094C259.668 81.1176 258.227 80.48 257.163 80.0802C256.865 79.9684 256.715 79.6364 256.827 79.3386Z" fill="#A15842"/>
<path fill-rule="evenodd" clip-rule="evenodd" d="M259.297 75.466C259.449 75.1868 259.798 75.0839 260.077 75.2362C261.026 75.7538 262.343 76.5471 263.618 77.5633C264.887 78.5756 266.145 79.8339 266.937 81.2897C267.089 81.569 266.986 81.9187 266.707 82.0708C266.428 82.223 266.078 82.1199 265.926 81.8406C265.237 80.5747 264.111 79.4291 262.901 78.464C261.695 77.5029 260.439 76.7454 259.526 76.2473C259.247 76.095 259.145 75.7452 259.297 75.466Z" fill="#A15842"/>
<path fill-rule="evenodd" clip-rule="evenodd" d="M264.443 73.6209C264.654 73.3831 265.018 73.3616 265.256 73.5729C266.507 74.6852 267.896 76.1922 268.754 77.9752C268.892 78.2617 268.771 78.6058 268.485 78.7438C268.199 78.8818 267.855 78.7614 267.717 78.4749C266.952 76.8854 265.687 75.4969 264.491 74.4338C264.254 74.2226 264.232 73.8586 264.443 73.6209Z" fill="#A15842"/>
<path d="M186.947 79.5933C186.947 79.5933 195.101 91.8833 192.863 103.726C191.27 112.15 172.162 119.448 161.016 121.932V115.336C161.016 115.336 184.218 109.647 186.947 99.4003C188.602 93.192 181.943 79.5933 181.943 79.5933" fill="#F5EBDD"/>
<path d="M240.857 119.448C239.493 116.031 235.17 112.391 230.166 110.568C220.548 107.069 197.182 112.162 197.182 112.162L193.681 104.68L176.454 113.123C178.935 117.968 181.913 122.041 184.955 124.857C185.991 123.573 187.38 122.623 188.951 122.123C190.523 121.623 192.206 121.597 193.792 122.047C195.378 122.496 196.797 123.403 197.873 124.653C198.948 125.903 199.633 127.442 199.842 129.079C209.368 128.334 219.903 123.975 222.891 121.286C222.891 121.286 224.709 122.88 226.756 123.106C226.756 123.789 223.573 132.896 229.26 130.847C229.26 130.847 230.851 132.896 233.126 130.621C233.126 130.621 234.719 132.896 236.994 130.847C236.994 130.847 238.235 131.624 239.949 129.709C241.994 127.395 242.599 123.792 240.857 119.448Z" fill="#EAA58B"/>
<path d="M181.943 79.5933H181.379C176.762 79.5933 169.201 83.0103 170.112 91.8609C170.911 99.2698 173.06 106.469 176.452 113.103L193.679 104.66L181.943 79.5933Z" fill="#FFC5BE"/>
<path d="M191.498 121.711C190.243 121.71 189.004 121.99 187.872 122.531C186.74 123.072 185.743 123.86 184.955 124.837C185.585 125.426 186.248 125.979 186.94 126.494C190.143 128.838 194.85 129.439 199.842 129.049C199.58 127.02 198.588 125.156 197.053 123.805C195.517 122.455 193.542 121.71 191.498 121.711Z" fill="#CA7358"/>
<path fill-rule="evenodd" clip-rule="evenodd" d="M230.83 119.37C231.117 119.234 231.46 119.356 231.596 119.644C232.496 121.544 232.302 123.853 231.809 125.859C231.31 127.884 230.478 129.711 229.973 130.722C229.831 131.006 229.485 131.122 229.201 130.979C228.917 130.837 228.802 130.491 228.944 130.207C229.432 129.231 230.222 127.49 230.691 125.584C231.165 123.658 231.284 121.673 230.556 120.137C230.42 119.85 230.543 119.506 230.83 119.37Z" fill="#A15842"/>
<path fill-rule="evenodd" clip-rule="evenodd" d="M197.195 111.617C197.259 111.929 197.058 112.233 196.747 112.297L191.385 113.397C191.074 113.461 190.77 113.26 190.706 112.948C190.642 112.637 190.843 112.333 191.154 112.269L196.516 111.169C196.827 111.105 197.131 111.306 197.195 111.617Z" fill="#A15842"/>
<path fill-rule="evenodd" clip-rule="evenodd" d="M234.924 119.37C235.211 119.234 235.554 119.356 235.69 119.644C236.568 121.496 236.365 123.757 235.866 125.738C235.361 127.739 234.524 129.569 234.002 130.63C233.861 130.915 233.516 131.032 233.231 130.892C232.946 130.751 232.829 130.406 232.97 130.12C233.479 129.085 234.275 127.34 234.75 125.457C235.23 123.553 235.353 121.62 234.651 120.137C234.514 119.85 234.637 119.506 234.924 119.37Z" fill="#A15842"/>
<path fill-rule="evenodd" clip-rule="evenodd" d="M238.793 119.37C239.08 119.234 239.423 119.357 239.559 119.644C240.452 121.534 240.267 123.878 239.785 125.92C239.298 127.984 238.479 129.856 237.971 130.879C237.83 131.164 237.484 131.281 237.2 131.139C236.915 130.998 236.799 130.652 236.94 130.367C237.425 129.389 238.205 127.604 238.665 125.655C239.13 123.686 239.241 121.664 238.519 120.137C238.383 119.849 238.505 119.506 238.793 119.37Z" fill="#A15842"/>
</svg>
