<svg width="68" height="24" viewBox="0 0 68 24" fill="none" xmlns="http://www.w3.org/2000/svg">
<path d="M0 5C0 2.23858 2.23858 0 5 0H63C65.7614 0 68 2.23858 68 5V19C68 21.7614 65.7614 24 63 24H5C2.23858 24 0 21.7614 0 19V5Z" fill="#FFC5BE"/>
<path d="M9.95801 12.3584V15H8.72266V7.89062H11.4424C12.2367 7.89062 12.8665 8.09733 13.332 8.51074C13.8008 8.92415 14.0352 9.47103 14.0352 10.1514C14.0352 10.848 13.8057 11.39 13.3467 11.7773C12.891 12.1647 12.2513 12.3584 11.4277 12.3584H9.95801ZM9.95801 11.3672H11.4424C11.8818 11.3672 12.2171 11.2646 12.4482 11.0596C12.6794 10.8512 12.7949 10.5518 12.7949 10.1611C12.7949 9.77702 12.6777 9.47103 12.4434 9.24316C12.209 9.01204 11.8867 8.89323 11.4766 8.88672H9.95801V11.3672ZM20.7744 11.8262H17.8545V14.0137H21.2676V15H16.6191V7.89062H21.2334V8.88672H17.8545V10.8496H20.7744V11.8262ZM29.4131 15H28.1777L25.0088 9.95605V15H23.7734V7.89062H25.0088L28.1875 12.9541V7.89062H29.4131V15ZM32.373 15V7.89062H34.4727C35.1009 7.89062 35.6576 8.0306 36.1426 8.31055C36.6309 8.59049 37.0085 8.98763 37.2754 9.50195C37.5423 10.0163 37.6758 10.6055 37.6758 11.2695V11.626C37.6758 12.2998 37.5407 12.8923 37.2705 13.4033C37.0036 13.9144 36.6211 14.3083 36.123 14.585C35.6283 14.8617 35.0602 15 34.4189 15H32.373ZM33.6084 8.88672V14.0137H34.4141C35.0618 14.0137 35.5583 13.8118 35.9033 13.4082C36.2516 13.0013 36.429 12.4186 36.4355 11.6602V11.2646C36.4355 10.4932 36.2679 9.90397 35.9326 9.49707C35.5973 9.09017 35.1107 8.88672 34.4727 8.88672H33.6084ZM41.71 15H40.4795V7.89062H41.71V15ZM50.3682 15H49.1328L45.9639 9.95605V15H44.7285V7.89062H45.9639L49.1426 12.9541V7.89062H50.3682V15ZM58.7773 14.0771C58.5202 14.4124 58.1637 14.6663 57.708 14.8389C57.2523 15.0114 56.7347 15.0977 56.1553 15.0977C55.5596 15.0977 55.0322 14.9626 54.5732 14.6924C54.1143 14.4222 53.7594 14.0365 53.5088 13.5352C53.2614 13.0306 53.1328 12.443 53.123 11.7725V11.2158C53.123 10.1416 53.3802 9.30339 53.8945 8.70117C54.4089 8.0957 55.1266 7.79297 56.0479 7.79297C56.8389 7.79297 57.4671 7.98828 57.9326 8.37891C58.3981 8.76953 58.6781 9.33268 58.7725 10.0684H57.5615C57.4248 9.21224 56.9284 8.78418 56.0723 8.78418C55.5189 8.78418 55.0973 8.98438 54.8076 9.38477C54.5212 9.7819 54.373 10.3662 54.3633 11.1377V11.6846C54.3633 12.4528 54.5244 13.0501 54.8467 13.4766C55.1722 13.8997 55.623 14.1113 56.1992 14.1113C56.8307 14.1113 57.2799 13.9681 57.5469 13.6816V12.29H56.082V11.3525H58.7773V14.0771Z" fill="#757575"/>
</svg>
