<svg width="91" height="24" viewBox="0 0 91 24" fill="none" xmlns="http://www.w3.org/2000/svg">
<path d="M0 5C0 2.23858 2.23858 0 5 0H86C88.7614 0 91 2.23858 91 5V19C91 21.7614 88.7614 24 86 24H5C2.23858 24 0 21.7614 0 19V5Z" fill="#A9B8FF"/>
<path d="M9.95801 12.3584V15H8.72266V7.89062H11.4424C12.2367 7.89062 12.8665 8.09733 13.332 8.51074C13.8008 8.92415 14.0352 9.47103 14.0352 10.1514C14.0352 10.848 13.8057 11.39 13.3467 11.7773C12.891 12.1647 12.2513 12.3584 11.4277 12.3584H9.95801ZM9.95801 11.3672H11.4424C11.8818 11.3672 12.2171 11.2646 12.4482 11.0596C12.6794 10.8512 12.7949 10.5518 12.7949 10.1611C12.7949 9.77702 12.6777 9.47103 12.4434 9.24316C12.209 9.01204 11.8867 8.89323 11.4766 8.88672H9.95801V11.3672ZM19.2314 12.2607H17.8545V15H16.6191V7.89062H19.1191C19.9395 7.89062 20.5726 8.07454 21.0186 8.44238C21.4645 8.81022 21.6875 9.34245 21.6875 10.0391C21.6875 10.5143 21.5719 10.9131 21.3408 11.2354C21.113 11.5544 20.7939 11.8001 20.3838 11.9727L21.9805 14.9365V15H20.6572L19.2314 12.2607ZM17.8545 11.2695H19.124C19.5407 11.2695 19.8662 11.1654 20.1006 10.957C20.335 10.7454 20.4521 10.4574 20.4521 10.0928C20.4521 9.71191 20.3431 9.41732 20.125 9.20898C19.9102 9.00065 19.5879 8.89323 19.1582 8.88672H17.8545V11.2695ZM30.0332 11.6309C30.0332 12.3275 29.9128 12.9395 29.6719 13.4668C29.431 13.9909 29.0859 14.3945 28.6367 14.6777C28.1908 14.9577 27.6764 15.0977 27.0938 15.0977C26.5176 15.0977 26.0033 14.9577 25.5508 14.6777C25.1016 14.3945 24.7533 13.9925 24.5059 13.4717C24.2617 12.9508 24.138 12.3503 24.1348 11.6699V11.2695C24.1348 10.5762 24.2568 9.96419 24.501 9.43359C24.7484 8.90299 25.0951 8.49772 25.541 8.21777C25.9902 7.93457 26.5046 7.79297 27.084 7.79297C27.6634 7.79297 28.1761 7.93294 28.6221 8.21289C29.0713 8.48958 29.418 8.88997 29.6621 9.41406C29.9062 9.9349 30.0299 10.542 30.0332 11.2354V11.6309ZM28.7979 11.2598C28.7979 10.472 28.6481 9.86816 28.3486 9.44824C28.0524 9.02832 27.6309 8.81836 27.084 8.81836C26.5501 8.81836 26.1318 9.02832 25.8291 9.44824C25.5296 9.86491 25.3766 10.4557 25.3701 11.2207V11.6309C25.3701 12.4121 25.5215 13.016 25.8242 13.4424C26.1302 13.8688 26.5534 14.082 27.0938 14.082C27.6406 14.082 28.0605 13.8737 28.3535 13.457C28.6497 13.0404 28.7979 12.4316 28.7979 11.6309V11.2598ZM38.1885 12.6855C38.1169 13.444 37.8369 14.0365 37.3486 14.4629C36.8604 14.8861 36.2109 15.0977 35.4004 15.0977C34.834 15.0977 34.3343 14.9642 33.9014 14.6973C33.4717 14.4271 33.1396 14.0446 32.9053 13.5498C32.6709 13.055 32.5488 12.4805 32.5391 11.8262V11.1621C32.5391 10.4915 32.6579 9.90072 32.8955 9.38965C33.1331 8.87858 33.4733 8.4847 33.916 8.20801C34.362 7.93132 34.8763 7.79297 35.459 7.79297C36.2435 7.79297 36.875 8.00618 37.3535 8.43262C37.832 8.85905 38.1104 9.46126 38.1885 10.2393H36.958C36.8994 9.72819 36.7497 9.36035 36.5088 9.13574C36.2712 8.90788 35.9212 8.79395 35.459 8.79395C34.9219 8.79395 34.5085 8.99089 34.2188 9.38477C33.9323 9.77539 33.7858 10.3499 33.7793 11.1084V11.7383C33.7793 12.5065 33.916 13.0924 34.1895 13.4961C34.4661 13.8997 34.8698 14.1016 35.4004 14.1016C35.8854 14.1016 36.25 13.9925 36.4941 13.7744C36.7383 13.5563 36.8929 13.1934 36.958 12.6855H38.1885ZM44.9521 11.8262H42.0322V14.0137H45.4453V15H40.7969V7.89062H45.4111V8.88672H42.0322V10.8496H44.9521V11.8262ZM51.667 13.1689C51.667 12.8564 51.5563 12.6156 51.335 12.4463C51.1169 12.277 50.7214 12.1061 50.1484 11.9336C49.5755 11.7611 49.1198 11.569 48.7812 11.3574C48.1335 10.9505 47.8096 10.4199 47.8096 9.76562C47.8096 9.19271 48.0423 8.7207 48.5078 8.34961C48.9766 7.97852 49.5837 7.79297 50.3291 7.79297C50.8239 7.79297 51.265 7.88411 51.6523 8.06641C52.0397 8.2487 52.3441 8.50911 52.5654 8.84766C52.7868 9.18294 52.8975 9.55566 52.8975 9.96582H51.667C51.667 9.59473 51.5498 9.30501 51.3154 9.09668C51.0843 8.88509 50.7523 8.7793 50.3193 8.7793C49.9157 8.7793 49.6016 8.86556 49.377 9.03809C49.1556 9.21061 49.0449 9.4515 49.0449 9.76074C49.0449 10.0212 49.1654 10.2393 49.4062 10.415C49.6471 10.5876 50.0443 10.7568 50.5977 10.9229C51.151 11.0856 51.5954 11.2728 51.9307 11.4844C52.266 11.6927 52.5117 11.9336 52.668 12.207C52.8242 12.4772 52.9023 12.7946 52.9023 13.1592C52.9023 13.7516 52.6745 14.2236 52.2188 14.5752C51.7663 14.9235 51.151 15.0977 50.373 15.0977C49.8587 15.0977 49.3851 15.0033 48.9521 14.8145C48.5225 14.6224 48.1872 14.3587 47.9463 14.0234C47.7087 13.6882 47.5898 13.2975 47.5898 12.8516H48.8252C48.8252 13.2552 48.9587 13.5677 49.2256 13.7891C49.4925 14.0104 49.875 14.1211 50.373 14.1211C50.8027 14.1211 51.125 14.0348 51.3398 13.8623C51.5579 13.6865 51.667 13.4554 51.667 13.1689ZM59.2021 13.1689C59.2021 12.8564 59.0915 12.6156 58.8701 12.4463C58.652 12.277 58.2565 12.1061 57.6836 11.9336C57.1107 11.7611 56.6549 11.569 56.3164 11.3574C55.6686 10.9505 55.3447 10.4199 55.3447 9.76562C55.3447 9.19271 55.5775 8.7207 56.043 8.34961C56.5117 7.97852 57.1188 7.79297 57.8643 7.79297C58.359 7.79297 58.8001 7.88411 59.1875 8.06641C59.5749 8.2487 59.8792 8.50911 60.1006 8.84766C60.3219 9.18294 60.4326 9.55566 60.4326 9.96582H59.2021C59.2021 9.59473 59.085 9.30501 58.8506 9.09668C58.6195 8.88509 58.2874 8.7793 57.8545 8.7793C57.4508 8.7793 57.1367 8.86556 56.9121 9.03809C56.6908 9.21061 56.5801 9.4515 56.5801 9.76074C56.5801 10.0212 56.7005 10.2393 56.9414 10.415C57.1823 10.5876 57.5794 10.7568 58.1328 10.9229C58.6862 11.0856 59.1305 11.2728 59.4658 11.4844C59.8011 11.6927 60.0469 11.9336 60.2031 12.207C60.3594 12.4772 60.4375 12.7946 60.4375 13.1592C60.4375 13.7516 60.2096 14.2236 59.7539 14.5752C59.3014 14.9235 58.6862 15.0977 57.9082 15.0977C57.3939 15.0977 56.9202 15.0033 56.4873 14.8145C56.0576 14.6224 55.7223 14.3587 55.4814 14.0234C55.2438 13.6882 55.125 13.2975 55.125 12.8516H56.3604C56.3604 13.2552 56.4938 13.5677 56.7607 13.7891C57.0277 14.0104 57.4102 14.1211 57.9082 14.1211C58.3379 14.1211 58.6602 14.0348 58.875 13.8623C59.0931 13.6865 59.2021 13.4554 59.2021 13.1689ZM64.3252 15H63.0947V7.89062H64.3252V15ZM72.9834 15H71.748L68.5791 9.95605V15H67.3438V7.89062H68.5791L71.7578 12.9541V7.89062H72.9834V15ZM81.3926 14.0771C81.1354 14.4124 80.779 14.6663 80.3232 14.8389C79.8675 15.0114 79.3499 15.0977 78.7705 15.0977C78.1748 15.0977 77.6475 14.9626 77.1885 14.6924C76.7295 14.4222 76.3747 14.0365 76.124 13.5352C75.8766 13.0306 75.748 12.443 75.7383 11.7725V11.2158C75.7383 10.1416 75.9954 9.30339 76.5098 8.70117C77.0241 8.0957 77.7419 7.79297 78.6631 7.79297C79.4541 7.79297 80.0824 7.98828 80.5479 8.37891C81.0133 8.76953 81.2933 9.33268 81.3877 10.0684H80.1768C80.04 9.21224 79.5436 8.78418 78.6875 8.78418C78.1341 8.78418 77.7126 8.98438 77.4229 9.38477C77.1364 9.7819 76.9883 10.3662 76.9785 11.1377V11.6846C76.9785 12.4528 77.1396 13.0501 77.4619 13.4766C77.7874 13.8997 78.2383 14.1113 78.8145 14.1113C79.446 14.1113 79.8952 13.9681 80.1621 13.6816V12.29H78.6973V11.3525H81.3926V14.0771Z" fill="#5569D3"/>
</svg>
