<svg width="84" height="24" viewBox="0 0 84 24" fill="none" xmlns="http://www.w3.org/2000/svg">
<path d="M0 5C0 2.23858 2.23858 0 5 0H79C81.7614 0 84 2.23858 84 5V19C84 21.7614 81.7614 24 79 24H5C2.23858 24 0 21.7614 0 19V5Z" fill="#FED9A4"/>
<path d="M13.8594 8.88672H11.6426V15H10.417V8.88672H8.21973V7.89062H13.8594V8.88672ZM21.834 11.6309C21.834 12.3275 21.7135 12.9395 21.4727 13.4668C21.2318 13.9909 20.8867 14.3945 20.4375 14.6777C19.9915 14.9577 19.4772 15.0977 18.8945 15.0977C18.3184 15.0977 17.804 14.9577 17.3516 14.6777C16.9023 14.3945 16.554 13.9925 16.3066 13.4717C16.0625 12.9508 15.9388 12.3503 15.9355 11.6699V11.2695C15.9355 10.5762 16.0576 9.96419 16.3018 9.43359C16.5492 8.90299 16.8958 8.49772 17.3418 8.21777C17.791 7.93457 18.3053 7.79297 18.8848 7.79297C19.4642 7.79297 19.9769 7.93294 20.4229 8.21289C20.8721 8.48958 21.2188 8.88997 21.4629 9.41406C21.707 9.9349 21.8307 10.542 21.834 11.2354V11.6309ZM20.5986 11.2598C20.5986 10.472 20.4489 9.86816 20.1494 9.44824C19.8532 9.02832 19.4316 8.81836 18.8848 8.81836C18.3509 8.81836 17.9326 9.02832 17.6299 9.44824C17.3304 9.86491 17.1774 10.4557 17.1709 11.2207V11.6309C17.1709 12.4121 17.3223 13.016 17.625 13.4424C17.931 13.8688 18.3542 14.082 18.8945 14.082C19.4414 14.082 19.8613 13.8737 20.1543 13.457C20.4505 13.0404 20.5986 12.4316 20.5986 11.6309V11.2598ZM31.167 12.2607H29.79V15H28.5547V7.89062H31.0547C31.875 7.89062 32.5081 8.07454 32.9541 8.44238C33.4001 8.81022 33.623 9.34245 33.623 10.0391C33.623 10.5143 33.5075 10.9131 33.2764 11.2354C33.0485 11.5544 32.7295 11.8001 32.3193 11.9727L33.916 14.9365V15H32.5928L31.167 12.2607ZM29.79 11.2695H31.0596C31.4762 11.2695 31.8018 11.1654 32.0361 10.957C32.2705 10.7454 32.3877 10.4574 32.3877 10.0928C32.3877 9.71191 32.2786 9.41732 32.0605 9.20898C31.8457 9.00065 31.5234 8.89323 31.0938 8.88672H29.79V11.2695ZM40.4502 11.8262H37.5303V14.0137H40.9434V15H36.2949V7.89062H40.9092V8.88672H37.5303V10.8496H40.4502V11.8262ZM48.874 12.6855C48.8024 13.444 48.5225 14.0365 48.0342 14.4629C47.5459 14.8861 46.8965 15.0977 46.0859 15.0977C45.5195 15.0977 45.0199 14.9642 44.5869 14.6973C44.1572 14.4271 43.8252 14.0446 43.5908 13.5498C43.3564 13.055 43.2344 12.4805 43.2246 11.8262V11.1621C43.2246 10.4915 43.3434 9.90072 43.5811 9.38965C43.8187 8.87858 44.1589 8.4847 44.6016 8.20801C45.0475 7.93132 45.5618 7.79297 46.1445 7.79297C46.929 7.79297 47.5605 8.00618 48.0391 8.43262C48.5176 8.85905 48.7959 9.46126 48.874 10.2393H47.6436C47.585 9.72819 47.4352 9.36035 47.1943 9.13574C46.9567 8.90788 46.6068 8.79395 46.1445 8.79395C45.6074 8.79395 45.194 8.99089 44.9043 9.38477C44.6178 9.77539 44.4714 10.3499 44.4648 11.1084V11.7383C44.4648 12.5065 44.6016 13.0924 44.875 13.4961C45.1517 13.8997 45.5553 14.1016 46.0859 14.1016C46.571 14.1016 46.9355 13.9925 47.1797 13.7744C47.4238 13.5563 47.5785 13.1934 47.6436 12.6855H48.874ZM55.6377 11.8262H52.7178V14.0137H56.1309V15H51.4824V7.89062H56.0967V8.88672H52.7178V10.8496H55.6377V11.8262ZM59.9404 15H58.71V7.89062H59.9404V15ZM65.4639 13.4521L67.2705 7.89062H68.6279L66.0693 15H64.873L62.3242 7.89062H63.6768L65.4639 13.4521ZM75.0889 11.8262H72.1689V14.0137H75.582V15H70.9336V7.89062H75.5479V8.88672H72.1689V10.8496H75.0889V11.8262Z" fill="#FF8A00"/>
</svg>
