<svg width="33" height="33" viewBox="0 0 33 33" fill="none" xmlns="http://www.w3.org/2000/svg">
<path d="M18.7917 24.4999C19.1453 24.4999 19.4845 24.3594 19.7345 24.1093C19.9846 23.8593 20.125 23.5202 20.125 23.1665V20.4999C20.125 20.1462 19.9846 19.8071 19.7345 19.5571C19.4845 19.307 19.1453 19.1665 18.7917 19.1665C18.4381 19.1665 18.099 19.307 17.8489 19.5571C17.5989 19.8071 17.4584 20.1462 17.4584 20.4999V23.1665C17.4584 23.5202 17.5989 23.8593 17.8489 24.1093C18.099 24.3594 18.4381 24.4999 18.7917 24.4999ZM13.4584 24.4999C13.812 24.4999 14.1511 24.3594 14.4012 24.1093C14.6512 23.8593 14.7917 23.5202 14.7917 23.1665V20.4999C14.7917 20.1462 14.6512 19.8071 14.4012 19.5571C14.1511 19.307 13.812 19.1665 13.4584 19.1665C13.1048 19.1665 12.7656 19.307 12.5156 19.5571C12.2655 19.8071 12.125 20.1462 12.125 20.4999V23.1665C12.125 23.5202 12.2655 23.8593 12.5156 24.1093C12.7656 24.3594 13.1048 24.4999 13.4584 24.4999ZM25.4584 8.49987H23.6184L21.3117 3.89987C21.2412 3.73061 21.1366 3.57771 21.0043 3.45071C20.8721 3.32372 20.7151 3.22536 20.5431 3.1618C20.3711 3.09823 20.1879 3.07082 20.0048 3.08127C19.8218 3.09172 19.6428 3.13982 19.4792 3.22255C19.3156 3.30528 19.1708 3.42087 19.0539 3.5621C18.9369 3.70332 18.8504 3.86715 18.7996 4.04333C18.7489 4.21952 18.735 4.40428 18.7589 4.58607C18.7827 4.76786 18.8439 4.94277 18.9384 5.09987L20.6317 8.49987H11.6184L13.3117 5.09987C13.4411 4.78908 13.4482 4.44084 13.3315 4.12506C13.2148 3.80927 12.9829 3.54934 12.6825 3.39743C12.382 3.24552 12.0352 3.21289 11.7117 3.30609C11.3882 3.39928 11.112 3.61141 10.9384 3.89987L8.63172 8.49987H6.79172C5.8493 8.51421 4.94222 8.86087 4.23045 9.47872C3.51868 10.0966 3.04795 10.9459 2.90128 11.8769C2.75461 12.808 2.94142 13.7609 3.42876 14.5677C3.91611 15.3744 4.67268 15.9832 5.56505 16.2865L6.55172 26.2332C6.65121 27.2233 7.11617 28.1408 7.85581 28.8064C8.59545 29.4721 9.55665 29.8382 10.5517 29.8332H21.7251C22.7201 29.8382 23.6813 29.4721 24.421 28.8064C25.1606 28.1408 25.6256 27.2233 25.725 26.2332L26.7117 16.2865C27.606 15.9823 28.3638 15.3713 28.8508 14.5618C29.3378 13.7524 29.5226 12.7967 29.3725 11.8641C29.2224 10.9314 28.747 10.082 28.0306 9.46624C27.3142 8.85049 26.403 8.50816 25.4584 8.49987ZM23.0451 25.9665C23.0119 26.2966 22.8569 26.6024 22.6104 26.8243C22.3638 27.0462 22.0434 27.1682 21.7117 27.1665H10.5384C10.2067 27.1682 9.88629 27.0462 9.63975 26.8243C9.3932 26.6024 9.23821 26.2966 9.20505 25.9665L8.25838 16.4999H23.9917L23.0451 25.9665ZM25.4584 13.8332H6.79172C6.43809 13.8332 6.09896 13.6927 5.84891 13.4427C5.59886 13.1926 5.45838 12.8535 5.45838 12.4999C5.45838 12.1463 5.59886 11.8071 5.84891 11.5571C6.09896 11.307 6.43809 11.1665 6.79172 11.1665H25.4584C25.812 11.1665 26.1511 11.307 26.4012 11.5571C26.6512 11.8071 26.7917 12.1463 26.7917 12.4999C26.7917 12.8535 26.6512 13.1926 26.4012 13.4427C26.1511 13.6927 25.812 13.8332 25.4584 13.8332Z" fill="#FF8A00"/>
</svg>
