<svg width="40" height="40" viewBox="0 0 40 40" fill="none" xmlns="http://www.w3.org/2000/svg">
<path d="M39.8535 38.8582L34.5931 34.0939C34.4154 33.9297 34.1558 33.9595 34.0192 34.1537C33.8689 34.3478 33.8962 34.6316 34.0738 34.7809L39.3343 39.5452C39.5119 39.7094 39.7715 39.6796 39.9081 39.4854C40.0448 39.3062 40.0311 39.0224 39.8535 38.8582Z" fill="white"/>
<path d="M39.4663 35.5385L36.9222 33.011C36.7508 32.8361 36.5004 32.8679 36.3685 33.0746C36.2235 33.2812 36.2499 33.5832 36.4213 33.7422L38.9654 36.2698C39.1368 36.4447 39.3872 36.4129 39.5191 36.2062C39.6509 35.9996 39.6377 35.6975 39.4663 35.5385Z" fill="white"/>
<path d="M33.8297 36.4849L36.5172 39.0267C36.6983 39.2026 36.7122 39.5063 36.5729 39.6981C36.4198 39.906 36.1552 39.922 35.9881 39.7621L33.2866 37.2362C33.1056 37.0604 33.0916 36.7567 33.2309 36.5648C33.3841 36.357 33.6486 36.325 33.8297 36.4849Z" fill="white"/>
<path d="M22.7824 25.3575L27.7432 38.9305C28.1158 39.9326 29.4099 39.9544 29.6648 38.974C30.2334 36.839 30.8217 34.7257 31.3903 32.5906C31.4687 32.3292 31.6256 32.1113 31.8413 31.9806C33.606 30.9566 35.3903 29.9326 37.155 28.9087C37.9785 28.4294 37.7236 27.0132 36.7628 26.8172C32.4491 25.8586 28.155 24.9 23.8413 23.9414C23.0962 23.7235 22.4883 24.5296 22.7824 25.3575Z" fill="white"/>
<path d="M22.6648 29.2136C21.2727 30.1723 19.6844 30.8041 17.9393 30.9784C11.9589 31.6102 6.64522 26.7082 6.0962 20.0633C5.52757 13.4184 9.93933 7.5143 15.9197 6.90428C21.9001 6.27247 27.2138 11.1744 27.7629 17.8193C27.9197 19.6494 27.704 21.4141 27.1746 23.0263L33.0766 24.3553C33.7236 22.0459 33.9785 19.584 33.7629 17.035C32.8805 6.7082 24.6452 -0.895287 15.3511 0.085105C6.03737 1.04371 -0.805762 10.2158 0.0765906 20.5426C0.958943 30.8694 9.19424 38.4729 18.4884 37.4925C20.8021 37.2529 22.9785 36.4903 24.9001 35.3574L22.6648 29.2136Z" fill="white"/>
</svg>
