<svg width="123" height="23" viewBox="0 0 123 23" fill="none" xmlns="http://www.w3.org/2000/svg">
<path d="M9.192 21.1133C7.97867 21.1133 6.868 20.9173 5.86 20.5253C4.87067 20.1333 4.04933 19.6107 3.396 18.9573C2.76133 18.2853 2.22 17.5107 1.772 16.6333C1.324 15.756 1.00667 14.8507 0.82 13.9173C0.633333 12.9653 0.54 11.9853 0.54 10.9773C0.54 9.96934 0.633333 8.99868 0.82 8.06534C1.00667 7.11334 1.324 6.19868 1.772 5.32134C2.22 4.44401 2.76133 3.67868 3.396 3.02534C4.04933 2.35334 4.87067 1.82134 5.86 1.42934C6.868 1.03734 7.97867 0.841343 9.192 0.841343C10.4053 0.841343 11.5067 1.03734 12.496 1.42934C13.504 1.82134 14.3253 2.35334 14.96 3.02534C15.6133 3.67868 16.1547 4.44401 16.584 5.32134C17.032 6.19868 17.3493 7.11334 17.536 8.06534C17.7227 8.99868 17.816 9.96934 17.816 10.9773C17.816 14.3933 16.864 17.0533 14.96 18.9573L16.248 20.8613L13.448 22.7093L12.076 20.6933C11.1053 20.9733 10.144 21.1133 9.192 21.1133ZM9.192 17.4733C9.416 17.4733 9.64 17.4453 9.864 17.3893L8.436 15.2613L11.292 13.4133L12.692 15.5413C13.4947 14.4027 13.896 12.8813 13.896 10.9773C13.896 10.1747 13.812 9.40934 13.644 8.68134C13.476 7.95334 13.2147 7.27201 12.86 6.63734C12.524 5.98401 12.0387 5.46134 11.404 5.06934C10.7693 4.67734 10.032 4.48134 9.192 4.48134C8.352 4.48134 7.60533 4.68668 6.952 5.09734C6.31733 5.48934 5.82267 6.02134 5.468 6.69334C5.132 7.34668 4.88 8.03734 4.712 8.76534C4.544 9.47468 4.46 10.212 4.46 10.9773C4.46 12.06 4.6 13.068 4.88 14.0013C5.16 14.9347 5.67333 15.7467 6.42 16.4373C7.16667 17.128 8.09067 17.4733 9.192 17.4733ZM30.1518 20.7773V19.4333C29.2558 20.5533 27.9771 21.1133 26.3158 21.1133C24.9158 21.1133 23.7304 20.6653 22.7598 19.7693C21.7891 18.8733 21.3038 17.4453 21.3038 15.4853V6.46934H24.9438V14.3093C24.9438 15.448 25.1398 16.288 25.5318 16.8293C25.9424 17.352 26.5771 17.6133 27.4358 17.6133C29.2464 17.6133 30.1518 16.5307 30.1518 14.3653V6.46934H33.7918V20.7773H30.1518ZM39.8347 4.78934C39.2561 4.78934 38.7521 4.58401 38.3227 4.17334C37.9121 3.74401 37.7067 3.24001 37.7067 2.66134C37.7067 2.08268 37.9121 1.58801 38.3227 1.17734C38.7334 0.766675 39.2374 0.561342 39.8347 0.561342C40.4321 0.561342 40.9361 0.766675 41.3467 1.17734C41.7574 1.56934 41.9627 2.06401 41.9627 2.66134C41.9627 3.25868 41.7574 3.76268 41.3467 4.17334C40.9361 4.58401 40.4321 4.78934 39.8347 4.78934ZM38.0147 20.7773V6.46934H41.6547V20.7773H38.0147ZM51.7131 21.1133C49.7157 21.1133 48.1291 20.4507 46.9531 19.1253C45.7771 17.8 45.1891 15.9707 45.1891 13.6373C45.1891 11.3227 45.7771 9.49334 46.9531 8.14934C48.1477 6.80534 49.7344 6.13334 51.7131 6.13334C54.7931 6.13334 56.7811 7.53334 57.6771 10.3333L54.2051 11.4813C53.7384 10.2493 52.9357 9.63334 51.7971 9.63334C50.9197 9.63334 50.2104 9.99734 49.6691 10.7253C49.1464 11.4533 48.8851 12.424 48.8851 13.6373C48.8851 14.8507 49.1464 15.8213 49.6691 16.5493C50.1917 17.2587 50.8731 17.6133 51.7131 17.6133C52.9637 17.6133 53.8037 16.9227 54.2331 15.5413L57.7051 16.5773C56.8277 19.6013 54.8304 21.1133 51.7131 21.1133ZM74.1096 20.7773H70.1336L66.1856 13.2173L64.8416 14.5053V20.7773H61.2016V2.26934L64.8416 0.561342V10.3613L68.6776 6.46934H73.0456L68.8456 10.6133L74.1096 20.7773ZM77.2009 20.7773V2.26934L80.8409 0.561342V20.7773H77.2009ZM87.03 4.78934C86.4514 4.78934 85.9474 4.58401 85.518 4.17334C85.1074 3.74401 84.902 3.24001 84.902 2.66134C84.902 2.08268 85.1074 1.58801 85.518 1.17734C85.9287 0.766675 86.4327 0.561342 87.03 0.561342C87.6274 0.561342 88.1314 0.766675 88.542 1.17734C88.9527 1.56934 89.158 2.06401 89.158 2.66134C89.158 3.25868 88.9527 3.76268 88.542 4.17334C88.1314 4.58401 87.6274 4.78934 87.03 4.78934ZM85.21 20.7773V6.46934H88.85V20.7773H85.21ZM101.932 20.7773V12.9373C101.932 11.78 101.727 10.94 101.316 10.4173C100.924 9.89468 100.299 9.63334 99.4404 9.63334C97.6297 9.63334 96.7244 10.716 96.7244 12.8813V20.7773H93.0844V6.46934H96.7244V7.81334C97.639 6.69334 98.9177 6.13334 100.56 6.13334C101.979 6.13334 103.164 6.58134 104.116 7.47734C105.087 8.35468 105.572 9.78268 105.572 11.7613V20.7773H101.932ZM122.535 20.7773H118.559L114.611 13.2173L113.267 14.5053V20.7773H109.627V2.26934L113.267 0.561342V10.3613L117.103 6.46934H121.471L117.271 10.6133L122.535 20.7773Z" fill="white"/>
</svg>
