<svg width="21" height="21" viewBox="0 0 21 21" fill="none" xmlns="http://www.w3.org/2000/svg">
<path d="M20.7099 19.1791L16.9999 15.4991C18.44 13.7035 19.1374 11.4244 18.9487 9.13036C18.76 6.83637 17.6996 4.70185 15.9854 3.16571C14.2713 1.62957 12.0337 0.808575 9.73283 0.871535C7.43194 0.934495 5.24263 1.87663 3.61505 3.50421C1.98747 5.13179 1.04534 7.3211 0.982375 9.62199C0.919414 11.9229 1.74041 14.1604 3.27655 15.8746C4.81269 17.5887 6.94721 18.6492 9.2412 18.8379C11.5352 19.0266 13.8143 18.3292 15.6099 16.8891L19.2899 20.5691C19.3829 20.6628 19.4935 20.7372 19.6153 20.788C19.7372 20.8387 19.8679 20.8649 19.9999 20.8649C20.1319 20.8649 20.2626 20.8387 20.3845 20.788C20.5063 20.7372 20.6169 20.6628 20.7099 20.5691C20.8901 20.3826 20.9909 20.1334 20.9909 19.8741C20.9909 19.6147 20.8901 19.3655 20.7099 19.1791ZM9.9999 16.8891C8.61544 16.8891 7.26206 16.4785 6.11091 15.7094C4.95977 14.9402 4.06256 13.8469 3.53275 12.5678C3.00293 11.2888 2.86431 9.8813 3.13441 8.52343C3.4045 7.16557 4.07119 5.91828 5.05016 4.93932C6.02912 3.96035 7.27641 3.29366 8.63427 3.02357C9.99214 2.75347 11.3996 2.89209 12.6787 3.42191C13.9578 3.95172 15.051 4.84893 15.8202 6.00007C16.5894 7.15122 16.9999 8.5046 16.9999 9.88906C16.9999 11.7456 16.2624 13.5261 14.9497 14.8388C13.6369 16.1516 11.8564 16.8891 9.9999 16.8891Z" fill="#FF8A00"/>
</svg>
