<svg width="32" height="32" viewBox="0 0 32 32" fill="none" xmlns="http://www.w3.org/2000/svg">
<path d="M18.6667 23.9999C19.0203 23.9999 19.3595 23.8594 19.6095 23.6093C19.8596 23.3593 20.0001 23.0202 20.0001 22.6665V19.9999C20.0001 19.6462 19.8596 19.3071 19.6095 19.0571C19.3595 18.807 19.0203 18.6665 18.6667 18.6665C18.3131 18.6665 17.974 18.807 17.7239 19.0571C17.4739 19.3071 17.3334 19.6462 17.3334 19.9999V22.6665C17.3334 23.0202 17.4739 23.3593 17.7239 23.6093C17.974 23.8594 18.3131 23.9999 18.6667 23.9999ZM13.3334 23.9999C13.687 23.9999 14.0261 23.8594 14.2762 23.6093C14.5262 23.3593 14.6667 23.0202 14.6667 22.6665V19.9999C14.6667 19.6462 14.5262 19.3071 14.2762 19.0571C14.0261 18.807 13.687 18.6665 13.3334 18.6665C12.9798 18.6665 12.6406 18.807 12.3906 19.0571C12.1405 19.3071 12 19.6462 12 19.9999V22.6665C12 23.0202 12.1405 23.3593 12.3906 23.6093C12.6406 23.8594 12.9798 23.9999 13.3334 23.9999ZM25.3334 7.99987H23.4934L21.1867 3.39987C21.1162 3.23061 21.0116 3.07771 20.8793 2.95071C20.7471 2.82372 20.5901 2.72536 20.4181 2.6618C20.2461 2.59823 20.0629 2.57082 19.8798 2.58127C19.6968 2.59172 19.5178 2.63982 19.3542 2.72255C19.1906 2.80528 19.0458 2.92087 18.9289 3.0621C18.8119 3.20332 18.7254 3.36715 18.6746 3.54333C18.6239 3.71952 18.61 3.90428 18.6339 4.08607C18.6577 4.26786 18.7189 4.44277 18.8134 4.59987L20.5067 7.99987H11.4934L13.1867 4.59987C13.3161 4.28908 13.3232 3.94084 13.2065 3.62506C13.0898 3.30927 12.8579 3.04934 12.5575 2.89743C12.257 2.74552 11.9102 2.71289 11.5867 2.80609C11.2632 2.89928 10.987 3.11141 10.8134 3.39987L8.50672 7.99987H6.66672C5.7243 8.01421 4.81722 8.36087 4.10545 8.97872C3.39368 9.59656 2.92295 10.4459 2.77628 11.3769C2.62961 12.308 2.81642 13.2609 3.30376 14.0677C3.79111 14.8744 4.54768 15.4832 5.44005 15.7865L6.42672 25.7332C6.52621 26.7233 6.99117 27.6408 7.73081 28.3064C8.47045 28.9721 9.43165 29.3382 10.4267 29.3332H21.6001C22.5951 29.3382 23.5563 28.9721 24.296 28.3064C25.0356 27.6408 25.5006 26.7233 25.6001 25.7332L26.5867 15.7865C27.481 15.4823 28.2388 14.8713 28.7258 14.0618C29.2128 13.2524 29.3976 12.2967 29.2475 11.3641C29.0974 10.4314 28.622 9.58199 27.9056 8.96624C27.1892 8.35049 26.278 8.00816 25.3334 7.99987V7.99987ZM22.9201 25.4665C22.8869 25.7966 22.7319 26.1024 22.4854 26.3243C22.2388 26.5462 21.9184 26.6682 21.5867 26.6665H10.4134C10.0817 26.6682 9.76129 26.5462 9.51475 26.3243C9.2682 26.1024 9.11321 25.7966 9.08005 25.4665L8.13338 15.9999H23.8667L22.9201 25.4665ZM25.3334 13.3332H6.66672C6.31309 13.3332 5.97396 13.1927 5.72391 12.9427C5.47386 12.6926 5.33338 12.3535 5.33338 11.9999C5.33338 11.6463 5.47386 11.3071 5.72391 11.0571C5.97396 10.807 6.31309 10.6665 6.66672 10.6665H25.3334C25.687 10.6665 26.0261 10.807 26.2762 11.0571C26.5262 11.3071 26.6667 11.6463 26.6667 11.9999C26.6667 12.3535 26.5262 12.6926 26.2762 12.9427C26.0261 13.1927 25.687 13.3332 25.3334 13.3332Z" fill="#FF8A00"/>
</svg>
