<svg width="40" height="41" viewBox="0 0 40 41" fill="none" xmlns="http://www.w3.org/2000/svg">
<path d="M24.3745 15.1827L17.3437 22.23L14.6395 19.5258C14.4926 19.3542 14.3118 19.2149 14.1085 19.1165C13.9051 19.0182 13.6837 18.9629 13.458 18.9542C13.2322 18.9454 13.0072 18.9835 12.7969 19.0659C12.5866 19.1483 12.3955 19.2732 12.2358 19.433C12.0761 19.5927 11.9511 19.7837 11.8687 19.994C11.7863 20.2043 11.7483 20.4294 11.757 20.6551C11.7657 20.8808 11.821 21.1023 11.9194 21.3056C12.0178 21.5089 12.1571 21.6897 12.3287 21.8366L16.1801 25.7044C16.3332 25.8563 16.5148 25.9765 16.7145 26.058C16.9142 26.1396 17.128 26.1809 17.3437 26.1797C17.7736 26.1779 18.1856 26.0072 18.4909 25.7044L26.6853 17.51C26.8389 17.3576 26.9609 17.1763 27.0441 16.9766C27.1273 16.7769 27.1701 16.5627 27.1701 16.3464C27.1701 16.13 27.1273 15.9158 27.0441 15.7161C26.9609 15.5164 26.8389 15.3351 26.6853 15.1827C26.3783 14.8775 25.9629 14.7062 25.5299 14.7062C25.097 14.7062 24.6816 14.8775 24.3745 15.1827ZM19.9167 4.05469C16.6753 4.05469 13.5067 5.01588 10.8115 6.81671C8.11641 8.61755 6.01581 11.1771 4.77537 14.1718C3.53493 17.1665 3.21038 20.4618 3.84275 23.6409C4.47512 26.82 6.03601 29.7402 8.32803 32.0323C10.6201 34.3243 13.5403 35.8852 16.7194 36.5176C19.8985 37.1499 23.1938 36.8254 26.1885 35.5849C29.1832 34.3445 31.7428 32.2439 33.5436 29.5488C35.3444 26.8536 36.3056 23.685 36.3056 20.4436C36.3056 18.2914 35.8817 16.1602 35.0581 14.1718C34.2345 12.1834 33.0273 10.3767 31.5054 8.85488C29.9836 7.33303 28.1769 6.12584 26.1885 5.30222C24.2001 4.4786 22.0689 4.05469 19.9167 4.05469V4.05469ZM19.9167 33.5547C17.3236 33.5547 14.7887 32.7857 12.6326 31.3451C10.4765 29.9044 8.79599 27.8567 7.80364 25.461C6.81129 23.0652 6.55165 20.429 7.05754 17.8857C7.56344 15.3424 8.81215 13.0062 10.6458 11.1726C12.4794 9.339 14.8156 8.09029 17.3589 7.58439C19.9022 7.0785 22.5384 7.33814 24.9341 8.33049C27.3299 9.32284 29.3775 11.0033 30.8182 13.1594C32.2589 15.3155 33.0278 17.8504 33.0278 20.4436C33.0278 23.9209 31.6465 27.2557 29.1877 29.7145C26.7289 32.1733 23.394 33.5547 19.9167 33.5547V33.5547Z" fill="#798CF2"/>
</svg>
