<svg width="89" height="79" viewBox="0 0 89 79" fill="none" xmlns="http://www.w3.org/2000/svg">
<path d="M88.1758 77.0033L76.537 67.603C76.144 67.2788 75.5697 67.3378 75.2674 67.7209C74.9348 68.1039 74.9953 68.6638 75.3883 68.9585L87.027 78.3589C87.42 78.683 87.9944 78.6241 88.2967 78.241C88.599 77.8874 88.5688 77.3275 88.1758 77.0033Z" fill="url(#paint0_linear)"/>
<path d="M87.3197 70.4543L81.6908 65.4671C81.3116 65.1221 80.7575 65.1848 80.4658 65.5926C80.145 66.0003 80.2033 66.5963 80.5825 66.91L86.2114 71.8972C86.5906 72.2422 87.1447 72.1795 87.4364 71.7717C87.728 71.3639 87.6989 70.768 87.3197 70.4543Z" fill="url(#paint1_linear)"/>
<path d="M74.8482 72.3216L80.7945 77.3369C81.195 77.6838 81.2258 78.2832 80.9177 78.6617C80.5788 79.0717 79.9934 79.1033 79.6237 78.7878L73.6467 73.8041C73.2461 73.4571 73.2153 72.8578 73.5234 72.4793C73.8623 72.0692 74.4477 72.0061 74.8482 72.3216Z" fill="url(#paint2_linear)"/>
<path d="M50.4064 50.3663L61.3821 77.1474C62.2064 79.1248 65.0696 79.1678 65.6336 77.2334C66.8917 73.0206 68.1932 68.8509 69.4512 64.6381C69.6248 64.1223 69.9718 63.6924 70.449 63.4345C74.3534 61.4141 78.3012 59.3937 82.2057 57.3733C84.0277 56.4275 83.4637 53.6334 81.338 53.2465C71.7939 51.355 62.2931 49.4636 52.749 47.5722C51.1005 47.1423 49.7556 48.7328 50.4064 50.3663Z" fill="url(#paint3_linear)"/>
<path d="M50.1459 57.9749C47.0658 59.8663 43.5518 61.1129 39.6908 61.4568C26.4592 62.7035 14.7025 53.0313 13.4878 39.9202C12.2298 26.8091 21.9908 15.1596 35.2224 13.9559C48.454 12.7093 60.2106 22.3814 61.4253 35.4925C61.7724 39.1035 61.2952 42.5854 60.1239 45.7665L73.182 48.3887C74.6136 43.8321 75.1775 38.9745 74.7003 33.945C72.7481 13.569 54.5275 -1.4335 33.9643 0.50093C13.3577 2.39237 -1.78275 20.49 0.169457 40.866C2.12166 61.2419 20.3422 76.2445 40.9055 74.31C46.0246 73.8372 50.84 72.3326 55.0915 70.0973L50.1459 57.9749Z" fill="url(#paint4_linear)"/>
<defs>
<linearGradient id="paint0_linear" x1="81.7758" y1="67.3926" x2="81.7758" y2="78.5693" gradientUnits="userSpaceOnUse">
<stop stop-color="#0A28BC"/>
<stop offset="1" stop-color="#ABB9FF"/>
</linearGradient>
<linearGradient id="paint1_linear" x1="83.9451" y1="65.2432" x2="83.9451" y2="72.1211" gradientUnits="userSpaceOnUse">
<stop stop-color="#0A28BC"/>
<stop offset="1" stop-color="#ABB9FF"/>
</linearGradient>
<linearGradient id="paint2_linear" x1="77.2206" y1="72.1221" x2="77.2206" y2="79" gradientUnits="userSpaceOnUse">
<stop stop-color="#0A28BC"/>
<stop offset="1" stop-color="#ABB9FF"/>
</linearGradient>
<linearGradient id="paint3_linear" x1="66.7697" y1="47.501" x2="66.7697" y2="78.6577" gradientUnits="userSpaceOnUse">
<stop stop-color="#0A28BC"/>
<stop offset="1" stop-color="#ABB9FF"/>
</linearGradient>
<linearGradient id="paint4_linear" x1="37.4333" y1="0.333008" x2="37.4333" y2="74.478" gradientUnits="userSpaceOnUse">
<stop stop-color="#0A28BC"/>
<stop offset="1" stop-color="#ABB9FF"/>
</linearGradient>
</defs>
</svg>
