<svg width="24" height="25" viewBox="0 0 24 25" fill="none" xmlns="http://www.w3.org/2000/svg">
<path d="M21.7099 21.1791L17.9999 17.4991C19.44 15.7035 20.1374 13.4244 19.9487 11.1304C19.76 8.83637 18.6996 6.70185 16.9854 5.16571C15.2713 3.62957 13.0337 2.80857 10.7328 2.87154C8.43194 2.9345 6.24263 3.87663 4.61505 5.50421C2.98747 7.13179 2.04534 9.3211 1.98237 11.622C1.91941 13.9229 2.74041 16.1604 4.27655 17.8746C5.81269 19.5887 7.94721 20.6492 10.2412 20.8379C12.5352 21.0266 14.8143 20.3292 16.6099 18.8891L20.2899 22.5691C20.3829 22.6628 20.4935 22.7372 20.6153 22.788C20.7372 22.8387 20.8679 22.8649 20.9999 22.8649C21.1319 22.8649 21.2626 22.8387 21.3845 22.788C21.5063 22.7372 21.6169 22.6628 21.7099 22.5691C21.8901 22.3826 21.9909 22.1334 21.9909 21.8741C21.9909 21.6147 21.8901 21.3655 21.7099 21.1791ZM10.9999 18.8891C9.61544 18.8891 8.26206 18.4785 7.11091 17.7094C5.95977 16.9402 5.06256 15.8469 4.53275 14.5678C4.00293 13.2888 3.86431 11.8813 4.13441 10.5234C4.4045 9.16557 5.07119 7.91828 6.05016 6.93932C7.02912 5.96035 8.27641 5.29366 9.63427 5.02357C10.9921 4.75347 12.3996 4.89209 13.6787 5.42191C14.9578 5.95172 16.051 6.84893 16.8202 8.00007C17.5894 9.15122 17.9999 10.5046 17.9999 11.8891C17.9999 13.7456 17.2624 15.5261 15.9497 16.8388C14.6369 18.1516 12.8564 18.8891 10.9999 18.8891Z" fill="#FF8A00"/>
</svg>
