<svg width="16" height="16" viewBox="0 0 16 16" fill="none" xmlns="http://www.w3.org/2000/svg">
<path d="M14.6666 5.21367C14.6698 5.17151 14.6698 5.12916 14.6666 5.087V5.087L13.3333 1.75367C13.2812 1.6219 13.1885 1.51016 13.0686 1.43464C12.9487 1.35912 12.8079 1.32375 12.6666 1.33367H3.33325C3.19973 1.33354 3.06925 1.3735 2.95871 1.44839C2.84816 1.52327 2.76265 1.62962 2.71325 1.75367L1.37992 5.087C1.37671 5.12916 1.37671 5.17151 1.37992 5.21367C1.35777 5.25078 1.34199 5.29134 1.33325 5.33367V5.33367C1.34067 5.79449 1.4674 6.24553 1.70108 6.64279C1.93476 7.04004 2.26741 7.36995 2.66659 7.60033V14.0003C2.66659 14.1771 2.73682 14.3467 2.86185 14.4717C2.98687 14.5968 3.15644 14.667 3.33325 14.667H12.6666C12.8434 14.667 13.013 14.5968 13.138 14.4717C13.263 14.3467 13.3333 14.1771 13.3333 14.0003V7.627C13.7363 7.39432 14.0714 7.06022 14.3053 6.65789C14.5392 6.25557 14.6638 5.79904 14.6666 5.33367V5.33367C14.6728 5.29391 14.6728 5.25342 14.6666 5.21367V5.21367ZM8.66659 13.3337H7.33325V10.667H8.66659V13.3337ZM11.9999 13.3337H9.99992V10.0003C9.99992 9.82352 9.92968 9.65395 9.80466 9.52893C9.67963 9.4039 9.51006 9.33367 9.33325 9.33367H6.66659C6.48977 9.33367 6.32021 9.4039 6.19518 9.52893C6.07016 9.65395 5.99992 9.82352 5.99992 10.0003V13.3337H3.99992V8.00033C4.37956 7.99819 4.75438 7.91501 5.09929 7.75635C5.4442 7.59769 5.75125 7.36721 5.99992 7.08033C6.25016 7.36408 6.55792 7.59134 6.90275 7.747C7.24758 7.90266 7.62158 7.98317 7.99992 7.98317C8.37825 7.98317 8.75226 7.90266 9.09709 7.747C9.44191 7.59134 9.74967 7.36408 9.99992 7.08033C10.2486 7.36721 10.5556 7.59769 10.9006 7.75635C11.2455 7.91501 11.6203 7.99819 11.9999 8.00033V13.3337ZM11.9999 6.667C11.6463 6.667 11.3072 6.52652 11.0571 6.27648C10.8071 6.02643 10.6666 5.68729 10.6666 5.33367C10.6666 5.15686 10.5963 4.98729 10.4713 4.86226C10.3463 4.73724 10.1767 4.667 9.99992 4.667C9.82311 4.667 9.65354 4.73724 9.52851 4.86226C9.40349 4.98729 9.33325 5.15686 9.33325 5.33367C9.33325 5.68729 9.19278 6.02643 8.94273 6.27648C8.69268 6.52652 8.35354 6.667 7.99992 6.667C7.6463 6.667 7.30716 6.52652 7.05711 6.27648C6.80706 6.02643 6.66659 5.68729 6.66659 5.33367C6.66659 5.15686 6.59635 4.98729 6.47132 4.86226C6.3463 4.73724 6.17673 4.667 5.99992 4.667C5.82311 4.667 5.65354 4.73724 5.52851 4.86226C5.40349 4.98729 5.33325 5.15686 5.33325 5.33367C5.33982 5.50876 5.31183 5.68344 5.25089 5.84772C5.18995 6.012 5.09725 6.16267 4.97808 6.29112C4.85891 6.41957 4.71561 6.5233 4.55636 6.59637C4.3971 6.66944 4.22501 6.71043 4.04992 6.717C3.6963 6.73026 3.35189 6.6025 3.09246 6.36183C2.96401 6.24266 2.86029 6.09936 2.78721 5.9401C2.71414 5.78085 2.67315 5.60876 2.66659 5.43367L3.78659 2.667H12.2133L13.3333 5.43367C13.308 5.76968 13.1564 6.08366 12.9091 6.31247C12.6617 6.54128 12.3369 6.66795 11.9999 6.667V6.667Z" fill="#798CF2"/>
</svg>
