<svg width="16" height="16" viewBox="0 0 16 16" fill="none" xmlns="http://www.w3.org/2000/svg">
<path d="M7.52659 10.1933C7.49792 10.2249 7.4712 10.2583 7.44659 10.2933C7.42136 10.3304 7.40118 10.3708 7.38659 10.4133C7.36737 10.451 7.35389 10.4915 7.34659 10.5333C7.34332 10.5776 7.34332 10.6222 7.34659 10.6666C7.34434 10.754 7.3626 10.8408 7.39992 10.9199C7.42986 11.0026 7.47763 11.0778 7.53984 11.14C7.60206 11.2022 7.67719 11.25 7.75992 11.2799C7.83972 11.3152 7.92601 11.3334 8.01326 11.3334C8.1005 11.3334 8.18679 11.3152 8.26659 11.2799C8.34932 11.25 8.42445 11.2022 8.48666 11.14C8.54888 11.0778 8.59665 11.0026 8.62659 10.9199C8.65619 10.8389 8.66978 10.7528 8.66659 10.6666C8.6671 10.5788 8.65028 10.4919 8.6171 10.4106C8.58393 10.3294 8.53504 10.2555 8.47325 10.1933C8.41128 10.1308 8.33755 10.0812 8.25631 10.0473C8.17507 10.0135 8.08793 9.99605 7.99992 9.99605C7.91191 9.99605 7.82478 10.0135 7.74354 10.0473C7.6623 10.0812 7.58856 10.1308 7.52659 10.1933ZM7.99992 1.33325C6.68138 1.33325 5.39245 1.72425 4.29612 2.45679C3.19979 3.18933 2.34531 4.23052 1.84072 5.4487C1.33614 6.66687 1.20412 8.00731 1.46135 9.30052C1.71859 10.5937 2.35353 11.7816 3.28588 12.714C4.21823 13.6463 5.40611 14.2813 6.69932 14.5385C7.99253 14.7957 9.33297 14.6637 10.5511 14.1591C11.7693 13.6545 12.8105 12.8 13.5431 11.7037C14.2756 10.6074 14.6666 9.31846 14.6666 7.99992C14.6666 7.12444 14.4941 6.25753 14.1591 5.4487C13.8241 4.63986 13.333 3.90493 12.714 3.28587C12.0949 2.66682 11.36 2.17575 10.5511 1.84072C9.74231 1.50569 8.8754 1.33325 7.99992 1.33325V1.33325ZM7.99992 13.3333C6.94509 13.3333 5.91394 13.0205 5.03688 12.4344C4.15982 11.8484 3.47623 11.0154 3.07256 10.0409C2.6689 9.06636 2.56328 7.994 2.76907 6.95944C2.97485 5.92487 3.48281 4.97456 4.22869 4.22868C4.97457 3.4828 5.92487 2.97485 6.95944 2.76906C7.99401 2.56328 9.06636 2.66889 10.0409 3.07256C11.0154 3.47623 11.8484 4.15982 12.4344 5.03688C13.0205 5.91394 13.3333 6.94509 13.3333 7.99992C13.3333 9.41441 12.7714 10.771 11.7712 11.7712C10.771 12.7713 9.41441 13.3333 7.99992 13.3333V13.3333ZM7.99992 4.66659C7.64863 4.66636 7.30348 4.75867 6.99919 4.93421C6.69491 5.10976 6.44223 5.36236 6.26659 5.66659C6.21835 5.74246 6.18596 5.82732 6.17137 5.91604C6.15678 6.00476 6.16028 6.09551 6.18167 6.18284C6.20306 6.27017 6.2419 6.35228 6.29584 6.42421C6.34979 6.49614 6.41773 6.55642 6.49557 6.60142C6.57341 6.64641 6.65955 6.6752 6.74881 6.68604C6.83807 6.69688 6.92859 6.68955 7.01495 6.6645C7.1013 6.63945 7.18169 6.59719 7.25129 6.54026C7.32088 6.48334 7.37824 6.41292 7.41992 6.33325C7.47866 6.23152 7.56323 6.14711 7.66509 6.08857C7.76694 6.03004 7.88245 5.99945 7.99992 5.99992C8.17673 5.99992 8.3463 6.07016 8.47133 6.19518C8.59635 6.32021 8.66659 6.48977 8.66659 6.66659C8.66659 6.8434 8.59635 7.01297 8.47133 7.13799C8.3463 7.26301 8.17673 7.33325 7.99992 7.33325C7.82311 7.33325 7.65354 7.40349 7.52852 7.52851C7.40349 7.65354 7.33325 7.82311 7.33325 7.99992V8.66659C7.33325 8.8434 7.40349 9.01297 7.52852 9.13799C7.65354 9.26301 7.82311 9.33325 7.99992 9.33325C8.17673 9.33325 8.3463 9.26301 8.47133 9.13799C8.59635 9.01297 8.66659 8.8434 8.66659 8.66659V8.54659C9.1075 8.3866 9.47816 8.07674 9.71377 7.67116C9.94938 7.26559 10.0349 6.79011 9.95552 6.32785C9.87609 5.86558 9.63672 5.44593 9.27925 5.14226C8.92178 4.83859 8.46895 4.67022 7.99992 4.66659V4.66659Z" fill="#757575"/>
</svg>
