<svg width="16" height="16" viewBox="0 0 16 16" fill="none" xmlns="http://www.w3.org/2000/svg">
<path d="M14.6667 0.666762H10C9.61834 0.665198 9.24826 0.7979 8.95455 1.04165C8.66083 1.2854 8.46218 1.62467 8.39335 2.0001L7.78002 5.36676C7.73763 5.60132 7.74731 5.84233 7.80836 6.07273C7.86942 6.30314 7.98037 6.51731 8.13335 6.7001C8.28718 6.88297 8.47897 7.03017 8.6954 7.13148C8.91183 7.23279 9.14772 7.28578 9.38669 7.28676H11.3334L11.1667 7.72676C11.0436 8.05301 11.0009 8.40408 11.0421 8.75032C11.0833 9.09656 11.2071 9.42781 11.4032 9.71611C11.5994 10.0044 11.862 10.2413 12.1689 10.4067C12.4758 10.5722 12.818 10.6614 13.1667 10.6668C13.2961 10.6678 13.4229 10.6311 13.5318 10.5613C13.6407 10.4915 13.727 10.3914 13.78 10.2734L15.2734 6.9001C15.3074 6.82661 15.3277 6.74754 15.3334 6.66676V1.33343C15.3334 1.15662 15.2631 0.987048 15.1381 0.862024C15.0131 0.737 14.8435 0.666762 14.6667 0.666762ZM14 6.48676L12.78 9.2401C12.661 9.17531 12.5583 9.08408 12.48 8.97343C12.4016 8.86237 12.352 8.73355 12.3357 8.59855C12.3194 8.46356 12.3369 8.32663 12.3867 8.2001L12.64 7.53343C12.7067 7.36053 12.7294 7.17379 12.7061 6.98996C12.6828 6.80612 12.6143 6.63094 12.5067 6.4801C12.4007 6.32983 12.2597 6.20762 12.096 6.12399C11.9322 6.04037 11.7506 5.99784 11.5667 6.0001H9.37335C9.32907 6.00022 9.28528 5.99075 9.245 5.97234C9.20472 5.95392 9.1689 5.927 9.14002 5.89343C9.08827 5.82234 9.0667 5.73368 9.08002 5.64676L9.69335 2.31343C9.69048 2.27211 9.69639 2.23065 9.7107 2.19178C9.725 2.15292 9.74737 2.11752 9.77634 2.08792C9.80531 2.05832 9.84022 2.03519 9.87878 2.02005C9.91733 2.00491 9.95865 1.99811 10 2.0001H14V6.48676ZM6.62669 8.7001H4.70002L4.86669 8.2601C4.98795 7.93194 5.02821 7.57936 4.98403 7.23232C4.93985 6.88527 4.81255 6.55402 4.61294 6.26671C4.41333 5.97941 4.14731 5.74453 3.83749 5.58205C3.52767 5.41956 3.1832 5.33428 2.83335 5.33343C2.70398 5.33241 2.5771 5.36905 2.4682 5.43889C2.35929 5.50874 2.27306 5.60876 2.22002 5.72676L0.726687 9.1001C0.688484 9.18389 0.668055 9.27468 0.666687 9.36676V14.7001C0.666687 14.8769 0.736925 15.0465 0.861949 15.1715C0.986973 15.2965 1.15654 15.3668 1.33335 15.3668H6.00002C6.3817 15.3683 6.75178 15.2356 7.04549 14.9919C7.33921 14.7481 7.53786 14.4089 7.60669 14.0334L8.22002 10.7001C8.26241 10.4655 8.25273 10.2245 8.19168 9.99412C8.13062 9.76372 8.01967 9.54955 7.86669 9.36676C7.72213 9.17089 7.53594 9.00951 7.32153 8.89423C7.10711 8.77895 6.8698 8.71265 6.62669 8.7001ZM6.30669 13.7534C6.29524 13.8252 6.25752 13.8902 6.20086 13.9358C6.14419 13.9814 6.07262 14.0043 6.00002 14.0001H2.00002V9.51343L3.22002 6.7601C3.33909 6.82488 3.44172 6.91611 3.52002 7.02676C3.59848 7.13782 3.64808 7.26664 3.66437 7.40164C3.68067 7.53663 3.66313 7.67356 3.61335 7.8001L3.36002 8.46676C3.29337 8.63966 3.27067 8.8264 3.29394 9.01023C3.31721 9.19407 3.38573 9.36925 3.49335 9.5201C3.59785 9.67282 3.73816 9.79763 3.90202 9.88363C4.06588 9.96963 4.2483 10.0142 4.43335 10.0134H6.62669C6.67097 10.0133 6.71476 10.0228 6.75504 10.0412C6.79532 10.0596 6.83114 10.0865 6.86002 10.1201C6.91177 10.1912 6.93334 10.2798 6.92002 10.3668L6.30669 13.7534Z" fill="#757575"/>
</svg>
