<svg width="16" height="16" viewBox="0 0 16 16" fill="none" xmlns="http://www.w3.org/2000/svg">
<path d="M8.00002 9.33325C7.82321 9.33325 7.65364 9.40349 7.52862 9.52851C7.40359 9.65354 7.33335 9.82311 7.33335 9.99992V11.3333C7.33335 11.5101 7.40359 11.6796 7.52862 11.8047C7.65364 11.9297 7.82321 11.9999 8.00002 11.9999C8.17683 11.9999 8.3464 11.9297 8.47142 11.8047C8.59645 11.6796 8.66669 11.5101 8.66669 11.3333V9.99992C8.66669 9.82311 8.59645 9.65354 8.47142 9.52851C8.3464 9.40349 8.17683 9.33325 8.00002 9.33325ZM8.25335 7.38659C8.13267 7.33063 7.99801 7.31206 7.86669 7.33325L7.74669 7.37325L7.62669 7.43325L7.52669 7.51325C7.46328 7.57712 7.41346 7.65317 7.38024 7.73681C7.34701 7.82045 7.33106 7.90995 7.33335 7.99992C7.33285 8.08766 7.34966 8.17463 7.38284 8.25586C7.41602 8.33708 7.4649 8.41096 7.52669 8.47325C7.59009 8.53395 7.66485 8.58152 7.74669 8.61325C7.82581 8.65057 7.91257 8.66884 8.00002 8.66659C8.08776 8.66709 8.17473 8.65028 8.25596 8.6171C8.33718 8.58392 8.41106 8.53504 8.47335 8.47325C8.53514 8.41096 8.58402 8.33708 8.6172 8.25586C8.65038 8.17463 8.66719 8.08766 8.66669 7.99992C8.66719 7.91218 8.65038 7.82521 8.6172 7.74398C8.58402 7.66276 8.53514 7.58888 8.47335 7.52659C8.40855 7.4677 8.33414 7.42035 8.25335 7.38659ZM13.3334 5.95992C13.3264 5.89867 13.313 5.83834 13.2934 5.77992V5.71992C13.2613 5.65137 13.2185 5.58836 13.1667 5.53325L9.16669 1.53325C9.11158 1.4814 9.04857 1.43864 8.98002 1.40659H8.91335C8.84853 1.37192 8.77886 1.3472 8.70669 1.33325H4.66669C4.13625 1.33325 3.62755 1.54397 3.25247 1.91904C2.8774 2.29411 2.66669 2.80282 2.66669 3.33325V12.6666C2.66669 13.197 2.8774 13.7057 3.25247 14.0808C3.62755 14.4559 4.13625 14.6666 4.66669 14.6666H11.3334C11.8638 14.6666 12.3725 14.4559 12.7476 14.0808C13.1226 13.7057 13.3334 13.197 13.3334 12.6666V5.99992C13.3334 5.99992 13.3334 5.99992 13.3334 5.95992ZM9.33335 3.60659L11.06 5.33325H10C9.82321 5.33325 9.65364 5.26301 9.52862 5.13799C9.40359 5.01297 9.33335 4.8434 9.33335 4.66659V3.60659ZM12 12.6666C12 12.8434 11.9298 13.013 11.8048 13.138C11.6797 13.263 11.5102 13.3333 11.3334 13.3333H4.66669C4.48988 13.3333 4.32031 13.263 4.19528 13.138C4.07026 13.013 4.00002 12.8434 4.00002 12.6666V3.33325C4.00002 3.15644 4.07026 2.98687 4.19528 2.86185C4.32031 2.73682 4.48988 2.66659 4.66669 2.66659H8.00002V4.66659C8.00002 5.19702 8.21073 5.70573 8.58581 6.0808C8.96088 6.45587 9.46959 6.66659 10 6.66659H12V12.6666Z" fill="#757575"/>
</svg>
