<svg width="16" height="16" viewBox="0 0 16 16" fill="none" xmlns="http://www.w3.org/2000/svg">
<path d="M8.00002 8.66659C7.82321 8.66659 7.65364 8.73682 7.52862 8.86185C7.40359 8.98687 7.33335 9.15644 7.33335 9.33325V11.3333C7.33335 11.5101 7.40359 11.6796 7.52862 11.8047C7.65364 11.9297 7.82321 11.9999 8.00002 11.9999C8.17683 11.9999 8.3464 11.9297 8.47142 11.8047C8.59645 11.6796 8.66669 11.5101 8.66669 11.3333V9.33325C8.66669 9.15644 8.59645 8.98687 8.47142 8.86185C8.3464 8.73682 8.17683 8.66659 8.00002 8.66659ZM11.3334 5.99992V4.66659C11.3334 3.78253 10.9822 2.93468 10.357 2.30956C9.73192 1.68444 8.88408 1.33325 8.00002 1.33325C7.11596 1.33325 6.26812 1.68444 5.643 2.30956C5.01788 2.93468 4.66669 3.78253 4.66669 4.66659V5.99992C4.13625 5.99992 3.62755 6.21063 3.25247 6.5857C2.8774 6.96078 2.66669 7.46949 2.66669 7.99992V12.6666C2.66669 13.197 2.8774 13.7057 3.25247 14.0808C3.62755 14.4559 4.13625 14.6666 4.66669 14.6666H11.3334C11.8638 14.6666 12.3725 14.4559 12.7476 14.0808C13.1226 13.7057 13.3334 13.197 13.3334 12.6666V7.99992C13.3334 7.46949 13.1226 6.96078 12.7476 6.5857C12.3725 6.21063 11.8638 5.99992 11.3334 5.99992ZM6.00002 4.66659C6.00002 4.13615 6.21073 3.62744 6.58581 3.25237C6.96088 2.8773 7.46959 2.66659 8.00002 2.66659C8.53045 2.66659 9.03916 2.8773 9.41423 3.25237C9.78931 3.62744 10 4.13615 10 4.66659V5.99992H6.00002V4.66659ZM12 12.6666C12 12.8434 11.9298 13.013 11.8048 13.138C11.6797 13.263 11.5102 13.3333 11.3334 13.3333H4.66669C4.48988 13.3333 4.32031 13.263 4.19528 13.138C4.07026 13.013 4.00002 12.8434 4.00002 12.6666V7.99992C4.00002 7.82311 4.07026 7.65354 4.19528 7.52851C4.32031 7.40349 4.48988 7.33325 4.66669 7.33325H11.3334C11.5102 7.33325 11.6797 7.40349 11.8048 7.52851C11.9298 7.65354 12 7.82311 12 7.99992V12.6666Z" fill="#757575"/>
</svg>
