<svg width="246" height="198" viewBox="0 0 246 198" fill="none" xmlns="http://www.w3.org/2000/svg">
<path d="M188.901 35.23H133.087C132.052 35.2312 131.06 35.6429 130.329 36.3746C129.597 37.1064 129.186 38.0983 129.186 39.1325V73.3859H192.799V39.1325C192.799 38.0989 192.388 37.1076 191.657 36.3761C190.926 35.6445 189.935 35.2324 188.901 35.23Z" fill="#F5EBDD"/>
<path d="M159.63 29.5702C159.986 29.5708 160.327 29.7124 160.578 29.9638C160.83 30.2153 160.972 30.5563 160.972 30.9119V52.4996C160.972 52.8553 160.83 53.1962 160.578 53.4477C160.327 53.6992 159.986 53.8408 159.63 53.8414H137.797C137.441 53.8402 137.101 53.6983 136.849 53.4469C136.598 53.1955 136.457 52.8549 136.456 52.4996V30.9096C136.457 30.5548 136.599 30.2148 136.85 29.9638C137.101 29.7129 137.442 29.5714 137.797 29.5702H159.63ZM159.63 28.6621H137.797C137.501 28.6618 137.208 28.7198 136.934 28.8327C136.661 28.9456 136.413 29.1113 136.203 29.3203C135.994 29.5292 135.828 29.7773 135.715 30.0504C135.601 30.3235 135.543 30.6163 135.543 30.9119V52.4996C135.544 53.0965 135.781 53.6688 136.204 54.0906C136.626 54.5125 137.199 54.7495 137.797 54.7495H159.63C160.227 54.7495 160.799 54.5124 161.222 54.0905C161.644 53.6686 161.881 53.0963 161.881 52.4996V30.9096C161.88 30.3134 161.643 29.7417 161.221 29.3203C160.799 28.8988 160.226 28.6621 159.63 28.6621Z" fill="#FFC5BE"/>
<path d="M194.183 54.6654C194.539 54.666 194.88 54.8076 195.132 55.0591C195.383 55.3106 195.525 55.6515 195.526 56.0071V77.5971C195.525 77.9528 195.383 78.2937 195.132 78.5452C194.88 78.7967 194.539 78.9383 194.183 78.9389H172.461C172.105 78.9383 171.764 78.7967 171.513 78.5452C171.261 78.2937 171.119 77.9528 171.119 77.5971V56.0071C171.119 55.6515 171.261 55.3106 171.513 55.0591C171.764 54.8076 172.105 54.666 172.461 54.6654H194.183ZM194.183 53.7573H172.461C171.864 53.7573 171.291 53.9944 170.869 54.4163C170.447 54.8382 170.21 55.4104 170.21 56.0071V77.5971C170.21 78.1938 170.447 78.7661 170.869 79.188C171.291 79.6099 171.864 79.847 172.461 79.847H194.183C194.78 79.847 195.353 79.6099 195.775 79.188C196.197 78.7661 196.434 78.1938 196.434 77.5971V56.0071C196.434 55.4104 196.197 54.8382 195.775 54.4163C195.353 53.9944 194.78 53.7573 194.183 53.7573Z" fill="#FFC5BE"/>
<path d="M138.558 60.0346C138.914 60.0352 139.255 60.1767 139.507 60.4282C139.758 60.6797 139.9 61.0206 139.901 61.3763V75.2248C139.9 75.5804 139.758 75.9213 139.507 76.1728C139.255 76.4243 138.914 76.5659 138.558 76.5665H126.212C125.856 76.5659 125.515 76.4243 125.264 76.1728C125.012 75.9213 124.87 75.5804 124.87 75.2248V61.3763C124.87 61.0206 125.012 60.6797 125.264 60.4282C125.515 60.1767 125.856 60.0352 126.212 60.0346H138.558ZM138.558 59.1265H126.212C125.917 59.1265 125.624 59.1847 125.351 59.2977C125.078 59.4108 124.829 59.5765 124.62 59.7854C124.411 59.9943 124.245 60.2424 124.132 60.5153C124.019 60.7883 123.961 61.0808 123.961 61.3763V75.2248C123.961 75.8214 124.198 76.3937 124.62 76.8156C125.043 77.2375 125.615 77.4746 126.212 77.4746H138.558C139.155 77.4746 139.728 77.2375 140.15 76.8156C140.572 76.3937 140.809 75.8214 140.809 75.2248V61.3763C140.809 61.0808 140.751 60.7883 140.638 60.5153C140.525 60.2424 140.359 59.9943 140.15 59.7854C139.941 59.5765 139.693 59.4108 139.419 59.2977C139.146 59.1847 138.854 59.1265 138.558 59.1265Z" fill="#FFC5BE"/>
<path d="M158.582 31.7227H138.835V45.5348H158.582V31.7227Z" fill="#FFC5BE"/>
<path d="M170.578 40.876H151.414C148.588 40.876 146.296 43.166 146.296 45.9908V62.5091C146.296 65.334 148.588 67.624 151.414 67.624H170.578C173.405 67.624 175.696 65.334 175.696 62.5091V45.9908C175.696 43.166 173.405 40.876 170.578 40.876Z" fill="#A9B8FF"/>
<path d="M142.55 48.4721C142.351 48.2745 142.083 48.1636 141.803 48.1636C141.523 48.1636 141.255 48.2745 141.057 48.4721L140.83 48.6991L140.603 48.4721C140.402 48.2881 140.138 48.1887 139.866 48.1946C139.593 48.2004 139.334 48.3111 139.141 48.5035C138.949 48.6959 138.838 48.9552 138.832 49.2273C138.826 49.4993 138.926 49.7631 139.11 49.9636L139.337 50.1906L140.83 51.6822L142.32 50.1906L142.547 49.9636C142.745 49.766 142.857 49.498 142.857 49.2183C142.858 48.9387 142.747 48.6703 142.55 48.4721Z" fill="#FFC5BE"/>
<path d="M192.022 28.6621H129.968C128.015 28.6615 126.142 29.4357 124.76 30.8145C123.378 32.1933 122.6 34.064 122.598 36.0154V79.1704C122.598 81.1231 123.374 82.9957 124.756 84.3765C126.137 85.7572 128.011 86.5328 129.966 86.5328H192.02C193.974 86.5328 195.848 85.7572 197.23 84.3765C198.611 82.9957 199.388 81.1231 199.388 79.1704V36.0154C199.385 34.0648 198.608 32.1948 197.227 30.8161C195.846 29.4374 193.974 28.6627 192.022 28.6621ZM192.799 73.3859H129.186V39.1325C129.186 38.62 129.287 38.1125 129.484 37.639C129.68 37.1656 129.967 36.7353 130.33 36.373C130.693 36.0106 131.123 35.7231 131.597 35.527C132.071 35.3309 132.579 35.2299 133.092 35.2299H188.905C189.941 35.2299 190.935 35.641 191.668 36.3728C192.4 37.1046 192.812 38.0972 192.813 39.1325L192.799 73.3859Z" fill="#5569D3"/>
<path d="M155.07 77.1045H166.918C168.082 77.1045 169.198 77.5666 170.022 78.3892C170.845 79.2117 171.307 80.3273 171.307 81.4906V94.8646C171.307 96.0275 170.844 97.1425 170.021 97.9646C169.198 98.7867 168.082 99.2484 166.918 99.2484H144.54C144.132 99.2484 143.742 99.0868 143.454 98.799C143.166 98.5111 143.004 98.1208 143.004 97.7138C143.004 97.3067 143.166 96.9164 143.454 96.6286C143.742 96.3408 144.132 96.1791 144.54 96.1791H150.674V81.4906C150.674 80.914 150.788 80.3431 151.009 79.8105C151.23 79.2779 151.554 78.7941 151.962 78.3867C152.37 77.9794 152.855 77.6564 153.388 77.4364C153.921 77.2164 154.493 77.1036 155.07 77.1045Z" fill="#5569D3"/>
<path d="M160.995 82.6962C162.509 82.6962 163.737 81.4694 163.737 79.956C163.737 78.4426 162.509 77.2158 160.995 77.2158C159.481 77.2158 158.253 78.4426 158.253 79.956C158.253 81.4694 159.481 82.6962 160.995 82.6962Z" fill="#A9B8FF"/>
<path d="M160.995 32.8166C161.479 32.8166 161.872 32.4243 161.872 31.9403C161.872 31.4563 161.479 31.064 160.995 31.064C160.511 31.064 160.118 31.4563 160.118 31.9403C160.118 32.4243 160.511 32.8166 160.995 32.8166Z" fill="#2C2C2C"/>
<path d="M171.307 86.9712H150.633" stroke="#2C2C2C" stroke-miterlimit="10"/>
<path d="M97.5229 99.2485H204.718C205.923 99.2485 207.078 99.7269 207.93 100.578C208.783 101.43 209.261 102.585 209.261 103.789V197.468H92.9791V103.789C92.9791 102.585 93.4578 101.43 94.31 100.578C95.1621 99.7269 96.3178 99.2485 97.5229 99.2485Z" fill="#FFC5BE"/>
<path d="M166.997 110.023V125.965H103.762V110.023H166.997ZM167.906 109.115H102.853V126.873H167.906V109.115Z" fill="#A15842"/>
<path d="M135.379 120.734C136.894 120.734 138.122 119.507 138.122 117.994C138.122 116.481 136.894 115.254 135.379 115.254C133.865 115.254 132.637 116.481 132.637 117.994C132.637 119.507 133.865 120.734 135.379 120.734Z" fill="#A15842"/>
<path d="M166.997 137.647V186.696H103.762V137.647H166.997ZM167.906 136.739H102.853V187.604H167.906V136.739Z" fill="#A15842"/>
<path d="M125.944 164.911C127.459 164.911 128.686 163.684 128.686 162.17C128.686 160.657 127.459 159.43 125.944 159.43C124.43 159.43 123.202 160.657 123.202 162.17C123.202 163.684 124.43 164.911 125.944 164.911Z" fill="#A15842"/>
<path d="M144.815 164.911C146.329 164.911 147.557 163.684 147.557 162.17C147.557 160.657 146.329 159.43 144.815 159.43C143.3 159.43 142.072 160.657 142.072 162.17C142.072 163.684 143.3 164.911 144.815 164.911Z" fill="#A15842"/>
<path d="M135.543 137.177V187.166" stroke="#A15842" stroke-miterlimit="10"/>
<path d="M199.39 109.115H177.78V187.604H199.39V109.115Z" fill="#A15842"/>
<path d="M199.39 148.358H177.668" stroke="#FFC5BE" stroke-miterlimit="10"/>
<path d="M12.3407 99.2485H88.6012C89.8063 99.2485 90.962 99.7269 91.8142 100.578C92.6663 101.43 93.145 102.585 93.145 103.789V197.468H7.79688V103.789C7.79688 102.585 8.27559 101.43 9.12771 100.578C9.97984 99.7269 11.1356 99.2485 12.3407 99.2485Z" fill="#A9B8FF"/>
<path d="M80.0907 126.873H20.8511V187.604H80.0907V126.873Z" fill="#2C2C2C"/>
<path d="M80.0907 187.604H20.8511L0.00878906 145.071H59.2461L80.0907 187.604Z" fill="#5569D3"/>
<path d="M41.4753 99.2486H20.8511L23.0457 94.6445H39.2806L41.4753 99.2486Z" fill="#2C2C2C"/>
<path d="M80.0907 99.2486H59.4664L61.6611 94.6445H77.896L80.0907 99.2486Z" fill="#2C2C2C"/>
<path d="M24.9109 117.227C27.1531 117.227 28.9708 115.41 28.9708 113.17C28.9708 110.929 27.1531 109.113 24.9109 109.113C22.6687 109.113 20.8511 110.929 20.8511 113.17C20.8511 115.41 22.6687 117.227 24.9109 117.227Z" fill="#F5EBDD"/>
<path d="M20.4126 113.169H23.7046" stroke="#2C2C2C" stroke-miterlimit="10" stroke-linecap="round"/>
<path d="M41.9501 117.227C44.1923 117.227 46.01 115.41 46.01 113.17C46.01 110.929 44.1923 109.113 41.9501 109.113C39.7079 109.113 37.8903 110.929 37.8903 113.17C37.8903 115.41 39.7079 117.227 41.9501 117.227Z" fill="#F5EBDD"/>
<path d="M41.9502 108.677V111.964" stroke="#2C2C2C" stroke-miterlimit="10" stroke-linecap="round"/>
<path d="M58.9916 117.227C61.2338 117.227 63.0515 115.41 63.0515 113.17C63.0515 110.929 61.2338 109.113 58.9916 109.113C56.7494 109.113 54.9318 110.929 54.9318 113.17C54.9318 115.41 56.7494 117.227 58.9916 117.227Z" fill="#F5EBDD"/>
<path d="M58.9916 108.677V111.964" stroke="#2C2C2C" stroke-miterlimit="10" stroke-linecap="round"/>
<path d="M76.0308 117.227C78.273 117.227 80.0907 115.41 80.0907 113.17C80.0907 110.929 78.273 109.113 76.0308 109.113C73.7886 109.113 71.9709 110.929 71.9709 113.17C71.9709 115.41 73.7886 117.227 76.0308 117.227Z" fill="#F5EBDD"/>
<path d="M76.0309 108.677V111.964" stroke="#2C2C2C" stroke-miterlimit="10" stroke-linecap="round"/>
<path d="M50.5243 153.183H19.5902C18.8022 153.183 18.1635 153.82 18.1635 154.607C18.1635 155.394 18.8022 156.032 19.5902 156.032H50.5243C51.3122 156.032 51.951 155.394 51.951 154.607C51.951 153.82 51.3122 153.183 50.5243 153.183Z" fill="#2C2C2C"/>
<path d="M93.638 11.7717C89.5918 14.3712 92.3226 19.8833 96.0508 20.1012C97.4811 23.4375 97.6379 27.182 96.4915 30.6261H102.171L102.192 28.2355C107.385 29.5273 109.298 27.4886 110.305 25.6474C111.441 23.5588 111.104 21.6041 110.716 19.0637C110.716 19.0637 112.572 18.3259 112.431 17.2067C112.317 16.2986 110.339 15.9649 110.339 15.9649C110.309 15.5653 110.289 15.1521 110.277 14.723C110.257 13.5842 110.174 12.4473 110.027 11.3177C105.665 13.6401 100.233 14.8456 100.233 14.8456C100.233 14.8456 96.7096 9.79661 93.638 11.7717Z" fill="#A15842"/>
<path d="M161.249 94.3924C163.628 95.3005 165.382 93.7681 164.943 92.8895C164.657 92.3174 156.426 86.1469 147.932 79.8765L138.201 92.0018C140.434 92.8577 141.907 93.3413 141.907 93.3413C141.907 93.3413 144.319 97.0667 147.832 99.2598C147.832 99.2598 151.56 108.248 153.534 108.03C154.861 107.882 153.096 102.767 152.657 100.574C152.657 100.574 157.046 108.03 159.898 108.03C160.556 108.03 161.163 107.576 161.213 106.495C161.213 106.495 162.66 106.892 163.19 105.837C163.417 105.399 163.417 104.74 163.417 104.302C163.417 104.302 164.553 104.618 165.173 103.864C166.218 102.602 163.928 98.4289 161.249 94.3924Z" fill="#A15842"/>
<path d="M69.7241 55.8391C69.609 55.7392 69.4795 55.6303 69.3356 55.5122C69.4628 55.6212 69.59 55.7302 69.7241 55.8391Z" fill="#FF8A00"/>
<path d="M129.186 66.1439C129.186 66.1439 119.063 42.8626 114.926 37.4231C110.752 31.9404 102.151 32.2401 102.151 32.2401L102.164 30.626H96.4846C96.4846 30.626 102.619 42.9034 90.998 48.1659C86.611 62.4162 73.0069 58.6884 69.7172 55.8393C68.3995 58.2503 61.8178 68.993 65.3279 77.1046C68.3995 83.4613 79.3705 82.1468 79.3705 82.1468L81.5651 77.5428H109.434H100.549L107.681 61.9871L110.102 67.8965C110.102 67.8965 113.181 75.7811 119.756 81.9289C124.452 86.3195 133.228 90.0813 138.21 91.9906L147.941 79.8766C138.71 73.0681 129.186 66.1439 129.186 66.1439Z" fill="#FF8A00"/>
<path d="M80.1656 67.5923L75.6469 69.6514" stroke="#2C2C2C" stroke-linecap="round" stroke-linejoin="round"/>
<path d="M81.79 78.4214L78.8434 58.5908" stroke="#2C2C2C" stroke-linecap="round" stroke-linejoin="round"/>
<path d="M100.549 77.5337L109.434 77.5428L110.093 67.8965L107.681 61.978L100.549 77.5337Z" fill="#FFAA2D"/>
<path d="M105.293 1.97777C103.082 0.742763 99.613 -0.48544 95.694 0.73368C88.508 2.96987 87.129 9.18806 86.1793 13.3063C85.5205 16.1554 84.8616 19.4359 84.8616 19.4359C84.8616 19.4359 72.5752 20.3122 73.8929 32.8099C67.3612 34.3015 60.516 43.085 65.7664 51.4781C66.74 52.9967 67.9441 54.3546 69.3355 55.5033C69.4794 55.6213 69.6089 55.7303 69.724 55.8302C73.0137 58.6793 86.6178 62.4139 91.0048 48.1568C102.635 42.8943 96.4914 30.6169 96.4914 30.6169C97.6378 27.1728 97.481 23.4283 96.0507 20.092C92.3225 19.865 89.5917 14.3619 93.6379 11.7625C96.7095 9.7874 100.226 14.8523 100.226 14.8523C100.226 14.8523 105.659 13.6468 110.021 11.3244C110.021 11.3244 110.021 11.3062 110.021 11.2994C110.021 11.2926 113.515 9.61487 114.476 6.5001C116.236 0.8086 108.996 -2.26077 105.293 1.97777Z" fill="#FFAA2D"/>
<path d="M109.755 68.2349C108.51 65.3131 106.379 60.1256 105.047 55.8394" stroke="#2C2C2C" stroke-linecap="round" stroke-linejoin="round"/>
<path d="M152.341 100.822L151.56 99.0283" stroke="#2C2C2C" stroke-linecap="round" stroke-linejoin="round"/>
<path d="M161.22 106.305C159.793 104.445 156.831 100.279 154.404 97.0557" stroke="#2C2C2C" stroke-linecap="round" stroke-linejoin="round"/>
<path d="M163.719 104.034C161.974 101.471 159.3 97.4506 157.485 94.8647" stroke="#2C2C2C" stroke-linecap="round" stroke-linejoin="round"/>
<path d="M161.767 94.2926C160.947 93.0349 160.027 91.6659 159.041 90.2788" stroke="#2C2C2C" stroke-linecap="round" stroke-linejoin="round"/>
<path d="M105.893 1.81201C106.397 2.16844 106.96 2.58389 107.46 3.00162" stroke="#CA7358" stroke-linecap="round" stroke-linejoin="round"/>
<path d="M84.3073 19.6904L83.7643 22.2944" stroke="#CA7358" stroke-linecap="round" stroke-linejoin="round"/>
<path d="M73.4454 33.2207C73.7994 35.0178 74.471 36.7376 75.4288 38.2992" stroke="#CA7358" stroke-linecap="round" stroke-linejoin="round"/>
<path d="M102.064 28.6621C101.192 28.3574 100.351 27.9713 99.5518 27.5088" stroke="#2C2C2C" stroke-linecap="round" stroke-linejoin="round"/>
<path d="M118.211 122.453C117.873 123.122 117.355 123.685 116.716 124.078C116.077 124.471 115.341 124.679 114.591 124.679C113.84 124.679 113.104 124.471 112.465 124.078C111.826 123.685 111.308 123.122 110.97 122.453C110.632 123.122 110.115 123.685 109.475 124.078C108.836 124.471 108.1 124.679 107.35 124.679C106.599 124.679 105.864 124.471 105.225 124.078C104.585 123.685 104.068 123.122 103.73 122.453C103.392 123.122 102.875 123.685 102.236 124.078C101.597 124.471 100.861 124.679 100.111 124.679C99.3602 124.679 98.6245 124.471 97.9855 124.078C97.3465 123.685 96.8293 123.122 96.4915 122.453C96.3378 122.752 96.1478 123.032 95.9258 123.286C101.976 139.588 98.2454 147.482 96.4915 163.267C96.1365 166.616 96.0348 169.987 96.1871 173.351H117.177C117.94 166.704 119.51 157.725 120.408 146.592C118.371 146.456 116.466 145.537 115.092 144.028C113.718 142.519 112.983 140.537 113.039 138.498C113.095 136.459 113.94 134.521 115.395 133.09C116.85 131.659 118.803 130.847 120.844 130.823C120.919 130.823 120.994 130.823 121.071 130.823C121.071 128.698 121.005 126.612 120.898 124.566C120.324 124.43 119.785 124.171 119.321 123.806C118.857 123.441 118.478 122.979 118.211 122.453Z" fill="#F5EBDD"/>
<path d="M89.2509 122.453C88.9127 123.122 88.3952 123.685 87.7561 124.078C87.1169 124.471 86.3811 124.679 85.6306 124.679C84.8801 124.679 84.1444 124.471 83.5052 124.078C82.866 123.685 82.3486 123.122 82.0104 122.453C81.6722 123.122 81.1547 123.685 80.5156 124.078C79.8764 124.471 79.1406 124.679 78.3901 124.679C77.6396 124.679 76.9038 124.471 76.2647 124.078C75.6255 123.685 75.108 123.122 74.7699 122.453C74.4956 122.996 74.1022 123.471 73.6189 123.842C73.1356 124.213 72.5749 124.47 71.9785 124.594C71.3821 124.719 70.7652 124.707 70.1739 124.56C69.5826 124.413 69.032 124.135 68.563 123.747C66.5183 129.767 64.1624 131.708 53.7072 147.7C50.9638 151.928 48.6009 156.391 46.6461 161.035L65.5028 170.614C69.4355 164.066 75.4173 156.107 80.4064 148.138C78.6569 147.117 77.3674 145.462 76.8045 143.517C76.2416 141.572 76.4485 139.485 77.3824 137.688C78.3162 135.891 79.9056 134.521 81.8217 133.863C83.7377 133.204 85.8339 133.306 87.6765 134.149C89.3668 130.133 90.5822 126.616 91.3433 124.387C90.4356 124.015 89.6927 123.328 89.2509 122.453Z" fill="#F5EBDD"/>
<path d="M93.3654 124.648C93.4949 124.632 93.6244 124.612 93.7516 124.585H93.7788C93.9015 124.556 94.0219 124.522 94.1401 124.482L94.1991 124.467C94.3241 124.421 94.449 124.373 94.5695 124.317H94.5854C94.7058 124.26 94.8125 124.199 94.9375 124.131L94.958 124.117C95.0762 124.047 95.1907 123.972 95.301 123.89C95.526 123.72 95.7324 123.527 95.9167 123.313C96.1387 123.06 96.3287 122.78 96.4824 122.48C96.8202 123.15 97.3374 123.712 97.9764 124.106C98.6154 124.499 99.3511 124.707 100.102 124.707C100.852 124.707 101.588 124.499 102.227 124.106C102.866 123.712 103.383 123.15 103.721 122.48C104.059 123.15 104.576 123.712 105.215 124.105C105.855 124.498 106.59 124.706 107.341 124.706C108.091 124.706 108.827 124.498 109.466 124.105C110.105 123.712 110.623 123.15 110.961 122.48C111.299 123.15 111.817 123.712 112.456 124.105C113.095 124.498 113.831 124.706 114.581 124.706C115.332 124.706 116.068 124.498 116.707 124.105C117.346 123.712 117.863 123.15 118.202 122.48C118.468 123.006 118.846 123.468 119.31 123.834C119.773 124.199 120.311 124.459 120.885 124.596C120.551 118.438 119.783 112.312 118.588 106.261C116.948 106.713 115.234 106.829 113.548 106.602C111.862 106.376 110.24 105.811 108.778 104.942C102.482 101.349 100.906 83.7634 100.542 77.5361H81.572C70.601 87.4026 70.8214 116.782 68.7358 123.222C68.679 123.4 68.6199 123.57 68.5631 123.74C69.0321 124.129 69.5827 124.407 70.174 124.554C70.7653 124.7 71.3821 124.712 71.9786 124.588C72.575 124.463 73.1357 124.206 73.619 123.835C74.1022 123.465 74.4956 122.99 74.7699 122.446C75.1081 123.116 75.6256 123.678 76.2647 124.071C76.9039 124.464 77.6397 124.672 78.3902 124.672C79.1407 124.672 79.8765 124.464 80.5156 124.071C81.1548 123.678 81.6722 123.116 82.0104 122.446C82.3486 123.116 82.8661 123.678 83.5053 124.071C84.1444 124.464 84.8802 124.672 85.6307 124.672C86.3812 124.672 87.117 124.464 87.7561 124.071C88.3953 123.678 88.9128 123.116 89.2509 122.446C89.6922 123.316 90.4315 124 91.3343 124.371C91.5703 124.47 91.8153 124.546 92.0658 124.598H92.1022C92.2067 124.619 92.3112 124.635 92.418 124.646H92.5043C92.6247 124.646 92.7474 124.664 92.8701 124.664C92.9928 124.664 93.1404 124.664 93.2745 124.644L93.3654 124.648Z" fill="#2C2C2C"/>
<path d="M99.563 194.617H117.554C117.554 194.617 118.199 190.367 120.478 187.593C118.699 186.305 117.254 184.707 116.895 182.119C116.589 179.91 116.764 176.977 117.177 173.349H96.187C96.5201 180.541 97.6524 187.674 99.563 194.617Z" fill="#FF8A00"/>
<path d="M40.5439 181.677L39.9782 181.395C39.9215 181.367 39.8631 181.343 39.8032 181.323L56.6425 189.922C56.6425 189.922 59.1416 186.499 62.3608 185.1C61.9338 184.218 61.6069 183.29 61.3862 182.335C60.7682 179.611 62.563 175.497 65.5006 170.607L46.6439 161.029C41.8207 172.414 40.5439 181.677 40.5439 181.677Z" fill="#FF8A00"/>
<path d="M99.563 194.617H99.0132C98.8212 194.609 98.6296 194.64 98.45 194.709C98.2703 194.777 98.1063 194.88 97.9678 195.013C97.8292 195.146 97.719 195.306 97.6437 195.483C97.5684 195.659 97.5295 195.849 97.5295 196.041C97.5295 196.233 97.5684 196.423 97.6437 196.6C97.719 196.777 97.8292 196.936 97.9678 197.069C98.1063 197.203 98.2703 197.306 98.45 197.374C98.6296 197.442 98.8212 197.474 99.0132 197.466H129.186C129.186 191.563 124.129 190.233 120.483 187.593C118.211 190.367 117.559 194.617 117.559 194.617H99.563Z" fill="#2C2C2C"/>
<path d="M56.6425 189.929L39.8032 181.329C39.4725 181.214 39.1103 181.229 38.7903 181.371C38.4703 181.513 38.2166 181.772 38.0808 182.095C37.9451 182.417 37.9374 182.78 38.0594 183.108C38.1815 183.436 38.424 183.705 38.7377 183.86L65.546 197.468C68.1201 192.14 64.4396 189.491 62.3517 185.107C59.1416 186.505 56.6425 189.929 56.6425 189.929Z" fill="#2C2C2C"/>
<path d="M112.947 138.712C112.947 140.73 113.72 142.671 115.107 144.136C116.495 145.602 118.392 146.481 120.408 146.592C120.767 142.117 121.019 137.284 121.064 132.135C121.064 131.697 121.064 131.261 121.064 130.825C120.992 130.825 120.917 130.825 120.837 130.825C118.745 130.828 116.739 131.659 115.26 133.138C113.78 134.617 112.949 136.621 112.947 138.712Z" fill="#FFAA2D"/>
<path d="M76.5238 141.344C76.5234 142.715 76.8812 144.063 77.5617 145.255C78.2422 146.446 79.222 147.439 80.4042 148.136C80.9517 147.26 81.4901 146.384 82.0104 145.509C84.153 141.855 86.0431 138.059 87.6674 134.147C86.4649 133.608 85.1466 133.378 83.8325 133.479C82.5184 133.579 81.2503 134.006 80.1437 134.722C79.0372 135.437 78.1273 136.418 77.4971 137.574C76.8668 138.731 76.5361 140.027 76.5352 141.344H76.5238Z" fill="#FFAA2D"/>
<path d="M108.778 104.942C110.244 105.807 111.869 106.366 113.556 106.587C115.243 106.807 116.958 106.685 118.597 106.227C115.189 88.8669 109.434 77.5361 109.434 77.5361H100.542C100.906 83.7702 102.482 101.355 108.778 104.942Z" fill="#FFAA2D"/>
<path d="M108.782 21.1706C108.401 21.3635 107.031 21.4203 106.574 20.3306" stroke="#2C2C2C" stroke-linecap="round" stroke-linejoin="round"/>
<path d="M107.899 16.3758C108.263 16.3758 108.558 16.0811 108.558 15.7175C108.558 15.3538 108.263 15.0591 107.899 15.0591C107.535 15.0591 107.24 15.3538 107.24 15.7175C107.24 16.0811 107.535 16.3758 107.899 16.3758Z" fill="#2C2C2C"/>
<path d="M95.3942 15.4971L97.5865 17.0318" stroke="#2C2C2C" stroke-linecap="round" stroke-linejoin="round"/>
<path d="M81.3516 77.543H109.434" stroke="#2C2C2C" stroke-miterlimit="10" stroke-linecap="round"/>
<path d="M89.4122 78.2012C89.4122 78.2012 94.5512 85.5431 92.1385 86.3354C89.9075 87.0665 89.469 81.5838 89.4122 78.2012Z" stroke="#A15842" stroke-linecap="round" stroke-linejoin="round"/>
<path d="M89.2532 78.2012C89.2532 78.2012 86.6178 84.7849 84.6435 83.6815C83.3577 82.9687 86.6178 79.7427 89.2532 78.2012Z" stroke="#A15842" stroke-linecap="round" stroke-linejoin="round"/>
<path d="M48.9907 76.4463H13.6673C12.8794 76.4463 12.2406 77.0841 12.2406 77.8709C12.2406 78.6576 12.8794 79.2954 13.6673 79.2954H48.9907C49.7787 79.2954 50.4175 78.6576 50.4175 77.8709C50.4175 77.0841 49.7787 76.4463 48.9907 76.4463Z" fill="#2C2C2C"/>
<path d="M31.3291 77.3246C21.0169 77.3246 16.4095 69.8691 16.4095 69.8691V88.2763C16.4125 89.9612 17.0837 91.5763 18.276 92.7678C19.4684 93.9593 21.0846 94.6299 22.7708 94.6329H39.8623C41.5504 94.6329 43.1696 93.9636 44.3644 92.7718C45.5592 91.58 46.2319 89.9632 46.2349 88.2763V69.8691C46.2349 69.8691 41.6389 77.3246 31.3291 77.3246Z" fill="#FFC5BE"/>
<path d="M31.3291 77.3246C41.6389 77.3246 46.2463 69.8691 46.2463 69.8691H16.4095C16.4095 69.8691 21.0169 77.3246 31.3291 77.3246Z" fill="#A15842"/>
<path d="M31.6562 69.8695C33.1707 69.8695 34.3984 68.6427 34.3984 67.1293C34.3984 65.616 33.1707 64.3892 31.6562 64.3892C30.1418 64.3892 28.9141 65.616 28.9141 67.1293C28.9141 68.6427 30.1418 69.8695 31.6562 69.8695Z" fill="#2C2C2C"/>
<path d="M31.8766 52.7701C34.1188 52.7701 35.9365 50.9538 35.9365 48.7132C35.9365 46.4726 34.1188 44.6562 31.8766 44.6562C29.6344 44.6562 27.8168 46.4726 27.8168 48.7132C27.8168 50.9538 29.6344 52.7701 31.8766 52.7701Z" fill="#F5EBDD"/>
<path d="M31.947 40.6039C35.2495 40.6039 37.9266 37.9286 37.9266 34.6286C37.9266 31.3285 35.2495 28.6533 31.947 28.6533C28.6446 28.6533 25.9674 31.3285 25.9674 34.6286C25.9674 37.9286 28.6446 40.6039 31.947 40.6039Z" fill="#F5EBDD"/>
<path d="M231.421 143.764C231.421 143.764 229.334 148.459 223.854 148.459C218.374 148.459 216.288 143.764 216.288 143.764C216.288 143.764 200.894 178.966 216.027 197.478H231.685C246.818 178.952 231.421 143.764 231.421 143.764Z" fill="#A9B8FF"/>
<path d="M223.856 148.449C229.336 148.449 231.424 143.754 231.424 143.754H216.288C216.288 143.754 218.376 148.449 223.856 148.449Z" fill="#2C2C2C"/>
<path d="M238.01 175.093C229.493 175.245 219.421 178.317 211.656 189.168" stroke="#F5EBDD" stroke-linecap="round" stroke-linejoin="round"/>
<path d="M210.293 166.466C216.009 165.072 226.837 163.741 237.328 166.239" stroke="#F5EBDD" stroke-linecap="round" stroke-linejoin="round"/>
<path d="M237.276 184.13C233.466 184.174 226.423 188.487 227.2 197.182" stroke="#F5EBDD" stroke-linecap="round" stroke-linejoin="round"/>
<path d="M228.572 109.342L224.383 145.949" stroke="#2C2C2C" stroke-miterlimit="10"/>
<path d="M230.599 124.046L225.333 145.65" stroke="#2C2C2C" stroke-miterlimit="10"/>
<path d="M219.611 133.996C220.089 132.879 216.695 130.358 212.029 128.364C207.363 126.371 203.194 125.66 202.716 126.778C202.238 127.895 205.632 130.416 210.298 132.41C214.964 134.403 219.133 135.113 219.611 133.996Z" fill="#2C2C2C"/>
<path d="M237.078 135.931C242 134.076 245.657 131.687 245.245 130.595C244.833 129.502 240.508 130.121 235.585 131.975C230.662 133.83 227.006 136.219 227.418 137.312C227.83 138.404 232.155 137.786 237.078 135.931Z" fill="#2C2C2C"/>
<path d="M226.512 128.226C227.043 127.494 225.534 125.496 223.142 123.763C220.749 122.03 218.379 121.218 217.848 121.95C217.317 122.682 218.826 124.68 221.219 126.413C223.611 128.146 225.981 128.958 226.512 128.226Z" fill="#2C2C2C"/>
<path d="M213.233 115.326L223.524 145.947" stroke="#2C2C2C" stroke-miterlimit="10"/>
<path d="M226.48 117.367C226.886 116.485 227.499 115.713 228.267 115.117C229.034 114.521 229.934 114.118 230.89 113.942C231.846 113.767 232.831 113.824 233.76 114.109C234.689 114.393 235.537 114.897 236.23 115.578C236.924 116.258 237.443 117.096 237.745 118.019C238.046 118.943 238.121 119.925 237.963 120.884C237.805 121.842 237.418 122.748 236.835 123.526C236.253 124.304 235.491 124.93 234.616 125.352C234.091 123.419 233.061 121.66 231.631 120.257C230.201 118.854 228.423 117.856 226.48 117.367Z" fill="#FF8A00"/>
<path d="M229.649 120.791C230.468 118.17 232.211 115.935 234.554 114.502" stroke="#F5EBDD" stroke-miterlimit="10" stroke-linecap="round"/>
<path d="M230.66 121.597C232.34 119.41 234.766 117.917 237.476 117.401" stroke="#F5EBDD" stroke-miterlimit="10" stroke-linecap="round"/>
<path d="M234.616 125.352C233.492 125.893 232.229 126.074 230.998 125.871C229.767 125.668 228.629 125.091 227.739 124.217C226.849 123.344 226.251 122.217 226.025 120.991C225.8 119.765 225.959 118.5 226.48 117.367C228.423 117.856 230.202 118.854 231.631 120.257C233.061 121.66 234.091 123.419 234.616 125.352Z" fill="#FF8A00"/>
<path d="M217.179 108.599C216.678 107.766 215.984 107.065 215.156 106.556C214.327 106.047 213.387 105.745 212.417 105.675C211.447 105.606 210.474 105.77 209.581 106.156C208.688 106.541 207.9 107.136 207.286 107.89C206.671 108.643 206.247 109.534 206.05 110.486C205.853 111.438 205.887 112.423 206.152 113.359C206.416 114.294 206.902 115.152 207.568 115.861C208.234 116.569 209.061 117.107 209.979 117.428C210.288 115.451 211.117 113.591 212.383 112.04C213.648 110.488 215.303 109.301 217.179 108.599Z" fill="#FF8A00"/>
<path d="M214.407 112.355C213.305 109.84 211.325 107.811 208.836 106.647" stroke="#F5EBDD" stroke-miterlimit="10" stroke-linecap="round"/>
<path d="M213.494 113.265C211.578 111.279 208.999 110.067 206.246 109.86" stroke="#F5EBDD" stroke-miterlimit="10" stroke-linecap="round"/>
<path d="M209.979 117.429C211.156 117.843 212.432 117.883 213.633 117.545C214.834 117.207 215.901 116.507 216.689 115.54C217.477 114.573 217.947 113.386 218.034 112.143C218.122 110.899 217.823 109.659 217.179 108.591C215.302 109.293 213.646 110.482 212.38 112.035C211.115 113.588 210.286 115.45 209.979 117.429Z" fill="#FF8A00"/>
<path d="M234.375 105.912C234.397 104.941 234.184 103.979 233.756 103.107C233.327 102.235 232.695 101.479 231.913 100.903C231.131 100.326 230.221 99.9464 229.261 99.7951C228.301 99.6438 227.319 99.7255 226.397 100.033C225.475 100.341 224.641 100.866 223.965 101.564C223.288 102.262 222.79 103.112 222.512 104.042C222.233 104.973 222.183 105.957 222.365 106.911C222.548 107.865 222.957 108.761 223.558 109.524C224.878 108.016 226.576 106.887 228.477 106.253C230.378 105.618 232.413 105.5 234.375 105.912Z" fill="#FF8A00"/>
<path d="M230.026 107.601C230.442 104.886 229.856 102.113 228.377 99.7979" stroke="#F5EBDD" stroke-miterlimit="10" stroke-linecap="round"/>
<path d="M228.768 107.88C228.215 105.177 226.687 102.771 224.474 101.122" stroke="#F5EBDD" stroke-miterlimit="10" stroke-linecap="round"/>
<path d="M223.563 109.524C224.336 110.501 225.391 111.217 226.586 111.573C227.781 111.929 229.056 111.908 230.238 111.513C231.421 111.118 232.452 110.368 233.193 109.366C233.933 108.363 234.346 107.157 234.375 105.912C232.414 105.501 230.379 105.619 228.479 106.254C226.579 106.889 224.882 108.017 223.563 109.524Z" fill="#FF8A00"/>
<path d="M217.406 108.827C215.53 109.528 213.875 110.715 212.61 112.267C211.344 113.818 210.515 115.678 210.206 117.656" stroke="#F5EBDD" stroke-miterlimit="10" stroke-linecap="round"/>
<path d="M234.482 105.912C232.533 105.448 230.495 105.512 228.579 106.095C226.663 106.678 224.936 107.761 223.577 109.231" stroke="#F5EBDD" stroke-miterlimit="10" stroke-linecap="round"/>
<path d="M235.218 124.886C234.604 122.98 233.494 121.271 232.001 119.934C230.509 118.598 228.687 117.683 226.723 117.283" stroke="#F5EBDD" stroke-miterlimit="10" stroke-linecap="round"/>
</svg>
