<svg width="274" height="218" viewBox="0 0 274 218" fill="none" xmlns="http://www.w3.org/2000/svg">
<path d="M49.9345 116.731H44.0078V217.496H49.9345V116.731Z" fill="#FFBE21"/>
<path d="M49.9369 118.117H44.0078" stroke="#A15842" stroke-miterlimit="10"/>
<path d="M17.1132 197.277C17.7136 195.554 18.8348 194.062 20.3213 193.005C21.8079 191.949 23.5862 191.381 25.4096 191.381C27.2331 191.381 29.0113 191.949 30.4979 193.005C31.9845 194.062 33.1056 195.554 33.706 197.277C34.279 195.632 35.3273 194.195 36.7181 193.148C38.1088 192.101 39.7792 191.49 41.5173 191.394C40.7413 190.011 39.8173 188.715 38.7615 187.532L35.5713 183.942C34.5796 182.827 33.9549 181.434 33.7822 179.951C33.6096 178.468 33.8972 176.969 34.6061 175.655L37.3136 170.622C36.5535 171.387 32.1592 175.503 25.4892 175.503C18.8193 175.503 14.425 171.387 13.6649 170.622H13.6528L16.3627 175.655C17.0685 176.971 17.3517 178.473 17.1738 179.956C16.9959 181.439 16.3656 182.831 15.3685 183.942L12.1808 187.517C11.1231 188.701 10.1966 189.996 9.41772 191.38C11.1372 191.499 12.7835 192.122 14.1518 193.171C15.5201 194.219 16.5499 195.647 17.1132 197.277Z" fill="#4756DF"/>
<path d="M42.0023 202.363C40.1783 202.363 38.3997 202.931 36.9131 203.989C35.4265 205.046 34.3056 206.539 33.7059 208.263C33.1067 206.539 31.986 205.045 30.4993 203.988C29.0126 202.93 27.2337 202.362 25.4096 202.362C23.5854 202.362 21.8065 202.93 20.3198 203.988C18.8332 205.045 17.7124 206.539 17.1132 208.263C16.3876 206.18 14.9062 204.446 12.9629 203.405C11.0195 202.364 8.7559 202.091 6.62085 202.641C6.74344 208.211 8.98765 213.525 12.895 217.496H38.0375C41.937 213.533 44.1806 208.233 44.3117 202.674C43.5592 202.468 42.7826 202.363 42.0023 202.363Z" fill="#4756DF"/>
<path d="M25.4699 175.513C32.1398 175.513 36.5341 171.397 37.2943 170.632H13.6455C14.4056 171.39 18.8 175.513 25.4699 175.513Z" fill="#30242A"/>
<path d="M17.1133 208.263C17.7125 206.539 18.8333 205.045 20.32 203.988C21.8067 202.93 23.5856 202.362 25.4097 202.362C27.2338 202.362 29.0127 202.93 30.4994 203.988C31.9861 205.045 33.1069 206.539 33.7061 208.263C34.4377 206.158 35.9413 204.41 37.9126 203.373C39.8839 202.335 42.1756 202.085 44.3239 202.674C44.423 198.73 43.455 194.833 41.5222 191.394C39.7841 191.49 38.1137 192.101 36.723 193.148C35.3323 194.195 34.2839 195.632 33.7109 197.277C33.1106 195.554 31.9894 194.062 30.5028 193.005C29.0163 191.949 27.238 191.381 25.4145 191.381C23.5911 191.381 21.8128 191.949 20.3262 193.005C18.8397 194.062 17.7185 195.554 17.1181 197.277C16.5514 195.651 15.52 194.228 14.152 193.184C12.784 192.139 11.1395 191.519 9.42265 191.401C7.49847 194.829 6.53238 198.711 6.62582 202.641C8.76087 202.091 11.0244 202.364 12.9678 203.405C14.9112 204.446 16.3925 206.18 17.1181 208.263H17.1133Z" fill="#3EC1F3"/>
<path d="M27.2219 174.822C27.7046 171.868 29.8981 160.155 35.4145 153.79" stroke="#30242A" stroke-miterlimit="10" stroke-linecap="round"/>
<path d="M24.6762 174.907C24.64 171.552 24.2949 155.077 21.0203 145.247" stroke="#30242A" stroke-miterlimit="10" stroke-linecap="round"/>
<path d="M39.1901 163.379C44.0269 161.25 47.5598 158.642 47.081 157.553C46.6022 156.465 42.2931 157.308 37.4563 159.437C32.6195 161.566 29.0866 164.174 29.5654 165.263C30.0442 166.351 34.3533 165.508 39.1901 163.379Z" fill="#30242A"/>
<path d="M39.1871 133.43C40.926 131.079 41.6711 128.681 40.8515 128.074C40.0318 127.467 37.9577 128.882 36.2188 131.234C34.4799 133.585 33.7348 135.983 34.5545 136.59C35.3741 137.196 37.4483 135.782 39.1871 133.43Z" fill="#30242A"/>
<path d="M13 165.051C19.3055 164.097 24.2806 162.42 24.1122 161.307C23.9438 160.193 18.6957 160.063 12.3902 161.017C6.08473 161.971 1.10966 163.647 1.27806 164.761C1.44646 165.875 6.69457 166.005 13 165.051Z" fill="#30242A"/>
<path d="M8.59492 148.597V148.614C9.52658 149.135 10.2293 149.987 10.5644 151C10.8996 152.014 10.8429 153.117 10.4056 154.091C9.96822 155.065 9.18195 155.84 8.20178 156.262C7.2216 156.685 6.11864 156.725 5.11035 156.375V156.389C10.3951 158.765 15.4651 158.946 16.4304 156.795C17.3956 154.644 13.8821 150.972 8.59492 148.597Z" fill="#FF7235"/>
<path d="M24.2199 131.381C23.0954 131.089 21.633 132.791 20.564 135.425C19.2778 132.226 17.4125 130.085 16.1552 130.5C14.898 130.915 14.6735 133.744 15.5447 137.081C13.1171 135.603 10.9308 135.106 10.1996 136.011C9.26812 137.165 11.0635 140.158 14.2102 142.7C15.1055 143.43 16.0687 144.072 17.0867 144.617C17.2602 143.927 17.6032 143.292 18.0845 142.769C18.5657 142.246 19.17 141.851 19.8425 141.621C20.515 141.391 21.2343 141.332 21.9351 141.451C22.636 141.569 23.2961 141.861 23.8555 142.3C24.3272 141.284 24.7036 140.227 24.9801 139.142C25.996 135.229 25.6557 131.753 24.2199 131.381Z" fill="#FF7235"/>
<path d="M48.752 149.15C48.4045 148.04 46.1868 147.702 43.3876 148.184C45.4194 145.401 46.2496 142.685 45.2336 141.838C44.2177 140.991 41.696 142.297 39.3263 144.8C39.2973 141.956 38.5613 139.837 37.4078 139.695C35.9382 139.513 34.3455 142.623 33.8533 146.635C33.7074 147.782 33.6718 148.94 33.7471 150.094C34.4241 149.876 35.1449 149.83 35.844 149.962C36.543 150.093 37.1981 150.397 37.7497 150.847C38.3013 151.296 38.7318 151.876 39.002 152.534C39.2723 153.192 39.3738 153.908 39.2973 154.615C40.4087 154.474 41.5048 154.232 42.5719 153.891C46.4257 152.691 49.1936 150.565 48.752 149.15Z" fill="#FF7235"/>
<path d="M37.7818 150.871C37.23 150.411 36.5707 150.097 35.8653 149.96C35.1598 149.823 34.4312 149.867 33.7471 150.087C33.8846 151.996 34.3673 153.466 35.0936 154C35.7717 154.627 37.3402 154.837 39.2925 154.608C39.3686 153.909 39.2704 153.202 39.0068 152.55C38.7433 151.898 38.3224 151.321 37.7818 150.871Z" fill="#30242A"/>
<path d="M19.8859 141.606C19.2036 141.832 18.5892 142.226 18.0998 142.752C17.6104 143.278 17.2619 143.92 17.0867 144.617C18.7759 145.51 20.2768 145.872 21.1214 145.544C22.0119 145.302 23.0182 144.078 23.8555 142.299C23.3024 141.865 22.6505 141.574 21.9578 141.454C21.2651 141.333 20.5533 141.385 19.8859 141.606Z" fill="#30242A"/>
<path d="M9.0654 155.764C8.61162 155.511 8.26941 155.097 8.10656 154.603C7.9437 154.11 7.97206 153.573 8.18603 153.099C8.4 152.626 8.78397 152.25 9.2619 152.046C9.73983 151.842 10.2769 151.825 10.7667 151.999C10.71 151.3 10.4822 150.627 10.1034 150.037C9.72462 149.448 9.20649 148.961 8.59483 148.619L5.10303 156.375C5.76299 156.606 6.46946 156.671 7.16034 156.564C7.85123 156.458 8.50541 156.183 9.0654 155.764Z" fill="#F5EBDD"/>
<path d="M8.17729 153.102C7.96683 153.575 7.94126 154.11 8.10562 154.602C8.26999 155.093 8.61237 155.505 9.06533 155.757C9.64533 155.326 10.1059 154.753 10.4035 154.095C10.7012 153.436 10.8261 152.712 10.7666 151.991C10.2745 151.816 9.73446 151.833 9.25439 152.039C8.77432 152.245 8.38964 152.624 8.17729 153.102Z" fill="#4856DF"/>
<path d="M167.652 156.998H106.279L107.316 152.88H134.257L144.532 112.683C145.932 107.207 149.114 102.354 153.576 98.8877C158.039 95.4217 163.528 93.5402 169.177 93.54C183.002 93.54 193.118 106.575 189.689 119.973L183.34 144.81C182.449 148.295 180.424 151.385 177.583 153.592C174.743 155.798 171.249 156.997 167.652 156.998Z" fill="#FFB7D5"/>
<path d="M106.754 195.039V199.399H145.869V195.039H106.754Z" fill="#A15842"/>
<path d="M152.312 215.155L142.138 154.577H110.482L100.309 215.155C100.261 215.443 100.276 215.738 100.353 216.019C100.431 216.301 100.569 216.562 100.758 216.785C100.947 217.008 101.182 217.187 101.447 217.31C101.712 217.433 102 217.496 102.292 217.496C102.751 217.496 103.196 217.338 103.553 217.05C103.91 216.762 104.159 216.361 104.257 215.912L117.582 154.577H135.048L148.369 215.912C148.466 216.361 148.714 216.763 149.072 217.051C149.429 217.339 149.874 217.496 150.333 217.496C150.625 217.495 150.913 217.431 151.177 217.308C151.441 217.185 151.676 217.006 151.864 216.783C152.052 216.561 152.19 216.3 152.267 216.018C152.345 215.737 152.36 215.442 152.312 215.155Z" fill="#A15842"/>
<path d="M139.158 195.039V199.399H178.273V195.039H139.158Z" fill="#FFBE21"/>
<path d="M184.716 215.155L174.532 154.577H142.889L132.715 215.155C132.667 215.443 132.682 215.738 132.76 216.019C132.837 216.301 132.975 216.562 133.164 216.785C133.353 217.008 133.588 217.187 133.853 217.31C134.118 217.433 134.406 217.496 134.698 217.496C135.157 217.496 135.602 217.339 135.959 217.051C136.316 216.763 136.563 216.361 136.66 215.912L149.981 154.577H167.45L180.77 215.912C180.868 216.361 181.116 216.764 181.474 217.052C181.832 217.34 182.278 217.497 182.737 217.496C183.028 217.495 183.316 217.431 183.581 217.308C183.845 217.185 184.08 217.006 184.268 216.783C184.456 216.561 184.594 216.3 184.671 216.018C184.748 215.737 184.764 215.442 184.716 215.155Z" fill="#FFBE21"/>
<path d="M152.744 144.81L156.624 129.628H130.907C125.864 129.629 120.965 131.308 116.981 134.401C112.998 137.495 110.157 141.827 108.907 146.714L106.279 156.998H137.054C140.651 156.997 144.145 155.799 146.986 153.592C149.827 151.386 151.853 148.296 152.744 144.81Z" fill="#FFB7D5"/>
<path d="M107.951 152.477H140.601" stroke="#A15842" stroke-linecap="round" stroke-linejoin="round"/>
<path d="M134.373 152.324L140.094 129.947" stroke="#A15842" stroke-linecap="round" stroke-linejoin="round"/>
<path d="M186.839 129.109H171.395" stroke="#A15842" stroke-linecap="round" stroke-linejoin="round"/>
<path d="M189.735 118.247H169.947" stroke="#A15842" stroke-linecap="round" stroke-linejoin="round"/>
<path d="M117.657 113.342C117.657 113.342 98.2962 118.616 90.0722 122.732C76.5128 129.513 76.5586 133.988 68.2912 159.042C60.6584 182.197 59.8187 193.419 49.2901 193.864C41.252 194.201 38.6168 196.833 37.3137 200.439L69.1213 215.536C69.4859 215.708 69.9026 215.735 70.2862 215.61C70.6698 215.486 70.9912 215.219 71.1846 214.865C71.3816 214.503 71.4295 214.078 71.3182 213.682C71.2068 213.285 70.945 212.947 70.5885 212.741L69.9201 212.354C72.8762 208.772 78.5784 201.139 84.2638 189.545L87.8835 191.235C87.8835 191.235 93.7305 183.633 94.6572 175.011C95.8638 163.875 95.1398 156.37 100.224 152.013L159.515 113.332L117.657 113.342Z" fill="#FF7235"/>
<path d="M46.165 195.653C46.7949 194.342 50.2939 186.356 52.3065 187.322C54.9247 188.577 48.1293 196.594 48.1293 196.594L46.165 195.653Z" fill="#30242A"/>
<path d="M37.3113 200.553L69.1189 215.647C69.4871 215.823 69.9091 215.849 70.2963 215.72C70.6835 215.592 71.0058 215.318 71.1956 214.957C71.3854 214.595 71.4279 214.175 71.3143 213.783C71.2007 213.391 70.9397 213.058 70.5861 212.854L69.9176 212.468L69.9852 212.386L48.1222 202.061C48.4497 201.154 48.6795 200.213 48.8075 199.256C52.0797 199.824 58.7014 200.434 58.7352 197.704C58.7714 195.16 51.5392 196.181 48.8968 196.9C48.8398 195.923 48.6498 194.957 48.3321 194.03C41.042 194.532 38.5613 197.091 37.3113 200.553Z" fill="#30242A"/>
<path d="M90.0721 122.732C88.5494 123.492 87.2004 124.224 85.9914 124.958L84.1357 130.903L91.2786 125.87L97.8641 131.123L95.4365 123.922L102.895 120.504L97.1305 119.78C94.7269 120.638 92.3708 121.623 90.0721 122.732Z" fill="#FFB7D5"/>
<path d="M111.117 119.637L110.635 122.783L113.781 121.573L111.117 119.637Z" fill="#FFB7D5"/>
<path d="M92.9679 135.372L88.3708 141.423L81.836 138.278L85.7067 144.813L79.657 149.896L87.4007 148.928L90.0648 157.886L92.7265 148.928L101.197 146.507L92.9679 143.118V135.372Z" fill="#FFB7D5"/>
<path d="M67.1231 181.579L67.6878 179.967L75.4098 179.556L69.1356 175.284L71.9301 168.59L65.61 172.805L64.4035 171.501C63.4382 174.68 62.584 177.512 61.749 180.001H61.7876C61.8793 179.728 61.971 179.453 62.0627 179.173L67.1231 181.579Z" fill="#FFB7D5"/>
<path d="M67.1232 181.579L62.0556 179.182C61.9639 179.462 61.8722 179.737 61.7805 180.01C58.7183 189.135 55.9287 193.697 49.2949 193.977C48.9692 193.977 48.6555 194.009 48.3466 194.03C48.6643 194.957 48.8543 195.922 48.9112 196.9C51.5657 196.176 58.7858 195.16 58.7496 197.704C58.711 200.434 52.0942 199.824 48.822 199.256C48.6916 200.213 48.4594 201.154 48.1294 202.061L69.9924 212.386C72.9654 208.765 78.6194 201.171 84.2613 189.673L67.1232 181.579Z" fill="#EAA58B"/>
<path d="M86.4331 163.211L85.7092 169.748L78.9331 169.507L84.7415 173.867L82.5697 181.613L88.383 176.527L93.6074 180.012C93.7522 179.551 93.8849 179.083 94.0056 178.61L92.0027 173.62L95.106 170.219C95.1566 169.587 95.2049 168.964 95.2508 168.358L89.8308 169.263L86.4331 163.211Z" fill="#FFB7D5"/>
<path d="M71.339 149.624C70.7285 151.511 70.0721 153.561 69.3481 155.789L75.7864 156.182L71.339 149.624Z" fill="#FFB7D5"/>
<path d="M94.0732 208.596C94.1746 207.147 94.4907 198.433 96.7156 198.59C99.6114 198.793 96.2451 208.748 96.2451 208.748L94.0732 208.596Z" fill="#30242A"/>
<path d="M147.667 113.697C147.667 113.697 123.465 118.187 110.154 123.753C96.7155 129.375 96.8458 139.359 99.2638 166.48C101.436 190.759 105.316 202.549 97.3333 206.18C90.0118 209.511 87.4683 213.687 87.8158 217.506H123.856C124.059 217.506 124.26 217.466 124.448 217.388C124.636 217.31 124.806 217.196 124.95 217.053C125.093 216.909 125.207 216.738 125.285 216.551C125.363 216.363 125.403 216.162 125.403 215.959C125.403 215.548 125.24 215.155 124.95 214.864C124.66 214.574 124.266 214.411 123.856 214.411H123.248C124.385 210.691 126.033 203.43 126.26 191.414H130.729C130.729 191.414 133.026 180.792 130.487 171.32C127.833 161.396 125.405 159.702 123.955 152.923H145.642C162.203 152.923 174.6 137.6 170.997 121.431C169.872 116.379 168.241 113.706 168.241 113.706L147.667 113.697Z" fill="#FF7235"/>
<path d="M132.662 127.867L128.219 133.457L121.301 131.08L125.401 137.793L120.077 145.056L127.095 142.15L131.006 149.363L131.45 141.423L138.226 139.973L132.42 136.34L132.662 127.867Z" fill="#FFB7D5"/>
<path d="M122.995 171.023L127.097 177.736L121.774 185L128.791 182.103L131.392 186.899C131.774 183.172 131.962 177.659 130.746 172.365L129.916 173.41L122.995 171.023Z" fill="#FFB7D5"/>
<path d="M104.901 191.404L104.59 187.662L112.447 184.63L105.009 183.088L105.83 174.921L101.004 181.239L100.859 181.178C101.322 185.077 101.728 188.483 101.954 191.43V191.404H104.901Z" fill="#FFB7D5"/>
<path d="M123.856 214.401H123.248C124.385 210.682 126.033 203.42 126.26 191.404H101.947V191.426C101.967 191.667 101.984 191.908 102 192.15C102 192.171 102 192.196 102 192.217C102.505 199.761 101.682 204.174 97.3237 206.155C90.0023 209.487 87.4588 213.663 87.8063 217.482H123.856C124.266 217.482 124.66 217.319 124.95 217.028C125.24 216.738 125.403 216.345 125.403 215.934C125.403 215.524 125.24 215.13 124.95 214.84C124.66 214.55 124.266 214.387 123.856 214.387V214.401Z" fill="#EAA58B"/>
<path d="M156.125 114.322L145.007 115.307L146.166 119.777L139.054 123.572L147.913 124.757L150.91 131.398L153.992 124.521L163.002 123.096L155.176 119.065L156.125 114.322Z" fill="#FFB7D5"/>
<path d="M103.137 145.78L105.791 137.307L113.535 138.514L107.485 133.189L111.829 128.105L103.844 131.002L102.567 128.813C100.514 131.14 99.2735 134.029 98.6099 137.744L99.9709 137.788L103.137 145.78Z" fill="#FFB7D5"/>
<path d="M123.856 119.2C122.222 119.654 120.596 120.13 119.008 120.62L125.405 124.965L123.856 119.2Z" fill="#FFB7D5"/>
<path d="M113.301 158.369L109.913 151.349L108.219 159.095L101.928 158.613L107.734 163.696L104.105 172.169L110.405 166.294L115.627 172.317L114.027 163.211L119.351 156.191L113.301 158.369Z" fill="#FFB7D5"/>
<path d="M98.9357 211.57C102.136 210.686 108.381 208.412 107.251 205.928C106.199 203.611 100.094 207.618 98.0115 209.402C97.4858 208.437 96.8142 207.559 96.0206 206.8C89.703 210.017 87.4853 213.914 87.8159 217.496H123.856C124.266 217.496 124.66 217.333 124.95 217.043C125.24 216.752 125.403 216.359 125.403 215.948C125.403 215.538 125.24 215.145 124.95 214.854C124.66 214.564 124.266 214.401 123.856 214.401H99.5076C99.4171 213.44 99.2254 212.491 98.9357 211.57Z" fill="#30242A"/>
<path d="M123.856 153.457L117.625 153.37" stroke="#A15842" stroke-miterlimit="10" stroke-linecap="round"/>
<path d="M128.489 118.143C122.034 119.789 115.135 121.81 109.908 123.992C98.7595 128.663 96.9521 136.33 98.0356 154.309" stroke="#A15842" stroke-miterlimit="10" stroke-linecap="round"/>
<path d="M210.411 116.731H204.484V217.496H210.411V116.731Z" fill="#FFBE21"/>
<path d="M210.411 118.117H204.484" stroke="#A15842" stroke-miterlimit="10"/>
<path d="M124.433 40.9596C121.054 40.4768 113.315 44.1098 113.06 51.2913C112.804 58.4727 119.213 60.7805 120.239 61.2946L135.111 58.9845L136.137 42.5697L124.433 40.9596Z" fill="#A15842"/>
<path d="M150.707 23.1256C157.091 23.1256 162.266 17.9487 162.266 11.5628C162.266 5.17683 157.091 0 150.707 0C144.323 0 139.148 5.17683 139.148 11.5628C139.148 17.9487 144.323 23.1256 150.707 23.1256Z" fill="#A15842"/>
<path d="M143.21 19.5143C143.914 19.8401 137.98 5.75479 134.952 7.95148C132.102 10.0251 139.631 17.8631 143.21 19.5143Z" fill="#30242A"/>
<path d="M143.538 20.3759C144.184 21.1483 159.324 15.8497 157.23 12.7937C155.227 9.85349 142.891 19.601 143.538 20.3759Z" fill="#30242A"/>
<path d="M163.637 59.1151C163.637 59.1151 173.801 50.6422 167.256 41.2013C163.091 35.1833 151.766 37.5803 151.766 37.5803C152.042 34.2757 152.939 24.7551 145.782 19.5241C138.625 14.2931 129.544 17.0474 126.235 21.1752C122.927 25.303 123.76 33.0156 122.659 38.5218C121.559 44.028 122.292 47.772 125.685 49.5342C128.772 51.137 132.403 50.169 132.403 50.169L132.017 55.9794C132.017 55.9794 125.019 56.2425 120.731 57.7947C110.398 61.5363 92.244 87.1965 92.244 87.1965C80.8709 86.7137 70.2217 86.2309 70.2217 86.2309L75.7888 102.694C75.7888 102.694 89.8236 107.293 99.9878 104.625C110.299 101.924 120.075 87.4379 120.075 87.4379L123.453 97.1202L117.645 113.339H168.224L159.754 98.3296C161.219 85.0191 163.637 59.1151 163.637 59.1151Z" fill="#EAA58B"/>
<path d="M147.384 55.376L134.112 79.4502L128.682 56.2209C126.296 56.4622 123.115 56.9306 120.755 57.7851C110.398 61.5364 92.244 87.1965 92.244 87.1965C80.8709 86.7138 70.2217 86.231 70.2217 86.231L75.7888 102.694C75.7888 102.694 89.8236 107.293 99.9878 104.625C110.299 101.924 120.075 87.4379 120.075 87.4379L123.453 97.1203L117.645 113.34H168.224L159.754 98.332C161.202 85.0167 163.615 59.1128 163.615 59.1128C161.374 57.7482 158.921 56.769 156.356 56.216C153.468 55.5643 150.292 55.9529 147.384 55.376Z" fill="#4756DF"/>
<path d="M78.6507 111.647H120.562L111.033 81.5404C110.752 80.6531 110.197 79.8783 109.447 79.3283C108.696 78.7783 107.79 78.4818 106.86 78.4819H71.4402C70.752 78.4815 70.0734 78.6435 69.4595 78.9548C68.8456 79.2661 68.3138 79.7178 67.9072 80.2734C67.5007 80.8289 67.231 81.4726 67.1199 82.152C67.0088 82.8314 67.0595 83.5275 67.2679 84.1837L75.1444 109.081C75.3807 109.826 75.8479 110.476 76.4783 110.937C77.1087 111.399 77.8696 111.647 78.6507 111.647Z" fill="#30242A"/>
<path d="M84.8959 92.1013C86.0084 90.5805 91.0543 94.5973 91.4259 94.928C91.619 94.5973 94.2469 90.5829 96.1726 92.1013C97.8449 93.4193 94.1697 99.3069 93.1923 100.808C93.1514 100.854 93.1013 100.89 93.0454 100.915C92.9895 100.94 92.929 100.953 92.8678 100.953C92.8066 100.953 92.746 100.94 92.6901 100.915C92.6342 100.89 92.5842 100.854 92.5432 100.808C90.7599 99.3069 83.9307 93.4193 84.8959 92.1013Z" fill="#A15842"/>
<path d="M91.0102 93.1198C91.4314 92.9886 91.4473 91.8369 91.0459 90.5475C90.6444 89.2581 89.9775 88.3192 89.5563 88.4504C89.1351 88.5816 89.1192 89.7333 89.5206 91.0227C89.9221 92.3121 90.589 93.251 91.0102 93.1198Z" fill="#A15842"/>
<path d="M144.899 108.258C145.02 108.648 145.048 109.06 144.981 109.463C144.914 109.865 144.753 110.246 144.512 110.575C144.27 110.903 143.955 111.171 143.591 111.356C143.228 111.54 142.826 111.637 142.418 111.638H78.6507C77.8696 111.638 77.1087 111.389 76.4783 110.928C75.8479 110.467 75.3807 109.816 75.1444 109.072L74.8838 108.249L144.899 108.258Z" fill="#30242A"/>
<path d="M220.623 111.647H33.7954V117.699H220.623V111.647Z" fill="#FFBE21"/>
<path d="M183.338 144.81L187.218 129.628H164.583C159.54 129.629 154.641 131.308 150.658 134.402C146.674 137.495 143.834 141.827 142.584 146.714L139.954 156.998H167.645C171.242 156.997 174.737 155.799 177.578 153.593C180.42 151.386 182.446 148.296 183.338 144.81Z" fill="#FFB7D5"/>
<path d="M140.49 153.017L139.595 156.802" stroke="#A15842" stroke-linecap="round" stroke-linejoin="round"/>
<path d="M68.2042 87.1021C65.3881 88.5094 63.9812 90.8557 63.9812 92.4996C63.9812 94.8991 66.4233 95.3505 66.4233 95.3505C66.4233 95.3505 64.6014 98.2158 67.7698 99.5604C67.7698 99.5604 67.7698 102.51 70.7211 102.51C70.7211 102.51 70.3302 104.811 73.4093 105.028C76.4885 105.245 79.657 103.638 79.9248 102.597C80.2313 101.368 79.4036 100.34 77.169 100.014C77.169 100.014 80.1854 98.6045 79.7076 96.8254C79.2298 95.0463 77.1907 95.0874 77.1907 95.0874C77.1907 95.0874 79.143 93.9166 78.1005 92.1906C77.058 90.4647 75.0648 91.0633 75.0648 91.0633C75.0648 91.0633 75.586 89.8564 74.6738 88.9366C73.5879 87.8504 68.9185 89.2215 68.9185 89.2215L68.2042 87.1021Z" fill="#EAA58A"/>
<path d="M70.7429 102.624C73.284 102.015 75.7493 101.124 78.0933 99.9688" stroke="#A15842" stroke-miterlimit="10" stroke-linecap="round"/>
<path d="M67.7627 99.5459C71.2859 98.5795 74.6497 97.1052 77.7483 95.1694" stroke="#A15842" stroke-miterlimit="10" stroke-linecap="round"/>
<path d="M66.1821 95.6933C69.447 94.727 72.5316 93.2323 75.3134 91.2686" stroke="#A15842" stroke-miterlimit="10" stroke-linecap="round"/>
<path d="M167.269 41.2013C163.104 35.1833 151.779 37.5803 151.779 37.5803C152.054 34.2757 152.951 24.7551 145.794 19.5241C138.637 14.2931 129.556 17.0474 126.248 21.1752C124.901 22.865 124.242 25.1389 123.859 27.6204C126.055 27.9898 129.276 27.2342 129.276 27.2342C133.68 32.19 137.626 32.977 137.626 32.977C140.707 29.8944 146.113 29.9957 146.991 34.6667C147.903 39.5163 140.159 41.6961 140.159 41.6961C140.159 41.6961 139.435 50.4104 143.296 53.5582C144.481 54.4978 145.883 55.126 147.372 55.3856C150.268 55.9625 153.456 55.5739 156.366 56.2208C158.93 56.7738 161.384 57.7529 163.625 59.1175C164.509 58.3383 165.317 57.4766 166.038 56.5443C168.577 53.3241 171.612 47.4775 167.269 41.2013Z" fill="#A15842"/>
<path d="M133.871 25.4673C132.423 26.6743 130.734 27.3984 128.789 27.8812" stroke="#EAA58B" stroke-miterlimit="10" stroke-linecap="round"/>
<path d="M132.324 50.712C133.447 50.337 134.531 49.8519 135.56 49.2637" stroke="#A15842" stroke-miterlimit="10" stroke-linecap="round"/>
<path d="M140.456 36.8271L142.657 35.4512" stroke="#A15842" stroke-miterlimit="10" stroke-linecap="round"/>
<path d="M127.828 43.2891C128.284 43.5716 130 43.7912 130.68 42.4805" stroke="#A15842" stroke-miterlimit="10" stroke-linecap="round"/>
<path d="M132.312 37.095C132.768 37.095 133.137 36.7254 133.137 36.2694C133.137 35.8135 132.768 35.4438 132.312 35.4438C131.856 35.4438 131.487 35.8135 131.487 36.2694C131.487 36.7254 131.856 37.095 132.312 37.095Z" fill="#30242A"/>
<path d="M125.471 36.0017C125.926 36.0017 126.296 35.6321 126.296 35.1762C126.296 34.7202 125.926 34.3506 125.471 34.3506C125.015 34.3506 124.645 34.7202 124.645 35.1762C124.645 35.6321 125.015 36.0017 125.471 36.0017Z" fill="#30242A"/>
<path d="M127.794 38.3647C127.63 38.8837 127.488 39.4486 127.582 39.6369C127.711 39.8755 127.908 40.071 128.147 40.1993" stroke="#A15842" stroke-miterlimit="10" stroke-linecap="round"/>
<path d="M141.491 44.9161C143.088 44.9161 144.382 43.6214 144.382 42.0242C144.382 40.4271 143.088 39.1323 141.491 39.1323C139.895 39.1323 138.6 40.4271 138.6 42.0242C138.6 43.6214 139.895 44.9161 141.491 44.9161Z" fill="#F5EBDD"/>
<path d="M127.584 35.64C128.084 33.0685 126.614 30.6188 124.299 30.1684C121.985 29.718 119.704 31.4375 119.203 34.0089C118.703 36.5804 120.174 39.0302 122.488 39.4806C124.802 39.931 127.084 38.2115 127.584 35.64Z" stroke="#30242A" stroke-miterlimit="10" stroke-linecap="round"/>
<path d="M138.069 36.9262C138.569 34.3547 137.099 31.905 134.784 31.4545C132.47 31.0041 130.189 32.7236 129.689 35.2951C129.188 37.8666 130.659 40.3163 132.973 40.7667C135.287 41.2171 137.569 39.4977 138.069 36.9262Z" stroke="#30242A" stroke-miterlimit="10" stroke-linecap="round"/>
<path d="M127.782 35.251L129.45 35.4296" stroke="#30242A" stroke-miterlimit="10" stroke-linecap="round"/>
<path d="M152.331 37.8989L151.851 40.9888" stroke="#30242A" stroke-miterlimit="10" stroke-linecap="round"/>
<path d="M117.416 81.1445L119.751 87.9446" stroke="#30242A" stroke-linecap="round" stroke-linejoin="round"/>
<path d="M129.756 96.6372H123.615" stroke="#30242A" stroke-linecap="round" stroke-linejoin="round"/>
<path d="M134.597 79.2085L136.532 88.6494V97.3637" stroke="#30242A" stroke-linecap="round" stroke-linejoin="round"/>
<path d="M121.725 57.5747L125.401 65.8931L121.045 65.4104L136.532 88.6494" stroke="#30242A" stroke-linecap="round" stroke-linejoin="round"/>
<path d="M157.534 56.585L151.296 65.4103L157.105 64.9251L135.806 83.807" stroke="#30242A" stroke-linecap="round" stroke-linejoin="round"/>
<path d="M160.777 86.1777L156.137 79.6938" stroke="#30242A" stroke-linecap="round" stroke-linejoin="round"/>
<path d="M166.147 110.076C163.62 109.233 159.086 107.606 156.352 105.972" stroke="#30242A" stroke-linecap="round" stroke-linejoin="round"/>
<path d="M96.4549 50.0096C99.0764 50.0096 101.202 47.8838 101.202 45.2614C101.202 42.639 99.0764 40.5132 96.4549 40.5132C93.8334 40.5132 91.7083 42.639 91.7083 45.2614C91.7083 47.8838 93.8334 50.0096 96.4549 50.0096Z" fill="#FFB7D5"/>
<path d="M82.2687 26.365L79.5051 23.0316C79.0797 22.5185 78.3191 22.4475 77.8061 22.873L77.7467 22.9223C77.2338 23.3479 77.1628 24.1088 77.5882 24.6219L80.3518 27.9553C80.7772 28.4684 81.5378 28.5394 82.0508 28.1139L82.1102 28.0645C82.6231 27.639 82.6941 26.8781 82.2687 26.365Z" fill="#4756DF"/>
<path d="M87.2391 30.4154L84.4592 27.0601L34.4903 68.5074C34.0545 68.8692 33.7802 69.3893 33.7277 69.9533C33.6752 70.5174 33.8488 71.0792 34.2103 71.5152L34.2658 71.5828C34.4447 71.7985 34.6643 71.9769 34.9121 72.1078C35.1599 72.2386 35.431 72.3194 35.71 72.3454C35.989 72.3714 36.2704 72.3421 36.5381 72.2593C36.8058 72.1765 37.0546 72.0418 37.2702 71.8628L52.8929 58.8999V104.386H57.2534V55.279L87.2391 30.4154Z" fill="#3EC1F3"/>
<path d="M79.1865 31.3813L80.5789 33.0711C81.0638 33.6573 81.4324 34.3308 81.6648 35.0554" stroke="#4756DF" stroke-miterlimit="10"/>
<path d="M55.072 59.9067C58.2133 59.9067 60.7598 57.3593 60.7598 54.217C60.7598 51.0747 58.2133 48.5273 55.072 48.5273C51.9308 48.5273 49.3843 51.0747 49.3843 54.217C49.3843 57.3593 51.9308 59.9067 55.072 59.9067Z" fill="#4756DF"/>
<path d="M55.072 56.4043C56.2795 56.4043 57.2583 55.4252 57.2583 54.2173C57.2583 53.0094 56.2795 52.0303 55.072 52.0303C53.8646 52.0303 52.8857 53.0094 52.8857 54.2173C52.8857 55.4252 53.8646 56.4043 55.072 56.4043Z" fill="#3EC1F3"/>
<path d="M100.352 42.5649L93.0764 48.5805" stroke="#A15842" stroke-miterlimit="10"/>
<path d="M90.9264 29.8076C89.3965 29.6278 87.9947 28.8652 87.0123 27.6785L85.0818 25.3442C84.3994 24.5224 83.4189 24.0052 82.3557 23.9061C81.2924 23.807 80.2332 24.1341 79.4109 24.8155C79.0039 25.1531 78.6674 25.5676 78.4206 26.0352C78.1738 26.5029 78.0215 27.0146 77.9725 27.5412C77.9234 28.0677 77.9785 28.5988 78.1346 29.1041C78.2907 29.6093 78.5448 30.0789 78.8824 30.4859L80.8129 32.8274C81.791 34.0108 82.2774 35.5248 82.1715 37.0566L81.6889 44.115C81.4497 47.5686 82.3261 51.0077 84.1889 53.9252L84.8066 54.8908L107.956 35.6831L107.126 34.9034C104.606 32.5321 101.392 31.0334 97.9558 30.6283L90.9264 29.8076Z" fill="#3EC1F3"/>
<path d="M57.2534 104.386H52.8929L46.4474 106.144C45.2405 106.473 44.1755 107.19 43.4163 108.185C42.6571 109.179 42.2459 110.396 42.2461 111.647H67.8978C67.8978 110.396 67.4863 109.179 66.7266 108.184C65.967 107.19 64.9014 106.473 63.6941 106.144L57.2534 104.386Z" fill="#3EC1F3"/>
<path d="M103.564 32.2671L82.3792 49.7827" stroke="#4756DF" stroke-miterlimit="10" stroke-linecap="round"/>
<path d="M52.7866 103.886H57.2533" stroke="#4756DF" stroke-miterlimit="10" stroke-linecap="round"/>
<path d="M43.0933 108.63H66.9061" stroke="#4756DF" stroke-miterlimit="10" stroke-linecap="round"/>
<path d="M180.338 173.922C180.821 169.819 180.579 160.607 175.256 153.587C169.933 146.567 177.187 149.484 179.358 151.415C182.833 154.505 185.893 157.466 188.555 167.393L180.338 173.922Z" fill="#30242A"/>
<path d="M244.617 217.496H273.027V216.567C273.026 215.257 272.505 214.001 271.579 213.074C270.653 212.148 269.397 211.628 268.087 211.628H244.47L244.617 217.496Z" fill="#A15842"/>
<path d="M175.314 190.364L181.306 217.496H192.44V215.806C192.44 214.717 192.008 213.672 191.239 212.9C190.47 212.129 189.427 211.694 188.338 211.691C188.338 211.691 193.902 207.517 197.29 203.401C197.29 203.401 203.099 210.481 211.328 209.27L211.924 212.166C212.234 213.67 213.052 215.02 214.241 215.991C215.43 216.962 216.917 217.493 218.451 217.496H245.437C257.406 217.496 263.295 215.669 263.632 208.852C263.643 208.592 263.601 208.332 263.508 208.089C263.416 207.846 263.275 207.624 263.095 207.436C262.915 207.249 262.698 207.099 262.459 206.998C262.22 206.896 261.962 206.843 261.702 206.843H254.168C253.857 206.844 253.551 206.774 253.27 206.64C252.99 206.506 252.744 206.311 252.549 206.069L249.342 202.088C248.391 200.91 247.122 200.03 245.686 199.552C244.25 199.074 242.707 199.018 241.241 199.392L234.791 201.04C234.791 201.04 223.362 184.611 213.01 173.2C203.116 162.306 184.506 161.131 177.174 175.32C174.817 179.963 174.159 185.285 175.314 190.364Z" fill="#A15842"/>
<path d="M242.776 217.496V216.567C242.776 215.918 242.648 215.276 242.4 214.676C242.151 214.077 241.787 213.532 241.329 213.074C240.87 212.615 240.325 212.251 239.726 212.003C239.127 211.755 238.485 211.628 237.836 211.628H234.547" stroke="#30242A" stroke-miterlimit="10"/>
<path d="M197.739 203.594C199.428 201.583 205.193 194.18 204.781 186.938C204.339 179.189 199.699 175.076 199.699 175.076" stroke="#30242A" stroke-miterlimit="10" stroke-linecap="round"/>
<path d="M209.863 199.039C209.863 199.039 210.172 204.767 210.792 209.045" stroke="#30242A" stroke-miterlimit="10" stroke-linecap="round"/>
<path d="M186.632 215.017V217.255" stroke="#30242A" stroke-miterlimit="10" stroke-linecap="round"/>
<path d="M189.293 215.017V217.255" stroke="#30242A" stroke-miterlimit="10" stroke-linecap="round"/>
<path d="M237.452 215.017V217.255" stroke="#30242A" stroke-miterlimit="10" stroke-linecap="round"/>
<path d="M240.114 215.017V217.255" stroke="#30242A" stroke-miterlimit="10" stroke-linecap="round"/>
<path d="M247.252 208.48C247.853 208.48 248.34 207.993 248.34 207.391C248.34 206.79 247.853 206.303 247.252 206.303C246.651 206.303 246.164 206.79 246.164 207.391C246.164 207.993 246.651 208.48 247.252 208.48Z" fill="#30242A"/>
<path d="M241.313 199.37V199.341L234.781 201.031L241.231 199.382L241.313 199.37Z" fill="#30242A"/>
<path d="M225.237 211.736C223.345 212.702 220.671 214.592 220.893 217.455H231.4L233.608 213.972C233.969 213.402 234.468 212.933 235.059 212.607C235.649 212.282 236.312 212.111 236.987 212.111H237.689L241.289 199.442L241.236 199.387L234.786 201.035L228.611 208.948C227.702 210.112 226.55 211.063 225.237 211.736Z" fill="#30242A"/>
<path d="M209.892 179.114C209.892 179.114 206.97 189.233 216.407 193.055C221.193 194.986 225.167 193.521 227.925 191.606C223.758 186.054 218.244 178.986 213.007 173.212C211.694 171.767 210.219 170.478 208.611 169.372C207.182 171.317 205.618 176.131 209.892 179.114Z" fill="#EAA58B"/>
<path d="M185.785 186.453C187.99 186.453 189.778 184.664 189.778 182.458C189.778 180.252 187.99 178.463 185.785 178.463C183.579 178.463 181.791 180.252 181.791 182.458C181.791 184.664 183.579 186.453 185.785 186.453Z" fill="#EAA58B"/>
<path d="M261.712 206.843H260.264C260.184 207.247 260.195 207.664 260.295 208.063C260.395 208.462 260.582 208.834 260.843 209.153C261.104 209.471 261.432 209.728 261.804 209.905C262.175 210.081 262.582 210.173 262.993 210.174C263.163 210.174 263.333 210.158 263.5 210.126C263.574 209.705 263.621 209.279 263.642 208.852C263.653 208.592 263.61 208.332 263.518 208.089C263.426 207.846 263.285 207.624 263.105 207.436C262.924 207.248 262.708 207.099 262.469 206.997C262.229 206.895 261.972 206.843 261.712 206.843Z" fill="#30242A"/>
<path d="M267.46 215.017V217.199" stroke="#30242A" stroke-miterlimit="10" stroke-linecap="round"/>
<path d="M270.121 215.017V217.199" stroke="#30242A" stroke-miterlimit="10" stroke-linecap="round"/>
<path d="M252.855 217.206C258.772 216.61 262.301 215.007 263.582 211.596" stroke="#30242A" stroke-linecap="round" stroke-linejoin="round"/>
<path d="M156.378 90.2015C153.4 89.9347 150.406 89.9016 147.423 90.1025C143.156 90.4526 137.42 91.5702 135.116 92.6854C132.811 93.8007 123.986 97.7378 126.363 99.0582C128.535 100.265 133.091 98.4499 133.091 98.4499C133.091 98.4499 128.545 102.631 127.763 104.381C126.981 106.131 129.566 107.114 129.566 107.114C130.246 110.102 133.291 108.818 133.291 108.818C135.21 112.9 145.574 104.055 145.574 104.055C148.04 104.311 150.53 104.206 152.966 103.744C152.966 103.744 154.279 104.48 156.385 105.503L156.378 90.2015Z" fill="#EAA58A"/>
<path d="M182.271 110.679C201.632 101.48 173.567 67.1078 163.637 59.1152L158.072 81.6301L165.089 91.3124C162.015 90.7813 159.076 90.4168 156.378 90.202V105.504C162.522 108.492 175.432 113.938 182.271 110.679Z" fill="#4756DF"/>
<path d="M132.165 98.7036C133.883 97.2818 136.735 94.9837 138.863 93.5981" stroke="#A15842" stroke-miterlimit="10" stroke-linecap="round"/>
<path d="M141.209 96.9946C136.265 100.198 131.759 104.478 129.53 106.718" stroke="#A15842" stroke-miterlimit="10" stroke-linecap="round"/>
<path d="M143.403 100.618C140.024 102.937 136.103 106.455 133.542 108.869" stroke="#A15842" stroke-miterlimit="10" stroke-linecap="round"/>
<path d="M201.487 99.3168C201.853 99.3174 202.203 99.4631 202.462 99.7219C202.721 99.9807 202.867 100.332 202.867 100.698V100.903C202.867 101.269 202.721 101.62 202.462 101.878C202.203 102.137 201.853 102.283 201.487 102.284H194.375V99.3168H201.487ZM201.487 97.3857H192.705C192.671 97.3857 192.637 97.3925 192.605 97.4057C192.573 97.419 192.545 97.4384 192.52 97.4629C192.496 97.4873 192.477 97.5164 192.464 97.5483C192.451 97.5802 192.445 97.6143 192.445 97.6488V103.961C192.445 104.03 192.472 104.097 192.521 104.146C192.57 104.194 192.636 104.222 192.705 104.222H201.487C201.922 104.222 202.353 104.136 202.756 103.969C203.158 103.802 203.523 103.558 203.831 103.249C204.138 102.941 204.382 102.575 204.548 102.172C204.714 101.77 204.799 101.338 204.798 100.903V100.69C204.798 99.812 204.449 98.9696 203.828 98.3485C203.207 97.7274 202.365 97.3784 201.487 97.3784V97.3857Z" fill="#3EC1F3"/>
<path d="M190.869 96.3454C183.678 96.3454 180.355 90.6123 180.355 90.6123L185.181 111.647H196.542L201.369 90.6123C200.248 92.3798 198.696 93.8333 196.859 94.8362C195.023 95.8391 192.961 96.3584 190.869 96.3454Z" fill="#3EC1F3"/>
<path d="M190.869 96.3454C192.964 96.3609 195.028 95.8427 196.868 94.8397C198.707 93.8367 200.261 92.3819 201.383 90.6123H180.355C180.355 90.6123 183.678 96.3454 190.869 96.3454Z" fill="#30242A"/>
</svg>
