<svg width="25" height="24" viewBox="0 0 25 24" fill="none" xmlns="http://www.w3.org/2000/svg">
<path d="M19.0594 11H13.0406V5C13.0406 4.73478 12.935 4.48043 12.7468 4.29289C12.5587 4.10536 12.3036 4 12.0375 4C11.7715 4 11.5163 4.10536 11.3282 4.29289C11.1401 4.48043 11.0344 4.73478 11.0344 5V11H5.01564C4.74959 11 4.49444 11.1054 4.30632 11.2929C4.1182 11.4804 4.01251 11.7348 4.01251 12C4.01251 12.2652 4.1182 12.5196 4.30632 12.7071C4.49444 12.8946 4.74959 13 5.01564 13H11.0344V19C11.0344 19.2652 11.1401 19.5196 11.3282 19.7071C11.5163 19.8946 11.7715 20 12.0375 20C12.3036 20 12.5587 19.8946 12.7468 19.7071C12.935 19.5196 13.0406 19.2652 13.0406 19V13H19.0594C19.3254 13 19.5806 12.8946 19.7687 12.7071C19.9568 12.5196 20.0625 12.2652 20.0625 12C20.0625 11.7348 19.9568 11.4804 19.7687 11.2929C19.5806 11.1054 19.3254 11 19.0594 11Z" fill="#A3A3A3"/>
</svg>
