<svg width="24" height="25" viewBox="0 0 24 25" fill="none" xmlns="http://www.w3.org/2000/svg">
<path d="M18.335 19.2802H15.67V15.1032C15.67 14.1072 15.65 12.8252 14.28 12.8252C12.891 12.8252 12.679 13.9092 12.679 15.0302V19.2802H10.013V10.6912H12.573V11.8612H12.608C12.966 11.1872 13.836 10.4742 15.136 10.4742C17.836 10.4742 18.336 12.2522 18.336 14.5652V19.2802H18.335ZM7.003 9.51616C6.79956 9.51643 6.59806 9.47653 6.41006 9.39877C6.22207 9.321 6.05127 9.2069 5.90746 9.063C5.76365 8.91909 5.64965 8.74822 5.57201 8.56017C5.49437 8.37213 5.4546 8.17061 5.455 7.96716C5.4552 7.661 5.54618 7.36177 5.71644 7.10731C5.8867 6.85285 6.12859 6.6546 6.41153 6.53761C6.69447 6.42063 7.00574 6.39018 7.30598 6.4501C7.60622 6.51003 7.88196 6.65764 8.09831 6.87427C8.31466 7.0909 8.46191 7.36682 8.52145 7.66714C8.58099 7.96746 8.55013 8.2787 8.43278 8.56148C8.31543 8.84426 8.11687 9.0859 7.86219 9.25583C7.60751 9.42576 7.30817 9.51636 7.002 9.51616H7.003ZM8.339 19.2802H5.666V10.6912H8.34V19.2802H8.339ZM19.67 3.94116H4.329C3.593 3.94116 3 4.52116 3 5.23816V20.6442C3 21.3612 3.594 21.9412 4.328 21.9412H19.666C20.4 21.9412 21 21.3612 21 20.6442V5.23816C21 4.52116 20.4 3.94116 19.666 3.94116H19.669H19.67Z" fill="#798CF2"/>
</svg>
