<svg width="227" height="181" viewBox="0 0 227 181" fill="none" xmlns="http://www.w3.org/2000/svg">
<path d="M41.134 96.7554H36.222V180.241H41.134V96.7554Z" fill="#FFBE21"/>
<path d="M41.136 97.9033H36.222" stroke="#A15842" stroke-width="1.29615" stroke-miterlimit="10"/>
<path d="M13.932 163.489C14.4296 162.062 15.3588 160.825 16.5909 159.95C17.8229 159.075 19.2967 158.605 20.808 158.605C22.3193 158.605 23.7931 159.075 25.0252 159.95C26.2572 160.825 27.1864 162.062 27.684 163.489C28.1589 162.127 29.0278 160.936 30.1804 160.069C31.333 159.201 32.7174 158.695 34.158 158.615C33.5149 157.469 32.749 156.396 31.874 155.415L29.23 152.441C28.408 151.517 27.8903 150.363 27.7472 149.134C27.6041 147.906 27.8425 146.663 28.43 145.575L30.674 141.405C30.044 142.039 26.402 145.449 20.874 145.449C15.346 145.449 11.704 142.039 11.074 141.405H11.064L13.31 145.575C13.895 146.666 14.1297 147.91 13.9822 149.138C13.8348 150.367 13.3123 151.52 12.486 152.441L9.84402 155.403C8.96739 156.384 8.19958 157.457 7.55402 158.603C8.97911 158.703 10.3436 159.219 11.4776 160.087C12.6116 160.956 13.4652 162.139 13.932 163.489Z" fill="#4756DF"/>
<path d="M34.56 167.703C33.0483 167.703 31.5742 168.174 30.3421 169.05C29.11 169.926 28.181 171.164 27.684 172.591C27.1874 171.163 26.2585 169.925 25.0264 169.049C23.7942 168.173 22.3199 167.703 20.808 167.703C19.2962 167.703 17.8219 168.173 16.5897 169.049C15.3575 169.925 14.4287 171.163 13.932 172.591C13.3306 170.866 12.1029 169.429 10.4923 168.567C8.88159 167.704 7.00554 167.478 5.23602 167.933C5.33762 172.549 7.19761 176.951 10.436 180.241H31.274C34.5059 176.958 36.3653 172.567 36.474 167.961C35.8504 167.79 35.2067 167.703 34.56 167.703Z" fill="#4756DF"/>
<path d="M20.858 145.457C26.386 145.457 30.028 142.047 30.658 141.413H11.058C11.688 142.041 15.33 145.457 20.858 145.457Z" fill="#30242A"/>
<path d="M13.932 172.591C14.4286 171.163 15.3575 169.925 16.5897 169.049C17.8218 168.173 19.2962 167.703 20.808 167.703C22.3198 167.703 23.7942 168.173 25.0263 169.049C26.2585 169.925 27.1874 171.163 27.684 172.591C28.2904 170.847 29.5366 169.399 31.1704 168.54C32.8041 167.68 34.7035 167.473 36.484 167.961C36.5662 164.694 35.7639 161.464 34.162 158.615C32.7214 158.695 31.337 159.201 30.1844 160.068C29.0318 160.936 28.1629 162.127 27.688 163.489C27.1904 162.062 26.2612 160.825 25.0291 159.95C23.7971 159.075 22.3233 158.605 20.812 158.605C19.3007 158.605 17.8269 159.075 16.5948 159.95C15.3628 160.825 14.4336 162.062 13.936 163.489C13.4663 162.142 12.6115 160.963 11.4777 160.098C10.3439 159.233 8.98095 158.719 7.55799 158.621C5.96325 161.461 5.16255 164.677 5.23999 167.933C7.00951 167.478 8.88555 167.704 10.4962 168.567C12.1069 169.429 13.3346 170.866 13.936 172.591H13.932Z" fill="#3EC1F3"/>
<path d="M22.31 144.885C22.71 142.437 24.528 132.733 29.1 127.459" stroke="#30242A" stroke-width="1.29615" stroke-miterlimit="10" stroke-linecap="round"/>
<path d="M20.2 144.955C20.17 142.175 19.884 128.525 17.17 120.381" stroke="#30242A" stroke-width="1.29615" stroke-miterlimit="10" stroke-linecap="round"/>
<path d="M32.2292 135.404C36.2379 133.64 39.1659 131.479 38.7691 130.577C38.3723 129.676 34.8009 130.374 30.7921 132.138C26.7834 133.902 23.8554 136.063 24.2522 136.965C24.649 137.867 28.2204 137.168 32.2292 135.404Z" fill="#30242A"/>
<path d="M32.2268 110.591C33.668 108.643 34.2856 106.656 33.6062 106.153C32.9269 105.651 31.2079 106.823 29.7667 108.771C28.3255 110.72 27.7079 112.706 28.3873 113.209C29.0666 113.711 30.7856 112.539 32.2268 110.591Z" fill="#30242A"/>
<path d="M10.5227 136.789C15.7486 135.998 19.8719 134.609 19.7324 133.686C19.5929 132.764 15.2434 132.656 10.0174 133.447C4.79155 134.238 0.668223 135.627 0.807748 136.549C0.947273 137.472 5.29681 137.58 10.5227 136.789Z" fill="#30242A"/>
<path d="M6.872 123.157V123.171C7.64416 123.603 8.22654 124.308 8.50432 125.148C8.7821 125.988 8.73512 126.902 8.37266 127.709C8.01019 128.516 7.35854 129.158 6.54617 129.508C5.7338 129.858 4.81968 129.892 3.98401 129.601V129.613C8.36401 131.581 12.566 131.731 13.366 129.949C14.166 128.167 11.254 125.125 6.872 123.157Z" fill="#FF7235"/>
<path d="M19.822 108.893C18.89 108.651 17.678 110.061 16.792 112.243C15.726 109.593 14.18 107.819 13.138 108.163C12.096 108.507 11.91 110.851 12.632 113.615C10.62 112.391 8.808 111.979 8.202 112.729C7.43 113.685 8.918 116.165 11.526 118.271C12.268 118.876 13.0663 119.407 13.91 119.859C14.0538 119.288 14.3381 118.762 14.7369 118.328C15.1358 117.895 15.6367 117.568 16.194 117.377C16.7514 117.186 17.3475 117.138 17.9284 117.236C18.5092 117.334 19.0563 117.576 19.52 117.939C19.9109 117.098 20.2229 116.222 20.452 115.323C21.294 112.081 21.012 109.201 19.822 108.893Z" fill="#FF7235"/>
<path d="M40.154 123.615C39.866 122.695 38.028 122.415 35.708 122.815C37.392 120.509 38.08 118.259 37.238 117.557C36.396 116.855 34.306 117.937 32.342 120.011C32.318 117.655 31.708 115.899 30.752 115.781C29.534 115.631 28.214 118.207 27.806 121.531C27.6851 122.481 27.6556 123.441 27.718 124.397C28.2791 124.216 28.8765 124.179 29.4559 124.288C30.0353 124.397 30.5782 124.649 31.0353 125.021C31.4925 125.393 31.8493 125.874 32.0733 126.419C32.2973 126.964 32.3814 127.557 32.318 128.143C33.2391 128.027 34.1476 127.826 35.032 127.543C38.226 126.549 40.52 124.787 40.154 123.615Z" fill="#FF7235"/>
<path d="M31.062 125.041C30.6046 124.66 30.0582 124.4 29.4736 124.287C28.8889 124.173 28.285 124.209 27.718 124.391C27.832 125.973 28.232 127.191 28.834 127.633C29.396 128.153 30.696 128.327 32.314 128.137C32.3771 127.558 32.2957 126.972 32.0773 126.432C31.8588 125.892 31.51 125.414 31.062 125.041Z" fill="#30242A"/>
<path d="M16.23 117.365C15.6645 117.552 15.1553 117.878 14.7497 118.314C14.3441 118.75 14.0552 119.282 13.91 119.859C15.31 120.599 16.554 120.899 17.254 120.627C17.992 120.427 18.826 119.413 19.52 117.939C19.0616 117.579 18.5212 117.338 17.9472 117.238C17.3731 117.138 16.7831 117.182 16.23 117.365Z" fill="#30242A"/>
<path d="M7.26199 129.095C6.8859 128.886 6.60228 128.542 6.46731 128.133C6.33233 127.724 6.35584 127.28 6.53318 126.887C6.71051 126.495 7.02874 126.183 7.42485 126.015C7.82096 125.846 8.26605 125.832 8.67199 125.975C8.62503 125.397 8.43623 124.838 8.12229 124.35C7.80835 123.862 7.37893 123.458 6.87199 123.175L3.978 129.601C4.52497 129.792 5.11049 129.846 5.68309 129.758C6.2557 129.67 6.79787 129.442 7.26199 129.095Z" fill="#F5EBDD"/>
<path d="M6.52594 126.889C6.35157 127.282 6.33038 127.725 6.46656 128.132C6.60274 128.54 6.88641 128.881 7.2617 129.089C7.74224 128.732 8.12382 128.258 8.37044 127.712C8.61706 127.166 8.72057 126.566 8.67122 125.969C8.26355 125.824 7.81609 125.838 7.41834 126.009C7.02059 126.179 6.70188 126.494 6.52594 126.889Z" fill="#4856DF"/>
<path d="M138.698 130.117H87.832L88.692 126.705H111.02L119.536 93.4013C120.696 88.8648 123.333 84.8436 127.032 81.9719C130.73 79.1002 135.279 77.5414 139.962 77.5413C151.42 77.5413 159.804 88.3413 156.962 99.4413L151.7 120.019C150.961 122.907 149.283 125.467 146.929 127.295C144.574 129.124 141.679 130.117 138.698 130.117Z" fill="#FFB7D5"/>
<path d="M88.226 161.635V165.247H120.644V161.635H88.226Z" fill="#A15842"/>
<path d="M125.984 178.301L117.552 128.111H91.316L82.884 178.301C82.8442 178.54 82.8569 178.784 82.9212 179.018C82.9855 179.251 83.0998 179.468 83.2563 179.652C83.4128 179.837 83.6076 179.985 83.8272 180.087C84.0468 180.189 84.286 180.241 84.528 180.241C84.9083 180.241 85.277 180.11 85.5731 179.872C85.8692 179.633 86.0748 179.301 86.156 178.929L97.2 128.111H111.676L122.716 178.929C122.797 179.301 123.002 179.634 123.299 179.872C123.595 180.111 123.964 180.241 124.344 180.241C124.586 180.241 124.824 180.188 125.043 180.086C125.263 179.984 125.457 179.835 125.613 179.651C125.769 179.466 125.883 179.25 125.947 179.017C126.011 178.784 126.024 178.539 125.984 178.301Z" fill="#A15842"/>
<path d="M115.082 161.635V165.247H147.5V161.635H115.082Z" fill="#FFBE21"/>
<path d="M152.84 178.301L144.4 128.111H118.174L109.742 178.301C109.702 178.54 109.715 178.784 109.779 179.018C109.843 179.251 109.958 179.468 110.114 179.652C110.271 179.837 110.466 179.985 110.685 180.087C110.905 180.189 111.144 180.241 111.386 180.241C111.766 180.241 112.135 180.111 112.431 179.872C112.726 179.633 112.932 179.301 113.012 178.929L124.052 128.111H138.53L149.57 178.929C149.651 179.301 149.857 179.634 150.153 179.873C150.45 180.112 150.819 180.242 151.2 180.241C151.442 180.241 151.68 180.188 151.899 180.086C152.119 179.984 152.313 179.835 152.469 179.651C152.625 179.466 152.739 179.25 152.803 179.017C152.867 178.784 152.88 178.539 152.84 178.301Z" fill="#FFBE21"/>
<path d="M126.342 120.019L129.558 107.441H108.244C104.064 107.441 100.004 108.833 96.7021 111.396C93.4006 113.959 91.0461 117.548 90.01 121.597L87.832 130.117H113.338C116.319 130.117 119.215 129.124 121.57 127.296C123.924 125.467 125.603 122.907 126.342 120.019Z" fill="#FFB7D5"/>
<path d="M89.218 126.371H116.278" stroke="#A15842" stroke-width="1.29615" stroke-linecap="round" stroke-linejoin="round"/>
<path d="M111.116 126.245L115.858 107.705" stroke="#A15842" stroke-width="1.29615" stroke-linecap="round" stroke-linejoin="round"/>
<path d="M154.6 107.011H141.8" stroke="#A15842" stroke-width="1.29615" stroke-linecap="round" stroke-linejoin="round"/>
<path d="M157 98.0112H140.6" stroke="#A15842" stroke-width="1.29615" stroke-linecap="round" stroke-linejoin="round"/>
<path d="M97.262 93.9472C97.262 93.9472 81.216 98.3172 74.4 101.727C63.162 107.345 63.2 111.053 56.348 131.811C50.022 150.995 49.326 160.293 40.6 160.661C33.938 160.941 31.754 163.121 30.674 166.109L57.036 178.617C57.3382 178.76 57.6836 178.782 58.0015 178.679C58.3194 178.576 58.5857 178.355 58.746 178.061C58.9093 177.761 58.949 177.41 58.8567 177.081C58.7645 176.752 58.5475 176.472 58.252 176.301L57.698 175.981C60.148 173.013 64.874 166.689 69.586 157.083L72.586 158.483C72.586 158.483 77.432 152.185 78.2 145.041C79.2 135.815 78.6 129.597 82.814 125.987L131.954 93.9392L97.262 93.9472Z" fill="#FF7235"/>
<path d="M38.01 162.143C38.532 161.057 41.432 154.441 43.1 155.241C45.27 156.281 39.638 162.923 39.638 162.923L38.01 162.143Z" fill="#30242A"/>
<path d="M30.672 166.203L57.034 178.709C57.3392 178.855 57.6889 178.876 58.0098 178.77C58.3307 178.663 58.5978 178.436 58.7552 178.137C58.9125 177.838 58.9477 177.489 58.8535 177.164C58.7594 176.84 58.543 176.564 58.25 176.395L57.696 176.075L57.752 176.007L39.632 167.453C39.9035 166.701 40.0939 165.922 40.2 165.129C42.912 165.599 48.4 166.105 48.428 163.843C48.458 161.735 42.464 162.581 40.274 163.177C40.2268 162.367 40.0693 161.567 39.806 160.799C33.764 161.215 31.708 163.335 30.672 166.203Z" fill="#30242A"/>
<path d="M74.4 101.727C73.138 102.357 72.02 102.963 71.018 103.571L69.48 108.497L75.4 104.327L80.858 108.679L78.846 102.713L85.028 99.881L80.25 99.281C78.2579 99.9918 76.3051 100.808 74.4 101.727Z" fill="#FFB7D5"/>
<path d="M91.8419 99.1633L91.442 101.769L94.0492 100.767L91.8419 99.1633Z" fill="#FFB7D5"/>
<path d="M76.8 112.199L72.99 117.213L67.574 114.607L70.782 120.021L65.768 124.233L72.186 123.431L74.394 130.853L76.6 123.431L83.62 121.425L76.8 118.617V112.199Z" fill="#FFB7D5"/>
<path d="M55.38 150.483L55.848 149.147L62.248 148.807L57.048 145.267L59.364 139.721L54.126 143.213L53.126 142.133C52.326 144.767 51.618 147.113 50.926 149.175H50.958C51.034 148.949 51.11 148.721 51.186 148.489L55.38 150.483Z" fill="#FFB7D5"/>
<path d="M55.38 150.483L51.18 148.497C51.104 148.729 51.028 148.957 50.952 149.183C48.414 156.743 46.102 160.523 40.604 160.755C40.334 160.755 40.074 160.781 39.818 160.799C40.0813 161.567 40.2388 162.367 40.286 163.177C42.486 162.577 48.47 161.735 48.44 163.843C48.408 166.105 42.924 165.599 40.212 165.129C40.104 165.922 39.9115 166.701 39.638 167.453L57.758 176.007C60.222 173.007 64.908 166.715 69.584 157.189L55.38 150.483Z" fill="#EAA58B"/>
<path d="M71.384 135.265L70.784 140.681L65.168 140.481L69.982 144.093L68.182 150.511L73 146.297L77.33 149.185C77.45 148.802 77.56 148.415 77.66 148.023L76 143.889L78.572 141.071C78.614 140.547 78.654 140.031 78.692 139.529L74.2 140.279L71.384 135.265Z" fill="#FFB7D5"/>
<path d="M58.874 124.007C58.368 125.571 57.824 127.269 57.224 129.115L62.56 129.441L58.874 124.007Z" fill="#FFB7D5"/>
<path d="M77.716 172.867C77.8 171.667 78.062 164.447 79.906 164.577C82.306 164.745 79.516 172.993 79.516 172.993L77.716 172.867Z" fill="#30242A"/>
<path d="M122.134 94.2412C122.134 94.2412 102.076 97.9612 91.044 102.573C79.906 107.231 80.014 115.503 82.018 137.973C83.818 158.089 87.034 167.857 80.418 170.865C74.35 173.625 72.242 177.085 72.53 180.249H102.4C102.568 180.249 102.735 180.216 102.891 180.152C103.046 180.087 103.187 179.993 103.307 179.874C103.426 179.755 103.52 179.613 103.584 179.458C103.649 179.302 103.682 179.136 103.682 178.967C103.682 178.627 103.547 178.301 103.307 178.061C103.066 177.82 102.74 177.685 102.4 177.685H101.896C102.838 174.603 104.204 168.587 104.392 158.631H108.096C108.096 158.631 110 149.831 107.896 141.983C105.696 133.761 103.684 132.357 102.482 126.741H120.456C134.182 126.741 144.456 114.045 141.47 100.649C140.538 96.4632 139.186 94.2492 139.186 94.2492L122.134 94.2412Z" fill="#FF7235"/>
<path d="M109.698 105.981L106.016 110.613L100.282 108.643L103.68 114.205L99.268 120.223L105.084 117.815L108.326 123.791L108.694 117.213L114.31 116.011L109.498 113.001L109.698 105.981Z" fill="#FFB7D5"/>
<path d="M101.686 141.737L105.086 147.299L100.674 153.317L106.49 150.917L108.646 154.891C108.962 151.803 109.118 147.235 108.11 142.849L107.422 143.715L101.686 141.737Z" fill="#FFB7D5"/>
<path d="M86.69 158.623L86.432 155.523L92.944 153.011L86.78 151.733L87.46 144.967L83.46 150.201L83.34 150.151C83.724 153.381 84.06 156.203 84.248 158.645V158.623H86.69Z" fill="#FFB7D5"/>
<path d="M102.4 177.677H101.896C102.838 174.595 104.204 168.579 104.392 158.623H84.242V158.641C84.258 158.841 84.272 159.041 84.286 159.241C84.286 159.259 84.286 159.279 84.286 159.297C84.704 165.547 84.022 169.203 80.41 170.845C74.342 173.605 72.234 177.065 72.522 180.229H102.4C102.74 180.229 103.066 180.094 103.307 179.854C103.547 179.613 103.682 179.287 103.682 178.947C103.682 178.607 103.547 178.281 103.307 178.041C103.066 177.8 102.74 177.665 102.4 177.665V177.677Z" fill="#EAA58B"/>
<path d="M129.144 94.7593L119.93 95.5753L120.89 99.2793L114.996 102.423L122.338 103.405L124.822 108.907L127.376 103.209L134.844 102.029L128.358 98.6893L129.144 94.7593Z" fill="#FFB7D5"/>
<path d="M85.228 120.823L87.428 113.803L93.846 114.803L88.832 110.391L92.432 106.179L85.814 108.579L84.756 106.765C83.054 108.693 82.026 111.087 81.476 114.165L82.604 114.201L85.228 120.823Z" fill="#FFB7D5"/>
<path d="M102.4 98.8013C101.046 99.1773 99.698 99.5713 98.382 99.9773L103.684 103.577L102.4 98.8013Z" fill="#FFB7D5"/>
<path d="M93.652 131.253L90.844 125.437L89.44 131.855L84.226 131.455L89.038 135.667L86.03 142.687L91.252 137.819L95.58 142.809L94.254 135.265L98.666 129.449L93.652 131.253Z" fill="#FFB7D5"/>
<path d="M81.746 175.331C84.398 174.599 89.574 172.715 88.638 170.657C87.766 168.737 82.706 172.057 80.98 173.535C80.5443 172.736 79.9877 172.009 79.33 171.379C74.094 174.045 72.256 177.273 72.53 180.241H102.4C102.74 180.241 103.066 180.106 103.307 179.866C103.547 179.625 103.682 179.299 103.682 178.959C103.682 178.619 103.547 178.293 103.307 178.053C103.066 177.812 102.74 177.677 102.4 177.677H82.22C82.145 176.881 81.9861 176.094 81.746 175.331Z" fill="#30242A"/>
<path d="M102.4 127.183L97.236 127.111" stroke="#A15842" stroke-width="1.29615" stroke-miterlimit="10" stroke-linecap="round"/>
<path d="M106.24 97.9253C100.89 99.2893 95.172 100.963 90.84 102.771C81.6 106.641 80.102 112.993 81 127.889" stroke="#A15842" stroke-width="1.29615" stroke-miterlimit="10" stroke-linecap="round"/>
<path d="M174.136 96.7554H169.224V180.241H174.136V96.7554Z" fill="#FFBE21"/>
<path d="M174.136 97.9033H169.224" stroke="#A15842" stroke-width="1.29615" stroke-miterlimit="10"/>
<path d="M102.878 33.9772C100.078 33.5772 93.664 36.5872 93.452 42.5372C93.24 48.4872 98.552 50.3992 99.402 50.8252L111.728 48.9112L112.578 35.3112L102.878 33.9772Z" fill="#A15842"/>
<path d="M124.654 19.2013C129.945 19.2013 134.234 14.9121 134.234 9.62126C134.234 4.33037 129.945 0.0412598 124.654 0.0412598C119.363 0.0412598 115.074 4.33037 115.074 9.62126C115.074 14.9121 119.363 19.2013 124.654 19.2013Z" fill="#A15842"/>
<path d="M118.44 16.2093C119.024 16.4793 114.106 4.80934 111.596 6.62934C109.234 8.34734 115.474 14.8413 118.44 16.2093Z" fill="#30242A"/>
<path d="M118.712 16.9231C119.248 17.5631 131.796 13.1731 130.06 10.6411C128.4 8.20508 118.176 16.2811 118.712 16.9231Z" fill="#30242A"/>
<path d="M135.37 49.0192C135.37 49.0192 143.794 41.9992 138.37 34.1772C134.918 29.1912 125.532 31.1772 125.532 31.1772C125.76 28.4392 126.504 20.5512 120.572 16.2172C114.64 11.8832 107.114 14.1652 104.372 17.5852C101.63 21.0052 102.32 27.3952 101.408 31.9572C100.496 36.5192 101.104 39.6212 103.916 41.0812C106.474 42.4092 109.484 41.6072 109.484 41.6072L109.164 46.4212C109.164 46.4212 103.364 46.6392 99.81 47.9252C91.246 51.0252 76.2 72.2852 76.2 72.2852C66.774 71.8852 57.948 71.4852 57.948 71.4852L62.562 85.1252C62.562 85.1252 74.194 88.9352 82.618 86.7252C91.164 84.4872 99.266 72.4852 99.266 72.4852L102.066 80.5072L97.252 93.9452H139.172L132.152 81.5092C133.366 70.4812 135.37 49.0192 135.37 49.0192Z" fill="#EAA58B"/>
<path d="M121.9 45.9211L110.9 65.8671L106.4 46.6211C104.422 46.8211 101.786 47.2091 99.83 47.9171C91.246 51.0251 76.2 72.2851 76.2 72.2851C66.774 71.8851 57.948 71.4851 57.948 71.4851L62.562 85.1251C62.562 85.1251 74.194 88.9351 82.618 86.7251C91.164 84.4871 99.266 72.4851 99.266 72.4851L102.066 80.5071L97.252 93.9451H139.172L132.152 81.5111C133.352 70.4791 135.352 49.0171 135.352 49.0171C133.495 47.8866 131.461 47.0753 129.336 46.6171C126.942 46.0771 124.31 46.3991 121.9 45.9211Z" fill="#4756DF"/>
<path d="M64.934 92.5432H99.67L91.772 67.5992C91.5399 66.8641 91.0794 66.2221 90.4576 65.7664C89.8358 65.3107 89.0849 65.0651 88.314 65.0652H58.958C58.3876 65.0648 57.8252 65.1991 57.3164 65.457C56.8076 65.7149 56.3668 66.0892 56.0299 66.5494C55.693 67.0097 55.4694 67.543 55.3773 68.1059C55.2852 68.6688 55.3273 69.2456 55.5 69.7892L62.028 90.4172C62.2238 91.0342 62.6111 91.5729 63.1335 91.9552C63.656 92.3374 64.2866 92.5434 64.934 92.5432Z" fill="#30242A"/>
<path d="M70.11 76.3492C71.032 75.0892 75.214 78.4172 75.522 78.6912C75.682 78.4172 77.86 75.0912 79.456 76.3492C80.842 77.4412 77.796 82.3192 76.986 83.5632C76.952 83.6009 76.9105 83.631 76.8642 83.6517C76.8179 83.6723 76.7677 83.683 76.717 83.683C76.6663 83.683 76.6161 83.6723 76.5698 83.6517C76.5234 83.631 76.4819 83.6009 76.448 83.5632C74.97 82.3192 69.31 77.4412 70.11 76.3492Z" fill="#A15842"/>
<path d="M75.1772 77.1928C75.5262 77.0841 75.5393 76.13 75.2066 75.0617C74.8738 73.9934 74.3212 73.2155 73.9723 73.3242C73.6233 73.4329 73.6101 74.387 73.9429 75.4553C74.2756 76.5236 74.8282 77.3015 75.1772 77.1928Z" fill="#A15842"/>
<path d="M119.84 89.735C119.941 90.0577 119.964 90.3995 119.908 90.7329C119.852 91.0662 119.719 91.3819 119.519 91.6543C119.319 91.9267 119.058 92.1484 118.756 92.3013C118.455 92.4543 118.122 92.5344 117.784 92.535H64.934C64.2866 92.5352 63.656 92.3293 63.1335 91.947C62.611 91.5648 62.2238 91.0261 62.028 90.4091L61.812 89.7271L119.84 89.735Z" fill="#30242A"/>
<path d="M182.6 92.5432H27.758V97.5572H182.6V92.5432Z" fill="#FFBE21"/>
<path d="M151.698 120.019L154.914 107.441H136.154C131.975 107.441 127.914 108.833 124.613 111.396C121.312 113.959 118.958 117.548 117.922 121.597L115.742 130.117H138.692C141.673 130.117 144.57 129.124 146.925 127.296C149.28 125.468 150.959 122.907 151.698 120.019Z" fill="#FFB7D5"/>
<path d="M116.186 126.819L115.444 129.955" stroke="#A15842" stroke-width="1.29615" stroke-linecap="round" stroke-linejoin="round"/>
<path d="M56.276 72.207C53.942 73.373 52.776 75.317 52.776 76.679C52.776 78.667 54.8 79.041 54.8 79.041C54.8 79.041 53.29 81.415 55.916 82.529C55.916 82.529 55.916 84.973 58.362 84.973C58.362 84.973 58.038 86.879 60.59 87.059C63.142 87.239 65.768 85.907 65.99 85.045C66.244 84.027 65.558 83.175 63.706 82.905C63.706 82.905 66.206 81.737 65.81 80.263C65.414 78.789 63.724 78.823 63.724 78.823C63.724 78.823 65.342 77.853 64.478 76.423C63.614 74.993 61.962 75.489 61.962 75.489C61.962 75.489 62.394 74.489 61.638 73.727C60.738 72.827 56.868 73.963 56.868 73.963L56.276 72.207Z" fill="#EAA58A"/>
<path d="M58.38 85.0672C60.4861 84.5623 62.5293 83.8244 64.472 82.8672" stroke="#A15842" stroke-width="1.29615" stroke-miterlimit="10" stroke-linecap="round"/>
<path d="M55.91 82.5171C58.83 81.7164 61.6179 80.4949 64.186 78.8911" stroke="#A15842" stroke-width="1.29615" stroke-miterlimit="10" stroke-linecap="round"/>
<path d="M54.6 79.3252C57.3059 78.5246 59.8625 77.2862 62.168 75.6592" stroke="#A15842" stroke-width="1.29615" stroke-miterlimit="10" stroke-linecap="round"/>
<path d="M138.38 34.1772C134.928 29.1912 125.542 31.1772 125.542 31.1772C125.77 28.4392 126.514 20.5512 120.582 16.2172C114.65 11.8832 107.124 14.1652 104.382 17.5852C103.266 18.9852 102.72 20.8692 102.402 22.9252C104.222 23.2312 106.892 22.6052 106.892 22.6052C110.542 26.7112 113.812 27.3632 113.812 27.3632C116.366 24.8092 120.846 24.8932 121.574 28.7632C122.33 32.7812 115.912 34.5872 115.912 34.5872C115.912 34.5872 115.312 41.8072 118.512 44.4152C119.494 45.1937 120.655 45.7141 121.89 45.9292C124.29 46.4072 126.932 46.0852 129.344 46.6212C131.469 47.0794 133.503 47.8906 135.36 49.0212C136.093 48.3755 136.762 47.6617 137.36 46.8892C139.464 44.2212 141.98 39.3772 138.38 34.1772Z" fill="#A15842"/>
<path d="M110.7 21.1414C109.5 22.1414 108.1 22.7414 106.488 23.1414" stroke="#EAA58B" stroke-width="1.29615" stroke-miterlimit="10" stroke-linecap="round"/>
<path d="M109.418 42.0572C110.349 41.7465 111.247 41.3445 112.099 40.8572" stroke="#A15842" stroke-width="1.29615" stroke-miterlimit="10" stroke-linecap="round"/>
<path d="M116.158 30.5533L117.981 29.4133" stroke="#A15842" stroke-width="1.29615" stroke-miterlimit="10" stroke-linecap="round"/>
<path d="M105.692 35.9073C106.07 36.1413 107.491 36.3233 108.055 35.2373" stroke="#A15842" stroke-width="1.29615" stroke-miterlimit="10" stroke-linecap="round"/>
<path d="M109.408 30.7752C109.785 30.7752 110.092 30.469 110.092 30.0912C110.092 29.7135 109.785 29.4072 109.408 29.4072C109.03 29.4072 108.724 29.7135 108.724 30.0912C108.724 30.469 109.03 30.7752 109.408 30.7752Z" fill="#30242A"/>
<path d="M103.738 29.8692C104.115 29.8692 104.422 29.563 104.422 29.1852C104.422 28.8075 104.115 28.5012 103.738 28.5012C103.36 28.5012 103.054 28.8075 103.054 29.1852C103.054 29.563 103.36 29.8692 103.738 29.8692Z" fill="#30242A"/>
<path d="M105.664 31.8271C105.528 32.2572 105.41 32.7252 105.488 32.8812C105.595 33.0788 105.758 33.2408 105.956 33.3472" stroke="#A15842" stroke-width="1.29615" stroke-miterlimit="10" stroke-linecap="round"/>
<path d="M117.016 37.2554C118.339 37.2554 119.412 36.1826 119.412 34.8594C119.412 33.5361 118.339 32.4634 117.016 32.4634C115.693 32.4634 114.62 33.5361 114.62 34.8594C114.62 36.1826 115.693 37.2554 117.016 37.2554Z" fill="#F5EBDD"/>
<path d="M105.49 29.5699C105.904 27.4394 104.685 25.4097 102.767 25.0365C100.849 24.6634 98.9584 26.088 98.5439 28.2185C98.1294 30.349 99.3482 32.3787 101.266 32.7519C103.184 33.125 105.075 31.7004 105.49 29.5699Z" stroke="#30242A" stroke-width="1.29615" stroke-miterlimit="10" stroke-linecap="round"/>
<path d="M114.18 30.6353C114.594 28.5048 113.375 26.4751 111.457 26.102C109.539 25.7288 107.648 27.1534 107.234 29.2839C106.819 31.4145 108.038 33.4441 109.956 33.8173C111.874 34.1905 113.765 32.7659 114.18 30.6353Z" stroke="#30242A" stroke-width="1.29615" stroke-miterlimit="10" stroke-linecap="round"/>
<path d="M105.654 29.2473L107.036 29.3953" stroke="#30242A" stroke-width="1.29615" stroke-miterlimit="10" stroke-linecap="round"/>
<path d="M126 31.4412L125.602 34.0011" stroke="#30242A" stroke-width="1.29615" stroke-miterlimit="10" stroke-linecap="round"/>
<path d="M97.062 67.2712L98.9974 72.9053" stroke="#30242A" stroke-width="1.29615" stroke-linecap="round" stroke-linejoin="round"/>
<path d="M107.29 80.1074H102.2" stroke="#30242A" stroke-width="1.29615" stroke-linecap="round" stroke-linejoin="round"/>
<path d="M111.302 65.6672L112.905 73.4892V80.7092" stroke="#30242A" stroke-width="1.29615" stroke-linecap="round" stroke-linejoin="round"/>
<path d="M100.634 47.7432L103.68 54.6352L100.07 54.2352L112.906 73.4892" stroke="#30242A" stroke-width="1.29615" stroke-linecap="round" stroke-linejoin="round"/>
<path d="M130.312 46.9231L125.142 54.2351L129.956 53.8331L112.304 69.4771" stroke="#30242A" stroke-width="1.29615" stroke-linecap="round" stroke-linejoin="round"/>
<path d="M133 71.4411L129.154 66.0691" stroke="#30242A" stroke-width="1.29615" stroke-linecap="round" stroke-linejoin="round"/>
<path d="M137.45 91.2413C135.356 90.5433 131.598 89.1953 129.332 87.8413" stroke="#30242A" stroke-width="1.29615" stroke-linecap="round" stroke-linejoin="round"/>
<path d="M79.69 41.4752C81.8627 41.4752 83.624 39.7139 83.624 37.5412C83.624 35.3685 81.8627 33.6072 79.69 33.6072C77.5173 33.6072 75.756 35.3685 75.756 37.5412C75.756 39.7139 77.5173 41.4752 79.69 41.4752Z" fill="#FFB7D5"/>
<path d="M67.9321 21.8848L65.6419 19.1234C65.2894 18.6983 64.6591 18.6395 64.234 18.992L64.1848 19.0328C63.7598 19.3853 63.701 20.0157 64.0535 20.4407L66.3436 23.2021C66.6962 23.6272 67.3265 23.686 67.7515 23.3335L67.8008 23.2927C68.2258 22.9402 68.2846 22.3099 67.9321 21.8848Z" fill="#4756DF"/>
<path d="M72.052 25.2414L69.748 22.4614L28.334 56.8014C27.9729 57.1012 27.7455 57.5321 27.702 57.9994C27.6585 58.4667 27.8024 58.9322 28.102 59.2934L28.148 59.3494C28.2963 59.5282 28.4783 59.676 28.6836 59.7844C28.889 59.8928 29.1137 59.9597 29.345 59.9813C29.5762 60.0028 29.8094 59.9786 30.0313 59.91C30.2531 59.8414 30.4593 59.7297 30.638 59.5814L43.586 48.8414V86.5274H47.2V45.8414L72.052 25.2414Z" fill="#3EC1F3"/>
<path d="M65.378 26.041L66.5316 27.441C66.9334 27.9267 67.2387 28.4847 67.4313 29.085" stroke="#4756DF" stroke-width="1.29615" stroke-miterlimit="10"/>
<path d="M45.392 49.6751C47.9954 49.6751 50.106 47.5645 50.106 44.9611C50.106 42.3576 47.9954 40.2471 45.392 40.2471C42.7885 40.2471 40.678 42.3576 40.678 44.9611C40.678 47.5645 42.7885 49.6751 45.392 49.6751Z" fill="#4756DF"/>
<path d="M45.392 46.7732C46.3927 46.7732 47.204 45.9619 47.204 44.9612C47.204 43.9604 46.3927 43.1492 45.392 43.1492C44.3913 43.1492 43.58 43.9604 43.58 44.9612C43.58 45.9619 44.3913 46.7732 45.392 46.7732Z" fill="#3EC1F3"/>
<path d="M82.92 35.3071L76.89 40.2911" stroke="#A15842" stroke-width="1.29615" stroke-miterlimit="10"/>
<path d="M75.108 24.7374C73.84 24.5884 72.6782 23.9567 71.864 22.9734L70.264 21.0394C69.6985 20.3586 68.8858 19.93 68.0046 19.8479C67.1234 19.7658 66.2456 20.0368 65.564 20.6014C65.2267 20.8811 64.9478 21.2245 64.7433 21.612C64.5387 21.9994 64.4125 22.4234 64.3718 22.8597C64.3312 23.2959 64.3768 23.736 64.5062 24.1546C64.6356 24.5732 64.8462 24.9622 65.126 25.2994L66.726 27.2394C67.5366 28.2199 67.9397 29.4743 67.852 30.7434L67.452 36.5914C67.2537 39.4528 67.9801 42.3021 69.524 44.7194L70.036 45.5194L89.222 29.6054L88.534 28.9594C86.4457 26.9947 83.7814 25.753 80.934 25.4174L75.108 24.7374Z" fill="#3EC1F3"/>
<path d="M47.2 86.5271H43.586L38.244 87.9831C37.2438 88.256 36.3611 88.8502 35.7318 89.6743C35.1026 90.4983 34.7618 91.5063 34.762 92.5431H56.022C56.022 91.5061 55.6809 90.4978 55.0513 89.6738C54.4217 88.8497 53.5386 88.2556 52.538 87.9831L47.2 86.5271Z" fill="#3EC1F3"/>
<path d="M85.582 26.7751L68.024 41.2872" stroke="#4756DF" stroke-width="1.29615" stroke-miterlimit="10" stroke-linecap="round"/>
<path d="M43.498 86.1133H47.2" stroke="#4756DF" stroke-width="1.29615" stroke-miterlimit="10" stroke-linecap="round"/>
<path d="M35.464 90.0432H55.2" stroke="#4756DF" stroke-width="1.29615" stroke-miterlimit="10" stroke-linecap="round"/>
<path d="M149.212 144.139C149.612 140.739 149.412 133.107 145 127.291C140.588 121.475 146.6 123.891 148.4 125.491C151.28 128.051 153.816 130.505 156.022 138.729L149.212 144.139Z" fill="#30242A"/>
<path d="M202.486 180.241H226.032V179.471C226.031 178.386 225.6 177.345 224.832 176.578C224.064 175.81 223.023 175.379 221.938 175.379H202.364L202.486 180.241Z" fill="#A15842"/>
<path d="M145.048 157.761L150.014 180.241H159.242V178.841C159.242 177.939 158.884 177.073 158.247 176.434C157.609 175.794 156.745 175.434 155.842 175.431C155.842 175.431 160.454 171.973 163.262 168.563C163.262 168.563 168.076 174.429 174.896 173.425L175.39 175.825C175.647 177.071 176.325 178.19 177.31 178.994C178.296 179.799 179.528 180.239 180.8 180.241H203.166C213.086 180.241 217.966 178.727 218.246 173.079C218.255 172.864 218.22 172.649 218.143 172.447C218.067 172.246 217.95 172.062 217.801 171.906C217.651 171.751 217.472 171.627 217.273 171.543C217.075 171.459 216.862 171.415 216.646 171.415H210.402C210.145 171.416 209.89 171.358 209.658 171.247C209.426 171.136 209.221 170.974 209.06 170.773L206.402 167.475C205.614 166.499 204.563 165.77 203.373 165.374C202.182 164.978 200.904 164.932 199.688 165.241L194.342 166.607C194.342 166.607 184.87 152.995 176.29 143.541C168.09 134.515 152.666 133.541 146.59 145.297C144.637 149.145 144.091 153.554 145.048 157.761Z" fill="#A15842"/>
<path d="M200.96 180.241V179.471C200.96 178.934 200.854 178.402 200.648 177.905C200.443 177.408 200.141 176.957 199.761 176.577C199.381 176.197 198.929 175.896 198.433 175.69C197.936 175.485 197.404 175.379 196.866 175.379H194.14" stroke="#30242A" stroke-width="1.29615" stroke-miterlimit="10"/>
<path d="M163.634 168.723C165.034 167.057 169.812 160.923 169.47 154.923C169.104 148.503 165.258 145.095 165.258 145.095" stroke="#30242A" stroke-width="1.29615" stroke-miterlimit="10" stroke-linecap="round"/>
<path d="M173.682 164.949C173.682 164.949 173.938 169.695 174.452 173.239" stroke="#30242A" stroke-width="1.29615" stroke-miterlimit="10" stroke-linecap="round"/>
<path d="M154.428 178.187V180.041" stroke="#30242A" stroke-width="1.29615" stroke-miterlimit="10" stroke-linecap="round"/>
<path d="M156.634 178.187V180.041" stroke="#30242A" stroke-width="1.29615" stroke-miterlimit="10" stroke-linecap="round"/>
<path d="M196.548 178.187V180.041" stroke="#30242A" stroke-width="1.29615" stroke-miterlimit="10" stroke-linecap="round"/>
<path d="M198.754 178.187V180.041" stroke="#30242A" stroke-width="1.29615" stroke-miterlimit="10" stroke-linecap="round"/>
<path d="M204.67 172.771C205.168 172.771 205.571 172.367 205.571 171.869C205.571 171.371 205.168 170.967 204.67 170.967C204.172 170.967 203.768 171.371 203.768 171.869C203.768 172.367 204.172 172.771 204.67 172.771Z" fill="#30242A"/>
<path d="M199.748 165.223V165.199L194.334 166.599L199.68 165.233L199.748 165.223Z" fill="#30242A"/>
<path d="M186.424 175.469C184.856 176.269 182.64 177.835 182.824 180.207H191.532L193.362 177.321C193.661 176.849 194.075 176.46 194.564 176.191C195.054 175.921 195.603 175.78 196.162 175.779H196.744L199.728 165.283L199.684 165.237L194.338 166.603L189.22 173.159C188.467 174.123 187.513 174.911 186.424 175.469Z" fill="#30242A"/>
<path d="M173.706 148.441C173.706 148.441 171.284 156.825 179.106 159.991C183.072 161.591 186.366 160.377 188.652 158.791C185.198 154.191 180.628 148.335 176.288 143.551C175.2 142.354 173.977 141.286 172.644 140.369C171.46 141.981 170.164 145.969 173.706 148.441Z" fill="#EAA58B"/>
<path d="M153.726 154.521C155.554 154.521 157.036 153.039 157.036 151.211C157.036 149.383 155.554 147.901 153.726 147.901C151.898 147.901 150.416 149.383 150.416 151.211C150.416 153.039 151.898 154.521 153.726 154.521Z" fill="#EAA58B"/>
<path d="M216.654 171.415H215.454C215.388 171.75 215.397 172.095 215.48 172.426C215.563 172.756 215.718 173.065 215.934 173.329C216.15 173.592 216.422 173.805 216.73 173.951C217.038 174.098 217.374 174.174 217.715 174.175C217.856 174.175 217.997 174.162 218.135 174.135C218.196 173.786 218.236 173.433 218.253 173.079C218.262 172.864 218.227 172.649 218.15 172.447C218.074 172.246 217.957 172.061 217.808 171.906C217.658 171.751 217.479 171.627 217.281 171.543C217.082 171.458 216.869 171.415 216.654 171.415Z" fill="#30242A"/>
<path d="M221.418 178.187V179.995" stroke="#30242A" stroke-width="1.29615" stroke-miterlimit="10" stroke-linecap="round"/>
<path d="M223.624 178.187V179.995" stroke="#30242A" stroke-width="1.29615" stroke-miterlimit="10" stroke-linecap="round"/>
<path d="M209.314 180.001C214.218 179.507 217.142 178.179 218.204 175.353" stroke="#30242A" stroke-width="1.29615" stroke-linecap="round" stroke-linejoin="round"/>
<path d="M129.354 74.7754C126.886 74.5544 124.404 74.5269 121.932 74.6934C118.396 74.9834 113.642 75.9094 111.732 76.8334C109.822 77.7574 102.508 81.0194 104.478 82.1134C106.278 83.1134 110.054 81.6094 110.054 81.6094C110.054 81.6094 106.286 85.0734 105.638 86.5234C104.99 87.9734 107.132 88.7874 107.132 88.7874C107.696 91.2634 110.22 90.1994 110.22 90.1994C111.81 93.5814 120.4 86.2534 120.4 86.2534C122.444 86.4657 124.507 86.3788 126.526 85.9954C126.526 85.9954 127.614 86.6054 129.36 87.4534L129.354 74.7754Z" fill="#EAA58A"/>
<path d="M150.814 91.7413C166.86 84.1193 143.6 55.6413 135.37 49.0193L130.758 67.6733L136.574 75.6953C134.026 75.2553 131.59 74.9533 129.354 74.7753V87.4533C134.446 89.9293 145.146 94.4413 150.814 91.7413Z" fill="#4756DF"/>
<path d="M109.286 81.8191C110.71 80.6411 113.074 78.7371 114.838 77.5891" stroke="#A15842" stroke-width="1.29615" stroke-miterlimit="10" stroke-linecap="round"/>
<path d="M116.782 80.4031C112.684 83.0571 108.95 86.6031 107.102 88.4591" stroke="#A15842" stroke-width="1.29615" stroke-miterlimit="10" stroke-linecap="round"/>
<path d="M118.6 83.4053C115.8 85.3273 112.55 88.2413 110.428 90.2413" stroke="#A15842" stroke-width="1.29615" stroke-miterlimit="10" stroke-linecap="round"/>
<path d="M166.74 82.3272C167.043 82.3277 167.334 82.4484 167.548 82.6628C167.763 82.8773 167.883 83.1679 167.884 83.4712V83.6412C167.883 83.9444 167.763 84.2351 167.548 84.4495C167.334 84.664 167.043 84.7846 166.74 84.7852H160.846V82.3272H166.74ZM166.74 80.7272H159.462C159.433 80.7272 159.405 80.7328 159.379 80.7438C159.353 80.7548 159.329 80.7709 159.309 80.7912C159.288 80.8114 159.273 80.8355 159.262 80.8619C159.251 80.8884 159.246 80.9167 159.246 80.9452V86.1752C159.246 86.2325 159.269 86.2874 159.309 86.3279C159.35 86.3684 159.405 86.3912 159.462 86.3912H166.74C167.101 86.3912 167.458 86.32 167.791 86.1817C168.125 86.0435 168.428 85.8408 168.682 85.5854C168.937 85.3299 169.139 85.0267 169.277 84.6931C169.414 84.3595 169.485 84.002 169.484 83.6412V83.4652C169.484 82.7374 169.195 82.0395 168.68 81.5249C168.166 81.0103 167.468 80.7212 166.74 80.7212V80.7272Z" fill="#3EC1F3"/>
<path d="M157.94 79.8652C151.98 79.8652 149.226 75.1152 149.226 75.1152L153.226 92.5433H162.642L166.642 75.1152C165.713 76.5797 164.427 77.7839 162.905 78.6148C161.383 79.4457 159.674 79.876 157.94 79.8652Z" fill="#3EC1F3"/>
<path d="M157.94 79.8652C159.676 79.878 161.387 79.4487 162.912 78.6177C164.436 77.7867 165.724 76.5814 166.654 75.1152H149.226C149.226 75.1152 151.98 79.8652 157.94 79.8652Z" fill="#30242A"/>
</svg>
