<svg width="226" height="182" viewBox="0 0 226 182" fill="none" xmlns="http://www.w3.org/2000/svg">
<path d="M173.279 32.9531H122.227C121.28 32.9542 120.372 33.3295 119.703 33.9965C119.034 34.6634 118.659 35.5676 118.659 36.5103V67.7321H176.845V36.5103C176.845 35.5681 176.469 34.6646 175.801 33.9978C175.132 33.331 174.225 32.9553 173.279 32.9531Z" fill="#F5EBDD"/>
<path d="M146.505 27.7945C146.831 27.7951 147.143 27.9241 147.373 28.1533C147.603 28.3826 147.733 28.6933 147.733 29.0175V48.6946C147.733 49.0188 147.603 49.3296 147.373 49.5588C147.143 49.788 146.831 49.9171 146.505 49.9176H126.535C126.209 49.9165 125.898 49.7872 125.668 49.5581C125.438 49.3289 125.309 49.0185 125.308 48.6946V29.0154C125.31 28.692 125.439 28.382 125.669 28.1533C125.898 27.9246 126.21 27.7956 126.535 27.7945H146.505ZM146.505 26.9668H126.535C126.264 26.9665 125.996 27.0194 125.746 27.1223C125.496 27.2252 125.268 27.3763 125.077 27.5667C124.885 27.7572 124.734 27.9833 124.63 28.2322C124.526 28.4812 124.473 28.748 124.473 29.0175V48.6946C124.474 49.2387 124.691 49.7603 125.078 50.1448C125.464 50.5293 125.988 50.7453 126.535 50.7453H146.505C147.051 50.7453 147.575 50.5293 147.961 50.1447C148.347 49.7601 148.564 49.2385 148.564 48.6946V29.0154C148.564 28.4719 148.347 27.9508 147.961 27.5667C147.574 27.1826 147.051 26.9668 146.505 26.9668Z" fill="#FFC5BE"/>
<path d="M178.111 50.6688C178.436 50.6693 178.749 50.7984 178.979 51.0276C179.209 51.2568 179.338 51.5676 179.339 51.8918V71.571C179.338 71.8952 179.209 72.2059 178.979 72.4351C178.749 72.6644 178.436 72.7934 178.111 72.794H158.242C157.917 72.7934 157.605 72.6644 157.374 72.4351C157.144 72.2059 157.015 71.8952 157.014 71.571V51.8918C157.015 51.5676 157.144 51.2568 157.374 51.0276C157.605 50.7984 157.917 50.6693 158.242 50.6688H178.111ZM178.111 49.8411H158.242C157.696 49.8411 157.172 50.0571 156.786 50.4417C156.4 50.8263 156.183 51.3479 156.183 51.8918V71.571C156.183 72.1149 156.4 72.6365 156.786 73.021C157.172 73.4056 157.696 73.6217 158.242 73.6217H178.111C178.657 73.6217 179.181 73.4056 179.567 73.021C179.953 72.6365 180.17 72.1149 180.17 71.571V51.8918C180.17 51.3479 179.953 50.8263 179.567 50.4417C179.181 50.0571 178.657 49.8411 178.111 49.8411Z" fill="#FFC5BE"/>
<path d="M127.231 55.5628C127.556 55.5634 127.868 55.6924 128.099 55.9216C128.329 56.1509 128.458 56.4616 128.459 56.7858V69.4086C128.458 69.7328 128.329 70.0436 128.099 70.2728C127.868 70.502 127.556 70.6311 127.231 70.6316H115.938C115.613 70.6311 115.301 70.502 115.07 70.2728C114.84 70.0436 114.711 69.7328 114.71 69.4086V56.7858C114.711 56.4616 114.84 56.1509 115.07 55.9216C115.301 55.6924 115.613 55.5634 115.938 55.5628H127.231ZM127.231 54.7351H115.938C115.668 54.7351 115.4 54.7882 115.15 54.8912C114.9 54.9943 114.673 55.1453 114.482 55.3357C114.291 55.5262 114.139 55.7522 114.036 56.001C113.932 56.2498 113.879 56.5165 113.879 56.7858V69.4086C113.879 69.9525 114.096 70.4741 114.482 70.8587C114.868 71.2433 115.392 71.4593 115.938 71.4593H127.231C127.777 71.4593 128.301 71.2433 128.687 70.8587C129.073 70.4741 129.29 69.9525 129.29 69.4086V56.7858C129.29 56.5165 129.237 56.2498 129.133 56.001C129.03 55.7522 128.878 55.5262 128.687 55.3357C128.496 55.1453 128.269 54.9943 128.019 54.8912C127.769 54.7882 127.501 54.7351 127.231 54.7351Z" fill="#FFC5BE"/>
<path d="M145.547 29.7563H127.484V42.3461H145.547V29.7563Z" fill="#FFC5BE"/>
<path d="M156.519 38.0994H138.991C136.405 38.0994 134.309 40.1867 134.309 42.7615V57.8179C134.309 60.3927 136.405 62.4801 138.991 62.4801H156.519C159.105 62.4801 161.201 60.3927 161.201 57.8179V42.7615C161.201 40.1867 159.105 38.0994 156.519 38.0994Z" fill="#A9B8FF"/>
<path d="M130.882 45.0236C130.701 44.8436 130.455 44.7424 130.199 44.7424C129.943 44.7424 129.698 44.8436 129.517 45.0236L129.309 45.2306L129.101 45.0236C128.918 44.856 128.676 44.7653 128.427 44.7707C128.178 44.776 127.941 44.8769 127.765 45.0523C127.588 45.2277 127.487 45.464 127.482 45.712C127.476 45.9599 127.567 46.2004 127.736 46.3832L127.944 46.5901L129.309 47.9496L130.672 46.5901L130.88 46.3832C131.061 46.203 131.163 45.9587 131.163 45.7038C131.164 45.4489 131.063 45.2043 130.882 45.0236Z" fill="#FFC5BE"/>
<path d="M176.135 26.9668H119.373C117.587 26.9662 115.874 27.6719 114.61 28.9287C113.346 30.1855 112.634 31.8906 112.632 33.6693V73.005C112.632 74.7848 113.342 76.4917 114.606 77.7503C115.87 79.0088 117.584 79.7158 119.371 79.7158H176.133C177.92 79.7158 179.634 79.0088 180.898 77.7503C182.162 76.4917 182.872 74.7848 182.872 73.005V33.6693C182.87 31.8913 182.159 30.1868 180.896 28.9301C179.633 27.6735 177.92 26.9673 176.135 26.9668ZM176.845 67.7324H118.659V36.5105C118.659 36.0434 118.751 35.5808 118.93 35.1492C119.11 34.7177 119.373 34.3255 119.705 33.9952C120.037 33.6649 120.43 33.4029 120.864 33.2241C121.297 33.0453 121.762 32.9533 122.231 32.9533H173.283C174.231 32.9533 175.14 33.328 175.81 33.9951C176.48 34.6621 176.857 35.5669 176.858 36.5105L176.845 67.7324Z" fill="#5569D3"/>
<path d="M142.334 71.1221H153.172C154.236 71.1221 155.258 71.5433 156.011 72.293C156.764 73.0428 157.186 74.0597 157.186 75.12V87.3104C157.186 88.3703 156.763 89.3867 156.01 90.136C155.257 90.8853 154.236 91.3062 153.172 91.3062H132.702C132.33 91.3062 131.972 91.1588 131.709 90.8965C131.446 90.6342 131.298 90.2784 131.298 89.9074C131.298 89.5364 131.446 89.1805 131.709 88.9182C131.972 88.6559 132.33 88.5085 132.702 88.5085H138.313V75.12C138.313 74.5945 138.417 74.0741 138.619 73.5886C138.822 73.1032 139.118 72.6622 139.491 72.2908C139.865 71.9195 140.308 71.6252 140.796 71.4246C141.284 71.2241 141.807 71.1213 142.334 71.1221Z" fill="#5569D3"/>
<path d="M147.754 76.2185C149.139 76.2185 150.262 75.1002 150.262 73.7208C150.262 72.3414 149.139 71.2231 147.754 71.2231C146.369 71.2231 145.246 72.3414 145.246 73.7208C145.246 75.1002 146.369 76.2185 147.754 76.2185Z" fill="#A9B8FF"/>
<path d="M147.754 30.7538C148.197 30.7538 148.556 30.3962 148.556 29.955C148.556 29.5139 148.197 29.1562 147.754 29.1562C147.311 29.1562 146.952 29.5139 146.952 29.955C146.952 30.3962 147.311 30.7538 147.754 30.7538Z" fill="#2C2C2C"/>
<path d="M157.187 80.1152H138.276" stroke="#2C2C2C" stroke-width="1.76618" stroke-miterlimit="10"/>
<path d="M89.6961 91.3062H187.747C188.849 91.3062 189.906 91.7422 190.686 92.5183C191.465 93.2945 191.903 94.3472 191.903 95.4448V180.833H85.5399V95.4448C85.5399 94.3472 85.9778 93.2945 86.7572 92.5183C87.5367 91.7422 88.5938 91.3062 89.6961 91.3062Z" fill="#FFC5BE"/>
<path d="M153.244 101.127V115.658H95.4026V101.127H153.244ZM154.076 100.299H94.5714V116.486H154.076V100.299Z" fill="#A15842"/>
<path d="M124.323 110.89C125.709 110.89 126.832 109.772 126.832 108.392C126.832 107.013 125.709 105.895 124.323 105.895C122.938 105.895 121.815 107.013 121.815 108.392C121.815 109.772 122.938 110.89 124.323 110.89Z" fill="#A15842"/>
<path d="M153.244 126.306V171.014H95.4026V126.306H153.244ZM154.076 125.479H94.5714V171.842H154.076V125.479Z" fill="#A15842"/>
<path d="M115.693 151.157C117.078 151.157 118.201 150.039 118.201 148.659C118.201 147.28 117.078 146.162 115.693 146.162C114.308 146.162 113.185 147.28 113.185 148.659C113.185 150.039 114.308 151.157 115.693 151.157Z" fill="#A15842"/>
<path d="M132.954 151.157C134.339 151.157 135.462 150.039 135.462 148.659C135.462 147.28 134.339 146.162 132.954 146.162C131.569 146.162 130.446 147.28 130.446 148.659C130.446 150.039 131.569 151.157 132.954 151.157Z" fill="#A15842"/>
<path d="M124.473 125.878V171.442" stroke="#A15842" stroke-width="1.76618" stroke-miterlimit="10"/>
<path d="M182.874 100.299H163.107V171.842H182.874V100.299Z" fill="#A15842"/>
<path d="M182.874 136.069H163.005" stroke="#FFC5BE" stroke-width="1.76618" stroke-miterlimit="10"/>
<path d="M11.78 91.3062H81.5355C82.6378 91.3062 83.6949 91.7422 84.4744 92.5183C85.2538 93.2945 85.6917 94.3472 85.6917 95.4448V180.833H7.62378V95.4448C7.62378 94.3472 8.06166 93.2945 8.8411 92.5183C9.62054 91.7422 10.6777 91.3062 11.78 91.3062Z" fill="#A9B8FF"/>
<path d="M73.7509 116.486H19.5645V171.842H73.7509V116.486Z" fill="#2C2C2C"/>
<path d="M73.7509 171.842H19.5645L0.5 133.073H54.6843L73.7509 171.842Z" fill="#5569D3"/>
<path d="M38.4295 91.306H19.5645L21.572 87.1094H36.422L38.4295 91.306Z" fill="#2C2C2C"/>
<path d="M73.7509 91.306H54.8859L56.8934 87.1094H71.7435L73.7509 91.306Z" fill="#2C2C2C"/>
<path d="M23.2781 107.693C25.329 107.693 26.9916 106.038 26.9916 103.995C26.9916 101.953 25.329 100.297 23.2781 100.297C21.2271 100.297 19.5645 101.953 19.5645 103.995C19.5645 106.038 21.2271 107.693 23.2781 107.693Z" fill="#F5EBDD"/>
<path d="M19.1635 103.995H22.1746" stroke="#2C2C2C" stroke-width="1.76618" stroke-miterlimit="10" stroke-linecap="round"/>
<path d="M38.8638 107.693C40.9147 107.693 42.5773 106.038 42.5773 103.995C42.5773 101.953 40.9147 100.297 38.8638 100.297C36.8128 100.297 35.1502 101.953 35.1502 103.995C35.1502 106.038 36.8128 107.693 38.8638 107.693Z" fill="#F5EBDD"/>
<path d="M38.8637 99.8999V102.896" stroke="#2C2C2C" stroke-width="1.76618" stroke-miterlimit="10" stroke-linecap="round"/>
<path d="M54.4516 107.693C56.5025 107.693 58.1652 106.038 58.1652 103.995C58.1652 101.953 56.5025 100.297 54.4516 100.297C52.4007 100.297 50.738 101.953 50.738 103.995C50.738 106.038 52.4007 107.693 54.4516 107.693Z" fill="#F5EBDD"/>
<path d="M54.4516 99.8999V102.896" stroke="#2C2C2C" stroke-width="1.76618" stroke-miterlimit="10" stroke-linecap="round"/>
<path d="M70.0373 107.693C72.0882 107.693 73.7509 106.038 73.7509 103.995C73.7509 101.953 72.0882 100.297 70.0373 100.297C67.9864 100.297 66.3237 101.953 66.3237 103.995C66.3237 106.038 67.9864 107.693 70.0373 107.693Z" fill="#F5EBDD"/>
<path d="M70.0373 99.8999V102.896" stroke="#2C2C2C" stroke-width="1.76618" stroke-miterlimit="10" stroke-linecap="round"/>
<path d="M46.7065 140.467H18.4111C17.6904 140.467 17.1061 141.048 17.1061 141.765C17.1061 142.482 17.6904 143.064 18.4111 143.064H46.7065C47.4273 143.064 48.0116 142.482 48.0116 141.765C48.0116 141.048 47.4273 140.467 46.7065 140.467Z" fill="#2C2C2C"/>
<path d="M86.1426 11.5713C82.4415 13.9406 84.9394 18.9649 88.3495 19.1636C89.6578 22.2046 89.8013 25.6177 88.7527 28.7569H93.9479L93.9666 26.5779C98.7171 27.7554 100.467 25.8971 101.387 24.2189C102.427 22.3152 102.119 20.5335 101.764 18.2179C101.764 18.2179 103.461 17.5454 103.333 16.5252C103.229 15.6975 101.419 15.3933 101.419 15.3933C101.392 15.0291 101.373 14.6525 101.363 14.2614C101.344 13.2233 101.268 12.187 101.134 11.1574C97.144 13.2743 92.1753 14.3731 92.1753 14.3731C92.1753 14.3731 88.9522 9.77095 86.1426 11.5713Z" fill="#A15842"/>
<path d="M147.987 86.8799C150.163 87.7076 151.767 86.3108 151.366 85.51C151.104 84.9885 143.575 79.3641 135.805 73.6487L126.905 84.7009C128.947 85.481 130.294 85.9218 130.294 85.9218C130.294 85.9218 132.501 89.3176 135.714 91.3165C135.714 91.3165 139.124 99.5089 140.93 99.3103C142.143 99.1758 140.529 94.5136 140.127 92.5147C140.127 92.5147 144.142 99.3103 146.75 99.3103C147.353 99.3103 147.908 98.8964 147.954 97.9114C147.954 97.9114 149.277 98.2736 149.762 97.3113C149.969 96.912 149.969 96.3119 149.969 95.9125C149.969 95.9125 151.008 96.2001 151.576 95.5131C152.532 94.3626 150.437 90.5592 147.987 86.8799Z" fill="#A15842"/>
<path d="M64.2686 51.7389C64.1633 51.6479 64.0448 51.5485 63.9132 51.4409C64.0296 51.5402 64.146 51.6396 64.2686 51.7389Z" fill="#FF8A00"/>
<path d="M118.659 61.1313C118.659 61.1313 109.399 39.9105 105.614 34.9524C101.797 29.955 93.9292 30.2281 93.9292 30.2281L93.9417 28.7568H88.7464C88.7464 28.7568 94.3573 39.9477 83.7278 44.7444C79.715 57.7335 67.2713 54.3357 64.2622 51.7387C63.057 53.9363 57.0367 63.7283 60.2474 71.122C63.0569 76.9161 73.0921 75.7179 73.0921 75.7179L75.0995 71.5214H100.592H92.4641L98.9873 57.3424L101.203 62.7288C101.203 62.7288 104.018 69.9156 110.032 75.5193C114.328 79.5213 122.355 82.9502 126.913 84.6905L135.813 73.6486C127.37 67.4427 118.659 61.1313 118.659 61.1313Z" fill="#FF8A00"/>
<path d="M73.8194 62.4514L69.6861 64.3283" stroke="#2C2C2C" stroke-width="1.76618" stroke-linecap="round" stroke-linejoin="round"/>
<path d="M75.3053 72.3223L72.61 54.2468" stroke="#2C2C2C" stroke-width="1.76618" stroke-linecap="round" stroke-linejoin="round"/>
<path d="M92.4641 71.5129L100.592 71.5212L101.194 62.7287L98.9873 57.334L92.4641 71.5129Z" fill="#FFAA2D"/>
<path d="M96.8032 2.64404C94.7812 1.51833 91.608 0.398831 88.0233 1.51006C81.4502 3.54833 80.1888 9.2162 79.3202 12.9699C78.7175 15.5669 78.1149 18.5571 78.1149 18.5571C78.1149 18.5571 66.8765 19.3559 68.0818 30.7475C62.1073 32.107 55.846 40.1132 60.6485 47.7635C61.539 49.1476 62.6405 50.3854 63.9132 51.4324C64.0448 51.54 64.1632 51.6393 64.2685 51.7304C67.2776 54.3274 79.7212 57.7314 83.7341 44.7361C94.3718 39.9394 88.7527 28.7485 88.7527 28.7485C89.8013 25.6093 89.6578 22.1962 88.3495 19.1551C84.9394 18.9482 82.4415 13.9322 86.1426 11.5628C88.9522 9.7625 92.1691 14.3791 92.1691 14.3791C92.1691 14.3791 97.1378 13.2803 101.128 11.1634C101.128 11.1634 101.128 11.1469 101.128 11.1407C101.128 11.1345 104.324 9.60523 105.203 6.76613C106.813 1.57834 100.191 -1.21937 96.8032 2.64404Z" fill="#FFAA2D"/>
<path d="M100.885 63.037C99.7458 60.3738 97.7966 55.6454 96.5788 51.7385" stroke="#2C2C2C" stroke-width="1.76618" stroke-linecap="round" stroke-linejoin="round"/>
<path d="M139.839 92.7402L139.124 91.1055" stroke="#2C2C2C" stroke-width="1.76618" stroke-linecap="round" stroke-linejoin="round"/>
<path d="M147.96 97.7373C146.655 96.0425 143.945 92.2453 141.726 89.3069" stroke="#2C2C2C" stroke-width="1.76618" stroke-linecap="round" stroke-linejoin="round"/>
<path d="M150.246 95.668C148.65 93.3318 146.204 89.667 144.543 87.3101" stroke="#2C2C2C" stroke-width="1.76618" stroke-linecap="round" stroke-linejoin="round"/>
<path d="M148.461 86.7887C147.71 85.6423 146.869 84.3945 145.967 83.1301" stroke="#2C2C2C" stroke-width="1.76618" stroke-linecap="round" stroke-linejoin="round"/>
<path d="M97.3519 2.49268C97.8132 2.81756 98.3286 3.19624 98.7858 3.577" stroke="#CA7358" stroke-width="1.76618" stroke-linecap="round" stroke-linejoin="round"/>
<path d="M77.6079 18.7891L77.1112 21.1626" stroke="#CA7358" stroke-width="1.76618" stroke-linecap="round" stroke-linejoin="round"/>
<path d="M67.6725 31.1221C67.9963 32.7601 68.6106 34.3277 69.4867 35.7511" stroke="#CA7358" stroke-width="1.76618" stroke-linecap="round" stroke-linejoin="round"/>
<path d="M93.8503 26.9667C93.0527 26.689 92.2831 26.3371 91.5519 25.9155" stroke="#2C2C2C" stroke-width="1.76618" stroke-linecap="round" stroke-linejoin="round"/>
<path d="M108.619 112.457C108.31 113.067 107.837 113.58 107.252 113.938C106.667 114.296 105.994 114.486 105.308 114.486C104.621 114.486 103.948 114.296 103.364 113.938C102.779 113.58 102.306 113.067 101.996 112.457C101.687 113.067 101.214 113.58 100.629 113.938C100.045 114.296 99.3715 114.486 98.685 114.486C97.9985 114.486 97.3255 114.296 96.7409 113.938C96.1562 113.58 95.6829 113.067 95.3736 112.457C95.0646 113.067 94.5915 113.58 94.007 113.938C93.4225 114.297 92.7496 114.486 92.0632 114.486C91.3768 114.486 90.7038 114.297 90.1193 113.938C89.5348 113.58 89.0618 113.067 88.7527 112.457C88.6122 112.73 88.4384 112.985 88.2353 113.216C93.7693 128.076 90.357 135.271 88.7527 149.659C88.4281 152.711 88.335 155.784 88.4743 158.851H107.674C108.372 152.792 109.808 144.608 110.629 134.46C108.766 134.335 107.023 133.498 105.767 132.122C104.51 130.747 103.837 128.941 103.889 127.082C103.94 125.223 104.713 123.457 106.044 122.152C107.374 120.848 109.161 120.108 111.028 120.086C111.096 120.086 111.165 120.086 111.236 120.086C111.236 118.149 111.175 116.248 111.078 114.383C110.552 114.259 110.06 114.023 109.635 113.69C109.21 113.357 108.864 112.936 108.619 112.457Z" fill="#F5EBDD"/>
<path d="M82.1298 112.457C81.8204 113.067 81.3471 113.58 80.7624 113.938C80.1778 114.296 79.5048 114.486 78.8183 114.486C78.1318 114.486 77.4588 114.296 76.8742 113.938C76.2895 113.58 75.8162 113.067 75.5069 112.457C75.1975 113.067 74.7242 113.58 74.1395 113.938C73.5549 114.296 72.8819 114.486 72.1954 114.486C71.5089 114.486 70.8359 114.296 70.2513 113.938C69.6666 113.58 69.1933 113.067 68.884 112.457C68.6331 112.952 68.2732 113.385 67.8312 113.723C67.3891 114.061 66.8763 114.295 66.3307 114.409C65.7851 114.522 65.2209 114.511 64.6801 114.378C64.1392 114.244 63.6355 113.99 63.2066 113.636C61.3363 119.124 59.1813 120.893 49.6179 135.469C47.1086 139.323 44.9472 143.391 43.1592 147.625L60.4074 156.355C64.0046 150.387 69.4762 143.132 74.0397 135.869C72.4395 134.938 71.2599 133.43 70.745 131.657C70.2302 129.884 70.4194 127.981 71.2736 126.343C72.1278 124.706 73.5816 123.457 75.3342 122.857C77.0869 122.256 79.0042 122.35 80.6896 123.118C82.2357 119.457 83.3475 116.252 84.0437 114.22C83.2134 113.88 82.5338 113.254 82.1298 112.457Z" fill="#F5EBDD"/>
<path d="M85.8931 114.458C86.0116 114.443 86.1301 114.425 86.2464 114.4H86.2714C86.3836 114.373 86.4937 114.342 86.6018 114.307L86.6558 114.292C86.7701 114.251 86.8844 114.207 86.9945 114.155H87.0091C87.1192 114.104 87.2169 114.048 87.3312 113.986L87.3499 113.973C87.458 113.91 87.5628 113.841 87.6637 113.766C87.8695 113.612 88.0582 113.435 88.2268 113.241C88.4299 113.01 88.6037 112.755 88.7443 112.481C89.0533 113.092 89.5264 113.605 90.1109 113.963C90.6954 114.321 91.3683 114.511 92.0547 114.511C92.7411 114.511 93.414 114.321 93.9985 113.963C94.583 113.605 95.0561 113.092 95.3651 112.481C95.6744 113.092 96.1478 113.604 96.7324 113.963C97.3171 114.321 97.9901 114.511 98.6766 114.511C99.363 114.511 100.036 114.321 100.621 113.963C101.205 113.604 101.679 113.092 101.988 112.481C102.297 113.092 102.771 113.604 103.355 113.963C103.94 114.321 104.613 114.511 105.299 114.511C105.986 114.511 106.659 114.321 107.244 113.963C107.828 113.604 108.302 113.092 108.611 112.481C108.855 112.961 109.201 113.382 109.624 113.715C110.048 114.048 110.54 114.285 111.065 114.41C110.76 108.797 110.058 103.213 108.964 97.6982C107.464 98.1097 105.896 98.2154 104.354 98.0088C102.812 97.8022 101.328 97.2876 99.991 96.4959C94.2325 93.2202 92.7903 77.1913 92.4579 71.5151H75.1057C65.0706 80.5084 65.2722 107.287 63.3645 113.158C63.3125 113.319 63.2585 113.475 63.2065 113.63C63.6355 113.984 64.1391 114.238 64.68 114.371C65.2209 114.505 65.7851 114.516 66.3307 114.402C66.8762 114.289 67.3891 114.055 67.8311 113.717C68.2732 113.379 68.633 112.946 68.8839 112.45C69.1932 113.061 69.6666 113.573 70.2512 113.932C70.8359 114.29 71.5089 114.48 72.1954 114.48C72.8818 114.48 73.5549 114.29 74.1395 113.932C74.7241 113.573 75.1975 113.061 75.5068 112.45C75.8161 113.061 76.2895 113.573 76.8741 113.932C77.4588 114.29 78.1318 114.48 78.8183 114.48C79.5047 114.48 80.1778 114.29 80.7624 113.932C81.347 113.573 81.8204 113.061 82.1297 112.45C82.5333 113.244 83.2095 113.866 84.0353 114.205C84.2512 114.295 84.4753 114.365 84.7045 114.412H84.7377C84.8333 114.431 84.9289 114.445 85.0266 114.456H85.1055C85.2157 114.456 85.3279 114.472 85.4401 114.472C85.5523 114.472 85.6874 114.472 85.81 114.453L85.8931 114.458Z" fill="#2C2C2C"/>
<path d="M91.5623 178.234H108.019C108.019 178.234 108.609 174.36 110.693 171.832C109.066 170.658 107.744 169.202 107.416 166.843C107.136 164.829 107.296 162.156 107.674 158.849H88.4742C88.7789 165.405 89.8146 171.906 91.5623 178.234Z" fill="#FF8A00"/>
<path d="M37.5774 166.439L37.0599 166.182C37.0081 166.156 36.9547 166.134 36.8999 166.116L52.3028 173.954C52.3028 173.954 54.5887 170.834 57.5333 169.559C57.1428 168.755 56.8437 167.909 56.6418 167.039C56.0766 164.556 57.7183 160.806 60.4053 156.349L43.1571 147.618C38.7453 157.996 37.5774 166.439 37.5774 166.439Z" fill="#FF8A00"/>
<path d="M91.5623 178.234H91.0594C90.8838 178.227 90.7085 178.255 90.5442 178.318C90.3799 178.38 90.2299 178.474 90.1031 178.595C89.9764 178.717 89.8755 178.862 89.8067 179.023C89.7378 179.184 89.7023 179.357 89.7023 179.532C89.7023 179.708 89.7378 179.881 89.8067 180.042C89.8755 180.203 89.9764 180.348 90.1031 180.47C90.2299 180.591 90.3799 180.685 90.5442 180.747C90.7085 180.81 90.8838 180.838 91.0594 180.831H118.659C118.659 175.451 114.033 174.238 110.697 171.832C108.619 174.36 108.023 178.234 108.023 178.234H91.5623Z" fill="#2C2C2C"/>
<path d="M52.3028 173.961L36.8999 166.122C36.5974 166.017 36.2661 166.031 35.9734 166.161C35.6807 166.29 35.4487 166.526 35.3245 166.82C35.2003 167.114 35.1933 167.444 35.3049 167.743C35.4165 168.042 35.6384 168.288 35.9253 168.43L60.4469 180.833C62.8013 175.977 59.4348 173.562 57.525 169.566C54.5887 170.84 52.3028 173.961 52.3028 173.961Z" fill="#2C2C2C"/>
<path d="M103.804 127.277C103.804 129.116 104.511 130.885 105.781 132.221C107.05 133.557 108.785 134.358 110.629 134.46C110.957 130.381 111.188 125.975 111.229 121.282C111.229 120.883 111.229 120.485 111.229 120.088C111.163 120.088 111.094 120.088 111.022 120.088C109.108 120.09 107.273 120.848 105.92 122.196C104.567 123.544 103.806 125.371 103.804 127.277Z" fill="#FFAA2D"/>
<path d="M70.4882 129.675C70.4879 130.926 70.8151 132.154 71.4376 133.24C72.0601 134.326 72.9563 135.231 74.0376 135.867C74.5384 135.068 75.0309 134.269 75.5068 133.472C77.4667 130.142 79.1955 126.681 80.6813 123.116C79.5814 122.624 78.3755 122.415 77.1735 122.506C75.9715 122.598 74.8115 122.987 73.7994 123.639C72.7872 124.291 71.955 125.185 71.3785 126.239C70.8019 127.294 70.4995 128.475 70.4986 129.675H70.4882Z" fill="#FFAA2D"/>
<path d="M99.9911 96.4959C101.332 97.2835 102.818 97.7932 104.362 97.9945C105.905 98.1958 107.473 98.0844 108.973 97.6671C105.855 81.8431 100.592 71.5151 100.592 71.5151H92.4579C92.7904 77.1975 94.2326 93.2264 99.9911 96.4959Z" fill="#FFAA2D"/>
<path d="M99.9952 20.1382C99.6461 20.3141 98.393 20.3658 97.9753 19.3726" stroke="#2C2C2C" stroke-width="1.76618" stroke-linecap="round" stroke-linejoin="round"/>
<path d="M99.1868 15.7678C99.5196 15.7678 99.7894 15.4992 99.7894 15.1677C99.7894 14.8363 99.5196 14.5676 99.1868 14.5676C98.8539 14.5676 98.5841 14.8363 98.5841 15.1677C98.5841 15.4992 98.8539 15.7678 99.1868 15.7678Z" fill="#2C2C2C"/>
<path d="M87.749 14.967L89.7543 16.3659" stroke="#2C2C2C" stroke-width="1.76618" stroke-linecap="round" stroke-linejoin="round"/>
<path d="M74.9042 71.5212H100.592" stroke="#2C2C2C" stroke-width="1.76618" stroke-miterlimit="10" stroke-linecap="round"/>
<path d="M82.2773 72.1216C82.2773 72.1216 86.9779 78.8138 84.771 79.5359C82.7303 80.2023 82.3292 75.2049 82.2773 72.1216Z" stroke="#A15842" stroke-width="1.76618" stroke-linecap="round" stroke-linejoin="round"/>
<path d="M82.1319 72.1216C82.1319 72.1216 79.7213 78.1226 77.9154 77.1169C76.7392 76.4671 79.7213 73.5266 82.1319 72.1216Z" stroke="#A15842" stroke-width="1.76618" stroke-linecap="round" stroke-linejoin="round"/>
<path d="M45.3038 70.5217H12.9935C12.2728 70.5217 11.6885 71.1031 11.6885 71.8202C11.6885 72.5374 12.2728 73.1187 12.9935 73.1187H45.3038C46.0246 73.1187 46.6088 72.5374 46.6088 71.8202C46.6088 71.1031 46.0246 70.5217 45.3038 70.5217Z" fill="#2C2C2C"/>
<path d="M29.1486 71.3227C19.7161 71.3227 15.5018 64.5271 15.5018 64.5271V81.3051C15.5045 82.841 16.1184 84.3131 17.2091 85.3991C18.2997 86.4852 19.7781 87.0965 21.3204 87.0992H36.954C38.4981 87.0992 39.9792 86.4891 41.0721 85.4028C42.1649 84.3165 42.7803 82.8428 42.783 81.3051V64.5271C42.783 64.5271 38.579 71.3227 29.1486 71.3227Z" fill="#FFC5BE"/>
<path d="M29.1486 71.3227C38.579 71.3227 42.7934 64.5271 42.7934 64.5271H15.5018C15.5018 64.5271 19.7161 71.3227 29.1486 71.3227Z" fill="#A15842"/>
<path d="M29.4478 64.5271C30.8331 64.5271 31.9561 63.4088 31.9561 62.0294C31.9561 60.65 30.8331 59.5317 29.4478 59.5317C28.0626 59.5317 26.9396 60.65 26.9396 62.0294C26.9396 63.4088 28.0626 64.5271 29.4478 64.5271Z" fill="#2C2C2C"/>
<path d="M29.6495 48.9407C31.7004 48.9407 33.363 47.2851 33.363 45.2428C33.363 43.2005 31.7004 41.5449 29.6495 41.5449C27.5985 41.5449 25.9359 43.2005 25.9359 45.2428C25.9359 47.2851 27.5985 48.9407 29.6495 48.9407Z" fill="#F5EBDD"/>
<path d="M29.7139 37.8514C32.7347 37.8514 35.1835 35.4129 35.1835 32.4049C35.1835 29.397 32.7347 26.9585 29.7139 26.9585C26.6932 26.9585 24.2444 29.397 24.2444 32.4049C24.2444 35.4129 26.6932 37.8514 29.7139 37.8514Z" fill="#F5EBDD"/>
<path d="M212.173 131.881C212.173 131.881 210.263 136.161 205.251 136.161C200.239 136.161 198.331 131.881 198.331 131.881C198.331 131.881 184.25 163.968 198.092 180.841H212.414C226.256 163.956 212.173 131.881 212.173 131.881Z" fill="#A9B8FF"/>
<path d="M205.253 136.152C210.265 136.152 212.175 131.873 212.175 131.873H198.331C198.331 131.873 200.241 136.152 205.253 136.152Z" fill="#2C2C2C"/>
<path d="M218.199 160.438C210.409 160.576 201.196 163.376 194.093 173.268" stroke="#F5EBDD" stroke-width="1.76618" stroke-linecap="round" stroke-linejoin="round"/>
<path d="M192.847 152.574C198.075 151.304 207.979 150.091 217.576 152.367" stroke="#F5EBDD" stroke-width="1.76618" stroke-linecap="round" stroke-linejoin="round"/>
<path d="M217.528 168.676C214.043 168.715 207.601 172.647 208.312 180.573" stroke="#F5EBDD" stroke-width="1.76618" stroke-linecap="round" stroke-linejoin="round"/>
<path d="M209.567 100.506L205.735 133.874" stroke="#2C2C2C" stroke-width="1.76618" stroke-miterlimit="10"/>
<path d="M211.421 113.909L206.604 133.601" stroke="#2C2C2C" stroke-width="1.76618" stroke-miterlimit="10"/>
<path d="M201.37 122.979C201.808 121.96 198.702 119.662 194.435 117.845C190.167 116.028 186.353 115.381 185.916 116.399C185.479 117.417 188.584 119.716 192.851 121.533C197.119 123.349 200.933 123.997 201.37 122.979Z" fill="#2C2C2C"/>
<path d="M217.347 124.742C221.85 123.051 225.194 120.874 224.817 119.878C224.44 118.883 220.485 119.446 215.982 121.137C211.479 122.827 208.134 125.005 208.511 126.001C208.888 126.996 212.844 126.433 217.347 124.742Z" fill="#2C2C2C"/>
<path d="M207.682 117.719C208.168 117.052 206.788 115.231 204.6 113.651C202.411 112.071 200.243 111.331 199.758 111.999C199.272 112.666 200.652 114.487 202.841 116.067C205.029 117.647 207.197 118.386 207.682 117.719Z" fill="#2C2C2C"/>
<path d="M195.536 105.961L204.949 133.872" stroke="#2C2C2C" stroke-width="1.76618" stroke-miterlimit="10"/>
<path d="M207.653 107.821C208.025 107.017 208.585 106.313 209.287 105.77C209.989 105.227 210.812 104.859 211.687 104.699C212.562 104.539 213.462 104.591 214.312 104.851C215.162 105.11 215.937 105.57 216.572 106.19C217.206 106.81 217.681 107.574 217.957 108.416C218.233 109.257 218.301 110.153 218.156 111.026C218.012 111.9 217.658 112.726 217.125 113.435C216.592 114.144 215.896 114.715 215.095 115.099C214.615 113.337 213.673 111.734 212.365 110.455C211.057 109.176 209.431 108.267 207.653 107.821Z" fill="#FF8A00"/>
<path d="M210.552 110.942C211.3 108.553 212.895 106.516 215.039 105.21" stroke="#F5EBDD" stroke-width="1.76618" stroke-miterlimit="10" stroke-linecap="round"/>
<path d="M211.477 111.676C213.013 109.683 215.232 108.322 217.711 107.852" stroke="#F5EBDD" stroke-width="1.76618" stroke-miterlimit="10" stroke-linecap="round"/>
<path d="M215.095 115.099C214.067 115.592 212.911 115.758 211.786 115.573C210.66 115.388 209.619 114.861 208.805 114.065C207.991 113.269 207.443 112.242 207.237 111.125C207.031 110.007 207.176 108.853 207.653 107.821C209.431 108.267 211.057 109.176 212.365 110.455C213.673 111.734 214.615 113.337 215.095 115.099Z" fill="#FF8A00"/>
<path d="M199.145 99.8298C198.688 99.0699 198.053 98.431 197.295 97.9671C196.537 97.5031 195.677 97.2278 194.79 97.1643C193.902 97.1009 193.012 97.2511 192.195 97.6025C191.378 97.9538 190.658 98.4959 190.096 99.1828C189.534 99.8697 189.146 100.681 188.966 101.549C188.785 102.417 188.817 103.315 189.059 104.168C189.3 105.02 189.745 105.803 190.354 106.448C190.964 107.094 191.72 107.584 192.56 107.877C192.842 106.075 193.601 104.38 194.758 102.965C195.915 101.551 197.43 100.469 199.145 99.8298Z" fill="#FF8A00"/>
<path d="M196.61 103.252C195.602 100.96 193.791 99.1105 191.515 98.05" stroke="#F5EBDD" stroke-width="1.76618" stroke-miterlimit="10" stroke-linecap="round"/>
<path d="M195.775 104.082C194.023 102.272 191.663 101.167 189.146 100.978" stroke="#F5EBDD" stroke-width="1.76618" stroke-miterlimit="10" stroke-linecap="round"/>
<path d="M192.56 107.877C193.636 108.254 194.804 108.291 195.902 107.983C197.001 107.675 197.977 107.036 198.697 106.155C199.418 105.274 199.848 104.192 199.928 103.059C200.008 101.925 199.735 100.795 199.145 99.8213C197.428 100.461 195.914 101.545 194.756 102.96C193.599 104.376 192.841 106.073 192.56 107.877Z" fill="#FF8A00"/>
<path d="M214.874 97.3795C214.894 96.4944 214.7 95.6176 214.308 94.8229C213.916 94.0283 213.338 93.3392 212.623 92.8138C211.907 92.2884 211.075 91.9421 210.197 91.8042C209.319 91.6663 208.42 91.7408 207.577 92.0214C206.734 92.3019 205.971 92.7804 205.352 93.4164C204.734 94.0523 204.278 94.8271 204.023 95.6753C203.769 96.5236 203.723 97.4203 203.889 98.2899C204.056 99.1595 204.43 99.9765 204.981 100.672C206.188 99.2978 207.741 98.2687 209.479 97.6901C211.218 97.1115 213.08 97.0043 214.874 97.3795Z" fill="#FF8A00"/>
<path d="M210.897 98.9191C211.277 96.4446 210.741 93.9168 209.388 91.8069" stroke="#F5EBDD" stroke-width="1.76618" stroke-miterlimit="10" stroke-linecap="round"/>
<path d="M209.746 99.1735C209.24 96.7097 207.842 94.5171 205.818 93.0132" stroke="#F5EBDD" stroke-width="1.76618" stroke-miterlimit="10" stroke-linecap="round"/>
<path d="M204.985 100.672C205.692 101.563 206.657 102.215 207.75 102.539C208.843 102.864 210.01 102.845 211.091 102.485C212.172 102.125 213.116 101.441 213.793 100.528C214.47 99.614 214.848 98.5146 214.875 97.3794C213.081 97.005 211.22 97.1126 209.482 97.6912C207.744 98.2698 206.192 99.2985 204.985 100.672Z" fill="#FF8A00"/>
<path d="M199.353 100.036C197.637 100.676 196.123 101.758 194.966 103.172C193.809 104.586 193.05 106.281 192.768 108.084" stroke="#F5EBDD" stroke-width="1.76618" stroke-miterlimit="10" stroke-linecap="round"/>
<path d="M214.972 97.3794C213.189 96.957 211.326 97.0146 209.573 97.5462C207.82 98.0779 206.241 99.0645 204.997 100.405" stroke="#F5EBDD" stroke-width="1.76618" stroke-miterlimit="10" stroke-linecap="round"/>
<path d="M215.645 114.675C215.085 112.937 214.069 111.379 212.704 110.161C211.338 108.943 209.672 108.109 207.875 107.745" stroke="#F5EBDD" stroke-width="1.76618" stroke-miterlimit="10" stroke-linecap="round"/>
</svg>
