<svg width="343" height="426" viewBox="0 0 343 426" fill="none" xmlns="http://www.w3.org/2000/svg">
<path d="M313.128 0H151.576V174.273H313.128V0Z" fill="#798CF2"/>
<path d="M322.668 164.732H142.035V174.273H322.668V164.732Z" fill="#798CF2"/>
<path d="M161.116 9.54004H303.587V164.732H161.116V9.54004Z" fill="#F5EBDD"/>
<path d="M310.584 66.4658H154.12V76.0063H310.584V66.4658Z" fill="#798CF2"/>
<path d="M212.317 59.4696C211.681 55.6534 209.137 52.7912 207.546 52.4128C203.753 51.516 201.657 54.9569 201.657 54.9569C201.657 54.9569 198.655 52.2061 194.457 55.8951C194.457 55.8951 189.649 54.394 187.572 58.7127C187.572 58.7127 185.435 57.9049 183.062 62.3254C181.132 65.9285 179.564 71.3252 181.79 72.8199C182.744 73.4559 185.607 73.1379 186.561 70.9118C186.561 70.9118 187.419 72.5019 189.105 72.1839C192.603 71.5478 192.921 68.6857 192.921 68.6857C192.921 68.6857 193.217 69.7638 195.147 69.9578C198.276 70.2758 199.917 67.0956 199.917 67.0956C199.917 67.0956 201.103 67.8875 203.415 67.0956C206.503 66.0366 207.302 61.4158 207.302 61.4158L212.317 59.4696Z" fill="#A15842"/>
<path d="M332.732 111.299C338.055 105.752 337.194 96.2883 330.808 90.1604C324.422 84.0326 314.931 83.5614 309.608 89.1082C304.285 94.6549 305.147 104.119 311.532 110.247C317.918 116.375 327.41 116.846 332.732 111.299Z" fill="#30242A"/>
<path fill-rule="evenodd" clip-rule="evenodd" d="M317.696 81.436C318.21 81.5003 318.575 81.9688 318.51 82.4826C317.684 89.0933 314.382 94.1928 311.323 97.6195C309.791 99.3355 308.31 100.643 307.209 101.523C306.658 101.964 306.202 102.299 305.88 102.525C305.719 102.638 305.592 102.724 305.503 102.783C305.459 102.812 305.424 102.835 305.4 102.851L305.371 102.869L305.363 102.874L305.36 102.876L305.359 102.877C305.359 102.877 305.358 102.877 304.859 102.083L305.358 102.877C304.92 103.153 304.341 103.021 304.066 102.582C303.79 102.144 303.922 101.566 304.36 101.29C304.36 101.29 304.36 101.29 304.36 101.29C304.36 101.29 304.36 101.29 304.36 101.29L304.36 101.29L304.361 101.29L304.364 101.287L304.383 101.275C304.401 101.264 304.429 101.245 304.467 101.22C304.542 101.171 304.655 101.094 304.802 100.991C305.095 100.785 305.52 100.473 306.038 100.059C307.074 99.2304 308.475 97.9938 309.924 96.3707C312.827 93.119 315.886 88.3601 316.65 82.25C316.714 81.7363 317.183 81.3718 317.696 81.436Z" fill="black"/>
<path d="M271.169 91.6916C273.842 83.2547 270.068 74.5329 262.74 72.2109C255.411 69.889 247.303 74.8462 244.63 83.2831C241.957 91.7201 245.731 100.442 253.06 102.764C260.388 105.086 268.496 100.129 271.169 91.6916Z" fill="#30242A"/>
<path d="M314.435 86.8885C314.146 85.8803 331.656 96.6675 328.11 100.245C324.764 103.603 315.891 91.9831 314.435 86.8885Z" fill="#5569D3"/>
<path d="M314.575 87.5146C314.002 86.2839 329.099 70.8696 331.627 75.166C334.057 79.3002 315.147 88.7421 314.575 87.5146Z" fill="#5569D3"/>
<path d="M297.227 89.6803C293.093 88.4082 284.188 87.7722 279.1 87.1362C268.288 81.4119 271.15 66.4651 271.15 66.4651C271.786 66.1471 282.137 64.2676 280.709 56.1836C279.437 48.8692 270.829 48.8692 266.103 54.0338C266.103 54.0338 259.383 51.2003 257.475 41.9778C257.475 41.9778 251.802 42.6298 247.868 41.5898C247.012 45.3711 246.799 49.5148 246.026 53.7444C246.026 53.7444 241.892 54.0624 241.574 55.6525C241.256 57.3317 244.525 59.3161 244.525 59.3161C242.299 67.4001 242.617 74.7272 247.617 77.5957C252.069 80.1398 257.475 79.1857 257.475 79.1857L256.839 86.8181C251.27 87.0285 245.781 88.2124 240.62 90.3163C230.065 94.6159 205.32 110.987 205.32 110.987C207.228 104.627 215.055 84.5666 218.041 71.8714C219.313 66.4651 220.585 61.3768 217.405 61.0588C213.926 60.709 208.819 71.5533 208.819 71.5533L187.193 79.5038C174.444 96.7498 159.526 135.793 178.925 145.651C196.416 154.556 235.532 132.931 235.532 132.931L232.034 164.732H295.637L309.948 96.9947C309.948 96.9947 310.008 96.931 310.116 96.807C305.645 92.9399 300.261 90.6121 297.227 89.6803Z" fill="#A15842"/>
<path d="M288.959 83.4346H257.122L256.839 86.8183C254.359 86.8882 251.89 87.1777 249.461 87.6833C248.65 87.8455 247.791 88.0363 246.898 88.2621C244.76 88.8015 242.663 89.488 240.62 90.3164C240.172 90.4977 239.692 90.7076 239.192 90.9302C238.27 91.35 237.284 91.8334 236.206 92.3708C229.032 96.0121 219.167 102.105 212.53 106.325L221.148 123.559L225.473 132.209L227.779 136.817C232.511 134.591 235.532 132.931 235.532 132.931L232.034 164.732H295.637L309.948 96.9948C310.711 96.1433 311.418 95.2424 312.063 94.298V94.2058L288.959 83.4346Z" fill="#FED9A4"/>
<path d="M243.578 92.4379L239.192 90.9305C238.27 91.3503 237.284 91.8337 236.206 92.3712L239.8 98.2513L232.66 107.989L242.073 104.096L247.318 113.767L247.915 103.12L257.004 101.174L249.213 96.305L249.461 87.6836C248.65 87.8458 247.791 88.0366 246.898 88.2624L243.578 92.4379Z" fill="#FF8A00"/>
<path d="M227.683 128.974L235.468 127.813L235.554 125.492L231.525 123.65L234.851 113.741L225.969 119.583L220.385 113.223L221.193 123.542L221.148 123.558L225.473 132.208L227.683 128.974Z" fill="#FF8A00"/>
<path d="M276.725 102.372L280.296 114.38L283.864 102.372L295.227 99.1252L284.188 94.5807V84.1943L278.022 92.3069L269.258 88.0869L274.451 96.8514L266.338 103.67L276.725 102.372Z" fill="#FF8A00"/>
<path d="M265.912 162.115L259.227 152.228L264.967 143.571L255.344 146.923L250.371 138.562L249.855 148.739L239.326 149.935L248.698 154.594L245.6 164.732H247.241L254.651 158.54L265.912 162.115Z" fill="#FF8A00"/>
<path d="M269.168 142.054L276.957 135.239L285.721 141.081L281.826 131.343L288.644 123.88L278.906 125.502L274.362 117.386L273.385 126.15L264.3 125.826L272.088 131.668L269.168 142.054Z" fill="#FF8A00"/>
<path d="M257.475 41.9782C259.383 51.2007 266.103 54.0342 266.103 54.0342C270.829 48.8792 279.421 48.8792 280.709 56.184C282.137 64.268 271.786 66.1475 271.15 66.4655C271.15 66.4655 268.288 81.4123 279.1 87.1366C284.188 87.7726 293.093 88.4086 297.227 89.6807C300.261 90.6125 305.645 92.9403 310.116 96.8074C311.706 95.0138 323.81 80.4391 312.492 66.1475C304.634 56.219 291.719 57.9204 291.719 57.9204C292.148 52.7622 292.991 39.4436 281.838 31.2802C270.685 23.1167 256.486 27.4131 251.331 33.8593C249.49 36.1585 248.501 38.7758 247.868 41.5903C251.802 42.6302 257.475 41.9782 257.475 41.9782Z" fill="#30242A"/>
<path fill-rule="evenodd" clip-rule="evenodd" d="M208.603 70.4456C209.078 70.6513 209.296 71.2032 209.091 71.6784C208.648 72.7006 208.194 73.8589 207.799 75.0327L207.63 75.5372L207.11 75.6501L207.11 75.6503L207.109 75.6505L207.097 75.6531C207.086 75.6556 207.069 75.6596 207.045 75.6653C206.997 75.6767 206.924 75.6946 206.829 75.7193C206.638 75.7689 206.36 75.846 206.019 75.9537C205.334 76.1697 204.404 76.5063 203.419 76.9877C201.412 77.9684 199.352 79.4643 198.498 81.6012C198.306 82.082 197.761 82.3162 197.28 82.1242C196.799 81.9321 196.565 81.3866 196.757 80.9058C197.872 78.1134 200.453 76.3497 202.596 75.303C203.685 74.7707 204.706 74.4017 205.455 74.1656C205.742 74.0749 205.99 74.0034 206.189 73.9495C206.56 72.8887 206.97 71.8569 207.37 70.9335C207.576 70.4583 208.127 70.2399 208.603 70.4456Z" fill="#30242A"/>
<path fill-rule="evenodd" clip-rule="evenodd" d="M206.571 109.482C207.054 109.666 207.297 110.208 207.112 110.692L203.334 120.589C203.149 121.072 202.608 121.315 202.124 121.13C201.64 120.946 201.398 120.404 201.582 119.92L205.36 110.023C205.545 109.54 206.087 109.297 206.571 109.482Z" fill="#30242A"/>
<path fill-rule="evenodd" clip-rule="evenodd" d="M236.272 120.232C236.786 120.29 237.157 120.753 237.1 121.268L235.777 133.168C235.72 133.683 235.256 134.053 234.741 133.996C234.227 133.939 233.856 133.475 233.913 132.961L235.236 121.061C235.293 120.546 235.757 120.175 236.272 120.232Z" fill="#724342"/>
<path fill-rule="evenodd" clip-rule="evenodd" d="M265.549 77.2765C265.757 77.7506 265.542 78.3037 265.068 78.5119C262.284 79.7351 259.353 80.5938 256.349 81.0666C255.837 81.1471 255.357 80.7977 255.277 80.2862C255.196 79.7747 255.546 79.2948 256.057 79.2143C258.902 78.7666 261.677 77.9535 264.314 76.7952C264.788 76.587 265.341 76.8024 265.549 77.2765Z" fill="#30242A"/>
<path fill-rule="evenodd" clip-rule="evenodd" d="M275.348 56.5479C275.619 56.9888 275.482 57.5663 275.041 57.8377L270.906 60.3818C270.466 60.6532 269.888 60.5157 269.617 60.0747C269.345 59.6337 269.483 59.0563 269.924 58.7849L274.058 56.2408C274.499 55.9694 275.076 56.1069 275.348 56.5479Z" fill="#30242A"/>
<path fill-rule="evenodd" clip-rule="evenodd" d="M292.296 56.8533C292.811 56.9048 293.187 57.3642 293.135 57.8794C292.9 60.2394 292.58 63.199 292.27 65.5418C292.202 66.0551 291.731 66.416 291.217 66.348C290.704 66.28 290.343 65.8088 290.411 65.2955C290.718 62.9824 291.035 60.0461 291.27 57.6931C291.321 57.1778 291.78 56.8019 292.296 56.8533Z" fill="black"/>
<path d="M268.892 63.4507L267.734 70.4852C267.683 70.7943 267.713 71.1113 267.819 71.4058C267.926 71.7003 268.107 71.9625 268.344 72.1671C268.581 72.3717 268.867 72.512 269.174 72.5744C269.481 72.6369 269.799 72.6194 270.097 72.5237L276.292 70.5361C276.59 70.4404 276.859 70.2695 277.073 70.04C277.286 69.8104 277.437 69.5299 277.511 69.2253C277.584 68.9207 277.579 68.6023 277.494 68.3005C277.409 67.9988 277.248 67.7239 277.027 67.5023L272.005 62.4458C271.767 62.2033 271.467 62.0318 271.137 61.9505C270.807 61.8693 270.461 61.8815 270.138 61.9859C269.815 62.0902 269.527 62.2825 269.307 62.5413C269.087 62.8 268.943 63.1149 268.892 63.4507Z" fill="#F4E6D8"/>
<path fill-rule="evenodd" clip-rule="evenodd" d="M254.615 60.9524C254.848 61.1449 254.974 61.4383 254.954 61.7402C254.785 64.1889 253.383 65.7337 251.638 66.0471C249.933 66.3533 248.15 65.4116 247.492 63.4825C247.409 63.2367 247.431 62.9671 247.553 62.7381C247.675 62.5091 247.887 62.3411 248.138 62.2742L253.777 60.77C254.069 60.692 254.381 60.7599 254.615 60.9524ZM249.826 63.7646C250.249 64.1558 250.799 64.2926 251.306 64.2015C251.816 64.11 252.401 63.7552 252.759 62.982L249.826 63.7646Z" fill="#30242A"/>
<path fill-rule="evenodd" clip-rule="evenodd" d="M249.958 51.3111C250.438 51.1166 250.985 51.348 251.179 51.8279C251.478 52.5653 252.081 52.9422 252.771 53.1024C253.119 53.1832 253.469 53.2016 253.765 53.1811C254.08 53.1593 254.262 53.0988 254.304 53.0782C254.769 52.8497 255.331 53.0412 255.559 53.5058C255.788 53.9705 255.596 54.5323 255.132 54.7608C254.789 54.9294 254.339 55.0208 253.895 55.0517C253.431 55.0838 252.894 55.0558 252.347 54.929C251.249 54.6742 250.033 53.9922 249.441 52.532C249.247 52.0522 249.478 51.5055 249.958 51.3111Z" fill="#30242A"/>
<path d="M297.227 89.6807L297.128 140.996C297.128 140.996 265.867 122.281 263.451 122.131C261.673 122.02 260.35 126.046 263.559 129.372C254.909 127.766 246.313 126.924 244.961 129.557C244.147 131.147 245.473 132.8 245.473 132.8C244.436 132.931 243.425 133.204 242.846 133.885C241.457 135.516 243.365 138.019 243.365 138.019C241.603 138.868 242.21 141.517 243.8 142.789C247.69 145.896 259.342 148.116 259.342 148.116C255.15 148.628 247.085 149.105 247.518 151.49C248.154 154.989 265.963 154.989 265.963 154.989C272.641 159.441 278.146 159.326 278.146 159.326C278.146 159.326 294.454 176.067 310.902 179.997C353.198 187.312 320.124 108.126 311.22 97.9491C305.693 91.6301 297.227 89.6807 297.227 89.6807Z" fill="#A15842"/>
<path fill-rule="evenodd" clip-rule="evenodd" d="M263.823 149.778C261.4 149.747 258.998 149.756 256.775 149.778C256.257 149.783 255.834 149.368 255.828 148.85C255.823 148.332 256.239 147.908 256.756 147.903C258.986 147.881 261.405 147.871 263.848 147.903C264.365 147.91 264.78 148.335 264.773 148.853C264.766 149.371 264.341 149.785 263.823 149.778Z" fill="#30242A"/>
<path fill-rule="evenodd" clip-rule="evenodd" d="M242.144 138.572C242.237 138.063 242.726 137.726 243.235 137.819C248.438 138.773 257.654 140.536 264.387 142.198C264.89 142.322 265.197 142.83 265.073 143.332C264.949 143.835 264.441 144.142 263.938 144.018C257.265 142.372 248.099 140.617 242.897 139.664C242.387 139.57 242.05 139.082 242.144 138.572Z" fill="#30242A"/>
<path fill-rule="evenodd" clip-rule="evenodd" d="M244.229 132.826C244.299 132.313 244.772 131.954 245.285 132.024C251.727 132.905 261.015 134.254 266.894 135.512C267.4 135.621 267.723 136.119 267.614 136.625C267.506 137.132 267.008 137.454 266.501 137.346C260.702 136.105 251.482 134.764 245.031 133.882C244.518 133.812 244.159 133.339 244.229 132.826Z" fill="#30242A"/>
<path fill-rule="evenodd" clip-rule="evenodd" d="M263.335 128.79C263.449 128.285 263.951 127.968 264.456 128.083C266.835 128.623 269.177 129.31 271.469 130.142C271.956 130.318 272.208 130.856 272.031 131.343C271.855 131.829 271.317 132.081 270.83 131.904C268.611 131.1 266.344 130.434 264.041 129.912C263.536 129.797 263.22 129.295 263.335 128.79Z" fill="#30242A"/>
<path d="M315.971 112.024L315.373 122.672L310.129 113.01L300.716 116.903L307.855 107.165L302.357 98.1653L311.633 101.346L312.711 99.9717C312.254 99.2654 311.752 98.5898 311.207 97.9491C305.68 91.6301 297.214 89.6807 297.214 89.6807L297.141 127.811L299.959 130.574L307.747 122.045L303.81 133.761L304.5 134.27L325.96 129.658C323.914 123.453 321.53 117.364 318.817 111.42L315.971 112.024Z" fill="#FED9A4"/>
<path d="M302.357 98.1562L307.855 107.156L300.716 116.894L310.129 113.001L315.373 122.672L315.971 112.025L318.833 111.418C316.588 106.533 314.438 102.532 312.74 99.9689L311.649 101.34L302.357 98.1562Z" fill="#FF8A00"/>
<path d="M303.823 133.761L307.76 122.042L299.972 130.574L297.154 127.811L297.138 135.857L304.513 134.27L303.823 133.761Z" fill="#FF8A00"/>
<path fill-rule="evenodd" clip-rule="evenodd" d="M296.492 119.763C297.01 119.763 297.43 120.182 297.43 120.7V139.81C297.43 140.328 297.01 140.747 296.492 140.747C295.975 140.747 295.555 140.328 295.555 139.81V120.7C295.555 120.182 295.975 119.763 296.492 119.763Z" fill="#724342"/>
<path fill-rule="evenodd" clip-rule="evenodd" d="M295.566 139.324C295.834 138.881 296.411 138.74 296.854 139.008L296.368 139.81L295.883 140.612C295.44 140.344 295.298 139.767 295.566 139.324ZM296.368 139.81C295.883 140.612 295.883 140.612 295.883 140.612L296.167 140.784C296.354 140.897 296.633 141.065 296.996 141.285C297.724 141.724 298.793 142.369 300.16 143.193C302.895 144.842 306.822 147.206 311.593 150.068C312.037 150.335 312.613 150.191 312.879 149.747C313.146 149.303 313.002 148.727 312.558 148.46C307.788 145.599 303.862 143.235 301.128 141.588C299.761 140.764 298.693 140.119 297.966 139.68C297.602 139.46 297.324 139.292 297.137 139.179L296.854 139.008C296.854 139.008 296.854 139.008 296.368 139.81Z" fill="#30242A"/>
<path fill-rule="evenodd" clip-rule="evenodd" d="M187.132 58.0833C187.632 58.2181 187.928 58.7326 187.793 59.2326C186.946 62.3758 186.206 66.7581 186.834 71.2225C186.906 71.7352 186.549 72.2093 186.036 72.2814C185.523 72.3535 185.049 71.9963 184.977 71.4836C184.301 66.6745 185.1 62.0189 185.983 58.7445C186.118 58.2446 186.632 57.9486 187.132 58.0833Z" fill="#30242A"/>
<path fill-rule="evenodd" clip-rule="evenodd" d="M193.923 55.2309C194.414 55.3944 194.68 55.9253 194.516 56.4165C193.721 58.806 192.851 63.0171 193.362 69.3378C193.404 69.8539 193.02 70.3062 192.504 70.348C191.988 70.3897 191.535 70.0052 191.494 69.4891C190.962 62.9239 191.86 58.4595 192.737 55.8243C192.901 55.333 193.432 55.0673 193.923 55.2309Z" fill="#30242A"/>
<path fill-rule="evenodd" clip-rule="evenodd" d="M201.266 54.0113C201.756 54.1784 202.018 54.7111 201.851 55.2012C200.959 57.8179 199.788 61.8583 200.287 67.0138C200.337 67.5291 199.96 67.9874 199.445 68.0373C198.929 68.0873 198.471 67.71 198.421 67.1946C197.884 61.652 199.149 57.3159 200.076 54.5962C200.243 54.1061 200.776 53.8443 201.266 54.0113Z" fill="#30242A"/>
<path fill-rule="evenodd" clip-rule="evenodd" d="M208.268 56.5294C208.785 56.5535 209.185 56.9924 209.16 57.5097L208.224 57.4659C209.16 57.5097 209.16 57.5096 209.16 57.5097L209.156 57.6003C209.153 57.6591 209.149 57.7452 209.143 57.8552C209.132 58.0752 209.116 58.3908 209.094 58.7742C209.052 59.5406 208.989 60.5796 208.911 61.6675C208.874 62.1839 208.425 62.5724 207.908 62.5352C207.392 62.498 207.003 62.0491 207.041 61.5327C207.118 60.4581 207.18 59.4299 207.222 58.6699C207.243 58.29 207.26 57.9776 207.271 57.7603C207.276 57.6517 207.28 57.5668 207.283 57.5093L207.287 57.4223C207.287 57.4223 207.287 57.4223 207.287 57.4223M208.268 56.5294C207.75 56.5052 207.311 56.9051 207.287 57.4223Z" fill="#30242A"/>
<path fill-rule="evenodd" clip-rule="evenodd" d="M215.008 79.2585C215.444 79.4162 215.908 79.4861 216.372 79.4643C216.836 79.4426 217.291 79.3295 217.711 79.1316C218.131 78.9337 218.508 78.6548 218.821 78.311C219.133 77.9672 219.374 77.5652 219.531 77.128L219.532 77.1238C219.85 76.2429 219.805 75.2718 219.407 74.424C219.009 73.5763 218.29 72.9215 217.409 72.6035L205.859 68.4347L203.457 75.0898L215.008 79.2585ZM216.548 83.2103C215.591 83.2552 214.635 83.111 213.735 82.7859L200.755 78.1015C200.199 77.9006 199.745 77.4868 199.493 76.9512C199.241 76.4154 199.213 75.8017 199.414 75.2453L202.847 65.733C203.048 65.1765 203.462 64.7224 203.997 64.4708C204.533 64.2193 205.147 64.1908 205.703 64.3917L218.683 69.0761C220.499 69.7317 221.981 71.082 222.801 72.83C223.622 74.5773 223.715 76.5789 223.06 78.3948C222.737 79.2956 222.24 80.1238 221.597 80.8322C220.953 81.5411 220.176 82.1161 219.309 82.5242C218.443 82.9323 217.504 83.1654 216.548 83.2103Z" fill="#0A28BC"/>
<path d="M201.749 63.2067C191.037 59.3406 189.165 49.0156 189.165 49.0156L185.061 82.9432L201.986 89.0516L220.493 60.3223C217.87 62.3542 214.773 63.685 211.494 64.1896C208.215 64.6943 204.862 64.356 201.749 63.2067V63.2067Z" fill="#5569D3"/>
<path fill-rule="evenodd" clip-rule="evenodd" d="M189.165 49.0156C189.165 49.0156 189.25 49.4837 189.487 50.2579C190.363 53.1197 193.318 60.1638 201.749 63.2067C204.862 64.356 208.215 64.6943 211.494 64.1896C214.348 63.7505 217.064 62.6856 219.449 61.0774C219.804 60.8377 220.153 60.5859 220.493 60.3223L201.986 89.0516L185.061 82.9432L189.165 49.0156ZM189.356 51.3415L185.572 82.629L201.794 88.484L218.842 62.0202C216.617 63.3588 214.146 64.2558 211.566 64.653C208.208 65.1696 204.775 64.8234 201.588 63.647C196.107 61.6683 192.885 58.0336 191.036 54.8995C190.253 53.5704 189.715 52.3302 189.356 51.3415Z" fill="#0A28BC"/>
<path d="M201.749 63.2067C204.862 64.356 208.215 64.6943 211.494 64.1896C214.773 63.685 217.87 62.3542 220.493 60.3223L189.165 49.0156C189.165 49.0156 191.037 59.3406 201.749 63.2067Z" fill="url(#paint0_linear)"/>
<path fill-rule="evenodd" clip-rule="evenodd" d="M201.908 62.7658L201.912 62.7669C204.949 63.8887 208.222 64.2188 211.423 63.7263C214.338 63.2778 217.105 62.1602 219.51 60.466L189.827 49.753C189.89 49.9774 189.97 50.2424 190.07 50.541C190.404 51.5446 190.96 52.9248 191.844 54.4233C193.61 57.4179 196.679 60.8783 201.908 62.7658ZM189.29 49.559C189.201 49.2113 189.165 49.0156 189.165 49.0156L220.493 60.3223C220.345 60.4368 220.196 60.5491 220.045 60.6591C217.521 62.5015 214.589 63.7135 211.494 64.1896C208.215 64.6943 204.862 64.356 201.749 63.2067C192.512 59.8729 189.848 51.7363 189.29 49.559Z" fill="#0A28BC"/>
<path d="M179.319 230.162H20.6642V401.309H179.319V230.162Z" fill="#FED9A4"/>
<path d="M188.688 391.939H11.2948V401.309H188.688V391.939Z" fill="#FED9A4"/>
<path d="M169.949 239.531H30.0335V391.939H169.949V239.531Z" fill="#F5EBDD"/>
<path d="M176.82 295.436H23.1627V304.805H176.82V295.436Z" fill="#FED9A4"/>
<path d="M56.4114 309.568C56.4114 309.568 63.4853 309.958 68.7602 306.991C73.7572 304.18 74.563 299.777 72.8203 291.063C72.8203 291.063 75.9434 289.189 75.6311 287.315C75.4281 286.082 71.8833 284.817 71.8833 284.817C71.4398 282.437 70.8777 278.839 69.9657 275.16C67.6844 275.609 65.3667 275.847 63.0418 275.872C56.071 283.714 48.4599 284.192 48.4599 284.192C47.3577 282.546 45.8625 281.2 44.1094 280.276L33.7126 284.42C33.6135 284.756 33.5322 285.097 33.469 285.441C32.023 293.64 42.2137 296.685 42.2137 296.685C40.1587 304.536 33.469 307.616 28.447 308.824L28.8717 312.725H56.9361L56.4114 309.568Z" fill="#EAA58B"/>
<path d="M123.63 371.752C147.991 364.568 149.552 307.103 149.552 307.103L136.844 290.75C136.844 290.75 139.246 278.995 136.747 276.809C133.73 274.17 129.93 282.43 125.816 292.737C121.494 303.564 113.421 335.411 112.796 337.597C112.796 337.597 106.737 334.749 99.5573 331.438L98.5392 334.786L89.276 366.014C99.4324 370.171 113.827 374.644 123.63 371.752Z" fill="#EAA58B"/>
<path d="M42.2137 296.684C42.2137 296.684 32.023 293.639 33.469 285.441C33.5322 285.097 33.6135 284.756 33.7126 284.42L26.139 287.427C26.139 287.643 26.1734 287.846 26.189 288.052L28.447 308.824C33.4783 307.615 40.1587 304.536 42.2137 296.684Z" fill="#A15842"/>
<path d="M48.4599 284.192C48.4599 284.192 56.071 283.714 63.0418 275.872C65.3667 275.847 67.6844 275.608 69.9657 275.16C69.5785 273.598 69.1256 272.021 68.5884 270.513L44.1094 280.276C45.8625 281.199 47.3577 282.545 48.4599 284.192V284.192Z" fill="#A15842"/>
<path d="M33.7126 284.42L44.1095 280.276C39.8152 278.096 35.1024 279.685 33.7126 284.42Z" fill="#30242A"/>
<path d="M44.1095 280.276L68.5885 270.513C67.7359 268.111 66.674 265.891 65.3248 264.204C60.0967 257.668 47.2607 252.924 35.93 261.203C25.021 269.176 25.6862 281.847 26.139 287.437L33.7126 284.417C35.1024 279.686 39.8152 278.096 44.1095 280.276Z" fill="#30242A"/>
<path d="M73.2919 326.466L72.5486 320.039C63.9475 317.531 57.7325 317.409 57.7325 317.409L56.9517 312.725H28.8718L29.3121 316.785C26.5296 316.776 23.7517 317.014 21.0109 317.494L24.9397 326.466H73.2919Z" fill="#5569D3"/>
<path d="M33.113 345.205H75.4624L74.3787 335.836H29.0217L33.113 345.205Z" fill="#5569D3"/>
<path d="M37.2073 354.574L41.2986 363.944H77.5643L77.1926 360.396L77.2239 360.411L76.5461 354.574H37.2073Z" fill="#5569D3"/>
<path d="M48.1477 378.198C48.1477 378.198 68.501 379.553 79.3788 381.321L78.5419 373.313H45.9396L48.1477 378.198Z" fill="#5569D3"/>
<path d="M74.3787 335.836L73.2919 326.467H24.9304L29.0216 335.836H74.3787Z" fill="#798CF2"/>
<path d="M33.1129 345.205L37.2073 354.574H76.5462L75.4624 345.205H33.1129Z" fill="#798CF2"/>
<path d="M42.2137 365.081L45.9396 373.314H78.5418L77.5643 363.944H41.6828L42.2137 365.081Z" fill="#798CF2"/>
<path d="M99.5355 331.426C95.9876 329.789 92.168 328.028 88.6732 326.466C85.6095 325.086 82.7924 323.837 80.6281 322.919C77.9945 321.799 75.2966 320.837 72.5486 320.039L73.2919 326.466L74.3787 335.836L75.4624 345.205L76.5462 354.575L77.2239 360.412C77.5362 360.574 80.2877 362.058 84.457 363.944C85.8437 364.568 87.3865 365.243 89.0449 365.924L89.2698 366.015L98.5392 334.783L99.5573 331.435L99.5355 331.426Z" fill="#5569D3"/>
<path d="M45.9396 373.314L42.2137 365.081L41.6828 363.944H41.2986L42.1169 365.818L11.6821 376.887C16.8103 387.099 22.613 395.863 26.9104 400.06C41.9014 414.739 81.159 405.594 81.159 405.594C81.159 405.594 85.6251 409.117 91.559 410.366C102.178 431.291 108.018 424.021 108.018 424.021C108.018 424.021 111.766 428.081 114.576 423.708C120.198 424.021 119.886 420.585 114.889 408.717C120.51 415.588 126.107 415.698 126.226 413.802C126.538 408.805 112.484 392.252 99.5854 386.856C91.8276 383.611 79.3788 381.321 79.3788 381.321C68.501 379.569 48.1476 378.198 48.1476 378.198L45.9396 373.314Z" fill="#EAA58B"/>
<path d="M21.0108 317.494C15.2175 318.487 7.78756 320.845 3.4964 326.467C1.58817 328.965 0.298323 332.088 0.060966 336.036C-0.647982 347.407 4.92366 363.407 11.6915 376.886L42.1169 365.818L21.0108 317.494Z" fill="#5569D3"/>
<path fill-rule="evenodd" clip-rule="evenodd" d="M51.0715 312.218C51.5859 312.16 52.0503 312.529 52.1086 313.044L52.7333 318.553C52.7916 319.068 52.4218 319.532 51.9073 319.59C51.3928 319.649 50.9285 319.279 50.8701 318.764L50.2455 313.255C50.1872 312.741 50.557 312.276 51.0715 312.218Z" fill="#30242A"/>
<path fill-rule="evenodd" clip-rule="evenodd" d="M45.7621 312.218C46.2766 312.16 46.741 312.529 46.7993 313.044L47.4239 318.553C47.4823 319.068 47.1125 319.532 46.598 319.59C46.0835 319.649 45.6192 319.279 45.5608 318.764L44.9362 313.255C44.8779 312.741 45.2477 312.276 45.7621 312.218Z" fill="#30242A"/>
<path fill-rule="evenodd" clip-rule="evenodd" d="M49.703 308.262C49.9257 307.795 50.4851 307.596 50.9526 307.819C52.6946 308.649 54.5756 309.148 56.4999 309.292C57.0162 309.33 57.4036 309.78 57.3651 310.297C57.3266 310.813 56.8768 311.2 56.3604 311.162C54.2047 311.001 52.0976 310.441 50.1461 309.512C49.6786 309.289 49.4802 308.729 49.703 308.262Z" fill="#A15842"/>
<path fill-rule="evenodd" clip-rule="evenodd" d="M111.282 399.994C111.733 399.739 112.305 399.898 112.56 400.348C113.821 402.579 115.213 405.503 116.418 408.176C116.631 408.648 116.421 409.203 115.949 409.416C115.477 409.629 114.921 409.419 114.709 408.947C113.509 406.286 112.146 403.425 110.928 401.271C110.673 400.821 110.831 400.249 111.282 399.994Z" fill="#A15842"/>
<path fill-rule="evenodd" clip-rule="evenodd" d="M105.415 403.105C105.865 402.849 106.437 403.006 106.693 403.456C110.634 410.38 113.67 418.154 115.508 423.382C115.679 423.87 115.423 424.405 114.934 424.577C114.446 424.749 113.91 424.492 113.739 424.004C111.916 418.819 108.924 411.165 105.064 404.384C104.808 403.934 104.965 403.362 105.415 403.105Z" fill="#A15842"/>
<path fill-rule="evenodd" clip-rule="evenodd" d="M98.5089 407.157C98.9636 406.909 99.533 407.076 99.7808 407.531C102.599 412.7 105.799 418.933 108.108 423.574C108.338 424.038 108.149 424.601 107.686 424.831C107.222 425.062 106.659 424.873 106.429 424.409C104.128 419.782 100.938 413.572 98.1345 408.428C97.8867 407.974 98.0543 407.404 98.5089 407.157Z" fill="#A15842"/>
<path fill-rule="evenodd" clip-rule="evenodd" d="M76.3808 347.708C76.8962 347.658 77.3545 348.035 77.4044 348.55L78.5318 360.19C78.5817 360.706 78.2044 361.164 77.689 361.214C77.1737 361.264 76.7154 360.886 76.6655 360.371L75.5381 348.731C75.4881 348.216 75.8655 347.757 76.3808 347.708Z" fill="#30242A"/>
<path fill-rule="evenodd" clip-rule="evenodd" d="M112.322 336.564C112.824 336.692 113.127 337.202 112.999 337.704L110.894 345.949C110.766 346.451 110.255 346.753 109.753 346.625C109.252 346.497 108.949 345.987 109.077 345.485L111.182 337.24C111.31 336.738 111.821 336.435 112.322 336.564Z" fill="#A15842"/>
<path fill-rule="evenodd" clip-rule="evenodd" d="M28.2465 316.16C28.2465 315.642 28.6663 315.223 29.184 315.223H33.0598C33.5776 315.223 33.9974 315.642 33.9974 316.16C33.9974 316.678 33.5776 317.098 33.0598 317.098H29.184C28.6663 317.098 28.2465 316.678 28.2465 316.16Z" fill="#30242A"/>
<path fill-rule="evenodd" clip-rule="evenodd" d="M58.2433 316.516C58.754 316.431 59.2372 316.775 59.3224 317.286L59.9096 320.803C59.9949 321.314 59.65 321.797 59.1393 321.882C58.6286 321.967 58.1454 321.622 58.0601 321.112L57.473 317.595C57.3877 317.084 57.7326 316.601 58.2433 316.516Z" fill="#30242A"/>
<path fill-rule="evenodd" clip-rule="evenodd" d="M65.9823 263.13C66.1666 263.614 65.9238 264.156 65.4399 264.34L26.0886 279.331C25.6048 279.516 25.0631 279.273 24.8788 278.789C24.6945 278.305 24.9373 277.763 25.4211 277.579L64.7724 262.588C65.2563 262.404 65.798 262.647 65.9823 263.13Z" fill="#5569D3"/>
<path fill-rule="evenodd" clip-rule="evenodd" d="M38.1547 376.892C38.1856 376.376 38.6296 375.982 39.1464 376.012L47.6726 376.522C48.1894 376.552 48.5834 376.996 48.5525 377.513C48.5217 378.03 48.0777 378.424 47.5608 378.393L39.0347 377.884C38.5178 377.853 38.1239 377.409 38.1547 376.892Z" fill="#A15842"/>
<path fill-rule="evenodd" clip-rule="evenodd" d="M35.7971 350.91C36.2689 350.696 36.8243 350.906 37.0374 351.378L48.7834 377.384C48.9966 377.856 48.7868 378.411 48.3149 378.625C47.843 378.838 47.2877 378.628 47.0746 378.156L35.3285 352.15C35.1154 351.678 35.3252 351.123 35.7971 350.91Z" fill="#30242A"/>
<path fill-rule="evenodd" clip-rule="evenodd" d="M138.146 287.112C138.648 287.239 138.951 287.749 138.824 288.251C138.137 290.963 137.179 294.52 136.204 297.349C136.218 297.377 136.232 297.406 136.247 297.437C136.391 297.735 136.586 298.166 136.801 298.715C137.23 299.813 137.737 301.388 138.062 303.317C138.713 307.179 138.63 312.468 135.707 318.15C135.47 318.611 134.905 318.792 134.445 318.555C133.984 318.319 133.803 317.753 134.04 317.293C136.739 312.045 136.812 307.183 136.213 303.628C135.914 301.848 135.445 300.398 135.054 299.397C134.859 298.897 134.684 298.511 134.559 298.253C134.497 298.125 134.447 298.028 134.414 297.966C134.398 297.935 134.386 297.912 134.378 297.898L134.371 297.884L134.37 297.884L134.37 297.882L134.159 297.512L134.302 297.109C135.292 294.31 136.289 290.62 137.007 287.79C137.134 287.288 137.644 286.985 138.146 287.112Z" fill="#A15842"/>
<path fill-rule="evenodd" clip-rule="evenodd" d="M38.8624 285.936C39.1686 285.518 39.7553 285.428 40.1728 285.734L44.8575 289.17C45.275 289.476 45.3653 290.063 45.0591 290.48C44.7529 290.898 44.1662 290.988 43.7487 290.682L39.064 287.246C38.6464 286.94 38.5562 286.353 38.8624 285.936Z" fill="#A15842"/>
<path d="M66.3773 286.072C67.0931 286.072 67.6734 285.491 67.6734 284.776C67.6734 284.06 67.0931 283.479 66.3773 283.479C65.6615 283.479 65.0812 284.06 65.0812 284.776C65.0812 285.491 65.6615 286.072 66.3773 286.072Z" fill="#30242A"/>
<path fill-rule="evenodd" clip-rule="evenodd" d="M78.0005 267.423C78.1841 267.907 77.9405 268.448 77.4563 268.632L17.9453 291.196C17.4611 291.38 16.9198 291.136 16.7363 290.652C16.5527 290.168 16.7964 289.627 17.2805 289.443L76.7915 266.879C77.2757 266.695 77.817 266.939 78.0005 267.423Z" fill="#30242A"/>
<path fill-rule="evenodd" clip-rule="evenodd" d="M64.7119 292.763C65.175 292.532 65.7381 292.719 65.9697 293.183C65.9693 293.182 65.9693 293.182 65.9699 293.183C65.9731 293.188 65.9909 293.218 66.0333 293.269C66.0809 293.326 66.1474 293.396 66.2325 293.471C66.404 293.624 66.6267 293.778 66.8765 293.893C67.3712 294.121 67.8897 294.167 68.3918 293.875C68.8394 293.615 69.4133 293.767 69.6736 294.214C69.934 294.662 69.7823 295.235 69.3347 295.496C68.1566 296.181 66.9652 295.998 66.092 295.596C65.6578 295.396 65.2821 295.135 64.9871 294.873C64.7059 294.623 64.4442 294.324 64.2926 294.021C64.061 293.558 64.2488 292.995 64.7119 292.763Z" fill="#A15842"/>
<path fill-rule="evenodd" clip-rule="evenodd" d="M138.154 291.711C138.937 292.39 139.02 293.574 138.342 294.356C136.846 296.079 135.905 297.945 136.376 299.761L136.377 299.763C136.436 299.991 136.512 300.07 136.537 300.094C136.572 300.128 136.631 300.166 136.732 300.197C136.838 300.23 136.955 300.244 137.054 300.246C137.097 300.247 137.129 300.246 137.144 300.245L140.687 299.752L139.043 302.956L139.039 302.964C139.033 302.977 139.022 303 139.007 303.033C138.976 303.099 138.93 303.204 138.876 303.341C138.767 303.616 138.635 304.001 138.538 304.436C138.329 305.372 138.354 306.213 138.687 306.797L138.688 306.797C138.883 307.139 139.166 307.277 139.643 307.299C139.888 307.31 140.127 307.282 140.312 307.247C140.401 307.23 140.469 307.213 140.509 307.202C140.525 307.198 140.535 307.195 140.541 307.193L143.975 306.049L142.919 309.507C142.917 309.512 142.915 309.522 142.912 309.535C142.902 309.575 142.887 309.647 142.872 309.745C142.843 309.944 142.819 310.228 142.846 310.55C142.898 311.172 143.126 311.904 143.882 312.534C144.177 312.78 144.646 312.869 145.344 312.724C145.666 312.657 145.96 312.553 146.176 312.463C146.282 312.419 146.363 312.38 146.413 312.356C146.438 312.344 146.455 312.335 146.462 312.331C146.463 312.331 146.463 312.33 146.464 312.33L149.503 310.642L149.236 314.118C149.113 315.704 149.571 316.423 149.878 316.732C150.607 317.468 150.602 318.655 149.867 319.384C149.132 320.113 147.944 320.108 147.215 319.373C146.487 318.639 145.942 317.671 145.666 316.473C144.496 316.642 142.874 316.575 141.481 315.414L141.481 315.414C139.84 314.046 139.266 312.359 139.124 311.019C137.922 310.889 136.391 310.335 135.432 308.658C134.41 306.872 134.591 304.902 134.878 303.619C134.887 303.575 134.898 303.531 134.908 303.488C134 303.019 133.123 302.158 132.746 300.702C131.781 296.984 133.845 293.816 135.509 291.898C136.188 291.116 137.372 291.032 138.154 291.711Z" fill="#A15842"/>
<path d="M145.583 287.464C148.49 289.21 147.866 292.593 147.866 292.593C147.866 292.593 153.715 291.79 153.544 297.771C153.544 297.771 158.206 299.913 156.067 304.576C156.067 304.576 159.274 305.413 157.672 310.538C156.111 315.535 152.916 318.686 150.801 318.97C149.683 319.12 147.054 318.033 147.366 313.973C147.366 313.973 144.555 315.535 142.681 313.973C140.22 311.922 141.12 308.976 141.12 308.976C141.12 308.976 138.309 309.913 137.06 307.727C135.704 305.357 137.372 302.106 137.372 302.106C137.372 302.106 135.127 302.418 134.561 300.232C133.362 295.619 138.337 291.702 139.558 290.55L138.621 288.052C138.621 288.052 142.681 285.722 145.583 287.464Z" fill="#EAA58B"/>
<path fill-rule="evenodd" clip-rule="evenodd" d="M148.729 291.912C149.162 292.196 149.283 292.777 149 293.21C145.863 297.996 140.341 301.933 136.758 304.042C136.311 304.304 135.737 304.156 135.474 303.709C135.211 303.263 135.36 302.688 135.807 302.426C139.313 300.362 144.534 296.603 147.431 292.183C147.715 291.749 148.296 291.628 148.729 291.912Z" fill="#A15842"/>
<path fill-rule="evenodd" clip-rule="evenodd" d="M154.339 297.403C154.746 297.723 154.816 298.312 154.496 298.719C150.745 303.49 146.12 307.504 140.868 310.547C140.42 310.807 139.847 310.654 139.587 310.206C139.328 309.758 139.48 309.184 139.928 308.925C144.974 306.001 149.418 302.144 153.022 297.56C153.342 297.153 153.931 297.083 154.339 297.403Z" fill="#A15842"/>
<path fill-rule="evenodd" clip-rule="evenodd" d="M156.943 304.355C157.361 304.661 157.451 305.247 157.145 305.665C154.201 309.677 150.703 313.183 148.119 315.121C147.705 315.431 147.117 315.347 146.806 314.933C146.496 314.519 146.58 313.931 146.994 313.62C149.407 311.811 152.78 308.445 155.633 304.556C155.939 304.138 156.526 304.048 156.943 304.355Z" fill="#A15842"/>
<path fill-rule="evenodd" clip-rule="evenodd" d="M151.18 93.3053C138.312 109.103 126.576 129.25 120.73 152.164C117.123 166.301 121.36 179.603 129.613 192.248C137.875 204.904 150.108 216.822 162.357 228.148C164.282 229.928 166.209 231.695 168.12 233.447C178.335 242.813 188.117 251.782 194.994 260.381C203.143 270.569 207.427 280.498 203.197 290.114C199.9 297.61 195.682 301.904 190.746 303.923C185.829 305.934 180.325 305.634 174.557 304.21C168.79 302.785 162.667 300.211 156.483 297.581L155.868 297.319C149.863 294.764 143.801 292.184 137.86 290.508L138.242 289.154C144.271 290.856 150.407 293.467 156.385 296.011L157.034 296.287C163.238 298.926 169.256 301.452 174.894 302.844C180.53 304.236 185.692 304.471 190.214 302.621C194.718 300.779 198.712 296.817 201.91 289.548C205.798 280.709 201.99 271.379 193.896 261.259C187.093 252.753 177.41 243.874 167.191 234.504C165.275 232.747 163.34 230.973 161.402 229.181C149.159 217.859 136.803 205.836 128.436 193.016C120.06 180.185 115.627 166.474 119.367 151.817C125.275 128.662 137.123 108.336 150.09 92.4171C163.052 76.5051 177.164 64.9565 187.644 59.3809L188.304 60.6224C178.028 66.0898 164.054 77.5009 151.18 93.3053Z" fill="#798CF2"/>
<defs>
<linearGradient id="paint0_linear" x1="189.165" y1="49.0156" x2="199.369" y2="75.7473" gradientUnits="userSpaceOnUse">
<stop stop-color="#FED9A4"/>
<stop offset="1" stop-color="#ABB9FF"/>
</linearGradient>
</defs>
</svg>
