<svg width="63" height="57" viewBox="0 0 63 57" fill="none" xmlns="http://www.w3.org/2000/svg">
<path d="M62.7692 55.5538L54.484 48.7425C54.2042 48.5077 53.7954 48.5504 53.5802 48.828C53.3434 49.1055 53.3865 49.5112 53.6663 49.7247L61.9514 56.536C62.2312 56.7709 62.6401 56.7282 62.8553 56.4506C63.0705 56.1944 63.049 55.7887 62.7692 55.5538Z" fill="url(#paint0_linear)"/>
<path d="M62.1596 50.8086L58.1526 47.195C57.8827 46.945 57.4882 46.9904 57.2806 47.2859C57.0522 47.5814 57.0937 48.0132 57.3636 48.2404L61.3707 51.854C61.6406 52.104 62.035 52.0586 62.2427 51.7631C62.4503 51.4677 62.4295 51.0359 62.1596 50.8086Z" fill="url(#paint1_linear)"/>
<path d="M53.2818 52.1609L57.5147 55.7949C57.7998 56.0463 57.8218 56.4805 57.6024 56.7548C57.3612 57.0519 56.9445 57.0748 56.6813 56.8462L52.4264 53.2351C52.1413 52.9837 52.1194 52.5494 52.3387 52.2752C52.58 51.9781 52.9967 51.9323 53.2818 52.1609Z" fill="url(#paint2_linear)"/>
<path d="M35.8823 36.2529L43.6956 55.6578C44.2823 57.0906 46.3206 57.1218 46.722 55.7201C47.6176 52.6677 48.5441 49.6464 49.4397 46.5939C49.5632 46.2201 49.8103 45.9087 50.15 45.7218C52.9294 44.2578 55.7397 42.7939 58.5191 41.33C59.8162 40.6447 59.4147 38.6201 57.9014 38.3398C51.1073 36.9693 44.3441 35.5988 37.55 34.2283C36.3764 33.9169 35.4191 35.0693 35.8823 36.2529Z" fill="url(#paint3_linear)"/>
<path d="M35.6971 41.7659C33.5045 43.1364 31.003 44.0397 28.2545 44.2889C18.8353 45.1922 10.4662 38.184 9.60151 28.684C8.70592 19.184 15.6545 10.743 25.0736 9.87085C34.4927 8.96757 42.8618 15.9758 43.7265 25.4758C43.9736 28.0922 43.6339 30.6151 42.8 32.92L52.0956 34.82C53.1147 31.5184 53.5162 27.9987 53.1765 24.3545C51.7868 9.59052 38.8162 -1.27997 24.178 0.121672C9.50887 1.49216 -1.26908 14.6053 0.12063 29.3692C1.51034 44.1331 14.4809 55.0036 29.1192 53.602C32.7633 53.2594 36.1912 52.1692 39.2177 50.5495L35.6971 41.7659Z" fill="url(#paint4_linear)"/>
<defs>
<linearGradient id="paint0_linear" x1="58.2133" y1="48.5901" x2="58.2133" y2="56.6884" gradientUnits="userSpaceOnUse">
<stop stop-color="#0A28BC"/>
<stop offset="1" stop-color="#ABB9FF"/>
</linearGradient>
<linearGradient id="paint1_linear" x1="59.7573" y1="47.0327" x2="59.7573" y2="52.0163" gradientUnits="userSpaceOnUse">
<stop stop-color="#0A28BC"/>
<stop offset="1" stop-color="#ABB9FF"/>
</linearGradient>
<linearGradient id="paint2_linear" x1="54.9706" y1="52.0164" x2="54.9706" y2="57" gradientUnits="userSpaceOnUse">
<stop stop-color="#0A28BC"/>
<stop offset="1" stop-color="#ABB9FF"/>
</linearGradient>
<linearGradient id="paint3_linear" x1="47.5308" y1="34.1768" x2="47.5308" y2="56.7522" gradientUnits="userSpaceOnUse">
<stop stop-color="#0A28BC"/>
<stop offset="1" stop-color="#ABB9FF"/>
</linearGradient>
<linearGradient id="paint4_linear" x1="26.6474" y1="0" x2="26.6474" y2="53.7237" gradientUnits="userSpaceOnUse">
<stop stop-color="#0A28BC"/>
<stop offset="1" stop-color="#ABB9FF"/>
</linearGradient>
</defs>
</svg>
