<svg width="24" height="25" viewBox="0 0 24 25" fill="none" xmlns="http://www.w3.org/2000/svg">
<path d="M15.402 21.9412V14.9752H17.735L18.084 12.2672H15.402V10.5392C15.402 9.75516 15.62 9.22016 16.744 9.22016H18.178V6.79816C17.4838 6.72451 16.7861 6.68879 16.088 6.69116C14.021 6.69116 12.606 7.95316 12.606 10.2712V12.2672H10.268V14.9752H12.606V21.9412H4C3.73478 21.9412 3.48043 21.8358 3.29289 21.6483C3.10536 21.4607 3 21.2064 3 20.9412V4.94116C3 4.67595 3.10536 4.42159 3.29289 4.23406C3.48043 4.04652 3.73478 3.94116 4 3.94116H20C20.2652 3.94116 20.5196 4.04652 20.7071 4.23406C20.8946 4.42159 21 4.67595 21 4.94116V20.9412C21 21.2064 20.8946 21.4607 20.7071 21.6483C20.5196 21.8358 20.2652 21.9412 20 21.9412H15.402Z" fill="#798CF2"/>
</svg>
