<svg width="64" height="64" viewBox="0 0 64 64" fill="none" xmlns="http://www.w3.org/2000/svg">
<path d="M50.6667 10.6665H13.3334C11.2116 10.6665 9.17681 11.5094 7.67652 13.0096C6.17623 14.5099 5.33337 16.5448 5.33337 18.6665V45.3332C5.33337 47.4549 6.17623 49.4897 7.67652 50.99C9.17681 52.4903 11.2116 53.3332 13.3334 53.3332H50.6667C52.7884 53.3332 54.8233 52.4903 56.3236 50.99C57.8239 49.4897 58.6667 47.4549 58.6667 45.3332V18.6665C58.6667 16.5448 57.8239 14.5099 56.3236 13.0096C54.8233 11.5094 52.7884 10.6665 50.6667 10.6665ZM13.3334 47.9998C12.6261 47.9998 11.9479 47.7189 11.4478 47.2188C10.9477 46.7187 10.6667 46.0404 10.6667 45.3332V38.8798L19.4667 30.1065C19.9652 29.6179 20.6354 29.3442 21.3334 29.3442C22.0314 29.3442 22.7016 29.6179 23.2 30.1065L41.0934 47.9998H13.3334ZM53.3334 45.3332C53.3334 46.0404 53.0524 46.7187 52.5523 47.2188C52.0522 47.7189 51.374 47.9998 50.6667 47.9998H48.6134L38.4534 37.7865L40.8 35.4398C41.2985 34.9512 41.9687 34.6775 42.6667 34.6775C43.3647 34.6775 44.0349 34.9512 44.5334 35.4398L53.3334 44.2132V45.3332ZM53.3334 36.6932L48.32 31.7065C46.8002 30.2463 44.7743 29.4308 42.6667 29.4308C40.5591 29.4308 38.5332 30.2463 37.0134 31.7065L34.6667 34.0532L26.9867 26.3732C25.4669 24.913 23.441 24.0975 21.3334 24.0975C19.2258 24.0975 17.1999 24.913 15.68 26.3732L10.6667 31.3598V18.6665C10.6667 17.9593 10.9477 17.281 11.4478 16.7809C11.9479 16.2808 12.6261 15.9998 13.3334 15.9998H50.6667C51.374 15.9998 52.0522 16.2808 52.5523 16.7809C53.0524 17.281 53.3334 17.9593 53.3334 18.6665V36.6932Z" fill="#FFAA2D"/>
</svg>
