<svg width="52" height="47" viewBox="0 0 52 47" fill="none" xmlns="http://www.w3.org/2000/svg">
<path d="M51.8095 45.8077L44.9709 40.1914C44.74 39.9977 44.4025 40.0329 44.2249 40.2618C44.0295 40.4907 44.065 40.8252 44.2959 41.0013L51.1345 46.6176C51.3654 46.8112 51.7029 46.776 51.8805 46.5471C52.0581 46.3359 52.0404 46.0013 51.8095 45.8077Z" fill="url(#paint0_linear)"/>
<path d="M51.3064 41.8949L47.999 38.9153C47.7762 38.7092 47.4506 38.7466 47.2792 38.9903C47.0907 39.2339 47.125 39.5899 47.3478 39.7773L50.6552 42.757C50.8779 42.9631 51.2035 42.9256 51.3749 42.682C51.5463 42.4384 51.5291 42.0823 51.3064 41.8949Z" fill="url(#paint1_linear)"/>
<path d="M43.9786 43.0098L47.4725 46.0062C47.7078 46.2135 47.7259 46.5716 47.5449 46.7978C47.3458 47.0427 47.0018 47.0616 46.7846 46.8731L43.2726 43.8955C43.0373 43.6882 43.0192 43.3302 43.2002 43.104C43.3993 42.859 43.7433 42.8214 43.9786 43.0098Z" fill="url(#paint2_linear)"/>
<path d="M29.6172 29.8926L36.0662 45.8931C36.5506 47.0746 38.2329 47.1002 38.5643 45.9445C39.3035 43.4276 40.0682 40.9363 40.8074 38.4194C40.9094 38.1112 41.1133 37.8543 41.3937 37.7002C43.6878 36.4931 46.0074 35.286 48.3015 34.0789C49.3721 33.5139 49.0408 31.8445 47.7917 31.6134C42.1839 30.4833 36.6015 29.3532 30.9937 28.2232C30.0251 27.9664 29.2349 28.9166 29.6172 29.8926Z" fill="url(#paint3_linear)"/>
<path d="M29.4643 34.4386C27.6545 35.5686 25.5898 36.3134 23.3211 36.5189C15.5466 37.2637 8.63878 31.485 7.92506 23.6517C7.18584 15.8184 12.9211 8.85825 20.6956 8.13912C28.4702 7.39432 35.378 13.173 36.0917 21.0063C36.2957 23.1637 36.0153 25.244 35.327 27.1446L42.9996 28.7113C43.8407 25.9889 44.1721 23.0867 43.8917 20.0817C42.7447 7.90798 32.0388 -1.05541 19.9564 0.100326C7.84859 1.23038 -1.04749 12.0429 0.0995678 24.2167C1.24663 36.3905 11.9525 45.3539 24.0349 44.1981C27.0427 43.9156 29.8721 43.0167 32.3702 41.6812L29.4643 34.4386Z" fill="url(#paint4_linear)"/>
<defs>
<linearGradient id="paint0_linear" x1="48.049" y1="40.0657" x2="48.049" y2="46.7433" gradientUnits="userSpaceOnUse">
<stop stop-color="#0A28BC"/>
<stop offset="1" stop-color="#ABB9FF"/>
</linearGradient>
<linearGradient id="paint1_linear" x1="49.3235" y1="38.7815" x2="49.3235" y2="42.8908" gradientUnits="userSpaceOnUse">
<stop stop-color="#0A28BC"/>
<stop offset="1" stop-color="#ABB9FF"/>
</linearGradient>
<linearGradient id="paint2_linear" x1="45.3725" y1="42.8906" x2="45.3725" y2="46.9999" gradientUnits="userSpaceOnUse">
<stop stop-color="#0A28BC"/>
<stop offset="1" stop-color="#ABB9FF"/>
</linearGradient>
<linearGradient id="paint3_linear" x1="39.2318" y1="28.1807" x2="39.2318" y2="46.7955" gradientUnits="userSpaceOnUse">
<stop stop-color="#0A28BC"/>
<stop offset="1" stop-color="#ABB9FF"/>
</linearGradient>
<linearGradient id="paint4_linear" x1="21.9947" y1="0" x2="21.9947" y2="44.2985" gradientUnits="userSpaceOnUse">
<stop stop-color="#0A28BC"/>
<stop offset="1" stop-color="#ABB9FF"/>
</linearGradient>
</defs>
</svg>
