<svg width="24" height="25" viewBox="0 0 24 25" fill="none" xmlns="http://www.w3.org/2000/svg">
<path d="M22.1621 6.59709C21.3986 6.93478 20.589 7.15656 19.7601 7.25509C20.6338 6.73252 21.2878 5.9101 21.6001 4.94109C20.7801 5.42909 19.8811 5.77109 18.9441 5.95609C18.3147 5.28267 17.4804 4.83605 16.571 4.68567C15.6616 4.5353 14.728 4.68958 13.9153 5.12454C13.1026 5.5595 12.4564 6.25077 12.0772 7.09088C11.6979 7.93099 11.6068 8.87287 11.8181 9.77009C10.1552 9.68674 8.52838 9.25461 7.04334 8.50175C5.55829 7.74889 4.24818 6.69214 3.19805 5.40009C2.82634 6.03854 2.63101 6.76432 2.63205 7.50309C2.63205 8.95309 3.37005 10.2341 4.49205 10.9841C3.82806 10.9632 3.17869 10.7839 2.59805 10.4611V10.5131C2.59825 11.4788 2.93242 12.4147 3.5439 13.1621C4.15538 13.9096 5.00653 14.4226 5.95305 14.6141C5.33667 14.7811 4.69036 14.8057 4.06305 14.6861C4.32992 15.5173 4.85006 16.2443 5.55064 16.7652C6.25123 17.2861 7.09718 17.5749 7.97005 17.5911C7.10253 18.2724 6.10923 18.7761 5.04693 19.0733C3.98464 19.3704 2.87418 19.4553 1.77905 19.3231C3.69075 20.5525 5.91615 21.2052 8.18905 21.2031C15.8821 21.2031 20.0891 14.8301 20.0891 9.30309C20.0891 9.12309 20.0841 8.94109 20.0761 8.76309C20.8949 8.17126 21.6017 7.43811 22.1631 6.59809L22.1621 6.59709Z" fill="#798CF2"/>
</svg>
