<svg width="16" height="16" viewBox="0 0 16 16" fill="none" xmlns="http://www.w3.org/2000/svg">
<path d="M7.50008 7.90197L7.53081 7.91967H7.49021L9.14025 8.85469C9.17235 8.87288 9.19751 8.90122 9.21178 8.93525C9.22605 8.96929 9.22862 9.00709 9.21909 9.04274C9.20956 9.07839 9.18846 9.10987 9.15911 9.13224C9.12976 9.15462 9.09381 9.16661 9.05691 9.16635V9.16631L9.04997 9.16635C9.02119 9.16655 8.99286 9.1593 8.96773 9.1453C8.96736 9.1451 8.967 9.14489 8.96663 9.14469L7.2937 8.17952L7.28031 8.16612L7.26207 8.14788L7.24205 8.13162L7.19696 8.09499L7.19341 8.08761L7.18083 8.06688C7.17741 8.06125 7.1746 8.05527 7.17244 8.04905L7.16675 8.03267V8.03264V8.03244V8.03224V8.03204V8.03184V8.03164V8.03144V8.03125V8.03105V8.03085V8.03065V8.03046V8.03026V8.03007V8.02987V8.02967V8.02948V8.02928V8.02909V8.0289V8.0287V8.02851V8.02832V8.02812V8.02793V8.02774V8.02755V8.02735V8.02716V8.02697V8.02678V8.02659V8.0264V8.02621V8.02602V8.02583V8.02565V8.02546V8.02527V8.02508V8.0249V8.02471V8.02452V8.02434V8.02415V8.02397V8.02378V8.0236V8.02342V8.02323V8.02305V8.02287V8.02269V8.02251V8.02233V8.02214V8.02196V8.02178V8.02161V8.02143V8.02125V8.02107V8.02089V8.02072V8.02054V8.02037V8.02019V8.02001V8.01984V8.01967V8.01949V8.01932V8.01915V8.01898V8.01881V8.01863V8.01846V8.01829V8.01812V8.01796V8.01779V8.01762V8.01745V8.01729V8.01712V8.01695V8.01679V8.01663V8.01646V8.0163V8.01614V8.01597V8.01581V8.01565V8.01549V8.01533V8.01517V8.01501V8.01486V8.0147V8.01454V8.01439V8.01423V8.01408V8.01392V8.01377V8.01361V8.01346V8.01331V8.01316V8.01301V8.01286V8.01271V8.01256V8.01241V8.01227V8.01212V8.01197V8.01183V8.01168V8.01154V8.0114V8.01125V8.01111V8.01097V8.01083V8.01069V8.01055V8.01041V8.01028V8.01014V8.01V8.00987V8.00973V8.0096V8.00946V8.00933V8.0092V8.00907V8.00894V8.00881V8.00868V8.00855V8.00842V8.0083V8.00817V8.00805V8.00792V8.0078V8.00768V8.00756V8.00743V8.00731V8.00719V8.00708V8.00696V8.00684V8.00672V8.00661V8.00649V8.00638V8.00627V8.00615V8.00604V8.00593V8.00582V8.00571V8.00561V8.0055V8.00539V8.00529V8.00518V8.00508V8.00498V8.00487V8.00477V8.00467V8.00457V8.00447V8.00438V8.00428V8.00418V8.00409V8.00399V8.0039V8.00381V8.00372V8.00363V8.00354V8.00345V8.00336V8.00328V8.00319V8.00311V8.00302V8.00294V8.00286V8.00278V8.0027V8.00262V8.00254V8.00246V8.00238V8.00231V8.00224V8.00216V8.00209V8.00202V8.00195V8.00188V8.00181V8.00174V8.00168V8.00161V8.00155V8.00148V8.00142V8.00136V8.0013V8.00124V8.00118V8.00113V8.00107V8.00102V8.00096V8.00091V8.00086V8.00081V8.00076V8.00071V8.00066V8.00061V8.00057V8.00052V8.00048V8.00044V8.0004V8.00036V8.00032V8.00028V8.00024V8.00021V8.00017V8.00014V8.00011V8.00008V8.00005V8.00002V7.99999V7.99996V7.99994V7.99991V7.99989V7.99987V7.99985V7.99983V7.99981V7.99979V7.99978V7.99976V7.99975V7.99974V7.99972V7.99971V7.9997V7.9997V7.99969V7.99968V7.99968V7.99967V4.66634C7.16675 4.62214 7.18431 4.57975 7.21557 4.54849C7.24682 4.51723 7.28922 4.49967 7.33342 4.49967C7.37762 4.49967 7.42001 4.51723 7.45127 4.54849C7.48253 4.57975 7.50008 4.62214 7.50008 4.66634V7.61301V7.90197ZM3.9074 2.87228C4.9215 2.19468 6.11377 1.83301 7.33342 1.83301C8.14324 1.83301 8.94512 1.99251 9.6933 2.30242C10.4415 2.61232 11.1213 3.06655 11.6939 3.63918C12.2665 4.21181 12.7208 4.89162 13.0307 5.63979C13.3406 6.38797 13.5001 7.18986 13.5001 7.99967C13.5001 9.21933 13.1384 10.4116 12.4608 11.4257C11.7832 12.4398 10.8201 13.2302 9.6933 13.6969C8.56649 14.1637 7.32658 14.2858 6.13036 14.0479C4.93414 13.8099 3.83535 13.2226 2.97293 12.3602C2.1105 11.4977 1.52318 10.3989 1.28524 9.20273C1.0473 8.00652 1.16942 6.7666 1.63616 5.63979C2.1029 4.51298 2.8933 3.54988 3.9074 2.87228ZM4.09259 12.8499C5.05188 13.4909 6.17969 13.833 7.33342 13.833C8.88051 13.833 10.3642 13.2184 11.4582 12.1245C12.5522 11.0305 13.1668 9.54677 13.1668 7.99967C13.1668 6.84595 12.8246 5.71813 12.1837 4.75885C11.5427 3.79956 10.6316 3.05189 9.56574 2.61038C8.49984 2.16887 7.32695 2.05335 6.19539 2.27843C5.06384 2.50351 4.02443 3.05908 3.20863 3.87488C2.39282 4.69069 1.83725 5.73009 1.61217 6.86165C1.38709 7.9932 1.50261 9.16609 1.94412 10.232C2.38563 11.2979 3.1333 12.2089 4.09259 12.8499Z" stroke="#798CF2"/>
</svg>
