<svg width="16" height="16" viewBox="0 0 16 16" fill="none" xmlns="http://www.w3.org/2000/svg">
<path d="M6.66672 11.7004L5.48672 12.8471C5.1773 13.1565 4.75764 13.3303 4.32005 13.3303C3.88247 13.3303 3.46281 13.1565 3.15339 12.8471C2.84397 12.5376 2.67014 12.118 2.67014 11.6804C2.67014 11.2428 2.84397 10.8231 3.15339 10.5137L6.18005 7.48039C6.47713 7.18235 6.8774 7.00991 7.29806 6.99874C7.71872 6.98757 8.12758 7.13853 8.44005 7.42039L8.52005 7.48706C8.64647 7.61082 8.81688 7.6793 8.99379 7.67743C9.1707 7.67555 9.33962 7.60348 9.46339 7.47706C9.58715 7.35064 9.65563 7.18023 9.65376 7.00332C9.65188 6.82641 9.57981 6.65749 9.45339 6.53372C9.41576 6.48507 9.37571 6.43835 9.33339 6.39372C8.76429 5.8986 8.02827 5.63829 7.27443 5.66552C6.52059 5.69275 5.80528 6.00549 5.27339 6.54039L2.20672 9.57372C1.68562 10.1409 1.4038 10.8875 1.4201 11.6576C1.43641 12.4276 1.74957 13.1616 2.29421 13.7062C2.83884 14.2509 3.57283 14.564 4.34289 14.5803C5.11294 14.5966 5.85952 14.3148 6.42672 13.7937L7.58005 12.6671C7.69393 12.5428 7.75653 12.3801 7.75526 12.2115C7.75399 12.043 7.68894 11.8812 7.57319 11.7587C7.45745 11.6362 7.29961 11.5621 7.13143 11.5513C6.96325 11.5405 6.79721 11.5937 6.66672 11.7004ZM13.7934 2.20706C13.2326 1.64973 12.474 1.33691 11.6834 1.33691C10.8927 1.33691 10.1342 1.64973 9.57339 2.20706L8.42005 3.33372C8.30618 3.45796 8.24358 3.62071 8.24485 3.78923C8.24612 3.95776 8.31117 4.11955 8.42691 4.24205C8.54265 4.36455 8.70049 4.43866 8.86868 4.44949C9.03686 4.46031 9.2029 4.40704 9.33339 4.30039L10.4867 3.15372C10.7961 2.8443 11.2158 2.67047 11.6534 2.67047C12.091 2.67047 12.5106 2.8443 12.8201 3.15372C13.1295 3.46314 13.3033 3.8828 13.3033 4.32039C13.3033 4.75797 13.1295 5.17764 12.8201 5.48706L9.79339 8.52039C9.49631 8.81843 9.09604 8.99087 8.67538 9.00204C8.25472 9.01321 7.84586 8.86225 7.53339 8.58039L7.45339 8.51372C7.32697 8.38996 7.15656 8.32148 6.97965 8.32335C6.80274 8.32523 6.63382 8.3973 6.51005 8.52372C6.38629 8.65014 6.31781 8.82055 6.31968 8.99746C6.32156 9.17437 6.39363 9.34329 6.52005 9.46706C6.56848 9.51658 6.61967 9.56332 6.67339 9.60706C7.24317 10.1007 7.97887 10.36 8.73225 10.3328C9.48564 10.3056 10.2007 9.99385 10.7334 9.46039L13.7667 6.42706C14.3276 5.86977 14.6452 5.11321 14.6502 4.32255C14.6552 3.5319 14.3472 2.77138 13.7934 2.20706Z" fill="#798CF2"/>
</svg>
